<svg width="235" height="150" viewBox="0 0 235 150" fill="none" xmlns="http://www.w3.org/2000/svg">
<path d="M222.424 68.8709C214.038 107.676 194.829 134.713 194.829 134.713L183.867 125.616L170.118 129.373C170.118 129.373 163.788 96.817 172.174 58.0115C180.56 19.206 198.379 8.94811 209.838 5.43906C218.808 13.3628 230.808 30.074 222.424 68.8709Z" fill="#00AEC7" stroke="#1B365D" stroke-width="1.30863" stroke-miterlimit="10"/>
<path d="M222.424 68.8709C214.038 107.676 194.829 134.713 194.829 134.713L183.867 125.616L170.118 129.373C170.118 129.373 163.788 96.817 172.174 58.0115C180.56 19.206 198.379 8.94811 209.838 5.43906C218.808 13.3628 230.808 30.074 222.424 68.8709Z" stroke="#1B365D" stroke-width="1.30863" stroke-miterlimit="10"/>
<path d="M217.321 87.684L169.062 77.255" stroke="#1B365D" stroke-width="1.30863" stroke-miterlimit="10"/>
<path d="M193.099 102.186C193.575 99.9856 192.177 97.8169 189.977 97.3415C187.777 96.8661 185.609 98.2641 185.133 100.464L182.44 112.927C181.964 115.126 183.362 117.295 185.562 117.771C187.762 118.246 189.931 116.848 190.406 114.648L193.099 102.186Z" fill="white" stroke="#1B365D" stroke-width="1.30863" stroke-miterlimit="10"/>
<path d="M193.099 102.186C193.575 99.9856 192.177 97.8169 189.977 97.3415C187.777 96.8661 185.609 98.2641 185.133 100.464L182.44 112.927C181.964 115.126 183.362 117.295 185.562 117.771C187.762 118.246 189.931 116.848 190.406 114.648L193.099 102.186Z" stroke="#1B365D" stroke-width="1.30863" stroke-miterlimit="10"/>
<path d="M183.869 125.608L185.563 117.77" stroke="#1B365D" stroke-width="1.30863" stroke-miterlimit="10"/>
<path d="M189.976 97.3503L209.84 5.43091" stroke="#1B365D" stroke-width="1.30863" stroke-miterlimit="10"/>
<path d="M60.5375 120.597C76.7425 118.379 88.0711 103.371 85.8408 87.0763C83.6105 70.7812 68.6657 59.3695 52.4607 61.5875C36.2557 63.8055 24.9271 78.8133 27.1574 95.1084C29.3877 111.404 44.3325 122.815 60.5375 120.597Z" fill="#00AEC7" stroke="#1B365D" stroke-width="2.18105" stroke-miterlimit="10"/>
<path d="M97.5123 92.9902C101.562 92.4359 104.393 88.6853 103.836 84.6131C103.278 80.5408 99.5436 77.6889 95.4939 78.2432C91.4441 78.7975 88.613 82.5481 89.1704 86.6203C89.7277 90.6926 93.4626 93.5445 97.5123 92.9902Z" stroke="#1B365D" stroke-width="2.18105" stroke-miterlimit="10"/>
<path d="M157.48 107.328C173.685 105.11 185.014 90.1026 182.783 73.8075C180.553 57.5124 165.608 46.1007 149.403 48.3187C133.198 50.5367 121.87 65.5445 124.1 81.8396C126.33 98.1347 141.275 109.546 157.48 107.328Z" fill="#00AEC7" stroke="#1B365D" stroke-width="2.18105" stroke-miterlimit="10"/>
<path d="M89.17 86.6204L59.4363 90.6901C58.0992 90.8732 57.0472 89.5621 57.5048 88.2893L71.0635 50.597C71.2598 50.053 71.7058 49.6344 72.2589 49.4789L132.413 32.3861" stroke="#1B365D" stroke-width="2.18105" stroke-miterlimit="10" stroke-linecap="round"/>
<path d="M153.441 77.8235L125.032 15.6501C124.634 14.775 124.954 13.7382 125.779 13.2512L136.596 6.83067C137.014 6.58374 137.512 6.50728 137.985 6.6241L143.896 8.06224" stroke="#1B365D" stroke-width="2.18105" stroke-miterlimit="10" stroke-linecap="round"/>
<path d="M95.4942 78.2433L56.7096 32.3538" stroke="#1B365D" stroke-width="2.18105" stroke-miterlimit="10" stroke-linecap="round"/>
<path d="M101.069 79.7687L125.158 46.5268C126.011 45.351 127.21 44.4746 128.587 44.0221L136.77 41.3397" stroke="#1B365D" stroke-width="2.18105" stroke-miterlimit="10" stroke-linecap="round"/>
<path d="M43.3184 30.1846L47.0544 32.1597C48.5346 32.9418 50.2222 33.2416 51.8789 33.0149L69.565 30.5942" stroke="#1B365D" stroke-width="2.33684" stroke-miterlimit="10" stroke-linecap="round"/>
<path d="M64.399 123.452C65.9995 134.561 54.8596 140.364 44.0535 142.471C33.2474 144.578 20.7514 143.384 18.0613 132.487C15.1782 120.816 22.9425 117.093 21.9703 111.62C21.3601 108.182 17.542 107.026 17.0477 100.353C16.3926 91.469 28.1517 87.8781 28.1517 87.8781C28.1517 87.8781 23.2974 62.9639 21.2827 52.6413C20.386 48.0286 18.438 44.3499 16.5545 41.6904C14.832 39.2501 16.2004 35.8551 19.1249 35.2816L26.8833 33.767C29.816 33.1929 32.3557 35.828 31.6779 38.7374C30.9316 41.9112 30.5033 46.0486 31.4 50.6613C33.4147 60.9839 38.2691 85.8981 38.2691 85.8981C38.2691 85.8981 50.5225 84.8054 53.2501 93.2822C55.3011 99.6518 52.188 102.158 52.9215 105.577C54.0818 111.008 62.6792 111.553 64.3908 123.452L64.399 123.452Z" fill="#00AEC7" stroke="#1B365D" stroke-width="1.30863" stroke-miterlimit="10"/>
<path d="M64.399 123.452C65.9995 134.561 54.8596 140.364 44.0535 142.471C33.2474 144.578 20.7514 143.384 18.0613 132.487C15.1782 120.816 22.9425 117.093 21.9703 111.62C21.3601 108.182 17.542 107.026 17.0477 100.353C16.3926 91.469 28.1517 87.8781 28.1517 87.8781C28.1517 87.8781 23.2974 62.9639 21.2827 52.6413C20.386 48.0286 18.438 44.3499 16.5545 41.6904C14.832 39.2501 16.2004 35.8551 19.125 35.2816L26.8833 33.767C29.816 33.1929 32.3557 35.828 31.6779 38.7374C30.9316 41.9111 30.5033 46.0486 31.4 50.6613C33.4147 60.9839 38.2691 85.8981 38.2691 85.8981C38.2691 85.8981 50.5225 84.8054 53.2501 93.2822C55.3011 99.6517 52.188 102.158 52.9215 105.577C54.0818 111.008 62.6792 111.553 64.3908 123.452L64.399 123.452Z" stroke="#1B365D" stroke-width="1.30863" stroke-miterlimit="10"/>
<path d="M11.7573 121.916L12.0473 123.415C12.2419 124.398 13.1989 125.048 14.1817 124.853L18.0319 124.098" stroke="#1B365D" stroke-width="1.30863" stroke-miterlimit="10"/>
<path d="M8.54398 105.416L8.25398 103.916C8.05934 102.934 8.7086 101.977 9.69146 101.782L17.0482 100.344" stroke="#1B365D" stroke-width="1.30863" stroke-miterlimit="10"/>
<path d="M9.28127 105.277L7.79025 105.567C6.87228 105.746 6.27315 106.635 6.45207 107.553L9.01987 120.729C9.19879 121.647 10.088 122.246 11.006 122.067L12.497 121.776C13.415 121.597 14.0141 120.708 13.8352 119.79L11.2674 106.615C11.0884 105.697 10.1992 105.098 9.28127 105.277Z" fill="#00AEC7" stroke="#1B365D" stroke-width="1.30863" stroke-miterlimit="10"/>
<path d="M9.28127 105.277L7.79025 105.567C6.87228 105.746 6.27315 106.635 6.45207 107.553L9.01987 120.729C9.19879 121.647 10.088 122.246 11.006 122.067L12.497 121.776C13.415 121.597 14.0141 120.708 13.8352 119.79L11.2674 106.615C11.0884 105.697 10.1992 105.098 9.28127 105.277Z" stroke="#1B365D" stroke-width="1.30863" stroke-miterlimit="10"/>
<path d="M45.7493 106.055L28.8102 109.357L30.0632 115.785L47.0022 112.484L45.7493 106.055Z" fill="white" stroke="#1B365D" stroke-width="1.30863" stroke-miterlimit="10"/>
<path d="M43.78 113.101L33.2694 115.15L35.5609 126.907L46.0714 124.859L43.78 113.101Z" fill="white" stroke="#1B365D" stroke-width="1.30863" stroke-miterlimit="10"/>
<path d="M45.7493 106.055L28.8102 109.357L30.0632 115.785L47.0022 112.484L45.7493 106.055Z" stroke="#1B365D" stroke-width="1.30863" stroke-miterlimit="10"/>
<path d="M43.78 113.101L33.2694 115.15L35.5609 126.907L46.0714 124.859L43.78 113.101Z" stroke="#1B365D" stroke-width="1.30863" stroke-miterlimit="10"/>
<rect x="61.5368" y="86.4632" width="104.379" height="52.9684" rx="0.778947" fill="#00AEC7" stroke="#1B365D" stroke-width="1.55789"/>
<line x1="113.726" y1="140.21" x2="113.726" y2="148" stroke="#1B365D" stroke-width="3.11579"/>
<path d="M124.632 148H101.263" stroke="#1B365D" stroke-width="2.33684" stroke-linecap="round"/>
<path d="M195.259 147.322C198.996 147.322 202.025 144.292 202.025 140.556C202.025 136.819 198.996 133.79 195.259 133.79C191.523 133.79 188.494 136.819 188.494 140.556C188.494 144.292 191.523 147.322 195.259 147.322Z" stroke="#1B365D" stroke-width="1.30863" stroke-miterlimit="10"/>
<path d="M179.786 80.5416L197.414 84.8454L184.323 138.464L174.59 136.088C170.235 135.024 167.559 130.62 168.622 126.265L179.786 80.5416Z" fill="white" stroke="#1B365D" stroke-width="1.30863" stroke-miterlimit="10"/>
<path d="M195.26 93.7457V129.465C193.492 129.465 191.815 129.88 190.329 130.619C187.473 132.03 185.315 134.645 184.502 137.799L184.485 137.882" fill="white"/>
<path d="M195.26 93.7457V129.465C193.492 129.465 191.815 129.88 190.329 130.619C187.473 132.03 185.315 134.645 184.502 137.799L184.485 137.882" stroke="#1B365D" stroke-width="1.30863" stroke-miterlimit="10"/>
<path d="M168.979 127.966L174.432 102.066V100.703L179.884 102.066L182.611 104.792V108.882L177.158 136.145H175.795L171.705 134.782L168.979 130.692V127.966Z" fill="#00AEC7"/>
<path d="M195.259 141.618C195.845 141.618 196.321 141.142 196.321 140.555C196.321 139.969 195.845 139.493 195.259 139.493C194.672 139.493 194.196 139.969 194.196 140.555C194.196 141.142 194.672 141.618 195.259 141.618Z" stroke="#1B365D" stroke-width="1.30863" stroke-miterlimit="10"/>
<path d="M194.879 93.8872L197.605 92.524L208.511 95.2504L209.874 97.9767L208.511 100.703H205.784L194.879 97.9767V93.8872Z" fill="#00AEC7"/>
<path d="M179.786 80.5416L197.414 84.8454L184.323 138.464L174.59 136.088C170.235 135.024 167.559 130.62 168.622 126.265L179.786 80.5416Z" stroke="#1B365D" stroke-width="1.30863" stroke-miterlimit="10"/>
<path d="M174.747 101.234L178.275 102.097C181.711 102.935 183.82 106.405 182.981 109.842L176.465 136.538" stroke="#1B365D" stroke-width="1.30863" stroke-miterlimit="10"/>
<path d="M177.686 89.2056L195.317 93.5139" stroke="#1B365D" stroke-width="1.30863" stroke-miterlimit="10"/>
<path d="M195.26 93.7457V129.465C193.492 129.465 191.815 129.88 190.329 130.619C187.473 132.03 185.315 134.645 184.502 137.799L184.485 137.882" stroke="#1B365D" stroke-width="1.30863" stroke-miterlimit="10"/>
<path d="M205.455 61.862L196.504 59.6765C195.426 59.4134 194.339 60.0738 194.076 61.1517C193.812 62.2295 194.473 63.3166 195.551 63.5797L204.502 65.7652C205.58 66.0283 206.667 65.3679 206.93 64.2901C207.193 63.2122 206.533 62.1251 205.455 61.862Z" fill="#00AEC7" stroke="#1B365D" stroke-width="1.30863" stroke-miterlimit="10"/>
<path d="M180.409 66.7578L189.274 69.2697C190.341 69.5722 191.452 68.952 191.754 67.8846C192.057 66.8171 191.437 65.7066 190.369 65.4041L181.504 62.8922C180.437 62.5897 179.326 63.2099 179.024 64.2774C178.721 65.3448 179.341 66.4554 180.409 66.7578Z" fill="#00AEC7" stroke="#1B365D" stroke-width="1.30863" stroke-miterlimit="10"/>
<path d="M196.912 92.4266L207.496 95C209.04 95.3819 209.986 96.9342 209.613 98.4783C209.239 100.014 207.678 100.96 206.134 100.587L195.252 97.9304" stroke="#1B365D" stroke-width="1.30863" stroke-miterlimit="10"/>
<path d="M205.455 61.862L196.504 59.6765C195.426 59.4134 194.339 60.0738 194.076 61.1517C193.812 62.2295 194.473 63.3166 195.551 63.5797L204.502 65.7652C205.58 66.0283 206.667 65.3679 206.93 64.2901C207.193 63.2122 206.533 62.1251 205.455 61.862Z" stroke="#1B365D" stroke-width="1.30863" stroke-miterlimit="10"/>
<path d="M196.895 63.8959L192.097 83.5367" stroke="#1B365D" stroke-width="1.30863" stroke-miterlimit="10"/>
<path d="M180.409 66.7578L189.274 69.2697C190.341 69.5722 191.452 68.952 191.754 67.8846C192.057 66.8171 191.437 65.7066 190.369 65.4041L181.504 62.8922C180.437 62.5897 179.326 63.2099 179.024 64.2774C178.721 65.3448 179.341 66.4554 180.409 66.7578Z" stroke="#1B365D" stroke-width="1.30863" stroke-miterlimit="10"/>
<path d="M187.97 68.9015L184.351 81.6523" stroke="#1B365D" stroke-width="1.30863" stroke-miterlimit="10"/>
</svg>
