<svg width="166" height="38" viewBox="0 0 166 38" fill="none" xmlns="http://www.w3.org/2000/svg">
    <path
        d="M5.7021 5.40439C5.66475 5.46664 5.62325 5.51437 5.5776 5.54757C5.5361 5.57662 5.48423 5.59114 5.42198 5.59114C5.35143 5.59114 5.26843 5.55587 5.17298 5.48532C5.07753 5.41477 4.95718 5.33799 4.81193 5.25499C4.67083 5.16784 4.4986 5.08899 4.29525 5.01844C4.09605 4.94789 3.85328 4.91262 3.56693 4.91262C3.29718 4.91262 3.05855 4.94997 2.85105 5.02467C2.6477 5.09522 2.47548 5.19274 2.33438 5.31724C2.19743 5.44174 2.09368 5.58907 2.02313 5.75922C1.95258 5.92522 1.9173 6.10574 1.9173 6.30079C1.9173 6.54979 1.97748 6.75729 2.09783 6.92329C2.22233 7.08514 2.38418 7.22417 2.58338 7.34037C2.78673 7.45657 3.01498 7.55824 3.26813 7.64539C3.52543 7.72839 3.78688 7.81554 4.05248 7.90684C4.32223 7.99814 4.58368 8.10189 4.83683 8.21809C5.09413 8.33014 5.32238 8.47332 5.52158 8.64762C5.72493 8.82192 5.88678 9.03564 6.00713 9.28879C6.13163 9.54194 6.19388 9.85319 6.19388 10.2225C6.19388 10.6126 6.12748 10.9799 5.99468 11.3244C5.86188 11.6647 5.66683 11.9614 5.40953 12.2145C5.15638 12.4677 4.84305 12.6669 4.46955 12.8121C4.1002 12.9574 3.67898 13.03 3.20588 13.03C2.62488 13.03 2.09783 12.9263 1.62473 12.7188C1.15163 12.5071 0.747 12.2228 0.41085 11.8659L0.75945 11.2932C0.79265 11.2476 0.832075 11.2102 0.877725 11.1812C0.927525 11.148 0.981475 11.1314 1.03958 11.1314C1.09353 11.1314 1.1537 11.1542 1.2201 11.1999C1.29065 11.2414 1.3695 11.2953 1.45665 11.3617C1.5438 11.4281 1.6434 11.5007 1.75545 11.5796C1.8675 11.6584 1.99408 11.7311 2.13518 11.7975C2.28043 11.8639 2.44435 11.9199 2.62695 11.9655C2.80955 12.007 3.01498 12.0278 3.24323 12.0278C3.52958 12.0278 3.7848 11.9884 4.0089 11.9095C4.233 11.8307 4.42183 11.7207 4.57538 11.5796C4.73308 11.4343 4.85343 11.2621 4.93643 11.0629C5.01943 10.8637 5.06093 10.6417 5.06093 10.3968C5.06093 10.1271 4.99868 9.90714 4.87418 9.73699C4.75383 9.56269 4.59405 9.41744 4.39485 9.30124C4.19565 9.18504 3.9674 9.08752 3.7101 9.00867C3.4528 8.92567 3.19135 8.84267 2.92575 8.75967C2.66015 8.67252 2.3987 8.57292 2.1414 8.46087C1.8841 8.34882 1.65585 8.20357 1.45665 8.02512C1.25745 7.84667 1.0956 7.62464 0.9711 7.35904C0.85075 7.08929 0.790575 6.75729 0.790575 6.36304C0.790575 6.04764 0.85075 5.74262 0.9711 5.44797C1.0956 5.15332 1.27405 4.89187 1.50645 4.66362C1.743 4.43537 2.03143 4.25277 2.37173 4.11582C2.71618 3.97887 3.11043 3.91039 3.55448 3.91039C4.05248 3.91039 4.50483 3.98924 4.91153 4.14694C5.32238 4.30464 5.68343 4.53289 5.99468 4.83169L5.7021 5.40439ZM11.8218 9.08959C11.8218 8.83229 11.7844 8.59782 11.7097 8.38617C11.6392 8.17037 11.5333 7.98569 11.3922 7.83214C11.2553 7.67444 11.0872 7.55409 10.888 7.47109C10.6888 7.38394 10.4626 7.34037 10.2095 7.34037C9.67829 7.34037 9.25706 7.49599 8.94581 7.80724C8.63871 8.11434 8.44781 8.54179 8.37311 9.08959H11.8218ZM12.7182 12.0465C12.5812 12.2125 12.4173 12.3577 12.2264 12.4822C12.0355 12.6026 11.8301 12.7022 11.6101 12.781C11.3943 12.8599 11.1702 12.918 10.9378 12.9553C10.7054 12.9968 10.4751 13.0176 10.2468 13.0176C9.81109 13.0176 9.40854 12.9449 9.03919 12.7997C8.67399 12.6503 8.35651 12.4345 8.08676 12.1523C7.82116 11.8659 7.61366 11.5132 7.46426 11.094C7.31486 10.6749 7.24016 10.1935 7.24016 9.64984C7.24016 9.20994 7.30656 8.79909 7.43936 8.41729C7.57631 8.03549 7.77136 7.70557 8.02451 7.42752C8.27766 7.14532 8.58684 6.92537 8.95204 6.76767C9.31724 6.60582 9.72809 6.52489 10.1846 6.52489C10.5622 6.52489 10.9108 6.58922 11.2304 6.71787C11.5541 6.84237 11.8321 7.02497 12.0645 7.26567C12.3011 7.50222 12.4858 7.79687 12.6186 8.14962C12.7514 8.49822 12.8178 8.89662 12.8178 9.34482C12.8178 9.51912 12.7991 9.63532 12.7617 9.69342C12.7244 9.75152 12.6538 9.78057 12.5501 9.78057H8.33576C8.34821 10.179 8.40216 10.5255 8.49761 10.8201C8.59721 11.1148 8.73416 11.3617 8.90846 11.5609C9.08276 11.756 9.29026 11.9033 9.53096 12.0029C9.77166 12.0983 10.0414 12.1461 10.3402 12.1461C10.6183 12.1461 10.8569 12.1149 11.0561 12.0527C11.2594 11.9863 11.4337 11.9157 11.579 11.841C11.7242 11.7663 11.8446 11.6979 11.94 11.6356C12.0396 11.5692 12.1247 11.536 12.1953 11.536C12.2866 11.536 12.3571 11.5713 12.4069 11.6418L12.7182 12.0465ZM16.3762 9.84904C16.6003 9.84904 16.7975 9.81792 16.9676 9.75567C17.1378 9.69342 17.2809 9.60627 17.3971 9.49422C17.5133 9.38217 17.6005 9.24937 17.6586 9.09582C17.7167 8.93812 17.7457 8.76589 17.7457 8.57914C17.7457 8.19319 17.6275 7.88609 17.3909 7.65784C17.1585 7.42959 16.8203 7.31547 16.3762 7.31547C15.928 7.31547 15.5857 7.42959 15.3491 7.65784C15.1167 7.88609 15.0005 8.19319 15.0005 8.57914C15.0005 8.76589 15.0296 8.93812 15.0877 9.09582C15.1499 9.24937 15.2391 9.38217 15.3553 9.49422C15.4715 9.60627 15.6147 9.69342 15.7849 9.75567C15.955 9.81792 16.1521 9.84904 16.3762 9.84904ZM18.3745 13.2728C18.3745 13.1192 18.3309 12.9947 18.2437 12.8993C18.1566 12.8038 18.0383 12.7291 17.8889 12.6752C17.7437 12.6212 17.5735 12.5839 17.3785 12.5631C17.1834 12.5382 16.9759 12.5196 16.756 12.5071C16.5402 12.4947 16.3202 12.4822 16.0961 12.4698C15.872 12.4573 15.6562 12.4366 15.4487 12.4075C15.2163 12.5154 15.0254 12.6524 14.876 12.8184C14.7308 12.9802 14.6581 13.1711 14.6581 13.3911C14.6581 13.5322 14.6934 13.6629 14.764 13.7832C14.8387 13.9077 14.9507 14.0136 15.1001 14.1007C15.2495 14.192 15.4363 14.2626 15.6604 14.3124C15.8886 14.3663 16.1563 14.3933 16.4634 14.3933C16.7622 14.3933 17.0299 14.3663 17.2664 14.3124C17.503 14.2584 17.7022 14.1816 17.864 14.082C18.03 13.9824 18.1566 13.8642 18.2437 13.7272C18.3309 13.5903 18.3745 13.4388 18.3745 13.2728ZM19.5012 6.87349V7.28434C19.5012 7.42129 19.414 7.50844 19.2397 7.54579L18.5239 7.63917C18.665 7.91307 18.7355 8.21602 18.7355 8.54802C18.7355 8.85512 18.6753 9.13524 18.555 9.38839C18.4388 9.63739 18.2769 9.85112 18.0694 10.0296C17.8619 10.208 17.6129 10.345 17.3224 10.4404C17.0319 10.5359 16.7165 10.5836 16.3762 10.5836C16.0816 10.5836 15.8035 10.5483 15.5421 10.4778C15.4093 10.5608 15.3076 10.65 15.2371 10.7454C15.1665 10.8367 15.1312 10.9301 15.1312 11.0256C15.1312 11.175 15.1914 11.2891 15.3118 11.3679C15.4363 11.4426 15.5981 11.4966 15.7973 11.5298C15.9965 11.563 16.2227 11.5837 16.4758 11.592C16.7331 11.6003 16.9946 11.6149 17.2602 11.6356C17.5299 11.6522 17.7914 11.6833 18.0445 11.729C18.3018 11.7746 18.5301 11.8493 18.7293 11.9531C18.9285 12.0568 19.0883 12.2 19.2086 12.3826C19.3331 12.5652 19.3954 12.8018 19.3954 13.0923C19.3954 13.362 19.3269 13.6235 19.1899 13.8766C19.0571 14.1298 18.8642 14.3539 18.611 14.5489C18.3579 14.7481 18.0466 14.9058 17.6773 15.022C17.3121 15.1424 16.8991 15.2025 16.4385 15.2025C15.9778 15.2025 15.5753 15.1569 15.2308 15.0656C14.8864 14.9743 14.6 14.8519 14.3718 14.6983C14.1435 14.5448 13.9713 14.3663 13.8551 14.163C13.7431 13.9638 13.687 13.7542 13.687 13.5342C13.687 13.223 13.7846 12.9595 13.9796 12.7437C14.1747 12.5279 14.4423 12.3556 14.7826 12.227C14.5959 12.144 14.4465 12.034 14.3344 11.8971C14.2265 11.756 14.1726 11.5671 14.1726 11.3306C14.1726 11.2393 14.1892 11.1459 14.2224 11.0505C14.2556 10.9509 14.3054 10.8533 14.3718 10.7579C14.4423 10.6583 14.5274 10.5649 14.627 10.4778C14.7266 10.3906 14.8428 10.3138 14.9756 10.2474C14.6644 10.0731 14.4216 9.84282 14.2473 9.55647C14.073 9.26597 13.9858 8.92982 13.9858 8.54802C13.9858 8.24092 14.0439 7.96287 14.1601 7.71387C14.2805 7.46072 14.4465 7.24699 14.6581 7.07269C14.8698 6.89424 15.1209 6.75729 15.4114 6.66184C15.706 6.56639 16.0276 6.51867 16.3762 6.51867C16.6501 6.51867 16.9054 6.54979 17.1419 6.61204C17.3785 6.67014 17.5943 6.75729 17.7893 6.87349H19.5012ZM25.8324 6.62449V12.9304H25.1725C25.0148 12.9304 24.9152 12.8536 24.8737 12.7001L24.7866 12.0216C24.5127 12.3245 24.2056 12.5694 23.8653 12.7561C23.525 12.9387 23.1349 13.03 22.695 13.03C22.3505 13.03 22.0455 12.974 21.7799 12.8619C21.5185 12.7457 21.2985 12.5839 21.1201 12.3764C20.9416 12.1689 20.8067 11.9178 20.7154 11.6232C20.6283 11.3285 20.5847 11.0027 20.5847 10.6458V6.62449H21.6928V10.6458C21.6928 11.1231 21.8007 11.4924 22.0165 11.7539C22.2364 12.0153 22.5705 12.1461 23.0187 12.1461C23.3465 12.1461 23.6516 12.0693 23.9338 11.9157C24.2201 11.758 24.4836 11.5422 24.7243 11.2683V6.62449H25.8324ZM28.6413 7.88817C28.8405 7.45657 29.0854 7.12042 29.3759 6.87972C29.6664 6.63487 30.0212 6.51244 30.4404 6.51244C30.5732 6.51244 30.6997 6.52697 30.8201 6.55602C30.9446 6.58507 31.0546 6.63072 31.15 6.69297L31.0691 7.52089C31.0442 7.62464 30.9819 7.67652 30.8823 7.67652C30.8242 7.67652 30.7392 7.66407 30.6271 7.63917C30.5151 7.61427 30.3885 7.60182 30.2474 7.60182C30.0482 7.60182 29.8697 7.63087 29.712 7.68897C29.5585 7.74707 29.4195 7.83422 29.295 7.95042C29.1746 8.06247 29.0646 8.20357 28.965 8.37372C28.8696 8.53972 28.7824 8.73062 28.7036 8.94642V12.9304H27.5893V6.62449H28.2243C28.3446 6.62449 28.4276 6.64732 28.4733 6.69297C28.5189 6.73862 28.55 6.81747 28.5666 6.92952L28.6413 7.88817ZM34.5271 6.52489C34.9877 6.52489 35.4027 6.60167 35.7721 6.75522C36.1414 6.90877 36.4568 7.12664 36.7183 7.40884C36.9797 7.69104 37.1789 8.03342 37.3159 8.43597C37.457 8.83437 37.5275 9.28049 37.5275 9.77434C37.5275 10.2723 37.457 10.7205 37.3159 11.1189C37.1789 11.5173 36.9797 11.8576 36.7183 12.1398C36.4568 12.422 36.1414 12.6399 35.7721 12.7935C35.4027 12.9429 34.9877 13.0176 34.5271 13.0176C34.0623 13.0176 33.6431 12.9429 33.2696 12.7935C32.9003 12.6399 32.5849 12.422 32.3234 12.1398C32.062 11.8576 31.8607 11.5173 31.7196 11.1189C31.5826 10.7205 31.5142 10.2723 31.5142 9.77434C31.5142 9.28049 31.5826 8.83437 31.7196 8.43597C31.8607 8.03342 32.062 7.69104 32.3234 7.40884C32.5849 7.12664 32.9003 6.90877 33.2696 6.75522C33.6431 6.60167 34.0623 6.52489 34.5271 6.52489ZM34.5271 12.1523C35.1496 12.1523 35.6144 11.9448 35.9215 11.5298C36.2286 11.1106 36.3821 10.5276 36.3821 9.78057C36.3821 9.02942 36.2286 8.44427 35.9215 8.02512C35.6144 7.60597 35.1496 7.39639 34.5271 7.39639C34.2117 7.39639 33.9357 7.45034 33.6991 7.55824C33.4667 7.66614 33.2717 7.82177 33.114 8.02512C32.9604 8.22847 32.8442 8.47954 32.7654 8.77834C32.6907 9.07299 32.6533 9.40707 32.6533 9.78057C32.6533 10.5276 32.8069 11.1106 33.114 11.5298C33.4252 11.9448 33.8963 12.1523 34.5271 12.1523ZM46.3389 9.08959C46.3389 8.83229 46.3016 8.59782 46.2269 8.38617C46.1563 8.17037 46.0505 7.98569 45.9094 7.83214C45.7724 7.67444 45.6044 7.55409 45.4052 7.47109C45.206 7.38394 44.9798 7.34037 44.7266 7.34037C44.1954 7.34037 43.7742 7.49599 43.463 7.80724C43.1559 8.11434 42.965 8.54179 42.8903 9.08959H46.3389ZM47.2353 12.0465C47.0984 12.2125 46.9344 12.3577 46.7435 12.4822C46.5526 12.6026 46.3472 12.7022 46.1273 12.781C45.9115 12.8599 45.6874 12.918 45.455 12.9553C45.2226 12.9968 44.9922 13.0176 44.764 13.0176C44.3282 13.0176 43.9257 12.9449 43.5563 12.7997C43.1911 12.6503 42.8737 12.4345 42.6039 12.1523C42.3383 11.8659 42.1308 11.5132 41.9814 11.094C41.832 10.6749 41.7573 10.1935 41.7573 9.64984C41.7573 9.20994 41.8237 8.79909 41.9565 8.41729C42.0935 8.03549 42.2885 7.70557 42.5417 7.42752C42.7948 7.14532 43.104 6.92537 43.4692 6.76767C43.8344 6.60582 44.2452 6.52489 44.7017 6.52489C45.0794 6.52489 45.428 6.58922 45.7475 6.71787C46.0712 6.84237 46.3493 7.02497 46.5817 7.26567C46.8182 7.50222 47.0029 7.79687 47.1357 8.14962C47.2685 8.49822 47.3349 8.89662 47.3349 9.34482C47.3349 9.51912 47.3162 9.63532 47.2789 9.69342C47.2415 9.75152 47.171 9.78057 47.0672 9.78057H42.8529C42.8654 10.179 42.9193 10.5255 43.0148 10.8201C43.1144 11.1148 43.2513 11.3617 43.4256 11.5609C43.5999 11.756 43.8074 11.9033 44.0481 12.0029C44.2888 12.0983 44.5586 12.1461 44.8574 12.1461C45.1354 12.1461 45.374 12.1149 45.5732 12.0527C45.7766 11.9863 45.9509 11.9157 46.0961 11.841C46.2414 11.7663 46.3617 11.6979 46.4572 11.6356C46.5568 11.5692 46.6419 11.536 46.7124 11.536C46.8037 11.536 46.8743 11.5713 46.9241 11.6418L47.2353 12.0465ZM49.7417 7.53957C49.8787 7.38602 50.0239 7.24699 50.1775 7.12249C50.331 6.99799 50.4929 6.89217 50.663 6.80502C50.8373 6.71372 51.0199 6.64524 51.2108 6.59959C51.4059 6.54979 51.6155 6.52489 51.8396 6.52489C52.184 6.52489 52.487 6.58299 52.7484 6.69919C53.014 6.81124 53.234 6.97309 53.4083 7.18474C53.5867 7.39224 53.7216 7.64332 53.8129 7.93797C53.9042 8.23262 53.9498 8.55839 53.9498 8.91529V12.9304H52.8356V8.91529C52.8356 8.43804 52.7256 8.06869 52.5056 7.80724C52.2898 7.54164 51.9599 7.40884 51.5159 7.40884C51.188 7.40884 50.8809 7.48769 50.5946 7.64539C50.3124 7.80309 50.0509 8.01682 49.8102 8.28657V12.9304H48.6959V6.62449H49.362C49.5197 6.62449 49.6172 6.70127 49.6546 6.85482L49.7417 7.53957ZM57.4891 13.03C56.9911 13.03 56.6073 12.891 56.3375 12.6129C56.0719 12.3349 55.9391 11.9344 55.9391 11.4115V7.55202H55.1797C55.1133 7.55202 55.0572 7.53334 55.0116 7.49599C54.9659 7.45449 54.9431 7.39224 54.9431 7.30924V6.86727L55.9765 6.73654L56.2317 4.78812C56.2441 4.72587 56.2711 4.67607 56.3126 4.63872C56.3583 4.59722 56.4164 4.57647 56.4869 4.57647H57.0472V6.74899H58.8711V7.55202H57.0472V11.3368C57.0472 11.6024 57.1115 11.7995 57.2401 11.9282C57.3688 12.0568 57.5348 12.1212 57.7381 12.1212C57.8543 12.1212 57.9539 12.1066 58.0369 12.0776C58.1241 12.0444 58.1988 12.0091 58.261 11.9718C58.3233 11.9344 58.3752 11.9012 58.4167 11.8722C58.4623 11.839 58.5017 11.8224 58.5349 11.8224C58.593 11.8224 58.6449 11.8576 58.6906 11.9282L59.0143 12.4573C58.8234 12.6358 58.593 12.7769 58.3233 12.8806C58.0535 12.9802 57.7755 13.03 57.4891 13.03ZM61.0673 7.88817C61.2665 7.45657 61.5113 7.12042 61.8018 6.87972C62.0923 6.63487 62.4471 6.51244 62.8663 6.51244C62.9991 6.51244 63.1257 6.52697 63.246 6.55602C63.3705 6.58507 63.4805 6.63072 63.5759 6.69297L63.495 7.52089C63.4701 7.62464 63.4079 7.67652 63.3083 7.67652C63.2502 7.67652 63.1651 7.66407 63.053 7.63917C62.941 7.61427 62.8144 7.60182 62.6733 7.60182C62.4741 7.60182 62.2957 7.63087 62.138 7.68897C61.9844 7.74707 61.8454 7.83422 61.7209 7.95042C61.6005 8.06247 61.4906 8.20357 61.391 8.37372C61.2955 8.53972 61.2084 8.73062 61.1295 8.94642V12.9304H60.0152V6.62449H60.6502C60.7705 6.62449 60.8535 6.64732 60.8992 6.69297C60.9448 6.73862 60.976 6.81747 60.9926 6.92952L61.0673 7.88817ZM68.5155 9.08959C68.5155 8.83229 68.4781 8.59782 68.4034 8.38617C68.3329 8.17037 68.227 7.98569 68.0859 7.83214C67.949 7.67444 67.7809 7.55409 67.5817 7.47109C67.3825 7.38394 67.1563 7.34037 66.9032 7.34037C66.372 7.34037 65.9508 7.49599 65.6395 7.80724C65.3324 8.11434 65.1415 8.54179 65.0668 9.08959H68.5155ZM69.4119 12.0465C69.2749 12.2125 69.111 12.3577 68.9201 12.4822C68.7292 12.6026 68.5238 12.7022 68.3038 12.781C68.088 12.8599 67.8639 12.918 67.6315 12.9553C67.3991 12.9968 67.1688 13.0176 66.9405 13.0176C66.5048 13.0176 66.1022 12.9449 65.7329 12.7997C65.3677 12.6503 65.0502 12.4345 64.7805 12.1523C64.5149 11.8659 64.3074 11.5132 64.158 11.094C64.0086 10.6749 63.9339 10.1935 63.9339 9.64984C63.9339 9.20994 64.0003 8.79909 64.1331 8.41729C64.27 8.03549 64.4651 7.70557 64.7182 7.42752C64.9714 7.14532 65.2805 6.92537 65.6457 6.76767C66.0109 6.60582 66.4218 6.52489 66.8783 6.52489C67.2559 6.52489 67.6045 6.58922 67.9241 6.71787C68.2478 6.84237 68.5258 7.02497 68.7582 7.26567C68.9948 7.50222 69.1795 7.79687 69.3123 8.14962C69.4451 8.49822 69.5115 8.89662 69.5115 9.34482C69.5115 9.51912 69.4928 9.63532 69.4554 9.69342C69.4181 9.75152 69.3475 9.78057 69.2438 9.78057H65.0295C65.0419 10.179 65.0959 10.5255 65.1913 10.8201C65.2909 11.1148 65.4279 11.3617 65.6022 11.5609C65.7765 11.756 65.984 11.9033 66.2247 12.0029C66.4654 12.0983 66.7351 12.1461 67.0339 12.1461C67.312 12.1461 67.5506 12.1149 67.7498 12.0527C67.9531 11.9863 68.1274 11.9157 68.2727 11.841C68.4179 11.7663 68.5383 11.6979 68.6337 11.6356C68.7333 11.5692 68.8184 11.536 68.889 11.536C68.9803 11.536 69.0508 11.5713 69.1006 11.6418L69.4119 12.0465ZM73.0699 9.84904C73.294 9.84904 73.4912 9.81792 73.6613 9.75567C73.8315 9.69342 73.9746 9.60627 74.0908 9.49422C74.207 9.38217 74.2942 9.24937 74.3523 9.09582C74.4104 8.93812 74.4394 8.76589 74.4394 8.57914C74.4394 8.19319 74.3212 7.88609 74.0846 7.65784C73.8522 7.42959 73.514 7.31547 73.0699 7.31547C72.6217 7.31547 72.2794 7.42959 72.0428 7.65784C71.8104 7.88609 71.6942 8.19319 71.6942 8.57914C71.6942 8.76589 71.7233 8.93812 71.7814 9.09582C71.8436 9.24937 71.9328 9.38217 72.049 9.49422C72.1652 9.60627 72.3084 9.69342 72.4786 9.75567C72.6487 9.81792 72.8458 9.84904 73.0699 9.84904ZM75.0682 13.2728C75.0682 13.1192 75.0246 12.9947 74.9374 12.8993C74.8503 12.8038 74.732 12.7291 74.5826 12.6752C74.4374 12.6212 74.2672 12.5839 74.0722 12.5631C73.8771 12.5382 73.6696 12.5196 73.4497 12.5071C73.2339 12.4947 73.0139 12.4822 72.7898 12.4698C72.5657 12.4573 72.3499 12.4366 72.1424 12.4075C71.91 12.5154 71.7191 12.6524 71.5697 12.8184C71.4245 12.9802 71.3518 13.1711 71.3518 13.3911C71.3518 13.5322 71.3871 13.6629 71.4577 13.7832C71.5324 13.9077 71.6444 14.0136 71.7938 14.1007C71.9432 14.192 72.13 14.2626 72.3541 14.3124C72.5823 14.3663 72.85 14.3933 73.1571 14.3933C73.4559 14.3933 73.7236 14.3663 73.9601 14.3124C74.1967 14.2584 74.3959 14.1816 74.5577 14.082C74.7237 13.9824 74.8503 13.8642 74.9374 13.7272C75.0246 13.5903 75.0682 13.4388 75.0682 13.2728ZM76.1949 6.87349V7.28434C76.1949 7.42129 76.1077 7.50844 75.9334 7.54579L75.2176 7.63917C75.3587 7.91307 75.4292 8.21602 75.4292 8.54802C75.4292 8.85512 75.369 9.13524 75.2487 9.38839C75.1325 9.63739 74.9706 9.85112 74.7631 10.0296C74.5556 10.208 74.3066 10.345 74.0161 10.4404C73.7256 10.5359 73.4102 10.5836 73.0699 10.5836C72.7753 10.5836 72.4972 10.5483 72.2358 10.4778C72.103 10.5608 72.0013 10.65 71.9308 10.7454C71.8602 10.8367 71.8249 10.9301 71.8249 11.0256C71.8249 11.175 71.8851 11.2891 72.0055 11.3679C72.13 11.4426 72.2918 11.4966 72.491 11.5298C72.6902 11.563 72.9164 11.5837 73.1695 11.592C73.4268 11.6003 73.6883 11.6149 73.9539 11.6356C74.2236 11.6522 74.4851 11.6833 74.7382 11.729C74.9955 11.7746 75.2238 11.8493 75.423 11.9531C75.6222 12.0568 75.782 12.2 75.9023 12.3826C76.0268 12.5652 76.0891 12.8018 76.0891 13.0923C76.0891 13.362 76.0206 13.6235 75.8836 13.8766C75.7508 14.1298 75.5579 14.3539 75.3047 14.5489C75.0516 14.7481 74.7403 14.9058 74.371 15.022C74.0058 15.1424 73.5928 15.2025 73.1322 15.2025C72.6715 15.2025 72.269 15.1569 71.9245 15.0656C71.5801 14.9743 71.2937 14.8519 71.0655 14.6983C70.8372 14.5448 70.665 14.3663 70.5488 14.163C70.4368 13.9638 70.3807 13.7542 70.3807 13.5342C70.3807 13.223 70.4783 12.9595 70.6733 12.7437C70.8684 12.5279 71.136 12.3556 71.4763 12.227C71.2896 12.144 71.1402 12.034 71.0281 11.8971C70.9202 11.756 70.8663 11.5671 70.8663 11.3306C70.8663 11.2393 70.8829 11.1459 70.9161 11.0505C70.9493 10.9509 70.9991 10.8533 71.0655 10.7579C71.136 10.6583 71.2211 10.5649 71.3207 10.4778C71.4203 10.3906 71.5365 10.3138 71.6693 10.2474C71.3581 10.0731 71.1153 9.84282 70.941 9.55647C70.7667 9.26597 70.6795 8.92982 70.6795 8.54802C70.6795 8.24092 70.7376 7.96287 70.8538 7.71387C70.9742 7.46072 71.1402 7.24699 71.3518 7.07269C71.5635 6.89424 71.8146 6.75729 72.1051 6.66184C72.3997 6.56639 72.7213 6.51867 73.0699 6.51867C73.3438 6.51867 73.5991 6.54979 73.8356 6.61204C74.0722 6.67014 74.288 6.75729 74.483 6.87349H76.1949ZM80.7582 10.0918C80.2478 10.1084 79.812 10.1499 79.451 10.2163C79.0941 10.2786 78.8015 10.3616 78.5732 10.4653C78.3491 10.5691 78.1852 10.6915 78.0815 10.8326C77.9819 10.9737 77.9321 11.1314 77.9321 11.3057C77.9321 11.4717 77.959 11.6149 78.013 11.7352C78.0669 11.8556 78.1396 11.9552 78.2309 12.034C78.3263 12.1087 78.4363 12.1647 78.5608 12.2021C78.6894 12.2353 78.8264 12.2519 78.9716 12.2519C79.1667 12.2519 79.3451 12.2332 79.507 12.1959C79.6688 12.1544 79.8203 12.0963 79.9614 12.0216C80.1067 11.9469 80.2436 11.8576 80.3723 11.7539C80.5051 11.6501 80.6337 11.5319 80.7582 11.3991V10.0918ZM77.1788 7.51467C77.5274 7.17852 77.903 6.92744 78.3056 6.76144C78.7081 6.59544 79.1542 6.51244 79.6439 6.51244C79.9967 6.51244 80.31 6.57054 80.5839 6.68674C80.8578 6.80294 81.0881 6.96479 81.2749 7.17229C81.4616 7.37979 81.6027 7.63087 81.6982 7.92552C81.7936 8.22017 81.8414 8.54387 81.8414 8.89662V12.9304H81.3496C81.2417 12.9304 81.1587 12.9138 81.1006 12.8806C81.0425 12.8433 80.9968 12.7727 80.9636 12.669L80.8391 12.0714C80.6731 12.2249 80.5113 12.3619 80.3536 12.4822C80.1959 12.5984 80.0299 12.698 79.8556 12.781C79.6813 12.8599 79.4945 12.92 79.2953 12.9615C79.1003 13.0072 78.8824 13.03 78.6417 13.03C78.3969 13.03 78.1665 12.9968 77.9507 12.9304C77.7349 12.8599 77.5461 12.7561 77.3843 12.6192C77.2266 12.4822 77.1 12.31 77.0045 12.1025C76.9132 11.8908 76.8676 11.6418 76.8676 11.3555C76.8676 11.1065 76.9361 10.8679 77.073 10.6396C77.21 10.4072 77.432 10.2018 77.7391 10.0233C78.0462 9.84489 78.4467 9.69964 78.9405 9.58759C79.4344 9.47139 80.0403 9.40499 80.7582 9.38839V8.89662C80.7582 8.40692 80.6524 8.03757 80.4407 7.78857C80.2291 7.53542 79.9199 7.40884 79.5132 7.40884C79.2393 7.40884 79.009 7.44412 78.8222 7.51467C78.6396 7.58107 78.4799 7.65784 78.3429 7.74499C78.2101 7.82799 78.0939 7.90477 77.9943 7.97532C77.8989 8.04172 77.8034 8.07492 77.708 8.07492C77.6333 8.07492 77.5689 8.05624 77.515 8.01889C77.461 7.97739 77.4154 7.92759 77.378 7.86949L77.1788 7.51467ZM87.6377 8.12472C87.4302 7.84667 87.2061 7.65369 86.9654 7.54579C86.7247 7.43374 86.4549 7.37772 86.1561 7.37772C85.571 7.37772 85.1207 7.58729 84.8053 8.00644C84.4899 8.42559 84.3322 9.02319 84.3322 9.79924C84.3322 10.2101 84.3675 10.5628 84.438 10.8575C84.5086 11.148 84.6123 11.3887 84.7493 11.5796C84.8862 11.7663 85.0543 11.9033 85.2535 11.9904C85.4527 12.0776 85.6789 12.1212 85.932 12.1212C86.2972 12.1212 86.6147 12.0382 86.8845 11.8722C87.1584 11.7062 87.4094 11.4717 87.6377 11.1687V8.12472ZM88.7458 3.76099V12.9304H88.0859C87.9282 12.9304 87.8286 12.8536 87.7871 12.7001L87.6875 11.9344C87.4177 12.2581 87.1106 12.5196 86.7662 12.7188C86.4217 12.918 86.0233 13.0176 85.571 13.0176C85.2099 13.0176 84.8821 12.9491 84.5874 12.8121C84.2928 12.671 84.0417 12.4656 83.8342 12.1959C83.6267 11.9261 83.4669 11.59 83.3549 11.1874C83.2428 10.7849 83.1868 10.3221 83.1868 9.79924C83.1868 9.33444 83.2491 8.90284 83.3736 8.50444C83.4981 8.10189 83.6765 7.75329 83.9089 7.45864C84.1413 7.16399 84.4256 6.93367 84.7617 6.76767C85.102 6.59752 85.4838 6.51244 85.9071 6.51244C86.2931 6.51244 86.623 6.57884 86.8969 6.71164C87.175 6.84029 87.4219 7.02082 87.6377 7.25322V3.76099H88.7458ZM93.1539 6.52489C93.6146 6.52489 94.0296 6.60167 94.3989 6.75522C94.7683 6.90877 95.0837 7.12664 95.3451 7.40884C95.6066 7.69104 95.8058 8.03342 95.9427 8.43597C96.0838 8.83437 96.1544 9.28049 96.1544 9.77434C96.1544 10.2723 96.0838 10.7205 95.9427 11.1189C95.8058 11.5173 95.6066 11.8576 95.3451 12.1398C95.0837 12.422 94.7683 12.6399 94.3989 12.7935C94.0296 12.9429 93.6146 13.0176 93.1539 13.0176C92.6891 13.0176 92.27 12.9429 91.8965 12.7935C91.5271 12.6399 91.2117 12.422 90.9503 12.1398C90.6888 11.8576 90.4876 11.5173 90.3465 11.1189C90.2095 10.7205 90.141 10.2723 90.141 9.77434C90.141 9.28049 90.2095 8.83437 90.3465 8.43597C90.4876 8.03342 90.6888 7.69104 90.9503 7.40884C91.2117 7.12664 91.5271 6.90877 91.8965 6.75522C92.27 6.60167 92.6891 6.52489 93.1539 6.52489ZM93.1539 12.1523C93.7764 12.1523 94.2412 11.9448 94.5483 11.5298C94.8554 11.1106 95.009 10.5276 95.009 9.78057C95.009 9.02942 94.8554 8.44427 94.5483 8.02512C94.2412 7.60597 93.7764 7.39639 93.1539 7.39639C92.8385 7.39639 92.5626 7.45034 92.326 7.55824C92.0936 7.66614 91.8986 7.82177 91.7409 8.02512C91.5873 8.22847 91.4711 8.47954 91.3923 8.77834C91.3176 9.07299 91.2802 9.40707 91.2802 9.78057C91.2802 10.5276 91.4338 11.1106 91.7409 11.5298C92.0521 11.9448 92.5231 12.1523 93.1539 12.1523ZM101.859 11.4115C102.063 11.6854 102.285 11.8784 102.526 11.9904C102.766 12.1025 103.036 12.1585 103.335 12.1585C103.924 12.1585 104.376 11.9489 104.692 11.5298C105.007 11.1106 105.165 10.513 105.165 9.73699C105.165 9.32614 105.128 8.97339 105.053 8.67874C104.982 8.38409 104.879 8.14339 104.742 7.95664C104.605 7.76574 104.437 7.62672 104.237 7.53957C104.038 7.45242 103.812 7.40884 103.559 7.40884C103.198 7.40884 102.88 7.49184 102.606 7.65784C102.337 7.82384 102.088 8.05832 101.859 8.36127V11.4115ZM101.803 7.60182C102.069 7.27397 102.376 7.01044 102.725 6.81124C103.073 6.61204 103.472 6.51244 103.92 6.51244C104.285 6.51244 104.615 6.58299 104.91 6.72409C105.204 6.86104 105.455 7.06647 105.663 7.34037C105.87 7.61012 106.03 7.94627 106.142 8.34882C106.254 8.75137 106.31 9.21409 106.31 9.73699C106.31 10.2018 106.248 10.6355 106.124 11.038C105.999 11.4364 105.819 11.7829 105.582 12.0776C105.35 12.3681 105.063 12.5984 104.723 12.7686C104.387 12.9346 104.007 13.0176 103.584 13.0176C103.198 13.0176 102.866 12.9532 102.588 12.8246C102.314 12.6918 102.071 12.5092 101.859 12.2768V15.0656H100.745V6.62449H101.411C101.569 6.62449 101.667 6.70127 101.704 6.85482L101.803 7.60182ZM110.382 6.52489C110.843 6.52489 111.258 6.60167 111.627 6.75522C111.996 6.90877 112.312 7.12664 112.573 7.40884C112.835 7.69104 113.034 8.03342 113.171 8.43597C113.312 8.83437 113.383 9.28049 113.383 9.77434C113.383 10.2723 113.312 10.7205 113.171 11.1189C113.034 11.5173 112.835 11.8576 112.573 12.1398C112.312 12.422 111.996 12.6399 111.627 12.7935C111.258 12.9429 110.843 13.0176 110.382 13.0176C109.917 13.0176 109.498 12.9429 109.125 12.7935C108.755 12.6399 108.44 12.422 108.178 12.1398C107.917 11.8576 107.716 11.5173 107.575 11.1189C107.438 10.7205 107.369 10.2723 107.369 9.77434C107.369 9.28049 107.438 8.83437 107.575 8.43597C107.716 8.03342 107.917 7.69104 108.178 7.40884C108.44 7.12664 108.755 6.90877 109.125 6.75522C109.498 6.60167 109.917 6.52489 110.382 6.52489ZM110.382 12.1523C111.005 12.1523 111.469 11.9448 111.777 11.5298C112.084 11.1106 112.237 10.5276 112.237 9.78057C112.237 9.02942 112.084 8.44427 111.777 8.02512C111.469 7.60597 111.005 7.39639 110.382 7.39639C110.067 7.39639 109.791 7.45034 109.554 7.55824C109.322 7.66614 109.127 7.82177 108.969 8.02512C108.815 8.22847 108.699 8.47954 108.62 8.77834C108.546 9.07299 108.508 9.40707 108.508 9.78057C108.508 10.5276 108.662 11.1106 108.969 11.5298C109.28 11.9448 109.751 12.1523 110.382 12.1523ZM115.84 7.88817C116.039 7.45657 116.284 7.12042 116.575 6.87972C116.865 6.63487 117.22 6.51244 117.639 6.51244C117.772 6.51244 117.898 6.52697 118.019 6.55602C118.143 6.58507 118.253 6.63072 118.349 6.69297L118.268 7.52089C118.243 7.62464 118.181 7.67652 118.081 7.67652C118.023 7.67652 117.938 7.66407 117.826 7.63917C117.714 7.61427 117.587 7.60182 117.446 7.60182C117.247 7.60182 117.068 7.63087 116.911 7.68897C116.757 7.74707 116.618 7.83422 116.494 7.95042C116.373 8.06247 116.263 8.20357 116.164 8.37372C116.068 8.53972 115.981 8.73062 115.902 8.94642V12.9304H114.788V6.62449H115.423C115.543 6.62449 115.626 6.64732 115.672 6.69297C115.718 6.73862 115.749 6.81747 115.765 6.92952L115.84 7.88817Z"
        fill="black" />
    <g clip-path="url(#clip0_1264_1947)">
        <path
            d="M100.043 20.262C100.493 20.262 100.9 20.262 101.304 20.262C107.141 20.262 112.979 20.262 118.816 20.262C119.08 20.262 119.348 20.2589 119.612 20.268C123.146 20.4078 124.629 22.2462 123.961 25.7285C123.882 26.1357 123.575 26.5429 123.271 26.8498C122.687 27.4393 122.028 27.9529 121.332 28.5545C121.736 28.907 122.07 29.2747 122.475 29.533C123.73 30.3352 124.097 31.4443 124.033 32.912C123.921 35.5921 122.894 36.9656 120.244 37.002C113.541 37.0962 106.835 37.0324 100.04 37.0324V20.262H100.043ZM120.648 23.2368H103.249V27.1658H120.648V23.2368ZM103.209 34.0697H120.654V30.1164H103.209V34.0697Z"
            fill="black" />
        <path
            d="M134.045 36.9962V20.2622H135.303C141.14 20.2622 146.975 20.2622 152.812 20.2622C153.04 20.2622 153.268 20.2622 153.492 20.2652C157.136 20.3716 158.686 22.2951 157.926 25.8412C157.841 26.2423 157.491 26.6222 157.184 26.9291C156.625 27.4821 156.002 27.9744 155.294 28.5882C155.595 28.8282 155.805 29.0592 156.066 29.1959C158.139 30.2807 158.145 32.1556 157.941 34.0912C157.81 35.3249 157.148 36.2274 155.957 36.6194C155.249 36.8534 154.483 37.0327 153.742 37.0388C147.412 37.0722 141.083 37.06 134.756 37.057C134.537 37.057 134.315 37.0205 134.045 36.9962ZM137.239 27.1661H154.675V23.2401H137.239V27.1661ZM154.675 30.0802H137.242V34.1034H154.675V30.0802Z"
            fill="black" />
        <path
            d="M3.30073 34.0666H22.7422V36.9928C22.5052 37.0171 22.2864 37.0536 22.0706 37.0536C16.1179 37.0566 10.1651 37.0657 4.21234 37.0536C1.94852 37.0475 0.556807 36.1116 0.122276 34.3522C0.0341547 33.9906 0.00984532 33.6047 0.00984532 33.2279C0.000729283 30.1983 -0.00534807 27.1657 0.00680664 24.1362C0.0159227 21.9696 1.03388 20.7815 3.18526 20.3986C3.59245 20.3257 4.01178 20.271 4.42504 20.271C10.3018 20.2619 16.1787 20.2649 22.0555 20.2679C22.2408 20.2679 22.4262 20.2892 22.7148 20.3044V23.2458H3.30073V34.0726V34.0666Z"
            fill="black" />
        <path
            d="M35.2504 36.9991H32.1357V20.3502H35.1653V27.0353H52.0817V20.3198H55.1963V36.9779H52.112V30.1834H35.2474V36.9991H35.2504Z"
            fill="black" />
        <path
            d="M69.3009 34.0119H85.9225V20.3318H89.0402C89.0614 20.7511 89.0979 21.1188 89.0979 21.4865C89.1009 25.2362 89.11 28.9859 89.0979 32.7357C89.0888 35.7166 87.7821 37.0384 84.7982 37.0506C80.0214 37.0688 75.2415 37.0688 70.4647 37.0506C67.4686 37.0415 66.1498 35.7197 66.1437 32.763C66.1346 29.0133 66.1437 25.2636 66.1437 21.5138C66.1437 21.1431 66.1437 20.7724 66.1437 20.3318H69.3009V34.0119Z"
            fill="black" />
        <path
            d="M163.526 25.0173C162.165 25.0173 161.059 23.9113 161.059 22.5499C161.059 21.1886 162.165 20.0825 163.526 20.0825C164.887 20.0825 165.993 21.1886 165.993 22.5499C165.993 23.9113 164.887 25.0173 163.526 25.0173ZM163.526 20.5353C162.417 20.5353 161.514 21.4378 161.514 22.5469C161.514 23.656 162.417 24.5585 163.526 24.5585C164.635 24.5585 165.538 23.656 165.538 22.5469C165.538 21.4378 164.635 20.5353 163.526 20.5353Z"
            fill="black" />
        <path
            d="M162.707 21.4473H163.713C163.865 21.4473 163.998 21.4777 164.114 21.5354C164.229 21.5931 164.318 21.6752 164.381 21.7846C164.445 21.8909 164.476 22.0155 164.476 22.1583C164.476 22.3346 164.427 22.4865 164.327 22.605C164.226 22.7235 164.093 22.8056 163.919 22.842L164.573 23.5956H164.126L163.503 22.8633H163.069V23.5956H162.71V21.4503L162.707 21.4473ZM163.71 22.5351C163.837 22.5351 163.938 22.5017 164.008 22.4348C164.081 22.368 164.117 22.2768 164.117 22.1583C164.117 22.0398 164.081 21.9486 164.008 21.8818C163.935 21.8149 163.834 21.7815 163.71 21.7815H163.063V22.5351H163.71Z"
            fill="black" />
    </g>
    <defs>
        <clipPath id="clip0_1264_1947">
            <rect width="166" height="16.9893" fill="white" transform="translate(0 20.0803)" />
        </clipPath>
    </defs>
</svg>