<?xml version="1.0" encoding="utf-8"?>
<!-- Generator: Adobe Illustrator 21.1.0, SVG Export Plug-In . SVG Version: 6.00 Build 0)  -->
<svg version="1.1" id="Layer_1" xmlns="http://www.w3.org/2000/svg" xmlns:xlink="http://www.w3.org/1999/xlink" x="0px" y="0px"
	 viewBox="0 0 108 25" style="enable-background:new 0 0 108 25;" xml:space="preserve">
<style type="text/css">
	.st0{fill:#FFFFFF;}
</style>
<g>
	<g id="IRWs97_9_">
		<g>
			<path class="st0" d="M32.4,12.8c0.1-0.2,0.1-0.5,0.2-0.8c0.4-1.8,1.6-2.8,3.3-3.3c1.1-0.3,2.2-0.4,3.4-0.3
				c1.2,0.1,2.3,0.3,3.4,0.7c0.2,0.1,0.2,0.1,0.2,0.3c-0.2,0.9-0.3,1.9-0.4,2.8c-0.4-0.1-0.9-0.2-1.3-0.3c-1.1-0.3-2.3-0.4-3.4-0.3
				c-0.4,0-0.7,0.1-1.1,0.3c-0.7,0.4-0.9,1.5-0.2,2.1c0.4,0.3,0.9,0.5,1.4,0.7c1,0.4,2,0.6,2.9,1.1c0.8,0.4,1.6,0.9,2.1,1.7
				c0.5,0.7,0.6,1.5,0.7,2.3c0,1.2-0.3,2.3-1,3.3c-0.8,0.9-1.8,1.5-2.9,1.7c-0.4,0.1-0.8,0.2-1.3,0.2h-0.1c-0.5,0-1,0-1.5,0
				c-0.3-0.1-0.5-0.1-0.8-0.1c-1.1-0.2-2.2-0.5-3.3-1c-0.1-0.1-0.2-0.1-0.2-0.3c0.2-1,0.3-1.9,0.4-2.9c0.1,0,0.2,0.1,0.3,0.1
				c1.4,0.7,3,1.1,4.6,1c0.4,0,0.9-0.1,1.3-0.3c0.8-0.4,1.2-1.4,0.7-2.1c-0.2-0.3-0.5-0.5-0.8-0.7c-0.7-0.4-1.4-0.6-2.1-0.8
				c-0.9-0.3-1.8-0.7-2.6-1.2c-0.5-0.3-0.9-0.8-1.2-1.2c-0.2-0.3-0.3-0.6-0.4-1c-0.1-0.6-0.2-1.1-0.2-1.7
				C32.5,13,32.5,12.9,32.4,12.8z"/>
			<path class="st0" d="M15.1,0L15.1,0c0.8,0.3,1.2,0.9,1.1,1.7c-0.1,1-0.2,2-0.3,3c-0.1,1.1-0.2,2.2-0.4,3.2
				c-0.1,0.9-0.2,1.9-0.3,2.8c-0.1,1-0.3,2-0.4,3c-0.1,1.1-0.3,2.2-0.7,3.3c-0.4,1.4-1,2.7-2,3.8c-1.3,1.4-2.8,2.1-4.7,2
				c-1.8-0.1-3.4-0.6-4.8-1.6s-2.2-2.4-2.5-4.1C0,16.7,0,16.3,0.2,16c0.3-0.5,1-0.8,1.6-0.6c0.4,0.1,0.6,0.4,0.7,0.8
				c0.1,0.3,0.1,0.6,0.2,0.8c0.4,1.3,1.4,2.2,2.7,2.7C6.1,20,7,20.2,7.9,20.1c1.2-0.1,2.1-0.8,2.7-1.8c0.6-0.9,1-2,1.1-3.1
				c0.3-1.8,0.5-3.5,0.7-5.3c0.1-1.1,0.2-2.2,0.4-3.3c0.1-1.3,0.2-2.5,0.4-3.8c0-0.5,0.1-1,0.1-1.5c0.1-0.7,0.5-1.1,1.1-1.3l0,0
				C14.7,0,14.9,0,15.1,0z"/>
			<path class="st0" d="M107.7,8.8c-0.2,0.8-0.4,1.7-0.6,2.5c-0.1,0.2-0.1,0.4-0.1,0.6c0,0.1-0.1,0.2-0.2,0.2c-1.2,0-2.5,0-3.7,0
				c-0.2,0-0.2,0-0.2,0.2c0,4.2,0,8.3,0,12.5c0,0.2,0,0.2-0.2,0.2c-1.1,0-2.2,0-3.2,0c-0.2,0-0.2,0-0.2-0.2c0-4.2,0-8.4,0-12.5
				c0-0.2,0-0.2-0.2-0.2c-1.2,0-2.4,0-3.6,0c-0.1,0-0.2,0-0.2-0.2c-0.2-1-0.5-2-0.7-2.9c0-0.2,0-0.2,0.1-0.2c3.4,0,6.8,0,10.2,0
				C105.7,8.7,106.7,8.7,107.7,8.8C107.7,8.7,107.7,8.8,107.7,8.8z"/>
			<path class="st0" d="M59.2,14.9c-0.1,0-0.1,0.1-0.1,0.2c-1.2,3.3-2.6,6.5-3.8,9.7C55.2,24.9,55.2,25,55,25c-0.7,0-1.4,0-2.1,0
				c-0.1,0-0.2,0-0.2-0.1c-1.1-2.9-2.3-5.8-3.4-8.7c-0.2-0.4-0.3-0.8-0.5-1.2c-0.1,0.1,0,0.2,0,0.4c0,3.2,0,6.4,0,9.5
				c0,0.1,0,0.2-0.2,0.2c-1,0-2,0-2.9,0c-0.1,0-0.2,0-0.2-0.2c0-5.3,0-10.6,0-15.9c0-0.1,0-0.2,0.2-0.2c1.2,0,2.5,0,3.7,0
				c0.1,0,0.2,0,0.2,0.2c1.4,3.6,2.9,7.2,4.3,10.8c0,0,0,0.1,0.1,0.1l0.1-0.1c1.2-3.3,2.6-6.6,3.9-9.9c0.1-0.3,0.3-0.7,0.4-1
				c0-0.1,0.1-0.1,0.2-0.1c1.2,0,2.5,0,3.7,0c0.2,0,0.2,0.1,0.2,0.2c0,4.9,0,9.8,0,14.7c0,0.4,0,0.8,0,1.2c0,0.1,0,0.1-0.1,0.1
				c-1,0-2,0-3,0c-0.1,0-0.2,0-0.2-0.2c0-3,0-5.9,0-8.9c0-0.3,0-0.5,0-0.8C59.2,15.1,59.2,15,59.2,14.9z"/>
			<path class="st0" d="M90.8,18.2c1.3,2.3,2.5,4.5,3.8,6.8c-0.1,0-0.1,0-0.2,0c-1.3,0-2.6,0-3.9,0c-0.1,0-0.2,0-0.3-0.2
				c-0.9-1.9-1.8-3.8-2.7-5.8c-0.1-0.1-0.1-0.2-0.2-0.2c-0.6,0-1.3,0-1.9,0c-0.2,0-0.2,0-0.2,0.2c0,1.9,0,3.8,0,5.7
				c0,0.2,0,0.2-0.2,0.2c-1.1,0-2.2,0-3.3,0c-0.1,0-0.2,0-0.2-0.2c0-5.3,0-10.6,0-15.9c0-0.2,0-0.2,0.2-0.2c2.1,0,4.2,0,6.3,0
				c1,0,1.9,0.2,2.8,0.5c1.4,0.6,2.2,1.6,2.6,3c0.2,1.1,0.2,2.2-0.1,3.3C92.9,16.8,92.1,17.8,90.8,18.2z M85.2,14c0,0.7,0,1.4,0,2.1
				c0,0.1,0,0.2,0.2,0.2c0.4,0,0.8,0,1.2,0c0.6,0,1.1,0,1.7,0c0.8-0.1,1.3-0.5,1.5-1.3c0.1-0.6,0.1-1.2,0-1.9
				c-0.1-0.6-0.5-1-1.1-1.2c-0.3-0.1-0.5-0.1-0.8-0.1c-0.8,0-1.6,0-2.3,0c-0.1,0-0.2,0-0.2,0.2C85.2,12.6,85.2,13.3,85.2,14z"/>
			<path class="st0" d="M79.8,25c-0.1,0-0.1,0-0.2,0c-1.2,0-2.5,0-3.7,0c-0.1,0-0.2-0.1-0.2-0.2c-0.3-0.9-0.5-1.9-0.8-2.8
				c0-0.1-0.1-0.2-0.2-0.2c-1.8,0-3.7,0-5.5,0c-0.1,0-0.2,0-0.2,0.2c-0.3,1-0.5,1.9-0.8,2.9c0,0.1,0,0.1-0.2,0.1c-1.2,0-2.5,0-3.7,0
				c0.1-0.4,0.3-0.8,0.4-1.1c1.5-4.3,3-8.6,4.4-12.9c0.2-0.7,0.5-1.4,0.7-2.1c0-0.1,0.1-0.1,0.2-0.1c1.4,0,2.7,0,4.1,0
				c0.1,0,0.1,0,0.2,0.1c0.8,2.2,1.6,4.5,2.3,6.7c1.1,3.1,2.2,6.2,3.2,9.2C79.8,24.9,79.8,24.9,79.8,25z M72,11.5
				C72,11.5,71.9,11.5,72,11.5c-0.7,2.4-1.5,4.8-2.1,7.3c0.1,0,0.1,0,0.2,0c1.1,0,2.2,0,3.4,0c0.2,0,0.4,0.1,0.5,0s-0.1-0.3-0.1-0.5
				c-0.5-1.9-1-3.7-1.5-5.6C72.2,12.3,72.1,11.9,72,11.5z"/>
			<path class="st0" d="M32.4,12.8c0.1,0.1,0,0.2,0,0.3c-0.1,0.6,0,1.1,0.2,1.7c0.1,0.4,0.3,0.7,0.4,1c-0.6,1.1-1.4,2.1-2.5,2.7
				c-0.9,0.6-1.9,0.8-2.9,0.6c-1.1-0.2-1.8-0.8-2.3-1.7c-0.1-0.3-0.3-0.6-0.4-0.9c-0.3,0.3-0.5,0.5-0.8,0.8
				c-0.9,0.7-1.8,1.3-2.9,1.5c-2,0.4-3.7-0.5-4.4-2.4c-0.2-0.4-0.3-0.8-0.3-1.3c0-0.1,0-0.2-0.1-0.2c-0.7-0.4-0.6-1.4,0.1-1.8
				c0.1-0.1,0.2-0.1,0.2-0.3c0.3-1.1,0.8-2.2,1.6-3c0.7-0.7,1.5-1.1,2.4-1.1c1.1,0,1.9,0.7,2,1.8c0.1,1.3-0.3,2.4-1.2,3.3
				c-0.7,0.8-1.6,1.3-2.7,1.4c-0.1,0-0.1,0-0.1,0.1c0.3,0.8,0.8,1.3,1.7,1.4c1.1,0.1,1.9-0.4,2.7-1c0.6-0.5,1-1.1,1.5-1.7
				c0-0.1,0.1-0.1,0.1-0.2c0-1.2,0.2-2.4,0.4-3.6c0.2-1,0.3-1.9,0.5-2.9c0-0.2,0-0.2-0.2-0.2c-1.1,0-2.3,0-3.4,0c-0.2,0-0.4,0-0.6,0
				c-0.5,0-1-0.4-1-1c0-0.5,0.4-1,0.9-1c1.2,0,2.3,0,3.5,0c0.3,0,0.6,0,0.9,0c0.1,0,0.1,0,0.1-0.1c0.2-0.8,0.4-1.6,0.6-2.4
				c0.1-0.5,0.6-0.9,1.2-0.9c0.5,0,1,0.5,1,1S28.5,3.6,28.5,4c0,0.3-0.1,0.6-0.1,0.9c0,0.2,0,0.2,0.2,0.2c1.4,0,2.9,0,4.3,0
				c0.3,0,0.6,0,0.9,0.2c0.3,0.2,0.5,0.5,0.5,0.8c0,0.4-0.2,0.6-0.6,0.8c-0.4,0.2-0.8,0.2-1.2,0.2c-1.4,0-2.8,0-4.2,0
				c-0.2,0-0.2,0-0.3,0.2c-0.3,1.8-0.7,3.6-1,5.4c-0.1,1.3,0,2.3,0.4,3.4c0,0.1,0.1,0.2,0.1,0.3c0.3,0.6,0.7,0.8,1.4,0.7
				c0.6-0.1,1.1-0.5,1.5-0.9c0.7-0.7,1.2-1.6,1.7-2.5C32.2,13.3,32.3,13.1,32.4,12.8z M18.9,13.4c0.8,0,1.7-0.8,1.9-1.6
				c0.1-0.3,0-0.6-0.1-0.8s-0.2-0.2-0.4-0.2c-0.2,0.1-0.4,0.1-0.6,0.3c-0.6,0.5-0.9,1.3-1.1,2C18.6,13.4,18.6,13.4,18.9,13.4z"/>
		</g>
	</g>
</g>
</svg>
