<svg id="Layer_1" data-name="Layer 1" xmlns="http://www.w3.org/2000/svg" width="48.38" height="30.04" viewBox="0 0 48.38 30.04"><defs><style>.cls-1,.cls-3{fill:#fff;}.cls-1{stroke:#c6c6c6;stroke-miterlimit:10;stroke-width:0.38px;}.cls-2{fill:#0070d3;}</style></defs><title>amex</title><rect class="cls-1" x="0.19" y="0.19" width="48" height="29.25"/><path id="path3078" class="cls-2" d="M82.9,36.62H113v16.2l-1.49,2.32L113,57.2v9.42H82.9V51.36l.93-1.07-.93-1Z" transform="translate(-73.74 -36.58)"/><path id="path3082" class="cls-3" d="M88.72,57.53V52.82h5l.53.69.56-.69h18.1V57.2a2.16,2.16,0,0,1-1,.33h-10l-.6-.75v.75h-2V56.26a1.63,1.63,0,0,1-.85.18h-.67v1.09h-3l-.53-.72-.54.72Z" transform="translate(-73.74 -36.58)"/><path id="path3080" class="cls-3" d="M82.9,49.27,84,46.65h2l.63,1.46V46.65H89l.38,1.06.37-1.06h10.85v.53a2.35,2.35,0,0,1,1.51-.53h3.52l.63,1.45V46.65h2l.56.83v-.83h2v4.71h-2l-.53-.84v.84h-3l-.3-.75h-.79l-.3.75h-2a2,2,0,0,1-1.33-.53v.53h-3l-.6-.75v.75H85.68l-.3-.75h-.8l-.29.75H82.9Z" transform="translate(-73.74 -36.58)"/><path id="path3046" class="cls-2" d="M84.42,47.23,82.9,50.75h1l.28-.7H85.8l.28.7h1l-1.51-3.52Zm.56.82.5,1.23h-1Z" transform="translate(-73.74 -36.58)"/><path id="path3048" class="cls-2" d="M87.19,50.75V47.23h1.4l.82,2.27.8-2.27H91.6v3.52h-.88v-2.6l-.94,2.6H89l-.94-2.6v2.6Z" transform="translate(-73.74 -36.58)"/><path id="path3050" class="cls-2" d="M92.2,50.75V47.23h2.88V48h-2v.61H95v.74H93.09V50h2v.76Z" transform="translate(-73.74 -36.58)"/><path id="path3052" class="cls-2" d="M95.59,47.23v3.52h.88V49.5h.37l1.06,1.25H99l-1.16-1.3a1.07,1.07,0,0,0,1-1.08,1.14,1.14,0,0,0-1.23-1.14Zm.88.78h1a.41.41,0,0,1,.42.38.4.4,0,0,1-.41.37h-1V48Z" transform="translate(-73.74 -36.58)"/><path id="path3054" class="cls-2" d="M100,50.75h-.9V47.23h.9Z" transform="translate(-73.74 -36.58)"/><path id="path3056" class="cls-2" d="M102.18,50.75H102A1.55,1.55,0,0,1,100.47,49a1.61,1.61,0,0,1,1.75-1.77h1v.83h-1a.85.85,0,0,0-.82.95.86.86,0,0,0,.95,1h.23Z" transform="translate(-73.74 -36.58)"/><path id="path3058" class="cls-2" d="M104.1,47.23l-1.52,3.52h1l.28-.7h1.62l.28.7h1l-1.51-3.52Zm.56.82.49,1.23h-1l.5-1.23Z" transform="translate(-73.74 -36.58)"/><path id="path3060" class="cls-2" d="M106.86,50.75V47.23H108l1.43,2.21V47.23h.88v3.52h-1.09l-1.46-2.27v2.27Z" transform="translate(-73.74 -36.58)"/><path id="path3062" class="cls-2" d="M89.32,56.92V53.4H92.2v.79h-2v.6h1.94v.74H90.21v.63h2v.76Z" transform="translate(-73.74 -36.58)"/><path id="path3064" class="cls-2" d="M103.42,56.92V53.4h2.88v.79h-2v.6h1.93v.74h-1.93v.63h2v.76Z" transform="translate(-73.74 -36.58)"/><path id="path3066" class="cls-2" d="M92.31,56.92l1.4-1.74L92.28,53.4h1.11l.85,1.1.86-1.1h1.07l-1.42,1.76,1.41,1.76H95.05l-.83-1.08-.81,1.08Z" transform="translate(-73.74 -36.58)"/><path id="path3068" class="cls-2" d="M96.26,53.4v3.52h.91V55.81h.92a1.22,1.22,0,0,0,1.38-1.23,1.15,1.15,0,0,0-1.26-1.18Zm.91.8h1a.39.39,0,0,1,.44.4.41.41,0,0,1-.44.41h-1V54.2Z" transform="translate(-73.74 -36.58)"/><path id="path3072" class="cls-2" d="M99.86,53.4v3.52h.88V55.67h.37l1.06,1.25h1.07l-1.16-1.3a1.07,1.07,0,0,0,1-1.08,1.14,1.14,0,0,0-1.23-1.14Zm.88.79h1a.4.4,0,0,1,.41.37.39.39,0,0,1-.4.37h-1Z" transform="translate(-73.74 -36.58)"/><path id="path3074" class="cls-2" d="M106.71,56.92v-.76h1.76c.26,0,.38-.14.38-.3s-.12-.3-.38-.3h-.8a1,1,0,0,1-1.08-1.05c0-.57.36-1.11,1.39-1.11h1.71l-.37.79h-1.48c-.29,0-.37.15-.37.29a.31.31,0,0,0,.32.31h.84a1,1,0,0,1,1.11,1,1.06,1.06,0,0,1-1.15,1.12Z" transform="translate(-73.74 -36.58)"/><path id="path3076" class="cls-2" d="M109.94,56.92v-.76h1.77c.26,0,.37-.14.37-.3s-.11-.3-.37-.3h-.8a1,1,0,0,1-1.08-1.05c0-.57.35-1.11,1.38-1.11h1.72l-.37.79h-1.49c-.28,0-.37.15-.37.29a.31.31,0,0,0,.33.31h.83a1,1,0,0,1,1.11,1,1.05,1.05,0,0,1-1.15,1.12Z" transform="translate(-73.74 -36.58)"/></svg>