<svg id="Layer_1" data-name="Layer 1" xmlns="http://www.w3.org/2000/svg" width="49.62" height="30.39" viewBox="0 0 49.62 30.39"><defs><style>.cls-1,.cls-3{fill:#fff;}.cls-1{stroke:#c6c6c6;stroke-miterlimit:10;stroke-width:0.39px;}.cls-2{fill:#004a98;}.cls-4{fill:#1e120d;}</style></defs><title>dc</title><rect class="cls-1" x="0.19" y="0.19" width="49.23" height="30"/><path class="cls-2" d="M99.31,56.26c4.6,0,8.8-3.75,8.8-8.34a8.6,8.6,0,0,0-8.8-8.49h-4a8.3,8.3,0,0,0-8.48,8.49,8.43,8.43,0,0,0,8.48,8.34Z" transform="translate(-72.37 -36.43)"/><path class="cls-3" d="M97.12,52.39V43.27a4.88,4.88,0,0,1,0,9.12m-6.63-4.56a4.89,4.89,0,0,1,3.13-4.56v9.12a4.89,4.89,0,0,1-3.13-4.56m4.88-7.7a7.71,7.71,0,1,0,7.71,7.7,7.7,7.7,0,0,0-7.71-7.7" transform="translate(-72.37 -36.43)"/><path class="cls-4" d="M78.32,63.1c0,.68.48.76.92.76a2.47,2.47,0,0,0,2.54-2.76A2.66,2.66,0,0,0,79,58.25c-.37,0-.53,0-.69,0ZM77.45,59c0-.8-.42-.75-.81-.76V58c.34,0,.69,0,1,0l1.53,0a3.23,3.23,0,0,1,3.54,3.1c0,.88-.51,3.08-3.65,3.08l-1.28,0-1.18,0v-.23c.53,0,.78-.07.81-.67Z" transform="translate(-72.37 -36.43)"/><path class="cls-4" d="M84,58.73a.46.46,0,0,1-.44-.44.46.46,0,0,1,.44-.43.44.44,0,0,1,0,.87m-1,5.18h.17c.25,0,.42,0,.42-.29v-2.4c0-.39-.13-.44-.46-.62v-.14c.42-.13.92-.29,1-.32a.37.37,0,0,1,.16,0s.06,0,.06.12v3.4c0,.29.2.29.45.29H85v.23l-.93,0-1,0Z" transform="translate(-72.37 -36.43)"/><path class="cls-4" d="M85.8,61.27c0-.32-.1-.41-.52-.58v-.17a12,12,0,0,0,1.17-.42s0,0,0,.08v.58A2.62,2.62,0,0,1,88,60.1c.75,0,1,.55,1,1.24v2.28c0,.29.2.29.45.29h.16v.23l-.94,0-1,0v-.23h.16c.25,0,.43,0,.43-.29V61.33c0-.51-.31-.76-.82-.76a2.37,2.37,0,0,0-1,.43v2.62c0,.29.2.29.45.29h.16v.23l-.94,0-1,0v-.23h.16c.25,0,.43,0,.43-.29Z" transform="translate(-72.37 -36.43)"/><path class="cls-4" d="M91.9,61.42c.22,0,.24-.12.24-.23a.75.75,0,0,0-.77-.81c-.54,0-.91.4-1,1Zm-1.57.28a2,2,0,0,0,0,.51,1.47,1.47,0,0,0,1.3,1.53,1.69,1.69,0,0,0,1.2-.59l.12.12a2.08,2.08,0,0,1-1.64,1,1.77,1.77,0,0,1-1.69-1.93,2,2,0,0,1,1.79-2.24,1.39,1.39,0,0,1,1.49,1.39v.16l-.08.05Z" transform="translate(-72.37 -36.43)"/><path class="cls-4" d="M93.11,63.91h.24c.24,0,.42,0,.42-.29V61.13c0-.27-.33-.33-.46-.4V60.6c.65-.27,1-.5,1.08-.5s.08,0,.08.11V61h0c.22-.35.59-.91,1.13-.91a.49.49,0,0,1,.51.47.44.44,0,0,1-.42.45c-.27,0-.27-.22-.58-.22a.76.76,0,0,0-.65.74v2.08c0,.29.18.29.42.29h.5v.23l-1.24,0-1,0Z" transform="translate(-72.37 -36.43)"/><path class="cls-4" d="M96.52,62.91A1.15,1.15,0,0,0,97.63,64a.63.63,0,0,0,.72-.63c0-1-1.93-.71-1.93-2.13a1.21,1.21,0,0,1,1.37-1.13,2.45,2.45,0,0,1,1,.25l.06.91h-.2a.91.91,0,0,0-1-.88A.62.62,0,0,0,97,61c0,1,2.06.72,2.06,2.11,0,.58-.47,1.2-1.53,1.2a2.31,2.31,0,0,1-1.08-.3l-.09-1Z" transform="translate(-72.37 -36.43)"/><path class="cls-4" d="M107.05,59.56h-.22a1.69,1.69,0,0,0-1.9-1.45,2.52,2.52,0,0,0-2.49,2.81A2.88,2.88,0,0,0,105.08,64a1.81,1.81,0,0,0,1.78-1.53l.2,0-.2,1.29a4.88,4.88,0,0,1-2,.47A3.14,3.14,0,0,1,101.52,61a3.25,3.25,0,0,1,3.35-3.12,6.34,6.34,0,0,1,2.09.47Z" transform="translate(-72.37 -36.43)"/><path class="cls-4" d="M107.37,63.91h.17c.24,0,.42,0,.42-.29V58.69c0-.58-.13-.59-.47-.69v-.14a6.27,6.27,0,0,0,.91-.38.68.68,0,0,1,.2-.1c.05,0,.07,0,.07.12v6.12c0,.29.19.29.44.29h.15v.23l-.93,0-1,0Z" transform="translate(-72.37 -36.43)"/><path class="cls-4" d="M113.05,63.65c0,.16.1.17.25.17h.35V64a10.38,10.38,0,0,0-1.27.27l0,0v-.72a2.38,2.38,0,0,1-1.56.74,1,1,0,0,1-1-1V61c0-.24,0-.46-.53-.5v-.17l1.14-.06c.1,0,.1.06.1.26v2.28c0,.27,0,1,.77,1a2,2,0,0,0,1.07-.54V60.87c0-.17-.42-.27-.74-.36v-.16c.8-.05,1.29-.12,1.38-.12s.07.06.07.16Z" transform="translate(-72.37 -36.43)"/><path class="cls-4" d="M114.81,63.14a1,1,0,0,0,.92.9c.94,0,1.34-.93,1.34-1.71a1.7,1.7,0,0,0-1.42-1.76,1.41,1.41,0,0,0-.84.42Zm0-2.41a2.27,2.27,0,0,1,1.32-.63A1.72,1.72,0,0,1,117.78,62a2.23,2.23,0,0,1-2.12,2.31,2.59,2.59,0,0,1-1.23-.31l-.26.21-.19-.1a10.18,10.18,0,0,0,.13-1.57V58.69c0-.58-.14-.59-.47-.69v-.14a7.41,7.41,0,0,0,.91-.38.68.68,0,0,1,.19-.1c.06,0,.07,0,.07.12Z" transform="translate(-72.37 -36.43)"/><path class="cls-4" d="M117.68,59.63h.07c.07,0,.11-.06.11-.15s0-.12-.11-.12h-.07Zm-.19.3v0c.07,0,.08,0,.08,0v-.42c0-.06,0-.08-.08-.08v0h.3c.1,0,.19,0,.19.15a.17.17,0,0,1-.14.17l.1.13a.6.6,0,0,0,.12.14v0H118s-.1-.12-.2-.27h-.07v.19s0,0,.09,0v0Zm.28.16a.47.47,0,1,0-.45-.46.47.47,0,0,0,.45.46m0-1a.57.57,0,0,1,.58.58.58.58,0,0,1-1.15,0,.57.57,0,0,1,.57-.58" transform="translate(-72.37 -36.43)"/></svg>