<svg width="140" height="140" viewBox="0 0 140 140" fill="none" xmlns="http://www.w3.org/2000/svg">
<path d="M73.3974 126.214C73.3461 126.214 73.2947 126.205 73.2519 126.179C73.1578 126.128 73.1064 126.034 73.1064 125.931V118.041C73.1064 117.879 73.2348 117.75 73.3974 117.75C73.56 117.75 73.6883 117.879 73.6883 118.041V125.426L98.6502 110.596V102.801C98.6502 102.638 98.7785 102.51 98.9411 102.51C99.1037 102.51 99.2321 102.638 99.2321 102.801V110.768C99.2321 110.87 99.1807 110.964 99.0866 111.016L73.5429 126.188C73.5001 126.214 73.4487 126.231 73.3974 126.231V126.214Z" fill="#1B365D"/>
<path d="M50.7976 101.457C50.7462 101.457 50.6949 101.449 50.6521 101.415L43.7549 97.4354C43.6693 97.3841 43.6094 97.2899 43.6094 97.1872V10.8007C43.6094 10.698 43.6607 10.6039 43.7549 10.5525C43.8404 10.5012 43.9517 10.5012 44.0458 10.5525L68.1091 24.4497C68.246 24.5267 68.2974 24.7064 68.2118 24.8433C68.1348 24.9803 67.9551 25.0316 67.8181 24.946L44.1913 11.3056V97.0161L50.943 100.918C51.0799 100.995 51.1313 101.175 51.0457 101.312C50.9944 101.406 50.8917 101.457 50.7976 101.457Z" fill="#1B365D"/>
<path d="M62.624 120.275C62.5812 120.275 62.5384 120.266 62.4956 120.249L41.3162 109.997C41.222 109.955 41.1536 109.852 41.1536 109.749C41.1536 109.647 41.2049 109.544 41.2905 109.484L48.0337 105.436C48.1706 105.351 48.3503 105.402 48.4273 105.539C48.5129 105.676 48.4615 105.856 48.3246 105.933L42.0435 109.706L62.6069 119.659L67.8097 116.766C67.9467 116.689 68.1264 116.741 68.2034 116.878C68.2804 117.014 68.229 117.194 68.0921 117.271L62.7523 120.241C62.7095 120.266 62.6582 120.275 62.6154 120.275H62.624Z" fill="#1B365D"/>
<path d="M13.0171 64.9259C11.6992 64.9259 10.4755 64.6521 9.50854 64.0788L9.94497 62.102C10.8692 62.5727 11.6479 62.8465 12.7689 62.8465C14.2579 62.8465 14.7713 62.256 14.7713 61.0666C14.7713 60.0055 14.1466 59.5776 12.8117 59.5776C12.0244 59.5776 11.143 59.7316 10.5012 59.9712L9.63691 59.0299L10.0904 53.3906H16.6112L16.6882 55.5899H12.0672L11.896 57.7035C12.4095 57.6008 12.9572 57.5324 13.5391 57.5324C15.9094 57.5324 17.2358 58.6448 17.2358 60.8441C17.2358 63.3856 15.9608 64.9174 13.0085 64.9174L13.0171 64.9259Z" fill="#1B365D"/>
<path d="M22.7639 64.9262C21.4461 64.9262 20.2224 64.6524 19.2554 64.079L19.6918 62.1023C20.616 62.5729 21.3947 62.8467 22.5157 62.8467C24.0047 62.8467 24.5181 62.2563 24.5181 61.0668C24.5181 60.0057 23.8935 59.5778 22.5585 59.5778C21.7712 59.5778 20.8898 59.7319 20.248 59.9715L19.3837 59.0302L19.8373 53.3909H26.358L26.435 55.5901H21.814L21.6429 57.7038C22.1563 57.6011 22.704 57.5326 23.2859 57.5326C25.6563 57.5326 26.9827 58.6451 26.9827 60.8443C26.9827 63.3859 25.7076 64.9176 22.7553 64.9176L22.7639 64.9262Z" fill="#1B365D"/>
<path d="M31.544 61.0415C31.2873 60.9474 30.9877 60.8875 30.7054 60.8875C29.7812 60.8875 29.4817 61.2726 29.4817 62.3166C29.4817 63.3606 29.9181 63.797 30.6882 63.797C31.0134 63.797 31.33 63.7286 31.5868 63.6088L31.6723 64.6014C31.3814 64.7811 30.9364 64.8838 30.4058 64.8838C28.9425 64.8838 28.1638 64.0537 28.1638 62.3166C28.1638 60.6736 28.8398 59.7494 30.4315 59.7494C30.8508 59.7494 31.3129 59.8435 31.6295 59.9633L31.5525 61.0415H31.544Z" fill="#1B365D"/>
<path d="M37.8935 64.7896V61.6234C37.8935 61.1099 37.6111 60.8617 37.149 60.8617C36.7211 60.8617 36.4216 61.1014 36.4216 61.5806V64.7896H35.1551V61.5806C35.1551 61.0757 34.8727 60.8617 34.4363 60.8617C34.1368 60.8617 33.8373 61.0072 33.6918 61.2383V64.7896H32.4167V59.8605L33.3324 59.7921L33.5378 60.2542C33.8801 59.929 34.3422 59.7322 34.7957 59.7322C35.4204 59.7322 35.8397 59.9461 36.105 60.3911C36.4387 59.929 36.935 59.7322 37.4998 59.7322C38.4839 59.7322 39.1685 60.3569 39.1685 61.5891V64.781H37.902L37.8935 64.7896Z" fill="#1B365D"/>
<path d="M27.1965 123.715V123.758H31.5693L31.5265 125.957H23.9618V124.314C26.7001 121.61 29.0106 119.693 29.0106 118.008C29.0106 117.22 28.4972 116.656 27.2136 116.656C26.2124 116.656 25.2967 117.066 24.4667 117.657L23.8762 115.62C24.8175 114.91 26.1268 114.422 27.6757 114.422C30.2857 114.422 31.595 115.774 31.595 117.768C31.595 119.762 29.7894 121.55 27.205 123.707L27.1965 123.715Z" fill="#1B365D"/>
<path d="M37.1999 126.094C35.8821 126.094 34.6584 125.82 33.6914 125.247L34.1278 123.27C35.052 123.741 35.8307 124.015 36.9518 124.015C38.4407 124.015 38.9542 123.424 38.9542 122.235C38.9542 121.174 38.3295 120.746 36.9945 120.746C36.2073 120.746 35.3259 120.9 34.6841 121.14L33.8198 120.198L34.2733 114.559H40.794L40.871 116.758H36.2501L36.0789 118.872C36.5924 118.769 37.14 118.701 37.7219 118.701C40.0923 118.701 41.4187 119.813 41.4187 122.012C41.4187 124.554 40.1437 126.086 37.1914 126.086L37.1999 126.094Z" fill="#1B365D"/>
<path d="M45.9801 122.217C45.7234 122.123 45.4239 122.063 45.1415 122.063C44.2173 122.063 43.9178 122.449 43.9178 123.493C43.9178 124.536 44.3542 124.973 45.1244 124.973C45.4496 124.973 45.7662 124.904 46.0229 124.785L46.1085 125.777C45.8175 125.957 45.3726 126.06 44.842 126.06C43.3787 126.06 42.6 125.23 42.6 123.493C42.6 121.849 43.276 120.925 44.8677 120.925C45.287 120.925 45.7491 121.019 46.0657 121.139L45.9887 122.217H45.9801Z" fill="#1B365D"/>
<path d="M52.3295 125.957V122.791C52.3295 122.277 52.0471 122.029 51.585 122.029C51.1571 122.029 50.8576 122.269 50.8576 122.748V125.957H49.5911V122.748C49.5911 122.243 49.3087 122.029 48.8723 122.029C48.5728 122.029 48.2733 122.174 48.1278 122.406V125.957H46.8528V121.028L47.7684 120.959L47.9738 121.421C48.3161 121.096 48.7782 120.899 49.2317 120.899C49.8564 120.899 50.2757 121.113 50.541 121.558C50.8747 121.096 51.3711 120.899 51.9359 120.899C52.9199 120.899 53.6045 121.524 53.6045 122.756V125.948H52.338L52.3295 125.957Z" fill="#1B365D"/>
<path d="M94.4999 129.491C93.0537 129.491 91.8899 129.123 91.0342 128.644L91.522 126.668C92.4034 127.155 93.3276 127.412 94.4229 127.412C95.8178 127.412 96.4852 126.822 96.4852 125.846C96.4852 124.87 95.8605 124.34 93.4645 124.34V122.56C95.7579 122.56 96.3398 122.047 96.3398 121.148C96.3398 120.404 95.7493 119.976 94.4999 119.976C93.3447 119.976 92.4205 120.344 91.599 120.96L91.0256 119C91.907 118.316 93.242 117.819 94.654 117.819C97.1955 117.819 98.6674 119 98.6674 120.968C98.6674 122.106 98.1026 122.911 97.1014 123.381V123.416C98.2737 123.844 98.9241 124.648 98.9241 125.94C98.9241 128.114 97.5378 129.5 94.4999 129.5V129.491Z" fill="#1B365D"/>
<path d="M104.401 129.492C103.083 129.492 101.859 129.218 100.892 128.645L101.329 126.668C102.253 127.138 103.031 127.412 104.152 127.412C105.641 127.412 106.155 126.822 106.155 125.632C106.155 124.571 105.53 124.143 104.195 124.143C103.408 124.143 102.527 124.297 101.885 124.537L101.02 123.596L101.474 117.956H107.995L108.072 120.156H103.451L103.28 122.269C103.793 122.167 104.341 122.098 104.923 122.098C107.293 122.098 108.619 123.211 108.619 125.41C108.619 127.951 107.344 129.483 104.392 129.483L104.401 129.492Z" fill="#1B365D"/>
<path d="M113.181 125.606C112.924 125.512 112.625 125.452 112.342 125.452C111.418 125.452 111.118 125.837 111.118 126.881C111.118 127.925 111.555 128.362 112.325 128.362C112.65 128.362 112.967 128.293 113.224 128.173L113.309 129.166C113.018 129.346 112.573 129.449 112.043 129.449C110.579 129.449 109.801 128.618 109.801 126.881C109.801 125.238 110.477 124.314 112.068 124.314C112.488 124.314 112.95 124.408 113.266 124.528L113.189 125.606H113.181Z" fill="#1B365D"/>
<path d="M119.531 129.354V126.188C119.531 125.675 119.248 125.426 118.786 125.426C118.358 125.426 118.059 125.666 118.059 126.145V129.354H116.792V126.145C116.792 125.64 116.51 125.426 116.073 125.426C115.774 125.426 115.474 125.572 115.329 125.803V129.354H114.054V124.425L114.969 124.357L115.175 124.819C115.517 124.494 115.979 124.297 116.433 124.297C117.057 124.297 117.477 124.511 117.742 124.956C118.076 124.494 118.572 124.297 119.137 124.297C120.121 124.297 120.806 124.922 120.806 126.154V129.346H119.539L119.531 129.354Z" fill="#1B365D"/>
<path d="M103.784 72.3111H105.47V65.7305L103.391 66.9285L103.134 64.8576L106.523 62.7012H108.029V72.3025H109.689V74.0996H103.793V72.3025L103.784 72.3111Z" fill="#1B365D"/>
<path d="M115.902 74.2621C112.924 74.2621 111.691 72.5421 111.691 68.4602C111.691 64.3783 112.924 62.5813 115.927 62.5813C118.931 62.5813 120.155 64.173 120.155 68.4602C120.155 72.7474 118.862 74.2621 115.902 74.2621ZM115.936 64.7634C114.686 64.7634 114.13 65.3539 114.13 68.426C114.13 71.4981 114.695 72.1313 115.936 72.1313C117.177 72.1313 117.716 71.558 117.716 68.426C117.716 65.294 117.151 64.7634 115.936 64.7634Z" fill="#1B365D"/>
<path d="M122.611 70.9419H123.261L124.288 69.1534H125.691L124.339 71.404L125.734 74.1081H124.305L123.252 71.9688H122.602V74.1081H121.336V67.7329L122.602 67.673V70.9333L122.611 70.9419Z" fill="#1B365D"/>
<path d="M127.54 72.0625C127.437 72.1224 127.369 72.2079 127.369 72.3021C127.369 72.4219 127.471 72.516 127.694 72.5331L128.875 72.6016C130.039 72.67 130.475 73.0979 130.475 73.8595C130.475 74.8522 129.816 75.4597 128.199 75.4597C126.778 75.4597 126.188 74.9035 126.188 74.1505C126.188 73.8595 126.316 73.5686 126.573 73.3461C126.359 73.192 126.196 72.9524 126.196 72.6187C126.196 72.285 126.385 71.9683 126.795 71.7715C126.47 71.5319 126.256 71.1639 126.256 70.5992C126.256 69.7006 126.778 69.0588 128.156 69.0588C128.584 69.0588 129.037 69.1273 129.388 69.3327L130.227 69.0588L130.492 69.6664L129.97 70.0772C130.022 70.2226 130.047 70.4023 130.047 70.5992C130.047 71.5576 129.508 72.1138 128.165 72.1138C127.951 72.1138 127.737 72.0967 127.54 72.0625ZM127.471 73.5857C127.343 73.7055 127.266 73.8595 127.266 73.9879C127.266 74.3302 127.531 74.5013 128.173 74.5013C129.106 74.5013 129.337 74.3216 129.337 74.0392C129.337 73.8082 129.209 73.7055 128.652 73.6627L127.471 73.5771V73.5857ZM127.506 70.6334C127.506 71.1126 127.762 71.241 128.139 71.241C128.669 71.241 128.824 71.0784 128.824 70.6248C128.824 70.1713 128.635 70.0173 128.173 70.0173C127.685 70.0173 127.514 70.197 127.514 70.6334H127.506Z" fill="#1B365D"/>
<path d="M73.5001 103.25L68.8335 100.917L68.2501 99.75V85.75V58.3333L68.8335 53.6666L71.1668 50.75L88.0835 40.25L90.4168 39.6666L95.0835 42.5833L95.6668 44.3333L94.5001 43.75H92.1668L77.5835 52.5L74.0835 55.4166L72.3335 58.9166V84V101.5L73.5001 103.25Z" fill="#F0FFFF"/>
<path d="M65.9168 67.0833L62.4168 65.3333L60.6668 66.4999L59.5001 69.9999L60.0835 75.2499L61.8335 78.7499L64.1668 79.3333L63.5835 76.9999L63.0001 73.4999L64.1668 69.4166L65.9168 67.0833Z" fill="#F0FFFF"/>
<path d="M97.4521 86.0538V48.5212C97.4521 48.2902 97.4436 48.0506 97.4179 47.811C97.2981 42.6851 93.6355 40.9223 93.2333 40.7511L92.0439 40.0666C92.0182 39.9468 91.9412 39.8355 91.8299 39.767C91.5561 39.5959 91.2052 39.4333 90.7859 39.3477L85.3948 36.2756C85.3948 36.2756 85.352 36.25 85.3263 36.2414C85.1552 36.1815 81.1846 34.7439 77.5563 36.6008L75.6736 37.7218V30.0202C75.6736 29.3699 75.28 28.7366 74.6382 28.343C73.8509 27.8638 72.9011 27.8295 72.0539 28.266L66.7654 31.4065C65.7642 32.0055 64.9684 33.4432 64.9684 34.684V44.0714L62.3498 45.6203C60.0393 46.998 58.1653 50.4381 58.1653 53.3048V90.9229C58.1653 93.687 59.9024 96.9302 62.1359 98.4021C60.7496 98.7529 59.7142 100.019 59.7142 101.517C59.7142 103.288 61.1604 104.726 62.9232 104.726C64.686 104.726 66.1407 103.288 66.1407 101.517C66.1407 101.098 66.0552 100.695 65.9097 100.336L71.3094 103.023C71.3094 103.023 71.8057 103.305 72.4817 103.502C71.7715 104.093 71.3094 104.983 71.3094 105.975C71.3094 107.747 72.7556 109.184 74.527 109.184C76.2983 109.184 77.736 107.747 77.736 105.975C77.736 104.786 77.0856 103.75 76.1272 103.194C76.247 103.143 76.3582 103.091 76.4695 103.023L90.5035 95.2187C90.3238 95.6209 90.2211 96.0574 90.2211 96.528C90.2211 98.2994 91.6588 99.7456 93.4302 99.7456C95.2015 99.7456 96.6477 98.2994 96.6477 96.528C96.6477 94.8679 95.3812 93.5073 93.7724 93.3361C95.8519 91.7958 97.4521 88.7066 97.4521 86.0538ZM65.9183 34.6754C65.9183 33.7683 66.5258 32.6473 67.2446 32.228L72.5074 29.096C73.0209 28.8307 73.6284 28.8564 74.1162 29.1559C74.4756 29.3784 74.6981 29.7036 74.6981 30.0117V32.5789C74.6981 32.5789 74.6553 32.5446 74.6211 32.5275C73.8338 32.0483 72.8839 32.0141 72.0368 32.4505L66.7483 35.5911C66.4488 35.7708 66.1664 36.036 65.9183 36.3441V34.684V34.6754ZM65.9183 38.86C65.9183 37.9529 66.5258 36.8404 67.2446 36.4126L72.5074 33.2891C73.0209 33.0239 73.6284 33.0495 74.1162 33.349C74.4756 33.563 74.6981 33.8967 74.6981 34.2048V38.2096C74.6981 38.2096 74.7067 38.261 74.7152 38.2866L65.9268 43.5066V38.8685L65.9183 38.86ZM62.9146 103.759C61.6738 103.759 60.664 102.749 60.664 101.508C60.664 100.268 61.6738 99.2578 62.9146 99.2578C64.1554 99.2578 65.1652 100.268 65.1652 101.508C65.1652 102.749 64.1554 103.759 62.9146 103.759ZM62.9488 97.7774C60.878 96.6221 59.1237 93.4816 59.1237 90.9229V73.5601C59.466 76.8033 60.8181 79.1994 62.5124 79.3192L64.4635 80.4659C65.0026 81.1162 65.6359 81.4842 66.3204 81.4842C66.5429 81.4842 66.7312 81.3387 66.7911 81.1333C66.851 80.9194 66.7569 80.6969 66.5686 80.5857L65.0967 79.7214C64.3095 78.6688 63.6762 76.6493 63.6762 74.1163C63.6762 70.3339 65.0711 67.7068 66.329 67.7068C66.5515 67.7068 66.7398 67.5614 66.7997 67.356C66.8596 67.1506 66.7654 66.9195 66.5772 66.8169L62.9061 64.6518C62.829 64.6091 62.752 64.5834 62.6665 64.5834C60.9122 64.5834 59.4831 67.0137 59.1323 70.3511V53.3048C59.1323 50.7889 60.8266 47.6484 62.8462 46.4503L78.0184 37.4395C81.0733 35.882 84.5733 37.003 84.9584 37.1228L89.0573 39.4504C88.7921 39.536 88.5097 39.6472 88.2187 39.8013L71.9084 49.4283C69.5979 50.7975 67.7238 54.2461 67.7238 57.1043V98.4876C67.7238 99.1637 67.8351 99.7712 68.0319 100.285L62.9745 97.7688L62.9488 97.7774ZM63.5051 78.7886L62.9061 78.4378C62.829 78.395 62.752 78.3693 62.6665 78.3693C61.4085 78.3693 60.0137 75.7336 60.0137 71.9598C60.0137 68.186 61.323 65.713 62.5467 65.5589L65.1823 67.1078C63.7276 68.0662 62.7092 70.8046 62.7092 74.1163C62.7092 75.9048 63.0088 77.5307 63.5051 78.7886ZM71.7629 102.167L70.137 101.354C70.0942 101.235 70.0087 101.123 69.8803 101.063C69.1101 100.73 68.6737 99.7969 68.6737 98.4962V57.1128C68.6737 54.597 70.3766 51.4564 72.3876 50.2669L88.6808 40.6485C89.3226 40.3233 89.9216 40.1949 90.4608 40.2634L92.7883 41.5898C92.7883 41.5898 92.8226 41.6069 92.8397 41.6154C92.9167 41.6497 93.9436 42.1032 94.8849 43.2499C94.149 42.8819 93.028 42.6766 91.5219 43.4467L76.0074 52.663C73.6969 54.0407 71.8228 57.4808 71.8228 60.3475V99.8825C71.8228 100.952 72.0967 101.859 72.5759 102.501C72.1052 102.347 71.7886 102.176 71.78 102.167H71.7629ZM76.7775 105.967C76.7775 107.208 75.7678 108.217 74.527 108.217C73.2861 108.217 72.2764 107.208 72.2764 105.967C72.2764 104.726 73.2861 103.716 74.527 103.716C75.7678 103.716 76.7775 104.726 76.7775 105.967ZM95.6893 96.5194C95.6893 97.7603 94.6795 98.77 93.4387 98.77C92.1979 98.77 91.1881 97.7603 91.1881 96.5194C91.1881 95.2786 92.1979 94.2689 93.4387 94.2689C94.6795 94.2689 95.6893 95.2786 95.6893 96.5194ZM92.6685 92.9082L76.0159 102.176C75.1859 102.638 74.3986 102.706 73.8252 102.373C73.1578 101.979 72.7813 101.072 72.7813 99.8825V60.3475C72.7813 57.8316 74.4756 54.6911 76.4951 53.493L91.9925 44.2853C92.5231 44.0115 93.0194 43.8831 93.4815 43.8831C93.8923 43.8831 94.2688 43.9858 94.6196 44.1998C95.6893 44.8501 96.314 46.4161 96.468 47.8366C96.468 47.9051 96.4766 47.9736 96.4766 48.042C96.4766 48.0677 96.4766 48.0934 96.4851 48.119C96.4937 48.2559 96.5022 48.3843 96.5022 48.5127V86.0452C96.5022 88.6124 94.748 91.7444 92.6771 92.9082H92.6685Z" fill="#1B365D"/>
<path d="M74.6976 30.0121V32.5793C74.6976 32.5793 74.6548 32.5451 74.6206 32.528C73.8333 32.0488 72.8834 32.0146 72.0362 32.451L66.7478 35.5915C66.4483 35.7712 66.1659 36.0365 65.9177 36.3446V34.6845C65.9177 33.7774 66.5253 32.6564 67.2441 32.237L72.5069 29.1051C73.0203 28.8398 73.6279 28.8655 74.1157 29.165C74.4751 29.3874 74.6976 29.7126 74.6976 30.0207V30.0121Z" fill="#00AEC7"/>
<path d="M89.0402 39.4593C88.7749 39.5449 88.4925 39.6561 88.2015 39.8101L71.8912 49.4372C69.5807 50.8063 67.7067 54.255 67.7067 57.1131V98.4965C67.7067 99.1725 67.8179 99.7801 68.0147 100.294L62.9573 97.7777C60.8865 96.6224 59.1322 93.4819 59.1322 90.9232V73.5604C59.4745 76.8036 60.8266 79.1997 62.5209 79.3195L64.472 80.4661C65.0111 81.1165 65.6444 81.4845 66.3289 81.4845C66.5514 81.4845 66.7397 81.339 66.7996 81.1336C66.8595 80.9197 66.7654 80.6972 66.5771 80.586L65.1052 79.7217C64.318 78.6691 63.6847 76.6496 63.6847 74.1166C63.6847 70.3342 65.0796 67.7071 66.3375 67.7071C66.56 67.7071 66.7482 67.5617 66.8082 67.3563C66.8681 67.1509 66.7739 66.9198 66.5857 66.8172L62.9146 64.6521C62.8375 64.6094 62.7605 64.5837 62.675 64.5837C60.9207 64.5837 59.4916 67.014 59.1408 70.3514V53.3051C59.1408 50.7892 60.8351 47.6487 62.8547 46.4506L78.0268 37.4397C81.0818 35.8823 84.5818 37.0033 84.9669 37.1231L89.0658 39.4507L89.0402 39.4593Z" fill="#00AEC7"/>
<path d="M95.6802 96.5279C95.6802 97.7687 94.6705 98.7785 93.4297 98.7785C92.1888 98.7785 91.1791 97.7687 91.1791 96.5279C91.1791 95.2871 92.1888 94.2773 93.4297 94.2773C94.6705 94.2773 95.6802 95.2871 95.6802 96.5279Z" fill="white"/>
<path d="M65.1646 101.517C65.1646 102.758 64.1549 103.768 62.914 103.768C61.6732 103.768 60.6635 102.758 60.6635 101.517C60.6635 100.276 61.6732 99.2664 62.914 99.2664C64.1549 99.2664 65.1646 100.276 65.1646 101.517Z" fill="white"/>
<path d="M76.7691 105.975C76.7691 107.216 75.7593 108.226 74.5185 108.226C73.2777 108.226 72.2679 107.216 72.2679 105.975C72.2679 104.735 73.2777 103.725 74.5185 103.725C75.7593 103.725 76.7691 104.735 76.7691 105.975Z" fill="white"/>
<path d="M96.4768 48.128C96.4768 48.128 96.4683 48.0852 96.4683 48.051C96.4683 47.9739 96.4683 47.914 96.4597 47.8456C96.3057 46.4251 95.681 44.8591 94.6113 44.2087C94.2605 43.9948 93.884 43.8921 93.4732 43.8921C93.0111 43.8921 92.5148 44.029 91.9842 44.2943L76.4868 53.502C74.4759 54.7 72.7729 57.8406 72.7729 60.3564V99.8914C72.7729 101.081 73.1495 101.988 73.8169 102.382C74.3988 102.724 75.1776 102.655 76.0076 102.185L92.6603 92.9172C94.7397 91.7619 96.4854 88.6214 96.4854 86.0542V48.5216C96.4854 48.3933 96.4854 48.2649 96.4683 48.128H96.4768ZM77.2313 90.1617C77.2313 90.427 77.0174 90.6409 76.7521 90.6409C76.4868 90.6409 76.2729 90.427 76.2729 90.1617V68.118C76.2729 67.8527 76.4868 67.6388 76.7521 67.6388C77.0174 67.6388 77.2313 67.8527 77.2313 68.118V90.1617ZM81.4758 91.8818C81.4758 92.147 81.2618 92.361 80.9966 92.361C80.7313 92.361 80.5174 92.147 80.5174 91.8818V58.5081C80.5174 58.2428 80.7313 58.0288 80.9966 58.0288C81.2618 58.0288 81.4758 58.2428 81.4758 58.5081V91.8818ZM85.5234 93.2338C85.5234 93.4991 85.3095 93.713 85.0442 93.713C84.7789 93.713 84.565 93.4991 84.565 93.2338V52.8516C84.565 52.5778 84.7789 52.3724 85.0442 52.3724C85.3095 52.3724 85.5234 52.5864 85.5234 52.8516V93.2338ZM89.7165 86.8843C89.7165 87.1495 89.5026 87.3635 89.2373 87.3635C88.972 87.3635 88.7581 87.1495 88.7581 86.8843V53.5191C88.7581 53.2538 88.972 53.0399 89.2373 53.0399C89.5026 53.0399 89.7165 53.2538 89.7165 53.5191V86.8843ZM93.9096 80.4919C93.9096 80.7572 93.6957 80.9711 93.4304 80.9711C93.1651 80.9711 92.9512 80.7572 92.9512 80.4919V57.7721C92.9512 57.5068 93.1651 57.2929 93.4304 57.2929C93.6957 57.2929 93.9096 57.5068 93.9096 57.7721V80.4919Z" fill="#00AEC7"/>
<path d="M85.5234 52.8514V93.2336C85.5234 93.4989 85.3094 93.7128 85.0442 93.7128C84.7789 93.7128 84.5649 93.4989 84.5649 93.2336V52.8514C84.5649 52.5776 84.7789 52.3722 85.0442 52.3722C85.3094 52.3722 85.5234 52.5861 85.5234 52.8514Z" fill="#1B365D"/>
<path d="M81.4756 58.5079V91.8816C81.4756 92.1469 81.2617 92.3608 80.9964 92.3608C80.7311 92.3608 80.5172 92.1469 80.5172 91.8816V58.5079C80.5172 58.2426 80.7311 58.0287 80.9964 58.0287C81.2617 58.0287 81.4756 58.2426 81.4756 58.5079Z" fill="#1B365D"/>
<path d="M89.7164 53.5102V86.8754C89.7164 87.1406 89.5024 87.3546 89.2372 87.3546C88.9719 87.3546 88.7579 87.1406 88.7579 86.8754V53.5102C88.7579 53.2449 88.9719 53.031 89.2372 53.031C89.5024 53.031 89.7164 53.2449 89.7164 53.5102Z" fill="#1B365D"/>
<path d="M77.2305 68.1176V90.1614C77.2305 90.4267 77.0166 90.6406 76.7513 90.6406C76.486 90.6406 76.2721 90.4267 76.2721 90.1614V68.1176C76.2721 67.8524 76.486 67.6384 76.7513 67.6384C77.0166 67.6384 77.2305 67.8524 77.2305 68.1176Z" fill="#1B365D"/>
<path d="M93.9179 57.7714V80.4912C93.9179 80.7565 93.704 80.9704 93.4387 80.9704C93.1734 80.9704 92.9595 80.7565 92.9595 80.4912V57.7714C92.9595 57.5062 93.1734 57.2922 93.4387 57.2922C93.704 57.2922 93.9179 57.5062 93.9179 57.7714Z" fill="#1B365D"/>
</svg>
