<svg width="140" height="140" viewBox="0 0 140 140" fill="none" xmlns="http://www.w3.org/2000/svg">
<path d="M57.86 44.7417L62.75 43.1667L63.5568 42.8167L66.7217 40.8917L68.6206 39.6084L70.5195 37.0417L72.6667 35.5834L75 34.4167L76.8493 33.8334L82 36.1667L83.75 36.75L84.9167 37.3334L86.977 38.9667L87.61 41.5334L87.25 44.9167L91.4078 46.6667L95.2057 48.5917L99.0036 52.4417L100.903 57.575L101.536 63.35L102.417 63L104.067 63.35L104.7 64.6334L105.333 80.0334L104.7 83.8834L103.434 85.8084L101.536 87.7334V90.9417L100.27 94.15L98.3706 96.075L76.8493 110.192L73.6844 110.833L71.1525 110.192L57.86 105.058L55.961 103.133L55.1667 99.75L50.8972 98L47.7323 94.15L45.8334 89.0167V66.5584V60.7834L47.0993 55.65L50.5 51.3334L54.6951 48.5917L57.86 44.7417Z" fill="#00AEC7"/>
<path d="M87.8204 44.3334L79.384 40.0446C79.384 40.0446 78.5015 39.5732 77.3334 39.3202C78.2808 38.6074 79.397 38.0325 80.7339 37.6645C82.7975 37.1126 84.4199 37.2506 85.575 38.0784C87.5738 39.5272 87.8334 42.7007 87.8334 44.3334H87.8204Z" fill="#F0FFFF"/>
<path d="M59.8333 49.0101C58.6302 51.2656 57.7414 53.6633 57.1019 56.0304C51.3681 56.894 48.4199 60.8851 47 64.1666L46.4166 61.25C46.4166 55.7638 49.3333 48.4166 59.8333 49V49.0101Z" fill="#F0FFFF"/>
<path d="M63.3333 43.1666C62.0041 44.7994 60.8539 46.5857 59.8698 48.4976C58.1445 48.5255 56.5725 48.6929 55.1666 49C56.9559 46.0693 59.6909 44.1156 63.3333 43.1806V43.1666Z" fill="#F0FFFF"/>
<path d="M81.9896 36.8328C81.7404 36.8836 81.4807 36.9548 81.2211 37.0259C74.8234 38.9471 73.8264 46.4893 73.681 49L68 46.6824C68.0727 44.9138 68.7478 37.0971 74.7715 35.2979C75.862 34.9727 76.8071 34.9117 77.5757 35.1251L82 36.8328H81.9896Z" fill="#F0FFFF"/>
<path d="M90.0968 66.1011C87.0112 67.6885 83.7525 67.3089 82.8322 65.2729C81.9011 63.2369 83.6659 60.2921 86.7406 58.7162C87.9748 58.0721 89.274 57.75 90.4865 57.75C90.768 57.75 91.0387 57.7615 91.2985 57.8075C92.6194 57.9916 93.5721 58.6012 94.0051 59.5445C94.9254 61.5805 93.1715 64.5252 90.0968 66.1011Z" fill="#F0FFFF"/>
<path d="M104.75 67.6667V83.4167C104.037 83.8609 103.633 86.1039 102.889 86.5802C93.2793 92.7332 82.5833 99.1663 79.8889 99.1663C80.8333 99.0069 78.6124 97.3663 78.5 97.4167L77.8961 82.0189C77.8961 78.8674 78.7548 77.3167 81.3001 75.8467C82.261 75.2929 84.6837 73.9134 87.5152 72.3024C92.933 69.2213 99.6797 65.3951 100.957 64.5997C101.428 64.3077 102.038 63.5834 102.417 63.5834C102.631 63.5834 103.41 63.4927 103.583 63.5834C104.166 63.9056 104.75 65.2615 104.75 66.5V67.6667Z" fill="#F0FFFF"/>
<path d="M103.873 63.1016C103.248 62.7568 102.502 62.7365 101.717 63.0408C101.626 59.8255 100.891 52.3098 96.1555 49.2264C96.0044 49.1351 95.8533 49.0438 95.6921 48.9525L95.6316 48.9221C95.6216 48.9221 95.6014 48.9119 95.5913 48.9018L89.8992 45.6054C89.8992 45.6054 89.8589 45.5648 89.8388 45.5446C89.6474 45.433 89.4459 45.3316 89.2545 45.2301L87.9549 44.4796C88.0153 43.2422 88.0153 39.3068 85.8291 37.5014C85.4967 37.2275 85.134 37.0247 84.7411 36.8725C84.6806 36.7711 84.59 36.6899 84.4691 36.6392L77.9005 34.0224C77.9005 34.0224 77.8703 34.0123 77.8501 34.0021C76.8931 33.7283 75.7647 33.7891 74.4853 34.1745C71.5435 35.0874 69.7805 37.2579 68.7226 39.5502C68.4405 39.6719 68.1585 39.7835 67.8663 39.9153C66.204 40.676 64.7533 41.67 63.4839 42.8364C59.1015 43.445 55.9985 45.4431 54.2456 48.7699C54.2456 48.7699 54.2456 48.7801 54.2456 48.7902C47.0625 50.9506 45.8334 57.3913 45.8334 61.5295V87.0486C45.8334 97.6072 52.8452 99.6155 54.7896 99.9705C54.9105 102.729 56.1497 104.565 58.5474 105.579L67.9066 109.535C68.1786 109.697 69.7805 110.57 71.9968 110.793C72.0472 110.803 72.0976 110.823 72.148 110.823C72.1681 110.823 72.1883 110.813 72.2185 110.803C72.4603 110.823 72.7121 110.833 72.964 110.833C74.4349 110.833 76.1173 110.499 77.8199 109.515L96.9212 97.9622C97.1227 97.8304 101.727 94.7368 101.727 91.0145V87.9006C104.245 86.2879 105.333 84.2695 105.333 81.2166V66.5197C105.333 64.8462 104.82 63.6291 103.873 63.1016ZM92.0653 49.0337C93.1634 49.1047 94.1708 49.3684 95.0675 49.8552L95.1178 49.8857C95.2689 49.9668 95.4201 50.0581 95.5611 50.1494C100.236 53.1922 100.619 61.5194 100.649 63.6291C99.3592 64.4101 95.813 66.4893 92.0653 68.67V65.6475C94.463 63.8826 95.6216 61.2861 94.6846 59.3387C94.2111 58.3548 93.2943 57.6651 92.0653 57.3406V49.0438V49.0337ZM90.0705 65.5765C87.1993 66.9762 84.1668 66.6415 83.3105 64.8462C82.4441 63.0509 84.0863 60.4544 86.9474 59.0648C88.0959 58.4968 89.3048 58.2128 90.4332 58.2128C90.6951 58.2128 90.947 58.223 91.1888 58.2636C92.4179 58.4258 93.3044 58.9634 93.7074 59.7951C94.5637 61.5904 92.9317 64.1869 90.0705 65.5765ZM90.9772 66.327V69.2887C89.8791 69.9277 88.7709 70.5667 87.7231 71.1753C87.3 71.4187 86.897 71.652 86.5041 71.8751V67.4934C86.5041 67.4934 86.5646 67.4934 86.5948 67.4934C87.834 67.4934 89.2041 67.1892 90.5339 66.54C90.685 66.469 90.8261 66.3879 90.9772 66.3067V66.327ZM86.5041 58.081V50.0581C88.1261 49.4394 89.6172 49.0945 90.9772 49.0235V57.158C89.5567 57.0464 87.9851 57.371 86.5041 58.081ZM85.134 38.3534C86.6855 39.6313 86.887 42.4307 86.887 43.871L80.3385 40.0878C80.3385 40.0878 79.6535 39.6719 78.7468 39.4488C79.4822 38.8199 80.3486 38.3128 81.3863 37.9882C82.9881 37.5014 84.2474 37.6231 85.1441 38.3534H85.134ZM85.6176 44.3883C83.5523 44.3376 81.1949 44.9157 78.5956 46.1024C77.2154 46.7313 75.9864 47.5122 74.8882 48.4251C75.0696 46.5284 75.6841 42.9176 77.8199 40.392C78.8878 40.4732 79.7844 41.0006 79.8046 41.0108L85.6276 44.3883H85.6176ZM74.8076 35.2192C75.8655 34.8947 76.7822 34.8338 77.5278 35.0468L81.8195 36.7508C81.5777 36.8015 81.3258 36.8725 81.074 36.9435C74.8681 38.8605 73.9009 46.3864 73.7599 48.8917L68.2491 46.5791C68.3197 44.8143 68.9745 37.0145 74.8177 35.2192H74.8076ZM68.1585 40.9905C67.151 43.942 67.151 46.7211 67.151 46.9443C67.151 47.1573 67.282 47.3601 67.4835 47.4413L73.3166 49.8958C64.6626 58.9735 65.4887 76.3481 65.529 77.1798V81.9976C64.6324 79.3909 63.0708 76.8958 60.3608 75.6584C58.628 74.8672 57.1168 74.6339 55.8676 74.9585L55.8978 70.9623C55.8877 70.729 54.7795 47.2891 68.1685 41.0006L68.1585 40.9905ZM65.6499 89.706L52.956 82.3323C52.9863 81.105 53.2684 77.6768 55.2329 76.3988C56.3612 75.6685 57.9328 75.7496 59.9175 76.6523C65.1059 79.0156 65.6298 87.0081 65.6499 89.706ZM62.1541 44.1956C61.1063 45.3823 60.1996 46.6805 59.4239 48.0701C58.0638 48.0904 56.8247 48.2121 55.7165 48.4352C57.1269 46.3053 59.2828 44.8853 62.1541 44.2057V44.1956ZM46.9214 61.5397C46.9214 56.0626 49.0169 49.5611 58.8496 49.1655C57.7314 51.4172 56.9053 53.8109 56.3109 56.1742C50.9814 57.0363 48.2412 59.856 46.9214 63.1321V61.5295V61.5397ZM46.9214 87.0588V69.3901C46.9214 64.6231 48.5233 58.7504 56.0388 57.3304C54.4974 64.2478 54.7997 70.5058 54.8198 70.9927L54.7896 75.3642C54.7896 75.3642 54.7896 75.3946 54.7997 75.4149C54.7493 75.4454 54.6989 75.4656 54.6486 75.4961C52.0796 77.1696 51.8781 81.389 51.8781 82.6467C51.8781 82.6873 51.8781 82.7278 51.8982 82.7684V87.3124C51.8781 87.6775 51.5658 94.25 54.3967 98.8041C52.1702 98.2665 46.9315 96.0351 46.9315 87.0689L46.9214 87.0588ZM52.9762 87.3326V83.59L58.3459 86.7139V91.3593C58.3459 91.6636 58.5877 91.907 58.8899 91.907C59.1922 91.907 59.4339 91.6636 59.4339 91.3593V87.3326L65.6701 90.9637V95.3353C65.6701 96.1264 65.5592 100.163 63.3932 101.573C62.2649 102.313 60.6832 102.222 58.7086 101.33C52.4624 98.4795 52.9762 87.4746 52.9863 87.3428L52.9762 87.3326ZM71.6241 80.7094V109.657C69.7905 109.383 68.5312 108.653 68.4406 108.592C68.4204 108.582 68.4003 108.561 68.37 108.561L58.9806 104.596C57.2276 103.855 56.2504 102.618 55.9582 100.762C56.6131 101.39 57.3787 101.918 58.2552 102.324C59.4843 102.881 60.6026 103.165 61.6 103.165C62.4865 103.165 63.2723 102.942 63.9574 102.496C66.5264 100.822 66.738 96.593 66.738 95.3454V90.5073C66.738 90.5073 66.738 90.487 66.738 90.4769C66.7581 89.9799 66.7682 88.7019 66.6171 87.0791C66.6171 87.0588 66.6171 87.0385 66.6171 87.0182V77.1595C66.607 76.916 65.4887 53.2936 79.049 47.1065C83.0184 45.3011 86.2825 45.007 88.7709 46.214L91.7529 47.9382C89.6776 47.8875 87.3202 48.4555 84.6907 49.6524C70.4555 56.1437 71.5737 79.7459 71.6241 80.7196V80.7094ZM100.659 91.0246C100.659 94.1587 96.3872 97.0291 96.357 97.0494L77.286 108.582C75.664 109.525 74.0722 109.789 72.7021 109.748V80.679C72.692 80.4356 71.5737 56.8131 85.134 50.6362C85.2448 50.5855 85.3456 50.5449 85.4463 50.4942V58.6287C85.4463 58.6287 85.4463 58.6693 85.4463 58.6896C82.7262 60.4442 81.346 63.2436 82.3434 65.333C82.8874 66.4589 84.0258 67.1587 85.4362 67.4123V72.4735C85.4362 72.4735 85.4362 72.504 85.4362 72.5242C83.6732 73.5487 82.2628 74.3702 81.5878 74.7658C78.7568 76.4394 77.7091 78.3766 77.7091 81.9266V95.5483C77.7091 96.948 78.3942 98.2361 79.5024 98.9055C80.0565 99.2402 80.671 99.4126 81.3158 99.4126C82.0109 99.4126 82.7564 99.2098 83.4919 98.8142C85.9097 97.5261 95.3294 91.8157 99.8528 89.0671L100.639 88.5903V91.0449L100.659 91.0246ZM104.265 81.2166C104.265 83.9855 103.298 85.6997 100.921 87.1399L99.3088 88.1136C95.138 90.6392 85.3859 96.5524 82.9982 97.8304C81.9303 98.3984 80.8926 98.4389 80.0766 97.9521C79.2908 97.4754 78.8072 96.5524 78.8072 95.528V88.8541C80.812 87.6775 88.2873 82.9916 100.074 75.5062V80.4356C100.074 80.7399 100.316 80.9833 100.619 80.9833C100.921 80.9833 101.163 80.7399 101.163 80.4356V74.8165C102.17 74.1775 103.208 73.5182 104.276 72.8387V81.2267L104.265 81.2166ZM104.265 71.5404C94.4831 77.768 79.9356 86.9878 79.0792 87.4138C79.0188 87.4442 78.908 87.4746 78.7971 87.5254V81.9164C78.7971 78.7417 79.6434 77.1798 82.1519 75.6989C83.0989 75.1411 85.4866 73.7515 88.2772 72.1287C93.6167 69.025 100.266 65.1708 101.525 64.3695C101.989 64.0753 102.422 63.9333 102.795 63.9333C103.006 63.9333 103.188 63.9739 103.359 64.0652C103.933 64.3898 104.265 65.2823 104.265 66.5299V71.5607V71.5404Z" fill="#1B365D"/>
<path d="M65.6667 89.8334L52.8334 82.3524C52.8639 81.1072 53.1491 77.6291 55.1352 76.3325C56.276 75.5916 57.8649 75.674 59.8713 76.5898C65.1167 78.9874 65.6463 87.0962 65.6667 89.8334Z" fill="#F0FFFF"/>
<path d="M72.9873 124.823C72.9272 124.823 72.8771 124.813 72.8269 124.783C72.7267 124.722 72.6666 124.621 72.6666 124.5V115.874C72.6666 115.692 72.8069 115.551 72.9873 115.551C73.1676 115.551 73.3079 115.692 73.3079 115.874V123.934L104.692 105.672V97.1566C104.692 96.9748 104.832 96.8334 105.013 96.8334C105.193 96.8334 105.333 96.9748 105.333 97.1566V105.864C105.333 105.975 105.273 106.086 105.173 106.147L73.1376 124.793C73.1376 124.793 73.0274 124.833 72.9773 124.833L72.9873 124.823Z" fill="#1B365D"/>
<path d="M46.6574 100.323C46.6071 100.323 46.5468 100.313 46.4965 100.283L38.9943 95.9409C38.8937 95.8804 38.8334 95.7797 38.8334 95.6588V14.3274C38.8334 14.2166 38.8937 14.1058 38.9943 14.0453C39.0948 13.9849 39.2155 13.9849 39.3161 14.0453L65.5035 29.1873C65.6544 29.278 65.7147 29.4795 65.6242 29.6306C65.5337 29.7817 65.3426 29.8421 65.1817 29.7515L39.477 14.8916V95.4774L46.8183 99.7289C46.9692 99.8195 47.0295 100.021 46.939 100.172C46.8787 100.273 46.768 100.333 46.6574 100.333V100.323Z" fill="#1B365D"/>
<path d="M59.6009 120.167C59.6009 120.167 59.5015 120.157 59.4617 120.136L36.6789 108.896C36.5696 108.845 36.5 108.734 36.5 108.612C36.5 108.491 36.5497 108.379 36.659 108.318L43.9153 103.879C44.0645 103.788 44.2633 103.838 44.3527 103.99C44.4422 104.142 44.3925 104.345 44.2434 104.436L37.494 108.561L59.591 119.467L65.1873 116.295C65.3463 116.204 65.5352 116.265 65.6246 116.417C65.7141 116.579 65.6545 116.771 65.5054 116.863L59.7599 120.116C59.7599 120.116 59.6605 120.157 59.6009 120.157V120.167Z" fill="#1B365D"/>
<path d="M15.7752 64.4099V66.277H13.7804V64.4099H9.43975L9.25623 63.0454L13.2059 56.4307H15.7752V62.5986H16.7886L16.7327 64.4099H15.7752ZM13.94 59.4787L13.9959 58.4175L13.9719 58.4015L11.5702 62.5986H13.8682L13.948 59.4787H13.94Z" fill="#1B365D"/>
<path d="M21.185 66.3888C20.044 66.3888 18.9908 66.1494 18.153 65.6547L18.536 63.9471C19.3339 64.3541 20.0041 64.5935 20.9776 64.5935C22.2622 64.5935 22.7091 64.0828 22.7091 63.0615C22.7091 62.1438 22.1745 61.7768 21.0175 61.7768C20.3313 61.7768 19.5733 61.9045 19.0227 62.1199L18.2726 61.306L18.6636 56.4387H24.289L24.3528 58.3378H20.3632L20.2196 60.165C20.6664 60.0693 21.1372 60.0214 21.6399 60.0214C23.6825 60.0214 24.8315 60.9789 24.8315 62.8779C24.8315 65.0722 23.7304 66.3968 21.185 66.3968V66.3888Z" fill="#1B365D"/>
<path d="M28.7654 63.0375C28.55 62.9577 28.2866 62.9019 28.0393 62.9019C27.2414 62.9019 26.9781 63.237 26.9781 64.1386C26.9781 65.0403 27.3531 65.4153 28.0154 65.4153C28.2946 65.4153 28.5659 65.3594 28.7893 65.2557L28.8691 66.1095C28.6138 66.2691 28.2308 66.3568 27.776 66.3568C26.5073 66.3568 25.837 65.6387 25.837 64.1386C25.837 62.7183 26.4275 61.9204 27.7919 61.9204C28.151 61.9204 28.5579 62.0002 28.8213 62.1039L28.7574 63.0375H28.7654Z" fill="#1B365D"/>
<path d="M34.2466 66.277V63.5401C34.2466 63.0933 34.0072 62.8858 33.6003 62.8858C33.2332 62.8858 32.9699 63.0933 32.9699 63.5082V66.277H31.8768V63.5082C31.8768 63.0693 31.6374 62.8858 31.2544 62.8858C30.9911 62.8858 30.7358 63.0135 30.6081 63.213V66.277H29.507V62.0241L30.2969 61.9682L30.4724 62.3672C30.7677 62.0879 31.1666 61.9124 31.5576 61.9124C32.0922 61.9124 32.4593 62.0959 32.6907 62.4869C32.9779 62.0879 33.4008 61.9124 33.8955 61.9124C34.7413 61.9124 35.3398 62.447 35.3398 63.5162V66.269H34.2466V66.277Z" fill="#1B365D"/>
<path d="M91.6763 126.007C90.5629 126.007 89.6566 125.728 89 125.35L89.3782 123.823C90.0562 124.201 90.777 124.401 91.6192 124.401C92.6968 124.401 93.2178 123.944 93.2178 123.195C93.2178 122.445 92.7396 122.031 90.8841 122.031V120.661C92.654 120.661 93.1036 120.261 93.1036 119.569C93.1036 118.991 92.6469 118.663 91.6834 118.663C90.7913 118.663 90.0776 118.941 89.4425 119.426L89 117.914C89.678 117.385 90.7128 117 91.8047 117C93.7673 117 94.9021 117.913 94.9021 119.426C94.9021 120.304 94.4667 120.925 93.696 121.289V121.311C94.6023 121.639 95.1019 122.26 95.1019 123.259C95.1019 124.936 94.0314 126.007 91.6834 126.007H91.6763Z" fill="#1B365D"/>
<path d="M99.3127 126.006C98.2921 126.006 97.3501 125.792 96.6007 125.35L96.9433 123.823C97.6569 124.187 98.2564 124.401 99.1271 124.401C100.276 124.401 100.676 123.944 100.676 123.03C100.676 122.21 100.198 121.881 99.1628 121.881C98.5562 121.881 97.871 121.996 97.3786 122.188L96.7078 121.46L97.0575 117.107H102.089L102.146 118.805H98.5776L98.4491 120.44C98.8488 120.354 99.2698 120.311 99.7195 120.311C101.554 120.311 102.574 121.168 102.574 122.866C102.574 124.829 101.589 126.014 99.3127 126.014V126.006Z" fill="#1B365D"/>
<path d="M106.1 123.002C105.907 122.931 105.672 122.881 105.45 122.881C104.737 122.881 104.501 123.18 104.501 123.987C104.501 124.793 104.837 125.129 105.429 125.129C105.679 125.129 105.921 125.079 106.121 124.986L106.193 125.75C105.964 125.892 105.622 125.971 105.215 125.971C104.08 125.971 103.481 125.329 103.481 123.987C103.481 122.716 104.009 122.003 105.229 122.003C105.55 122.003 105.914 122.074 106.15 122.167L106.093 123.002H106.1Z" fill="#1B365D"/>
<path d="M111.003 125.9V123.452C111.003 123.052 110.789 122.866 110.425 122.866C110.097 122.866 109.861 123.052 109.861 123.423V125.9H108.884V123.423C108.884 123.031 108.67 122.866 108.327 122.866C108.091 122.866 107.863 122.981 107.749 123.159V125.9H106.764V122.096L107.471 122.046L107.628 122.403C107.892 122.153 108.248 121.996 108.598 121.996C109.076 121.996 109.405 122.16 109.612 122.51C109.869 122.153 110.247 121.996 110.689 121.996C111.446 121.996 111.981 122.474 111.981 123.43V125.892H111.003V125.9Z" fill="#1B365D"/>
<path d="M110.384 75.4551H112.227V68.2844L109.961 69.5937L109.679 67.3377L113.375 64.9811H115.017V75.445H116.82V77.3988H110.394V75.445L110.384 75.4551Z" fill="#1B365D"/>
<path d="M123.578 77.58C120.335 77.58 118.985 75.7068 118.985 71.2553C118.985 66.8039 120.325 64.8501 123.608 64.8501C126.891 64.8501 128.21 66.5924 128.21 71.2553C128.21 75.9183 126.8 77.58 123.578 77.58ZM123.608 67.2269C122.248 67.2269 121.634 67.8714 121.634 71.2151C121.634 74.5587 122.248 75.2536 123.608 75.2536C124.967 75.2536 125.542 74.6292 125.542 71.2151C125.542 67.8009 124.927 67.2269 123.608 67.2269Z" fill="#1B365D"/>
<path d="M130.889 73.9644H131.594L132.722 72.0106H134.253L132.783 74.468L134.303 77.4188H132.742L131.594 75.0924H130.889V77.4188H129.509V70.4697L130.889 70.4093V73.9644Z" fill="#1B365D"/>
<path d="M136.267 75.1832C136.146 75.2436 136.076 75.3443 136.076 75.445C136.076 75.5759 136.197 75.6766 136.428 75.6968L137.717 75.7673C138.986 75.8378 139.47 76.3111 139.47 77.137C139.47 78.2146 138.745 78.8893 136.992 78.8893C135.441 78.8893 134.797 78.2851 134.797 77.4592C134.797 77.137 134.938 76.8248 135.22 76.583C134.988 76.4118 134.807 76.1601 134.807 75.7874C134.807 75.4148 135.008 75.0724 135.461 74.8609C135.109 74.599 134.877 74.1962 134.877 73.5818C134.877 72.6049 135.451 71.91 136.952 71.91C137.415 71.91 137.919 71.9805 138.302 72.2021L139.218 71.91L139.5 72.5747L138.926 73.0179C138.976 73.179 139.007 73.3703 139.007 73.5919C139.007 74.6393 138.422 75.2436 136.952 75.2436C136.72 75.2436 136.489 75.2234 136.277 75.1932L136.267 75.1832ZM136.197 76.8449C136.056 76.9758 135.975 77.137 135.975 77.278C135.975 77.6506 136.257 77.8419 136.962 77.8419C137.979 77.8419 138.231 77.6506 138.231 77.3384C138.231 77.0866 138.09 76.9758 137.486 76.9255L136.197 76.8348V76.8449ZM136.237 73.6221C136.237 74.1458 136.509 74.2868 136.922 74.2868C137.506 74.2868 137.667 74.1055 137.667 73.6221C137.667 73.1387 137.466 72.9574 136.952 72.9574C136.418 72.9574 136.227 73.1488 136.227 73.6221H136.237Z" fill="#1B365D"/>
<path d="M38.8901 125.863C37.6985 125.863 36.5986 125.613 35.7236 125.096L36.1236 123.313C36.9569 123.738 37.6569 123.988 38.6735 123.988C40.015 123.988 40.4817 123.455 40.4817 122.388C40.4817 121.43 39.9234 121.046 38.7151 121.046C37.9985 121.046 37.2069 121.18 36.6319 121.405L35.8486 120.555L36.2569 115.472H42.1316L42.1982 117.455H38.0318L37.8818 119.363C38.3485 119.263 38.8401 119.213 39.3651 119.213C41.4983 119.213 42.6982 120.213 42.6982 122.196C42.6982 124.488 41.5483 125.871 38.8901 125.871V125.863Z" fill="#1B365D"/>
<path d="M46.806 122.355C46.581 122.271 46.306 122.213 46.0477 122.213C45.2144 122.213 44.9394 122.563 44.9394 123.505C44.9394 124.446 45.331 124.838 46.0227 124.838C46.3143 124.838 46.5976 124.78 46.831 124.671L46.9143 125.563C46.6476 125.73 46.2477 125.821 45.7727 125.821C44.4478 125.821 43.7478 125.071 43.7478 123.505C43.7478 122.021 44.3644 121.188 45.7893 121.188C46.1643 121.188 46.5893 121.271 46.8643 121.38L46.7976 122.355H46.806Z" fill="#1B365D"/>
<path d="M52.5308 125.738V122.88C52.5308 122.413 52.2808 122.196 51.8558 122.196C51.4725 122.196 51.1975 122.413 51.1975 122.846V125.738H50.0559V122.846C50.0559 122.388 49.8059 122.196 49.4059 122.196C49.131 122.196 48.8643 122.33 48.731 122.538V125.738H47.5811V121.296L48.406 121.238L48.5893 121.655C48.8976 121.363 49.3143 121.18 49.7226 121.18C50.2809 121.18 50.6642 121.371 50.9059 121.78C51.2058 121.363 51.6475 121.18 52.1641 121.18C53.0474 121.18 53.6724 121.738 53.6724 122.855V125.73H52.5308V125.738Z" fill="#1B365D"/>
<path d="M29.9998 123.366V123.408H33.9496L33.9079 125.391H27.0833V123.908C29.5498 121.466 31.6331 119.741 31.6331 118.225C31.6331 117.508 31.1664 117.008 30.0165 117.008C29.1082 117.008 28.2916 117.375 27.5333 117.916L27 116.083C27.8499 115.442 29.0249 115 30.4248 115C32.783 115 33.9579 116.217 33.9579 118.016C33.9579 119.816 32.3247 121.425 29.9998 123.375V123.366Z" fill="#1B365D"/>
</svg>
