<svg width="140" height="140" viewBox="0 0 140 140" fill="none" xmlns="http://www.w3.org/2000/svg">
<path d="M117.367 82.3666C117.367 101.677 105.868 118.301 89.3452 125.767H69.8826H50.1883C33.665 118.301 22.1667 101.677 22.1667 82.3666C22.1667 56.0778 43.478 34.7666 69.7667 34.7666C96.0555 34.7666 117.367 56.0778 117.367 82.3666Z" fill="#F0F3F7"/>
<rect x="32.0834" y="110.25" width="29.1667" height="2.91667" fill="#F0FFFF"/>
<rect x="35" y="113.167" width="3.5" height="11.6667" fill="#F0FFFF"/>
<rect x="55.3" y="113.167" width="3.5" height="11.6667" fill="#F0FFFF"/>
<rect x="67.0834" y="110.25" width="29.1667" height="2.91667" fill="#F0FFFF"/>
<rect x="70" y="113.167" width="3.5" height="11.6667" fill="#F0FFFF"/>
<rect x="90.3" y="113.167" width="3.5" height="11.6667" fill="#F0FFFF"/>
<path d="M35.0001 91.5833H29.7501L29.1667 92.1666V95.6666V96.8333L30.3334 97.4166H32.0834V102.083H32.6667L33.8334 101.5H36.7501V100.917L35.5834 99.7499L35.0001 97.9999V91.5833Z" fill="#F0FFFF"/>
<path d="M57.75 91.5833H63L63.5834 92.1666V95.6666V96.8333L62.4167 97.4166H60.6667V102.083H60.0834L58.9167 101.5H56V100.917L57.1667 99.7499L57.75 97.9999V91.5833Z" fill="#F0FFFF"/>
<path d="M70.0001 91.5833H64.7501L64.1667 92.1666V95.6666V96.8333L65.3334 97.4166H67.0834V102.083H67.6667L68.8334 101.5H71.7501V100.917L70.5834 99.7499L70.0001 97.9999V91.5833Z" fill="#F0FFFF"/>
<path d="M92.75 91.5833H98L98.5834 92.1666V95.6666V96.8333L97.4167 97.4166H95.6667V102.083H95.0834L93.9167 101.5H91V100.917L92.1667 99.7499L92.75 97.9999V91.5833Z" fill="#F0FFFF"/>
<circle cx="112.875" cy="52.2083" r="6.70833" fill="#B4C2D7"/>
<path d="M105.583 50.75L90.4167 39.6666H89.2501L88.6667 40.8333L86.9167 48.4166L87.5001 49L88.0834 48.4166L89.8334 46.6666H92.1667L106.167 55.4166V53.6666V51.9166L105.583 50.75Z" fill="#B4C2D7"/>
<path d="M71.1667 48.4166H35L35.5833 46.6666L43.75 39.6666L51.3333 37.3333V40.2499L53.6667 42.5833L74.0833 48.4166H71.1667Z" fill="white"/>
<path d="M119.56 68.7026V72.6693V89.2499L117.149 92.1666L119 124.25H100.333L102.083 105.583L108.211 86.2866L108.929 67.0039L111.3 68.5626C111.384 68.6186 111.487 68.6466 111.589 68.6466C111.757 68.6466 111.925 68.5626 112.028 68.4039C112.187 68.1613 112.112 67.8346 111.879 67.6759L88.9467 52.6866C88.3213 52.1546 87.9293 51.4173 87.8547 50.5959C87.78 49.7653 88.0227 48.9533 88.5547 48.3093C89.0867 47.6746 89.8333 47.2733 90.664 47.1986C91.4947 47.1146 92.3067 47.3666 92.9507 47.8986C92.9693 47.9079 92.988 47.9266 93.0067 47.9359L115.015 61.8146C115.015 61.8146 115.033 61.8146 115.043 61.8239C115.043 61.8239 115.061 61.8333 115.071 61.8426C115.108 61.8613 119.569 64.1013 119.569 68.7026H119.56Z" fill="#B4C2D7"/>
<path d="M35.4295 49.224H71.0641C71.3535 49.224 71.5868 48.9907 71.5868 48.7013C71.5868 48.412 71.3535 48.1787 71.0641 48.1787H35.4295C32.1908 48.1787 29.5588 45.5467 29.5588 42.308V30.184C29.5588 26.9453 32.1908 24.3133 35.4295 24.3133H57.9601C58.1655 24.3133 58.3615 24.192 58.4361 23.996C58.4735 23.9027 62.5615 14.7747 74.3681 17.5747C81.4801 19.264 84.0748 19.824 84.1028 19.8333C84.1215 19.8333 84.1308 19.8333 84.1495 19.8333C84.1495 19.8333 85.0361 19.964 85.4188 20.524C85.6148 20.8133 85.6522 21.1773 85.5401 21.644C85.4748 21.924 85.6428 22.204 85.9228 22.2787C86.2028 22.3533 86.4828 22.176 86.5575 21.896C86.7441 21.14 86.6508 20.4773 86.2868 19.936C85.8855 19.348 85.2602 19.0587 84.8122 18.9187C84.8588 18.4333 84.8308 17.6867 84.4295 17.052C84.0748 16.492 83.5242 16.1373 82.7775 15.9973C81.0135 15.652 79.8562 16.7813 79.3428 17.668C78.0642 17.3693 76.4961 17.0053 74.6201 16.5573C64.7828 14.224 59.9015 19.712 58.2028 22.316C58.0348 22.0267 57.7175 21.8213 57.3535 21.8213C56.8122 21.8213 56.3735 22.26 56.3735 22.8013C56.3735 22.9693 56.4201 23.128 56.4948 23.268H35.4202C31.6028 23.268 28.5042 26.3667 28.5042 30.184V42.308C28.5042 46.1253 31.6028 49.224 35.4202 49.224H35.4295ZM82.5722 17.024C83.0295 17.108 83.3375 17.304 83.5335 17.612C83.7481 17.948 83.7855 18.368 83.7668 18.6853C83.1788 18.5547 82.1055 18.312 80.4255 17.92C80.7895 17.4253 81.4895 16.8093 82.5722 17.024ZM57.3535 22.7267C57.3535 22.7267 57.4188 22.7547 57.4188 22.792C57.4188 22.8667 57.2882 22.8667 57.2882 22.792C57.2882 22.7547 57.3162 22.7267 57.3535 22.7267Z" fill="#1B365D"/>
<path d="M115.547 60.9186L113.297 59.4999C114.604 59.3879 115.845 58.9213 116.928 58.1373C118.505 56.9893 119.541 55.2999 119.84 53.3773C120.139 51.4546 119.681 49.5319 118.533 47.9546C117.385 46.3773 115.696 45.3506 113.773 45.0426C110.096 44.4639 106.605 46.7693 105.625 50.2879L90.3466 38.9946C90.1132 38.8266 89.7866 38.8733 89.6092 39.1066C89.5906 39.1346 89.5812 39.1719 89.5719 39.1999C89.5159 38.7613 89.3666 38.3319 89.1519 37.9306C88.6759 37.0626 87.8919 36.4373 86.9492 36.1666L57.5772 27.6453C56.6346 27.3746 55.6452 27.4866 54.7772 27.9626C53.9092 28.4386 53.2839 29.2226 53.0132 30.1653L50.7079 38.1266C50.4372 39.0693 50.5492 40.0679 51.0252 40.9359C51.5012 41.7946 52.2852 42.4293 53.2279 42.6999L82.5999 51.2213C82.9359 51.3239 83.2812 51.3706 83.6266 51.3706C84.2426 51.3706 84.8492 51.2119 85.4092 50.9133C86.0906 50.5399 86.6226 49.9706 86.9492 49.2986C86.8372 49.7559 86.7906 50.2319 86.8372 50.7173C86.9399 51.8279 87.4719 52.8359 88.3212 53.5359C88.3399 53.5453 88.3586 53.5639 88.3679 53.5733L107.921 66.3599L107.184 86.2586C107.184 86.2586 107.184 86.2959 107.184 86.3053C107.025 87.3319 106.96 88.5079 106.904 89.6279L103.376 100.679C103.217 100.987 102.237 103.04 101.715 105.168C101.211 107.231 100.156 121.091 99.9412 123.909H94.4439V113.932H96.2546C96.8426 113.932 97.3186 113.456 97.3186 112.868V110.432C97.3186 109.919 96.9546 109.489 96.4599 109.387C96.6559 109.06 96.7772 108.687 96.7772 108.285V97.7946H98.0466C98.9519 97.7946 99.6986 97.0573 99.6986 96.1519V92.5586C99.6986 91.6533 98.9612 90.9066 98.0466 90.9066H94.4626C94.2479 90.9066 94.0519 90.9533 93.8559 91.0279V78.8386C93.8559 77.6159 93.3519 76.4679 92.4559 75.5906C93.3519 74.7226 93.8559 73.5653 93.8559 72.3519V69.9999C93.8559 67.4146 91.5972 65.3053 88.8252 65.3053H74.8159C72.0346 65.3053 69.7852 67.4146 69.7852 69.9999V72.3519C69.7852 73.5746 70.2892 74.7226 71.1852 75.5906C70.2892 76.4679 69.7852 77.6159 69.7852 78.8386V91.0279C69.5986 90.9533 69.3932 90.9066 69.1879 90.9066H65.5946C64.9599 90.9066 64.4186 91.2706 64.1479 91.7933C63.8679 91.2706 63.3266 90.9066 62.6919 90.9066H59.1079C58.8932 90.9066 58.6972 90.9533 58.5012 91.0279V78.8386C58.5012 77.6159 57.9972 76.4679 57.1012 75.5906C57.9972 74.7226 58.5012 73.5653 58.5012 72.3519V69.9999C58.5012 67.4146 56.2426 65.3053 53.4706 65.3053H39.4519C36.6706 65.3053 34.4212 67.4146 34.4212 69.9999V72.3519C34.4212 73.5746 34.9252 74.7226 35.8212 75.5906C34.9252 76.4679 34.4212 77.6159 34.4212 78.8386V91.0279C34.2346 90.9533 34.0386 90.9066 33.8239 90.9066H30.2306C29.3252 90.9066 28.5879 91.6439 28.5879 92.5586V96.1519C28.5879 97.0573 29.3252 97.7946 30.2306 97.7946H31.4999V108.285C31.4999 108.771 31.6679 109.219 31.9479 109.573C31.6772 109.769 31.4999 110.077 31.4999 110.432V112.868C31.4999 113.456 31.9759 113.932 32.5639 113.932H34.4679V123.909H31.4906C31.2012 123.909 30.9679 124.143 30.9679 124.432C30.9679 124.721 31.2012 124.955 31.4906 124.955H100.436C100.501 124.955 100.567 124.945 100.632 124.917C100.651 124.908 100.669 124.889 100.688 124.88C100.725 124.852 100.763 124.843 100.791 124.805C100.809 124.787 100.819 124.768 100.837 124.74C100.865 124.703 100.884 124.675 100.903 124.647C100.912 124.619 100.912 124.591 100.921 124.563C100.921 124.525 100.949 124.507 100.949 124.469C100.959 124.301 102.2 107.576 102.732 105.411C103.255 103.264 104.319 101.127 104.328 101.108C104.337 101.08 104.347 101.061 104.356 101.033L107.912 89.8799C107.912 89.8799 107.94 89.7959 107.94 89.7493C107.987 88.6573 108.061 87.4159 108.22 86.3986C108.22 86.3799 108.22 86.3613 108.22 86.3333V86.3146L108.939 67.0319L111.309 68.5906C111.393 68.6466 111.496 68.6746 111.599 68.6746C111.767 68.6746 111.935 68.5906 112.037 68.4319C112.196 68.1893 112.121 67.8626 111.888 67.7039L88.9559 52.7146C88.3306 52.1826 87.9386 51.4453 87.8639 50.6239C87.7892 49.7933 88.0319 48.9813 88.5639 48.3373C89.0959 47.7026 89.8426 47.3013 90.6732 47.2266C91.5039 47.1426 92.3159 47.3946 92.9599 47.9266C92.9786 47.9359 92.9972 47.9546 93.0159 47.9639L115.024 61.8426C115.024 61.8426 115.043 61.8426 115.052 61.8519C115.052 61.8519 115.071 61.8613 115.08 61.8706C115.117 61.8893 119.579 64.1293 119.579 68.7306V72.6973L119.037 86.3146L119.009 86.8933V86.9399C119.028 87.3226 119.009 87.7146 118.953 88.0879C118.683 89.8053 117.581 91.3079 116.023 92.0919C115.901 92.1479 115.808 92.2506 115.761 92.3813L110.983 105.859C110.983 105.859 110.955 105.933 110.955 105.971L108.687 124.376C108.649 124.665 108.855 124.927 109.135 124.955C109.153 124.955 109.181 124.955 109.2 124.955C109.461 124.955 109.685 124.759 109.723 124.497L111.981 106.148L116.443 93.5573L117.133 103.581L118.216 124.012C118.225 124.292 118.459 124.507 118.739 124.507H118.767C119.056 124.488 119.28 124.245 119.261 123.956L118.179 103.516L117.423 92.4373C118.785 91.4293 119.719 89.9266 119.98 88.2373C120.055 87.8079 120.073 87.3506 120.055 86.9026L120.083 86.2959L120.615 72.8559C120.615 72.8559 120.615 72.7999 120.615 72.7719V68.7213C120.615 63.6066 115.985 61.1519 115.556 60.9373L115.547 60.9186ZM96.2546 112.849C96.2546 112.849 96.2546 112.868 96.2452 112.868L67.8906 112.849L67.9092 110.395L96.2546 110.413V112.849ZM67.8906 108.267V103.133C67.8906 102.536 68.3759 102.051 68.9732 102.051H94.6306C95.2279 102.051 95.7132 102.545 95.7132 103.133V108.267C95.7132 108.864 95.2279 109.349 94.6306 109.349H68.9732C68.3759 109.349 67.8906 108.864 67.8906 108.267ZM93.8466 92.5399C93.8466 92.2133 94.1172 91.9333 94.4532 91.9333H98.0372C98.3639 91.9333 98.6439 92.2039 98.6439 92.5399V96.1333C98.6439 96.4599 98.3732 96.7306 98.0372 96.7306H94.4532C94.1172 96.7306 93.8466 96.4599 93.8466 96.1333V92.5399ZM94.4532 97.7759H95.7226V101.304C95.4052 101.108 95.0319 100.996 94.6399 100.996H91.9799C93.0439 100.193 93.7439 98.9986 93.8372 97.6546C94.0332 97.7293 94.2386 97.7759 94.4532 97.7759ZM70.8119 78.8199C70.8119 77.7279 71.3439 76.6919 72.2866 75.9919C72.4172 75.8986 72.4919 75.7399 72.4919 75.5719C72.4919 75.4039 72.4079 75.2546 72.2866 75.1519C71.3532 74.4519 70.8119 73.4253 70.8119 72.3333V69.9813C70.8119 67.9746 72.6039 66.3319 74.7972 66.3319H88.8066C91.0092 66.3319 92.7919 67.9653 92.7919 69.9813V72.3333C92.7919 73.4253 92.2599 74.4613 91.3172 75.1519C91.1866 75.2546 91.1119 75.4039 91.1119 75.5719C91.1119 75.7399 91.1959 75.8986 91.3172 75.9919C92.2506 76.6919 92.7919 77.7279 92.7919 78.8199V97.3466C92.7919 99.3533 90.9999 100.996 88.8066 100.996H74.7972C72.5946 100.996 70.8119 99.3626 70.8119 97.3466V78.8199ZM69.7852 97.6546C69.8786 99.0079 70.5786 100.193 71.6426 100.996H68.9826C68.5812 100.996 68.2172 101.117 67.8999 101.304V97.7759H69.1692C69.3839 97.7759 69.5892 97.7293 69.7852 97.6546ZM64.9786 92.5399C64.9786 92.2133 65.2492 91.9333 65.5759 91.9333H69.1692C69.4959 91.9333 69.7666 92.2039 69.7666 92.5399V96.1333C69.7666 96.4599 69.4959 96.7306 69.1692 96.7306H65.5759C65.2492 96.7306 64.9786 96.4599 64.9786 96.1333V92.5399ZM58.4826 92.5399C58.4826 92.2133 58.7532 91.9333 59.0892 91.9333H62.6732C62.9999 91.9333 63.2799 92.2039 63.2799 92.5399V96.1333C63.2799 96.4599 63.0092 96.7306 62.6732 96.7306H59.0892C58.7626 96.7306 58.4826 96.4599 58.4826 96.1333V92.5399ZM59.0892 97.7759H60.3586V101.304C60.0412 101.108 59.6679 100.996 59.2759 100.996H56.6159C57.6799 100.193 58.3799 98.9986 58.4732 97.6546C58.6692 97.7293 58.8746 97.7759 59.0892 97.7759ZM60.3586 103.133V108.267C60.3586 108.864 59.8732 109.349 59.2759 109.349H33.6279C33.0306 109.349 32.5452 108.864 32.5452 108.267V103.133C32.5452 102.536 33.0306 102.051 33.6279 102.051H59.2759C59.8732 102.051 60.3586 102.545 60.3586 103.133ZM35.4479 78.8293C35.4479 77.7373 35.9799 76.7013 36.9226 76.0013C37.0532 75.9079 37.1279 75.7493 37.1279 75.5813C37.1279 75.4133 37.0532 75.2639 36.9226 75.1613C35.9892 74.4613 35.4479 73.4346 35.4479 72.3426V69.9906C35.4479 67.9839 37.2399 66.3413 39.4332 66.3413H53.4519C55.6452 66.3413 57.4372 67.9746 57.4372 69.9906V72.3426C57.4372 73.4346 56.9052 74.4706 55.9626 75.1613C55.8319 75.2639 55.7572 75.4133 55.7572 75.5813C55.7572 75.7493 55.8412 75.9079 55.9626 76.0013C56.8959 76.7013 57.4372 77.7373 57.4372 78.8293V97.3559C57.4372 99.3626 55.6452 101.005 53.4519 101.005H39.4332C37.2306 101.005 35.4479 99.3719 35.4479 97.3559V78.8293ZM34.4212 97.6639C34.5146 99.0173 35.2146 100.203 36.2786 101.005H33.6186C33.2172 101.005 32.8532 101.127 32.5359 101.313V97.7853H33.8052C34.0199 97.7853 34.2346 97.7386 34.4212 97.6639ZM30.2119 96.7399C29.8852 96.7399 29.6146 96.4693 29.6146 96.1426V92.5493C29.6146 92.2226 29.8852 91.9426 30.2119 91.9426H33.8052C34.1319 91.9426 34.4026 92.2133 34.4026 92.5493V96.1426C34.4026 96.4693 34.1319 96.7399 33.8052 96.7399H30.2119ZM32.5359 112.859V110.404L60.8999 110.423V112.859C60.8999 112.859 60.8999 112.877 60.8812 112.877L32.5359 112.859ZM37.7719 123.9H35.4946V113.923H37.7719V123.9ZM54.7026 123.9H38.8266V113.923H54.7026V123.9ZM58.0252 123.9H55.7479V113.923H58.0252V123.9ZM69.8132 123.9H59.0706V113.923H60.8812C61.4692 113.923 61.9452 113.447 61.9452 112.859V110.423C61.9452 109.909 61.5812 109.48 61.0866 109.377C61.2826 109.051 61.4039 108.677 61.4039 108.276V97.7853H62.6732C63.3079 97.7853 63.8492 97.4213 64.1292 96.8986C64.4092 97.4213 64.9506 97.7853 65.5759 97.7853H66.8452V108.276C66.8452 108.761 67.0132 109.209 67.2932 109.564C67.0226 109.76 66.8452 110.068 66.8452 110.423V112.859C66.8452 113.447 67.3212 113.923 67.9092 113.923H69.8132V123.9ZM73.1359 123.9H70.8586V113.923H73.1359V123.9ZM90.0666 123.9H74.1906V113.923H90.0666V123.9ZM93.3892 123.9H91.1119V113.923H93.3892V123.9ZM86.1559 48.4119C85.9599 49.0839 85.5119 49.6439 84.8866 49.9893C84.2706 50.3346 83.5519 50.4093 82.8799 50.2133L53.5079 41.6919C52.8359 41.4959 52.2759 41.0479 51.9306 40.4226C51.5946 39.8066 51.5106 39.0879 51.7066 38.4159L52.7146 34.9346L56.9426 36.1573L56.6439 37.1839C56.5599 37.4639 56.7279 37.7533 56.9986 37.8373C57.0452 37.8466 57.1012 37.8559 57.1479 37.8559C57.3719 37.8559 57.5866 37.7066 57.6519 37.4826L57.9506 36.4559L58.9959 36.7639L62.0199 37.6413C62.0199 37.6413 62.1132 37.6599 62.1599 37.6599C62.3932 37.6599 62.5986 37.5106 62.6639 37.2773C62.7479 36.9973 62.5892 36.7079 62.3092 36.6333L59.2852 35.7559L58.2399 35.4479L58.4359 34.7853C58.5199 34.5053 58.3519 34.2159 58.0812 34.1319C57.8012 34.0479 57.5119 34.2159 57.4279 34.4866L57.2319 35.1586L53.0039 33.9359L54.0119 30.4546C54.2079 29.7826 54.6559 29.2226 55.2812 28.8773C55.6826 28.6626 56.1119 28.5506 56.5506 28.5506C56.7932 28.5506 57.0452 28.5879 57.2879 28.6533L86.6599 37.1746C87.3319 37.3706 87.8919 37.8186 88.2372 38.4439C88.5732 39.0599 88.6572 39.7786 88.4612 40.4506L87.4346 43.9599C87.3692 43.8479 87.2572 43.7546 87.1172 43.7173L82.8986 42.5693L83.2159 41.4773C83.2999 41.1973 83.1412 40.9079 82.8612 40.8239C82.5812 40.7399 82.2919 40.9079 82.2079 41.1879L81.8906 42.2893L80.4532 41.8973L78.0172 41.1973C77.7372 41.1133 77.4479 41.2813 77.3639 41.5519C77.2799 41.8319 77.4479 42.1213 77.7279 42.2053L80.1732 42.9146L81.5919 43.3066L81.4239 43.8946C81.3399 44.1746 81.4986 44.4639 81.7786 44.5386C81.8252 44.5573 81.8719 44.5573 81.9279 44.5573C82.1519 44.5573 82.3666 44.4079 82.4319 44.1839L82.6092 43.5773L86.8372 44.7253C86.8372 44.7253 86.9306 44.7439 86.9772 44.7439C87.0612 44.7439 87.1452 44.7159 87.2199 44.6693L86.1372 48.4026L86.1559 48.4119ZM93.6039 47.0866C92.7546 46.3866 91.6812 46.0693 90.5799 46.1719C89.4692 46.2746 88.4706 46.8066 87.7612 47.6559C87.5466 47.9173 87.3692 48.1973 87.2199 48.4959L89.4692 40.7399C89.5626 40.4039 89.6092 40.0679 89.6092 39.7226C89.6466 39.7693 89.6746 39.8159 89.7212 39.8439L105.401 51.4359C105.271 52.5839 105.411 53.7133 105.812 54.7866L93.5852 47.0773L93.6039 47.0866ZM111.683 58.4173C111.683 58.4173 111.617 58.4173 111.58 58.4173L107.147 55.6173C107.203 55.4773 107.212 55.3186 107.137 55.1693C106.503 53.9653 106.279 52.6213 106.484 51.2773C107.016 47.8799 110.227 45.5466 113.624 46.0786C115.267 46.3399 116.713 47.2266 117.693 48.5706C118.673 49.9239 119.075 51.5666 118.813 53.2186C118.552 54.8613 117.665 56.3079 116.321 57.2879C114.968 58.2679 113.325 58.6693 111.683 58.4079V58.4173Z" fill="#1B365D"/>
<path d="M94.6307 102.041H68.9734C68.3755 102.041 67.8907 102.526 67.8907 103.124V108.267C67.8907 108.865 68.3755 109.349 68.9734 109.349H94.6307C95.2287 109.349 95.7134 108.865 95.7134 108.267V103.124C95.7134 102.526 95.2287 102.041 94.6307 102.041Z" fill="#F0FFFF"/>
<path d="M59.2761 102.041H33.6188C33.0209 102.041 32.5361 102.526 32.5361 103.124V108.267C32.5361 108.865 33.0209 109.349 33.6188 109.349H59.2761C59.8741 109.349 60.3588 108.865 60.3588 108.267V103.124C60.3588 102.526 59.8741 102.041 59.2761 102.041Z" fill="#F0FFFF"/>
<path d="M91.1212 75.5719C91.1212 75.7399 91.2052 75.8986 91.3265 75.9919C92.2598 76.6919 92.8012 77.7279 92.8012 78.8199V97.3466C92.8012 99.3532 91.0092 100.996 88.8158 100.996H74.8065C72.6038 100.996 70.8212 99.3626 70.8212 97.3466V78.8199C70.8212 77.7279 71.3532 76.6919 72.2958 75.9919C72.4265 75.8986 72.5012 75.7399 72.5012 75.5719C72.5012 75.4039 72.4172 75.2546 72.2958 75.1519C71.3625 74.4519 70.8212 73.4252 70.8212 72.3332V69.9812C70.8212 67.9746 72.6132 66.3319 74.8065 66.3319H88.8158C91.0185 66.3319 92.8012 67.9652 92.8012 69.9812V72.3332C92.8012 73.4252 92.2692 74.4612 91.3265 75.1519C91.1958 75.2546 91.1212 75.4039 91.1212 75.5719Z" fill="#F0FFFF"/>
<path d="M55.7576 75.5719C55.7576 75.7399 55.8416 75.8986 55.9629 75.9919C56.8962 76.6919 57.4376 77.7279 57.4376 78.8199V97.3466C57.4376 99.3532 55.6456 100.996 53.4522 100.996H39.4336C37.2309 100.996 35.4482 99.3626 35.4482 97.3466V78.8199C35.4482 77.7279 35.9802 76.6919 36.9229 75.9919C37.0536 75.8986 37.1282 75.7399 37.1282 75.5719C37.1282 75.4039 37.0536 75.2546 36.9229 75.1519C35.9896 74.4519 35.4482 73.4252 35.4482 72.3332V69.9812C35.4482 67.9746 37.2402 66.3319 39.4336 66.3319H53.4522C55.6456 66.3319 57.4376 67.9652 57.4376 69.9812V72.3332C57.4376 73.4252 56.9056 74.4612 55.9629 75.1519C55.8322 75.2546 55.7576 75.4039 55.7576 75.5719Z" fill="#F0FFFF"/>
<path d="M88.2282 38.4346C87.8828 37.8093 87.3322 37.3613 86.6508 37.1653L57.2788 28.6439C57.0362 28.5786 56.7842 28.5413 56.5415 28.5413C56.1029 28.5413 55.6642 28.6533 55.2722 28.8679C54.6469 29.2133 54.1989 29.7639 54.0029 30.4453L52.9948 33.9266L57.2229 35.1493L57.4189 34.4773C57.5029 34.1973 57.7922 34.0386 58.0722 34.1226C58.3522 34.2066 58.5108 34.4959 58.4268 34.7759L58.2308 35.4386L59.2762 35.7466L62.3002 36.6239C62.5802 36.7079 62.7388 36.9879 62.6548 37.2679C62.5895 37.5013 62.3842 37.6506 62.1508 37.6506C62.1042 37.6506 62.0575 37.6506 62.0109 37.6319L58.9869 36.7546L57.9415 36.4466L57.6428 37.4733C57.5775 37.6973 57.3629 37.8466 57.1389 37.8466C57.0922 37.8466 57.0455 37.8466 56.9895 37.8279C56.7095 37.7439 56.5509 37.4546 56.6349 37.1746L56.9335 36.1479L52.7055 34.9253L51.6975 38.4066C51.5015 39.0786 51.5855 39.7973 51.9215 40.4133C52.2669 41.0293 52.8175 41.4773 53.4989 41.6826L82.8709 50.2039C83.5429 50.3999 84.2615 50.3253 84.8775 49.9799C85.4935 49.6439 85.9509 49.0839 86.1469 48.4026L87.2295 44.6693C87.1549 44.7066 87.0708 44.7439 86.9868 44.7439C86.9402 44.7439 86.8935 44.7439 86.8469 44.7253L82.6188 43.5773L82.4415 44.1839C82.3762 44.4173 82.1615 44.5573 81.9375 44.5573C81.8909 44.5573 81.8348 44.5573 81.7882 44.5386C81.5082 44.4546 81.3495 44.1746 81.4335 43.8946L81.6015 43.3066L80.1829 42.9239L77.7375 42.2146C77.4575 42.1306 77.2988 41.8413 77.3735 41.5613C77.4575 41.2813 77.7468 41.1226 78.0268 41.2066L80.4628 41.9066L81.9002 42.2986L82.2175 41.1973C82.3015 40.9173 82.5909 40.7586 82.8709 40.8333C83.1509 40.9173 83.3095 41.2066 83.2255 41.4866L82.9082 42.5786L87.1269 43.7266C87.2668 43.7639 87.3789 43.8573 87.4442 43.9693L88.4709 40.4599C88.6669 39.7879 88.5829 39.0693 88.2469 38.4533L88.2282 38.4346ZM74.9282 40.8333C74.8628 41.0666 74.6482 41.2066 74.4242 41.2066C74.3775 41.2066 74.3309 41.2066 74.2749 41.1879L65.6975 38.6959C65.4175 38.6119 65.2589 38.3226 65.3429 38.0426C65.4269 37.7626 65.7162 37.6039 65.9962 37.6879L74.5735 40.1799C74.8535 40.2639 75.0122 40.5533 74.9282 40.8333Z" fill="#00AEC7"/>
<path d="M74.9282 40.8239C74.8629 41.0573 74.6482 41.1973 74.4242 41.1973C74.3776 41.1973 74.3309 41.1973 74.2749 41.1786L65.6976 38.6866C65.4176 38.6026 65.2589 38.3133 65.3429 38.0333C65.4269 37.7533 65.7162 37.5946 65.9962 37.6786L74.5736 40.1706C74.8536 40.2546 75.0122 40.5439 74.9282 40.8239Z" fill="#1B365D"/>
<path d="M41.6174 76.4679H51.1187C51.4081 76.4679 51.6414 76.2346 51.6414 75.9453C51.6414 75.6559 51.4081 75.4226 51.1187 75.4226H41.6174C41.3281 75.4226 41.0947 75.6559 41.0947 75.9453C41.0947 76.2346 41.3281 76.4679 41.6174 76.4679Z" fill="#1B365D"/>
<path d="M76.9814 76.4679H86.4827C86.7721 76.4679 87.0054 76.2346 87.0054 75.9453C87.0054 75.6559 86.7721 75.4226 86.4827 75.4226H76.9814C76.6921 75.4226 76.4587 75.6559 76.4587 75.9453C76.4587 76.2346 76.6921 76.4679 76.9814 76.4679Z" fill="#1B365D"/>
<path d="M77.4854 38.4626L76.2161 38.0986C75.5161 37.8933 74.7881 38.2946 74.5827 38.9946L73.8081 41.6546L65.6414 39.2839L66.4161 36.6239C66.6214 35.9239 66.2201 35.1959 65.5201 34.9906L64.2507 34.6266C63.5507 34.4213 62.8227 34.8226 62.6174 35.5226L61.7307 38.5653C61.1801 40.4506 62.2721 42.4293 64.1574 42.9799L73.0801 45.5653C74.9654 46.1159 76.9441 45.0239 77.4947 43.1386L78.3814 40.0959C78.5868 39.3959 78.1854 38.6679 77.4854 38.4626ZM76.2347 42.7746C75.8894 43.9599 74.6481 44.6506 73.4534 44.3053L64.5307 41.7199C63.3454 41.3746 62.6547 40.1333 63.0001 38.9386L63.8867 35.8959L65.1561 36.2599L64.2694 39.3026C64.1294 39.7879 64.4094 40.3013 64.8947 40.4506L73.8174 43.0359C74.3027 43.1759 74.8161 42.8959 74.9654 42.4106L75.8521 39.3679L77.1214 39.7319L76.2347 42.7746Z" fill="#1B365D"/>
<path d="M76.2348 42.7747C75.8895 43.96 74.6481 44.6507 73.4535 44.3053L64.5308 41.72C63.3455 41.3747 62.6548 40.1333 63.0002 38.9387L63.8868 35.896L65.1561 36.26L64.2695 39.3027C64.1295 39.788 64.4095 40.3013 64.8948 40.4507L73.8175 43.036C74.3028 43.176 74.8162 42.896 74.9655 42.4107L75.8521 39.368L77.1215 39.732L76.2348 42.7747Z" fill="white"/>
</svg>
