<svg width="141" height="140" viewBox="0 0 141 140" fill="none" xmlns="http://www.w3.org/2000/svg">
<path d="M39.8668 73.5V42L41.9668 37.8L44.7668 35L47.5668 34.3H55.9668L57.3668 33.6L58.7668 28.7L61.5668 24.5L66.4668 21.7L71.3668 21L76.2668 22.4L80.4668 25.9L82.5668 30.8L83.2668 34.3H91.6668L97.9668 36.4L100.767 42.7V73.5L101.467 74.2H105.667L110.567 77.7L113.367 82.6V90.3V98L112.667 101.5L110.567 105L107.067 107.8L102.167 108.5H100.067L99.3668 111.3L96.5668 115.5L91.6668 118.3L88.8668 119H54.5668L49.6668 118.3L45.4668 116.2L41.9668 112.7L40.5668 108.5H37.0668L33.5668 107.8L30.0668 104.3L27.9668 100.1V93.1V84L30.0668 78.4L33.5668 75.6L38.4668 74.2L39.8668 73.5Z" fill="#00AEC7"/>
<path d="M39.9696 74.228C41.4443 74.144 39.1016 91.4573 39.1016 91.4573H27.799V82.0213C27.799 82.0213 31.7936 74.6853 39.9696 74.228Z" fill="#F0FFFF"/>
<path d="M101.364 74.228V91.4573H113.535C113.535 91.4573 115.327 84.504 113.535 82.0213C111.743 79.5387 105.331 73.3973 101.364 74.228Z" fill="#F0FFFF"/>
<path d="M47.5667 78.4L50.3667 74.9L52.4667 74.2H84.6667L90.2667 74.9L93.0667 77V79.8V97.3V104.3L90.9667 107.8L86.0667 108.5H52.4667L48.9667 107.8L47.5667 105L46.8667 84L47.5667 78.4Z" fill="#F0FFFF"/>
<circle cx="70.6666" cy="53.9" r="8.4" fill="#F0FFFF"/>
<path d="M58.0667 35L47.5667 42.7L42.7038 50.456L39.9692 56.084C39.9692 56.084 39.7732 43.3907 40.0625 42.0373C40.3518 40.684 41.9854 36.7547 44.7667 35.7C47.548 34.6454 49.6478 33.992 49.6478 33.992L57.3667 34.1507L58.0667 35Z" fill="#F0FFFF"/>
<path d="M65.4168 32.6667L58.4168 35L57.8335 35.5833V30.9167L60.7502 25.0833L64.2502 22.1667L69.5002 21L75.9168 22.1667L80.5835 26.25L83.5002 32.0833V35.5833L78.8335 33.8333L72.4168 32.6667H65.4168Z" fill="#F0FFFF"/>
<path d="M84.1159 35.8772C84.1159 35.8772 91.8066 40.9826 93.6826 43.4372C95.5586 45.8919 100.767 55.2999 100.767 55.2999L100.869 54.6466V40.3852C100.869 40.3852 97.1733 36.0173 95.1666 34.2999C91.6666 34.2999 83.2666 34.2999 83.2666 34.2999L84.1159 35.8679V35.8772Z" fill="#F0FFFF"/>
<path d="M87.0933 119.597H53.7453C45.7373 119.597 39.2133 113.083 39.2133 105.065V63.0746C39.2133 45.8733 53.2133 31.8733 70.4146 31.8733C87.6159 31.8733 101.616 45.8733 101.616 63.0746V105.065C101.616 113.073 95.1012 119.597 87.0839 119.597H87.0933ZM70.4146 33.3853C54.0439 33.3853 40.7253 46.704 40.7253 63.0746V105.065C40.7253 112.243 46.5679 118.085 53.7453 118.085H87.0933C94.2706 118.085 100.113 112.243 100.113 105.065V63.0746C100.113 46.704 86.7946 33.3853 70.4146 33.3853Z" fill="#1B365D"/>
<path d="M87.8683 109.48H52.747C49.247 109.48 46.391 106.633 46.391 103.124V79.7907C46.391 76.2907 49.2377 73.4347 52.747 73.4347H87.8683C91.3683 73.4347 94.2243 76.2814 94.2243 79.7907V103.124C94.2243 106.624 91.3777 109.48 87.8683 109.48ZM52.747 74.9467C50.0777 74.9467 47.903 77.1214 47.903 79.7907V103.124C47.903 105.793 50.0777 107.968 52.747 107.968H87.8683C90.5377 107.968 92.7123 105.793 92.7123 103.124V79.7907C92.7123 77.1214 90.5377 74.9467 87.8683 74.9467H52.747Z" fill="#1B365D"/>
<path d="M93.4683 87.5465H47.147C46.727 87.5465 46.391 87.2105 46.391 86.7905C46.391 86.3705 46.727 86.0345 47.147 86.0345H93.4683C93.8883 86.0345 94.2243 86.3705 94.2243 86.7905C94.2243 87.2105 93.8883 87.5465 93.4683 87.5465Z" fill="#1B365D"/>
<path d="M85.4229 95.8159C85.0029 95.8159 84.6669 95.4799 84.6669 95.0599V86.7999C84.6669 86.3799 85.0029 86.0439 85.4229 86.0439C85.8429 86.0439 86.1789 86.3799 86.1789 86.7999V95.0599C86.1789 95.4799 85.8429 95.8159 85.4229 95.8159Z" fill="#1B365D"/>
<path d="M70.4146 62.8879C65.5613 62.8879 61.6133 58.9399 61.6133 54.0866C61.6133 49.2333 65.5613 45.2853 70.4146 45.2853C75.2679 45.2853 79.2159 49.2333 79.2159 54.0866C79.2159 58.9399 75.2679 62.8879 70.4146 62.8879ZM70.4146 46.7973C66.3919 46.7973 63.1253 50.0733 63.1253 54.0866C63.1253 58.0999 66.3919 61.3759 70.4146 61.3759C74.4373 61.3759 77.7039 58.0999 77.7039 54.0866C77.7039 50.0733 74.4279 46.7973 70.4146 46.7973Z" fill="#1B365D"/>
<path d="M65.1976 48.4586C64.7776 48.4586 64.4417 48.1226 64.4417 47.7026V33.0773C64.4417 32.6573 64.7776 32.3213 65.1976 32.3213C65.6176 32.3213 65.9536 32.6573 65.9536 33.0773V47.7026C65.9536 48.1226 65.6176 48.4586 65.1976 48.4586Z" fill="#1B365D"/>
<path d="M75.4174 48.4586C74.9974 48.4586 74.6614 48.1226 74.6614 47.7026V33.0399C74.6614 32.6199 74.9974 32.2839 75.4174 32.2839C75.8374 32.2839 76.1734 32.6199 76.1734 33.0399V47.7026C76.1734 48.1226 75.8374 48.4586 75.4174 48.4586Z" fill="#1B365D"/>
<path d="M65.1976 74.9467C64.7776 74.9467 64.4417 74.6107 64.4417 74.1907V61.152C64.4417 60.732 64.7776 60.396 65.1976 60.396C65.6176 60.396 65.9536 60.732 65.9536 61.152V74.1907C65.9536 74.6107 65.6176 74.9467 65.1976 74.9467Z" fill="#1B365D"/>
<path d="M75.4174 74.9467C74.9974 74.9467 74.6614 74.6107 74.6614 74.1907V61.124C74.6614 60.704 74.9974 60.368 75.4174 60.368C75.8374 60.368 76.1734 60.704 76.1734 61.124V74.1907C76.1734 74.6107 75.8374 74.9467 75.4174 74.9467Z" fill="#1B365D"/>
<path d="M40.4735 109.48H39.2228C32.5121 109.48 27.0521 104.02 27.0521 97.3093V85.652C27.0521 78.9413 32.5121 73.4813 39.2228 73.4813H39.9788C40.3988 73.4813 40.7348 73.8173 40.7348 74.2373C40.7348 74.6573 40.3988 74.9933 39.9788 74.9933H39.2228C33.3428 74.9933 28.5548 79.7813 28.5548 85.6613V97.3187C28.5548 103.199 33.3428 107.987 39.2228 107.987H40.4735C40.8935 107.987 41.2295 108.323 41.2295 108.743C41.2295 109.163 40.8935 109.499 40.4735 109.499V109.48Z" fill="#1B365D"/>
<path d="M21.2655 98.4106C20.9295 98.4106 20.6308 98.1866 20.5375 97.8506C20.4255 97.4493 20.6682 97.0386 21.0695 96.9266C23.5055 96.2826 26.2868 92.4746 27.1548 91.056C27.2948 90.832 27.5375 90.7013 27.7988 90.7013H39.1015C39.5215 90.7013 39.8575 91.0373 39.8575 91.4573C39.8575 91.8773 39.5215 92.2133 39.1015 92.2133H28.2188C27.3882 93.4733 24.4948 97.58 21.4615 98.392C21.3962 98.4106 21.3308 98.42 21.2655 98.42V98.4106Z" fill="#1B365D"/>
<path d="M102.111 109.48H100.86C100.44 109.48 100.104 109.144 100.104 108.724C100.104 108.304 100.44 107.968 100.86 107.968H102.111C107.991 107.968 112.779 103.18 112.779 97.3V85.6426C112.779 79.7626 107.991 74.9746 102.111 74.9746H101.364C100.944 74.9746 100.608 74.6386 100.608 74.2186C100.608 73.7986 100.944 73.4626 101.364 73.4626H102.111C108.822 73.4626 114.282 78.9226 114.282 85.6333V97.2906C114.282 104.001 108.822 109.461 102.111 109.461V109.48Z" fill="#1B365D"/>
<path d="M120.068 98.4106C120.003 98.4106 119.937 98.4106 119.872 98.3826C116.839 97.5706 113.945 93.4639 113.115 92.2039H102.223C101.803 92.2039 101.467 91.8679 101.467 91.4479C101.467 91.0279 101.803 90.6919 102.223 90.6919H113.525C113.787 90.6919 114.029 90.8319 114.169 91.0466C115.037 92.4559 117.819 96.2639 120.255 96.9172C120.656 97.0292 120.899 97.4399 120.787 97.8412C120.693 98.1772 120.395 98.4012 120.059 98.4012L120.068 98.4106Z" fill="#1B365D"/>
<path d="M83.2479 34.7386C82.8279 34.7386 82.4919 34.4026 82.4919 33.9826C82.4919 27.3186 77.0785 21.9053 70.4145 21.9053C63.7505 21.9053 58.3372 27.328 58.3372 33.9826C58.3372 34.4026 58.0012 34.7386 57.5812 34.7386C57.1612 34.7386 56.8252 34.4026 56.8252 33.9826C56.8252 26.488 62.9199 20.3933 70.4145 20.3933C77.9092 20.3933 84.0039 26.488 84.0039 33.9826C84.0039 34.4026 83.6679 34.7386 83.2479 34.7386Z" fill="#1B365D"/>
<path d="M39.9693 63.8306C39.5493 63.8306 39.2133 63.4946 39.2133 63.0746V43.2879C39.2133 37.8373 43.6466 33.4039 49.0973 33.4039H57.5813C58.0013 33.4039 58.3373 33.7399 58.3373 34.1599C58.3373 34.5799 58.0013 34.9159 57.5813 34.9159H49.0973C44.4773 34.9159 40.7159 38.6773 40.7159 43.2973V63.0839C40.7159 63.5039 40.3799 63.8399 39.9599 63.8399L39.9693 63.8306Z" fill="#1B365D"/>
<path d="M100.86 63.8307C100.44 63.8307 100.104 63.4947 100.104 63.0747V43.288C100.104 38.668 96.3428 34.9067 91.7228 34.9067H83.2388C82.8188 34.9067 82.4828 34.5707 82.4828 34.1507C82.4828 33.7307 82.8188 33.3947 83.2388 33.3947H91.7228C97.1734 33.3947 101.607 37.828 101.607 43.2787V63.0653C101.607 63.4853 101.271 63.8213 100.851 63.8213L100.86 63.8307Z" fill="#1B365D"/>
</svg>
