<svg width="140" height="140" viewBox="0 0 140 140" fill="none" xmlns="http://www.w3.org/2000/svg">
<path d="M117.268 71.6C117.268 90.91 105.77 107.534 89.2468 115H69.7842H50.0899C33.5666 107.534 22.0684 90.91 22.0684 71.6C22.0684 45.3112 43.3796 24 69.6684 24C95.9571 24 117.268 45.3112 117.268 71.6Z" fill="#F0F3F7"/>
<path d="M29.7686 115L19.2686 94H24.1686L33.9686 115H29.7686Z" fill="#F0FFFF"/>
<path d="M95.5684 115L85.0684 94H89.9684L99.7684 115H95.5684Z" fill="#F0FFFF"/>
<path d="M43.7684 70.2H22.0684L20.6684 71.6V73.7L22.7684 75.1H38.1684H43.0684L44.4684 76.5L45.8684 82.8V83.5H20.6684L17.1684 84.2L15.7684 87L15.0684 89.1L16.4684 92.6L19.2684 94H43.7684H47.9684L51.4684 91.2L52.1684 88.4L51.4684 84.2L50.7684 77.9L49.3684 73.7L47.9684 71.6L43.7684 70.2Z" fill="#F0FFFF"/>
<path d="M108.168 70.2H86.4683L85.0683 71.6V73.7L87.1683 75.1H102.568H107.468L108.868 76.5L110.268 82.8V83.5H85.0683L81.5683 84.2L80.1683 87L79.4683 89.1L80.8683 92.6L83.6683 94H108.168H112.368L115.868 91.2L116.568 88.4L115.868 84.2L115.168 77.9L113.768 73.7L112.368 71.6L108.168 70.2Z" fill="#F0FFFF"/>
<path d="M49.3684 73.0001L46.5684 70.9001L45.8684 66.7001V57.6L47.9684 49.9L50.0684 46.4L49.3684 45L47.9684 42.2L48.6684 38L50.7684 35.2L53.5684 33.8L57.0684 34.5L59.1684 36.6L59.8684 38.7L52.1684 85.6001L50.7684 77.2001L49.3684 73.0001Z" fill="#F0FFFF"/>
<path d="M113.769 73.0001L110.969 70.9001L110.269 66.7001V57.6L112.369 49.9L114.469 46.4L113.769 45L112.369 42.2L113.069 38L115.169 35.2L117.969 33.8L121.469 34.5L123.569 36.6L124.269 38.7L116.569 85.6001L115.169 77.2001L113.769 73.0001Z" fill="#F0FFFF"/>
<path d="M120.544 33.5294C117.856 32.8854 114.328 33.8934 112.928 37.6081C112.742 38.1027 112.611 38.5881 112.518 39.0641C111.379 38.4574 110.119 38.1401 108.822 38.1401C104.454 38.1401 100.907 41.6867 100.907 46.0547C100.907 50.4227 104.463 53.9694 108.822 53.9694C109.559 53.9694 110.278 53.8574 110.978 53.6614C110.81 54.2867 110.651 54.9681 110.511 55.6774C110.268 55.4907 110.007 55.3321 109.727 55.1921C108.579 54.6227 107.282 54.5387 106.059 54.9401C104.836 55.3507 103.856 56.2001 103.278 57.3481L97.1083 69.7427H87.4669C87.4669 69.7427 87.4109 69.7427 87.3829 69.7427C87.3829 69.7427 87.3736 69.7427 87.3643 69.7427H83.2576C80.6069 69.7427 78.4509 71.8987 78.4509 74.5494C78.4509 76.6027 79.7576 78.3574 81.5776 79.0387C80.6536 79.5894 79.9163 80.4387 79.5336 81.4841L69.5096 108.663C68.5949 111.145 69.8736 113.908 72.3563 114.832C72.8883 115.028 73.4483 115.131 74.0083 115.131C74.6989 115.131 75.3803 114.981 76.0243 114.683C77.1909 114.141 78.0776 113.189 78.5256 111.985L84.9283 94.5974H85.4883C85.4883 94.5974 85.4976 94.6814 85.5163 94.7187L95.1949 114.44H82.9963C82.7163 114.44 82.4923 114.664 82.4923 114.944C82.4923 115.224 82.7163 115.448 82.9963 115.448H100.244C100.3 115.448 100.366 115.429 100.422 115.411C100.431 115.411 100.44 115.411 100.45 115.401C100.45 115.401 100.459 115.401 100.468 115.401C100.496 115.392 100.506 115.373 100.524 115.355C100.552 115.336 100.58 115.317 100.608 115.289C100.636 115.261 100.646 115.233 100.664 115.215C100.683 115.187 100.702 115.159 100.711 115.131C100.73 115.093 100.73 115.056 100.739 115.019C100.739 114.991 100.748 114.972 100.748 114.953V114.935C100.748 114.935 100.73 114.869 100.73 114.841C100.73 114.813 100.72 114.776 100.702 114.748C100.702 114.748 100.702 114.748 100.702 114.739L90.8269 94.6161H110.67C113.694 94.6161 117.203 92.1894 117.203 89.0627V88.5774C117.418 87.1494 124.184 42.8907 124.632 38.8307C124.95 35.9187 122.794 34.0707 120.526 33.5294H120.544ZM108.822 52.9801C105.004 52.9801 101.906 49.8721 101.906 46.0641C101.906 42.2561 105.014 39.1481 108.822 39.1481C110.082 39.1481 111.304 39.4934 112.378 40.1374C112.163 43.2361 113.666 45.6161 114.31 46.4747C113.722 47.2027 112.378 49.1347 111.314 52.5041C110.52 52.8121 109.69 52.9801 108.822 52.9801ZM104.183 57.8147C104.631 56.9094 105.415 56.2374 106.376 55.9107C107.347 55.5841 108.374 55.6587 109.279 56.1067C109.662 56.3027 110.007 56.5547 110.296 56.8534C109.988 58.7761 109.811 60.9974 109.839 63.5081L106.712 69.7894C106.311 69.7707 105.9 69.7614 105.471 69.7614H98.2376L104.183 57.8147ZM110.371 70.3307C109.606 70.1067 108.756 69.9667 107.804 69.8734L109.914 65.6361C109.998 67.1014 110.147 68.6787 110.371 70.3401V70.3307ZM79.4776 74.5681C79.4776 72.4681 81.1856 70.7601 83.2856 70.7601H85.2829C84.8256 71.2827 84.5456 71.9641 84.5456 72.7014C84.5456 74.3254 85.8616 75.6507 87.4949 75.6507H103.707C103.231 77.2374 101.756 78.3667 100.067 78.3667H83.2949C81.1949 78.3667 79.4869 76.6587 79.4869 74.5681H79.4776ZM77.6016 111.659C77.2563 112.611 76.5469 113.367 75.6229 113.787C74.6989 114.216 73.6629 114.263 72.7203 113.908C70.7509 113.18 69.7429 110.996 70.4616 109.027L80.4949 81.8574C81.1016 80.2147 82.8096 79.1787 84.5363 79.3934C84.6203 79.4027 84.6949 79.3934 84.7603 79.3654H100.058C102.298 79.3654 104.239 77.7974 104.734 75.6507H105.48C105.48 75.6507 105.536 75.6507 105.564 75.6507C105.592 75.6507 108.439 75.1654 108.906 76.9481C109.354 78.6654 109.886 81.7174 110.1 82.9867H84.8163C81.7549 82.9867 79.2629 85.4787 79.2629 88.5401V89.0627C79.2629 91.8161 81.2789 94.1027 83.9109 94.5321L77.6016 111.659ZM99.4789 114.459H96.3336L86.5896 94.6161H89.7629C89.7629 94.6161 89.7723 94.7001 89.7909 94.7374L99.4789 114.459ZM116.232 89.0627C116.232 91.5827 113.199 93.6174 110.698 93.6174H84.8256C82.3149 93.6174 80.2709 91.5734 80.2709 89.0627V88.5401C80.2709 86.0294 82.3149 83.9854 84.8256 83.9854H110.698C110.847 83.9854 110.987 83.9201 111.08 83.8081C111.174 83.6961 111.22 83.5467 111.192 83.4067C111.164 83.2294 110.464 78.9454 109.876 76.6961C109.214 74.1574 105.891 74.5867 105.443 74.6614H87.4949C86.4216 74.6614 85.5536 73.7934 85.5536 72.7201C85.5536 71.6467 86.4216 70.7787 87.4949 70.7787H105.49C112.154 70.7787 113.964 73.0467 114.618 76.4627C115.458 80.8121 116.186 88.1014 116.232 88.5774V89.0721V89.0627ZM123.662 38.7281C123.298 42.1067 118.5 73.6534 116.811 84.6854C116.512 82.1001 116.074 78.7214 115.598 76.2574C115.066 73.4667 113.768 71.6841 111.444 70.7041C108.971 53.7921 115.271 46.9041 115.336 46.8294C115.514 46.6427 115.523 46.3534 115.346 46.1574C115.234 46.0267 113.05 43.4787 113.404 39.9601C113.404 39.9601 113.404 39.9414 113.404 39.9321C113.47 39.2974 113.619 38.6347 113.88 37.9534C115.056 34.8081 118.043 33.9587 120.32 34.5001C122.028 34.9107 123.932 36.2547 123.662 38.7187V38.7281Z" fill="#1B365D"/>
<path d="M114.31 46.4746C113.722 47.2026 112.378 49.1346 111.314 52.504C110.521 52.812 109.69 52.9799 108.822 52.9799C105.005 52.9799 101.906 49.8719 101.906 46.0639C101.906 42.2559 105.014 39.1479 108.822 39.1479C110.082 39.1479 111.305 39.4933 112.378 40.1373C112.163 43.236 113.666 45.616 114.31 46.4746Z" fill="#B4C2D7"/>
<path d="M110.371 70.3214C109.606 70.0974 108.756 69.9574 107.804 69.864L109.914 65.6267C109.998 67.092 110.147 68.6694 110.371 70.3307V70.3214Z" fill="#B4C2D7"/>
<path d="M110.305 56.8532C109.997 58.7759 109.82 60.9972 109.848 63.5079L106.721 69.7892C106.32 69.7706 105.909 69.7612 105.48 69.7612H98.2466L104.192 57.8146C104.64 56.9092 105.424 56.2372 106.385 55.9106C107.356 55.5839 108.383 55.6586 109.288 56.1066C109.671 56.3026 110.016 56.5546 110.305 56.8532Z" fill="#B4C2D7"/>
<path d="M103.698 75.6507C103.222 77.2373 101.747 78.3667 100.058 78.3667H83.2858C81.1858 78.3667 79.4778 76.6587 79.4778 74.568C79.4778 72.4773 81.1858 70.76 83.2858 70.76H85.2831C84.8258 71.2827 84.5458 71.964 84.5458 72.7013C84.5458 74.3253 85.8618 75.6507 87.4951 75.6507H103.707H103.698Z" fill="#B4C2D7"/>
<path d="M79.2538 88.54V89.0627C79.2538 91.816 81.2698 94.1027 83.9018 94.532L77.5925 111.659C77.2471 112.611 76.5378 113.367 75.6138 113.787C74.6898 114.216 73.6538 114.263 72.7111 113.908C70.7418 113.18 69.7338 110.996 70.4525 109.027L80.4858 81.8573C81.0925 80.2147 82.8005 79.1787 84.5271 79.3933C84.6111 79.4027 84.6858 79.3933 84.7511 79.3653H100.048C102.288 79.3653 104.23 77.7973 104.724 75.6507H105.471C105.471 75.6507 105.527 75.6507 105.555 75.6507C105.583 75.6507 108.43 75.1653 108.896 76.948C109.344 78.6653 109.876 81.7173 110.091 82.9867H84.8071C81.7458 82.9867 79.2538 85.4787 79.2538 88.54Z" fill="#B4C2D7"/>
<path d="M34.6121 115.019C34.6121 115.019 34.6307 114.972 34.6307 114.944C34.6307 114.944 34.6307 114.944 34.6307 114.935C34.6307 114.897 34.6214 114.869 34.6121 114.832C34.6121 114.804 34.6027 114.767 34.5841 114.739C34.5841 114.739 34.5841 114.739 34.5841 114.729L24.7001 94.6067H46.0921C49.1161 94.6067 52.6254 92.18 52.6254 89.0533V88.568C52.8401 87.14 59.6067 42.8813 60.0547 38.8213C60.3721 35.9093 58.2254 34.0613 55.9481 33.52C53.2601 32.876 49.7321 33.884 48.3321 37.5987C46.7174 41.892 48.9107 45.3827 49.7134 46.4653C48.4534 48.0333 43.6747 55.1267 45.7747 70.312C44.4401 69.9293 42.8161 69.752 40.8841 69.752H22.8894C21.2654 69.752 19.9401 71.0773 19.9401 72.7013C19.9401 74.3253 21.2654 75.6507 22.8894 75.6507H40.8841C40.8841 75.6507 40.9401 75.6507 40.9681 75.6507C40.9961 75.6507 43.8428 75.1747 44.3094 76.948C44.7574 78.6653 45.2894 81.7173 45.5041 82.9867H20.2201C17.1587 82.9867 14.6667 85.4787 14.6667 88.54V89.0627C14.6667 91.8253 16.7014 94.1213 19.3521 94.5413C19.3521 94.6067 19.3707 94.672 19.3987 94.7373L29.0867 114.459H16.8974C16.6174 114.459 16.3934 114.683 16.3934 114.963C16.3934 115.243 16.6174 115.467 16.8974 115.467H34.1454C34.2014 115.467 34.2668 115.457 34.3228 115.429C34.3228 115.429 34.3414 115.429 34.3507 115.42C34.3507 115.42 34.3601 115.42 34.3694 115.42C34.3881 115.411 34.4067 115.392 34.4254 115.373C34.4534 115.355 34.4907 115.336 34.5094 115.308C34.5281 115.28 34.5467 115.252 34.5654 115.233C34.5841 115.205 34.6027 115.177 34.6121 115.149C34.6214 115.112 34.6307 115.075 34.6307 115.047L34.6121 115.019ZM50.7214 46.8293C50.8988 46.6427 50.9081 46.344 50.7401 46.1573C50.6094 46.008 47.5761 42.48 49.2654 37.9627C50.4414 34.8173 53.4374 33.968 55.7054 34.5093C57.4134 34.92 59.3174 36.264 59.0467 38.728C58.6734 42.1067 53.8761 73.6533 52.1961 84.6853C51.8974 82.1 51.4587 78.7213 50.9827 76.2573C50.4414 73.4667 49.1534 71.684 46.8294 70.704C44.3561 53.792 50.6561 46.904 50.7214 46.8387V46.8293ZM15.6561 89.0533V88.5307C15.6561 86.02 17.7001 83.976 20.2107 83.976H46.0827C46.2321 83.976 46.3721 83.9107 46.4654 83.7987C46.5587 83.6867 46.6054 83.5373 46.5774 83.3973C46.5494 83.22 45.8494 78.9267 45.2707 76.6867C44.6081 74.148 41.2854 74.5773 40.8374 74.652H22.8894C21.8161 74.652 20.9481 73.784 20.9481 72.7107C20.9481 71.6373 21.8161 70.7693 22.8894 70.7693H40.8841C47.5481 70.7693 49.3587 73.0373 50.0121 76.444C50.8521 80.7933 51.5801 88.092 51.6267 88.568V89.0627C51.6267 91.5827 48.6027 93.6173 46.0921 93.6173H20.2201C17.7094 93.6173 15.6654 91.5733 15.6654 89.0627L15.6561 89.0533ZM20.4441 94.6067H23.6081C23.6081 94.6067 23.6174 94.6907 23.6361 94.728L33.3241 114.449H30.1881L20.4441 94.6067Z" fill="#1B365D"/>
<path d="M60.69 100.365H54.222V99.9173C54.222 98.4333 53.018 96.772 51.394 96.772H47.53C45.9153 96.772 44.7113 98.424 44.7113 99.9173V100.365H38.2433C37.3007 100.365 36.5447 101.121 36.5447 102.064V113.563C36.5447 114.496 37.3007 115.261 38.2433 115.261H60.6807C61.614 115.261 62.3794 114.496 62.3794 113.563V102.064C62.3794 101.121 61.614 100.365 60.6807 100.365H60.69ZM45.7193 99.9173C45.7193 98.9466 46.5313 97.78 47.5393 97.78H51.4033C52.4113 97.78 53.2233 98.9466 53.2233 99.9173V100.365H45.7193V99.9173ZM41.2487 114.272H38.2527C37.8607 114.272 37.5527 113.955 37.5527 113.572V102.073C37.5527 101.681 37.8607 101.373 38.2527 101.373H41.2487V114.272ZM56.9473 114.272H42.2473V101.373H56.9473V114.272ZM61.3993 113.572C61.3993 113.955 61.082 114.272 60.6993 114.272H57.946V101.373H60.6993C61.082 101.373 61.3993 101.681 61.3993 102.073V113.572Z" fill="#1B365D"/>
<path d="M61.3896 102.064V113.563C61.3896 113.945 61.0723 114.263 60.6896 114.263H57.9363V101.364H60.6896C61.0723 101.364 61.3896 101.672 61.3896 102.064Z" fill="#00AEC7"/>
<path d="M56.9378 101.364H42.2378V114.263H56.9378V101.364Z" fill="#00AEC7"/>
<path d="M41.239 101.364V114.263H38.243C37.851 114.263 37.543 113.945 37.543 113.563V102.064C37.543 101.672 37.851 101.364 38.243 101.364H41.239Z" fill="#00AEC7"/>
<path d="M64.442 81.0733L80.178 65.972C80.374 65.776 80.3833 65.468 80.1967 65.2626C80.0007 65.0666 79.6833 65.0573 79.4873 65.244L63.742 80.3453L63.1167 79.7106C63.0047 79.5893 62.8367 79.5426 62.678 79.5706C62.5193 79.5986 62.3793 79.7013 62.3047 79.8506L60.718 83.2946C60.718 83.304 60.718 83.3133 60.7087 83.332C60.69 83.3786 60.6807 83.4253 60.6807 83.472C60.6807 83.4906 60.6807 83.5093 60.6807 83.528C60.6807 83.5653 60.6807 83.612 60.6993 83.6493C60.6993 83.668 60.7087 83.6866 60.718 83.7053C60.7367 83.752 60.7647 83.808 60.8113 83.8453C60.8487 83.8826 60.9047 83.9106 60.9513 83.9386C61.0167 83.976 61.0913 83.9946 61.1753 83.9946C61.2407 83.9946 61.306 83.9853 61.362 83.9573L64.862 82.464C65.0113 82.3986 65.1233 82.268 65.1513 82.1C65.1793 81.9413 65.1327 81.7733 65.0207 81.652L64.4327 81.0546L64.442 81.0733Z" fill="#1B365D"/>
</svg>
