<svg width="140" height="140" viewBox="0 0 140 140" fill="none" xmlns="http://www.w3.org/2000/svg">
<path d="M124.833 105L108.5 78.75H110.833L114.333 79.9167L116.667 81.6667L126 96.8333L127.167 98.5833V101.5L126 103.833L124.833 105Z" fill="#00AEC7"/>
<path d="M15.75 105L31.5 78.75H29.1667L26.25 79.9167L23.3334 82.25L12.8334 98.5833V102.083L14.5834 104.417L15.75 105Z" fill="#00AEC7"/>
<path d="M76.0854 49.4759C76.0854 49.9239 76.0294 50.3906 75.9174 50.8573C75.9174 50.8759 75.9174 50.8946 75.9081 50.9133L75.6529 53.0833L94.5 64.75L95.0833 67.6666L94.5 70L91 71.75L75.25 62.4166L73.4068 72.1839C73.4068 72.1839 73.4068 72.2213 73.4068 72.2493C73.4068 72.9866 73.5747 75.012 73.5 75.8333L84.5833 88.0833L89.25 112L81.0833 113.75L77 92.1666L69.4167 84.5833L63 113.75L54.8333 112L63 77L60.6667 74.0833C60.6667 73.6726 60.6059 71.9553 60.6667 71.1666C60.6059 69.0386 61.3108 69.4119 61.3108 69.4119L63.1214 55.4306L69.2068 52.1453C69.4588 52.0053 69.5614 51.6879 69.4214 51.4359C69.2814 51.1839 68.9641 51.0906 68.7121 51.2306L58.1001 56.9706C58.0068 57.0173 57.9321 57.1013 57.8854 57.2039L52.7894 67.5826C52.0054 69.3746 49.9148 70.1959 48.1228 69.4119C47.2548 69.0386 46.5921 68.3479 46.2468 67.4613C45.9014 66.5746 45.9201 65.6133 46.2841 64.7733L52.0334 53.0599C52.4068 52.2013 53.1068 51.5293 53.9934 51.1839C54.0214 51.1839 54.0401 51.1653 54.0681 51.1466L67.2841 43.3719H69.9628C73.3414 43.3719 76.0854 46.1159 76.0854 49.4946V49.4759Z" fill="#B4C2D7"/>
<circle cx="74.375" cy="34.1249" r="7.29167" fill="#B4C2D7"/>
<path d="M74.3868 41.9439C78.8388 41.9439 82.4508 38.3226 82.4508 33.8799C82.4508 29.4373 78.8294 25.8159 74.3868 25.8159C69.9441 25.8159 66.3228 29.4373 66.3228 33.8799C66.3228 38.3226 69.9441 41.9439 74.3868 41.9439ZM74.3868 26.8519C78.2601 26.8519 81.4054 29.9973 81.4054 33.8706C81.4054 37.7439 78.2601 40.8893 74.3868 40.8893C70.5134 40.8893 67.3681 37.7439 67.3681 33.8706C67.3681 29.9973 70.5134 26.8519 74.3868 26.8519Z" fill="#1B365D"/>
<path d="M127.801 91.448C125.767 88.368 122.855 86.828 121.147 87.9294C120.381 86.6694 119.607 85.4 118.841 84.1494C118.636 83.7387 116.433 79.464 111.869 78.3627C108.519 77.5507 104.804 78.6614 100.828 81.676C100.623 81.8347 100.567 82.1054 100.679 82.3294C100.697 82.3574 100.716 82.3854 100.725 82.4134C100.903 82.6467 101.229 82.6934 101.463 82.516C103.787 80.752 105.999 79.6787 108.071 79.3054L123.853 104.543C123.853 104.543 123.909 104.627 123.947 104.655L116.872 109.023L113.008 102.76L112.317 101.64L108.435 95.34L107.865 94.4254L105.373 90.3747L104.683 89.2454L100.511 82.4694L94.1173 72.1C94.4627 71.6987 94.6307 71.148 94.5094 70.588C94.5 70.5227 94.472 70.4667 94.4533 70.4014C94.6213 70.2054 94.7707 70 94.9014 69.776C95.5173 68.7214 95.6947 67.4894 95.396 66.2947C95.088 65.1094 94.3413 64.1107 93.3054 63.4947L76.7387 52.92L76.9533 51.0534C77.0747 50.5214 77.14 49.9894 77.14 49.4667C77.14 45.5094 73.92 42.2987 69.972 42.2987H67.1533C67.06 42.2987 66.9667 42.3267 66.892 42.3734L53.5827 50.204C52.4533 50.652 51.5667 51.5107 51.0907 52.6027L45.3414 64.316C44.8467 65.436 44.828 66.6867 45.276 67.8254C45.5187 68.4414 45.892 68.992 46.3493 69.44C46.3213 69.4587 46.2933 69.468 46.2653 69.4867C45.8733 69.7387 45.6027 70.14 45.5093 70.588C45.388 71.148 45.556 71.6987 45.9013 72.1L39.4613 82.5534L23.1467 109.023L16.072 104.655C16.072 104.655 16.1467 104.589 16.1653 104.543L31.948 79.3054C34.02 79.6787 36.232 80.752 38.556 82.516C38.78 82.684 39.1067 82.6467 39.284 82.4227C39.4613 82.1894 39.4147 81.8627 39.1813 81.6854C35.2147 78.6707 31.4907 77.5507 28.14 78.372C23.576 79.4734 21.3733 83.748 21.168 84.1587C20.4027 85.4094 19.628 86.6787 18.8627 87.9387C18.004 87.3787 16.8187 87.472 15.512 88.2C14.3173 88.872 13.1413 90.0294 12.1987 91.448C10.1547 94.5374 9.88402 97.832 11.5827 98.9614C11.676 99.0174 11.7787 99.0454 11.872 99.0454C12.04 99.0454 12.208 98.9614 12.3107 98.812C12.32 98.7934 12.3387 98.7747 12.348 98.7467C11.2747 102.069 14.0093 104.599 14.0467 104.636C14.0653 104.655 14.0933 104.673 14.1213 104.692L18.5547 107.427C18.256 107.492 17.9667 107.595 17.6867 107.753C16.212 108.584 15.6987 110.46 16.5293 111.935C17.0893 112.933 18.1347 113.493 19.1987 113.493C19.712 113.493 20.2253 113.363 20.7107 113.092C21.9427 112.392 22.512 110.955 22.1573 109.648L23.0347 110.18C23.1187 110.236 23.212 110.255 23.3053 110.255C23.4827 110.255 23.6507 110.171 23.7533 110.012L46.788 72.6507C46.788 72.6507 46.8347 72.6694 46.8533 72.6694C46.9747 72.6974 47.096 72.7067 47.2173 72.7067C48.0293 72.7067 48.7667 72.1374 48.9347 71.316C48.9813 71.1107 48.9813 70.9054 48.9534 70.7C50.9227 70.952 52.9013 69.9067 53.732 68.012L58.7347 57.8014L61.992 56.0374L60.2653 70.784C60.1627 71.2694 60.1067 71.764 60.1067 72.2494C60.1067 74.1534 60.8813 75.9734 62.2067 77.308L59.4347 89.4227L54.6933 111.748C54.628 112.037 54.8147 112.308 55.0947 112.364C55.132 112.364 55.1693 112.373 55.2067 112.373C55.4493 112.373 55.664 112.205 55.72 111.963L60.4613 89.6467L63.1027 78.0827L69.3187 84.532C69.076 84.532 68.8613 84.6814 68.8053 84.9334L67.2933 91.5507L62.6267 113.559C62.5707 113.839 62.748 114.119 63.028 114.175C63.0653 114.175 63.1027 114.184 63.14 114.184C63.3827 114.184 63.5973 114.016 63.6533 113.773L68.32 91.7747L69.832 85.1574C69.832 85.1574 69.832 85.092 69.832 85.0547L76.6547 92.1294L80.556 113.643C80.6027 113.895 80.8267 114.072 81.0694 114.072C81.1067 114.072 81.1347 114.072 81.1627 114.072C81.452 114.025 81.6387 113.745 81.5827 113.465L77.6533 91.8027C77.6347 91.7 77.588 91.6067 77.5134 91.532L63.7933 77.2894C63.7933 77.2894 63.7467 77.2427 63.7187 77.224C62.1133 76.076 61.152 74.2187 61.152 72.2494V72.2307C61.152 71.82 61.1987 71.3907 61.292 70.9707C61.292 70.9427 61.292 70.9147 61.292 70.8867L63.1027 55.44L69.188 52.1547C69.44 52.0147 69.5427 51.6974 69.4027 51.4454C69.2627 51.1934 68.9453 51.1 68.6933 51.24L58.0813 56.98C57.988 57.0267 57.9133 57.1107 57.8667 57.2134L52.7707 67.592C51.9867 69.384 49.896 70.2054 48.104 69.4214C47.236 69.048 46.5733 68.3574 46.228 67.4707C45.8827 66.584 45.9013 65.6227 46.2653 64.7827L52.0147 53.0694C52.388 52.2107 53.088 51.5387 53.9747 51.1934C54.0027 51.1934 54.0213 51.1747 54.0493 51.156L67.2653 43.3814H69.944C73.3227 43.3814 76.0667 46.1254 76.0667 49.504C76.0667 49.952 76.0107 50.4187 75.8987 50.8854C75.8987 50.904 75.8987 50.9227 75.8893 50.9414L73.388 72.212C73.388 72.212 73.388 72.2494 73.388 72.2774C73.388 73.0147 73.332 73.8454 73.2573 74.6667C73.2107 75.1334 73.164 75.5907 73.1173 76.0294C73.0987 76.1787 73.1547 76.328 73.2573 76.44L82.992 86.9587L83.02 86.9867C83.244 87.192 83.44 87.4347 83.6453 87.7707C83.6547 87.7894 83.6734 87.808 83.6827 87.8174C84.0374 88.2747 84.2707 88.7694 84.3734 89.2827L88.5173 112.075C88.564 112.327 88.788 112.504 89.0307 112.504C89.068 112.504 89.096 112.504 89.124 112.504C89.4133 112.448 89.6 112.177 89.544 111.888L85.4 89.0867C85.2693 88.4147 84.9707 87.78 84.5227 87.2014C84.28 86.8 84.028 86.492 83.748 86.2214L74.1814 75.8894C74.3027 74.7227 74.4333 73.416 74.4333 72.2867L75.516 63.084L88.5827 71.4C89.292 71.82 90.0947 72.0347 90.9067 72.0347C91.056 72.0347 91.2053 72.0254 91.3547 72.0067C91.6813 72.4454 92.204 72.716 92.764 72.716C92.8853 72.716 93.0067 72.7067 93.128 72.6787C93.1467 72.6787 93.1653 72.66 93.1933 72.66L103.423 89.264L104.048 90.2907L107.072 95.2L107.641 96.1147L111.785 102.844L112.42 103.871L116.219 110.04C116.321 110.199 116.489 110.283 116.667 110.283C116.76 110.283 116.853 110.264 116.937 110.208L117.815 109.676C117.469 110.983 118.029 112.42 119.261 113.12C119.737 113.391 120.26 113.521 120.773 113.521C121.837 113.521 122.883 112.961 123.443 111.963C124.273 110.488 123.76 108.612 122.285 107.781C122.005 107.623 121.716 107.511 121.417 107.455L125.851 104.72C125.851 104.72 125.907 104.683 125.925 104.664C125.963 104.636 128.697 102.107 127.624 98.7747C127.633 98.7934 127.652 98.812 127.661 98.84C127.764 98.9894 127.932 99.0734 128.1 99.0734C128.193 99.0734 128.296 99.0454 128.389 98.9894C130.088 97.86 129.817 94.5654 127.773 91.476L127.801 91.448ZM12.3947 98.6254C12.432 98.42 12.348 98.2147 12.1613 98.0934C11.1347 97.4214 11.2653 94.7614 13.0667 92.036C13.916 90.748 14.9707 89.712 16.016 89.1147C16.9493 88.592 17.7707 88.4894 18.2933 88.8254C18.2933 88.8254 18.3027 88.8254 18.312 88.8254C18.312 88.8254 18.312 88.8347 18.3027 88.844C16.4267 91.9427 14.6627 94.864 13.0853 97.244C12.7773 97.7107 12.5533 98.1774 12.3947 98.616V98.6254ZM15.2133 104.141L14.7187 103.843C14.3827 103.516 11.8813 100.977 13.9627 97.832C15.5493 95.4334 17.3227 92.5027 19.1987 89.3947C20.1413 87.836 21.112 86.24 22.064 84.6907C22.064 84.6814 22.0827 84.6627 22.092 84.644C22.1107 84.6067 24.1827 80.3974 28.392 79.3894C29.1667 79.2027 29.96 79.1374 30.7813 79.184L15.2693 104.001C15.2693 104.001 15.232 104.095 15.2133 104.151V104.141ZM21.1493 110.973C21 111.496 20.664 111.925 20.1973 112.196C19.7307 112.467 19.18 112.532 18.6667 112.383C18.144 112.243 17.7147 111.897 17.444 111.431C17.1827 110.964 17.1173 110.413 17.2573 109.9C17.3973 109.377 17.7427 108.948 18.2093 108.677C18.5173 108.5 18.8627 108.416 19.1987 108.416C19.376 108.416 19.5627 108.444 19.74 108.491C20.2627 108.631 20.692 108.976 20.9627 109.443C21.224 109.909 21.2893 110.46 21.1493 110.973ZM93.8093 69.5427C93.4267 69.2627 92.932 69.1414 92.428 69.244C91.9707 69.3467 91.5787 69.608 91.3267 70.0094C91.1307 70.308 91.0373 70.644 91.0373 70.9894C90.3933 71.008 89.7493 70.8587 89.1613 70.504L75.6747 61.9267L76.5987 54.0867L92.7547 64.4C94.4347 65.3987 94.9947 67.5734 94.0053 69.2534C93.9493 69.356 93.884 69.4494 93.8093 69.5427ZM121.809 108.677C122.276 108.939 122.621 109.377 122.761 109.9C122.901 110.423 122.836 110.964 122.575 111.431C122.024 112.401 120.792 112.737 119.821 112.196C119.345 111.935 119.009 111.496 118.869 110.973C118.729 110.451 118.795 109.909 119.056 109.443C119.327 108.976 119.756 108.631 120.279 108.491C120.456 108.444 120.643 108.416 120.82 108.416C121.165 108.416 121.501 108.5 121.809 108.677ZM125.291 103.843L124.796 104.141C124.787 104.095 124.768 104.039 124.74 103.992L109.228 79.1747C110.049 79.128 110.843 79.2027 111.617 79.38C115.827 80.3974 117.899 84.5974 117.917 84.6347C117.917 84.6534 117.936 84.672 117.945 84.6814C118.907 86.24 119.868 87.8267 120.811 89.3947C122.687 92.5027 124.46 95.4334 126.047 97.8227C128.109 100.949 125.617 103.507 125.281 103.833L125.291 103.843ZM127.848 98.0934C127.661 98.2147 127.587 98.4294 127.615 98.6254C127.456 98.1774 127.232 97.72 126.924 97.2534C125.356 94.8734 123.583 91.952 121.716 88.8627C121.716 88.8627 121.707 88.844 121.697 88.8347C121.697 88.8347 121.707 88.8347 121.716 88.8347C122.743 88.1534 125.141 89.3107 126.943 92.0454C128.744 94.78 128.865 97.4307 127.848 98.1027V98.0934Z" fill="#1B365D"/>
<path d="M18.3122 88.8254C18.3122 88.8254 18.3122 88.8347 18.3029 88.844C16.4269 91.9427 14.6629 94.864 13.0855 97.244C12.7775 97.7107 12.5535 98.1774 12.3949 98.616C12.4322 98.4107 12.3482 98.2054 12.1615 98.084C11.1349 97.412 11.2655 94.752 13.0669 92.0267C13.9162 90.7387 14.9709 89.7027 16.0162 89.1054C16.9495 88.5827 17.7709 88.48 18.2935 88.816C18.2935 88.816 18.3029 88.816 18.3122 88.816V88.8254Z" fill="#00AEC7"/>
<path d="M127.839 98.084C127.652 98.2053 127.578 98.42 127.606 98.616C127.447 98.168 127.223 97.7107 126.915 97.244C125.347 94.864 123.574 91.9427 121.707 88.8533C121.707 88.8533 121.698 88.8347 121.688 88.8253C121.688 88.8253 121.698 88.8253 121.707 88.8253C122.734 88.144 125.132 89.3013 126.934 92.036C128.735 94.7707 128.856 97.4213 127.839 98.0933V98.084Z" fill="#00AEC7"/>
<path d="M122.565 111.421C122.015 112.392 120.783 112.728 119.812 112.187C119.336 111.925 119 111.487 118.86 110.964C118.72 110.441 118.785 109.9 119.047 109.433C119.317 108.967 119.747 108.621 120.269 108.481C120.447 108.435 120.633 108.407 120.811 108.407C121.156 108.407 121.492 108.491 121.8 108.668C122.267 108.929 122.612 109.368 122.752 109.891C122.892 110.413 122.827 110.955 122.565 111.421Z" fill="white"/>
<path d="M21.1495 110.973C21.0002 111.496 20.6642 111.925 20.1975 112.196C19.7308 112.467 19.1802 112.532 18.6668 112.383C18.1442 112.243 17.7148 111.897 17.4442 111.431C17.1828 110.964 17.1175 110.413 17.2575 109.9C17.3975 109.377 17.7428 108.948 18.2095 108.677C18.5175 108.5 18.8628 108.416 19.1988 108.416C19.3762 108.416 19.5628 108.444 19.7402 108.491C20.2628 108.631 20.6922 108.976 20.9628 109.443C21.2242 109.909 21.2895 110.46 21.1495 110.973Z" fill="white"/>
<path d="M112.266 102.215C114.116 97.7508 111.996 92.6323 107.531 90.783C103.066 88.9337 97.9478 91.0538 96.0985 95.5185C94.2492 99.9831 96.3693 105.102 100.834 106.951C105.299 108.8 110.417 106.68 112.266 102.215Z" fill="#AF272F"/>
<path d="M104.673 89.2452C104.487 89.2359 104.291 89.2266 104.104 89.2266C103.889 89.2266 103.665 89.2266 103.451 89.2546C98.4107 89.5906 94.4067 93.7999 94.4067 98.9239C94.4067 104.048 98.7561 108.621 104.104 108.621C107.651 108.621 110.759 106.708 112.448 103.852C112.653 103.497 112.849 103.133 113.008 102.76C113.521 101.584 113.801 100.287 113.801 98.9239C113.801 93.7719 109.76 89.5439 104.683 89.2452H104.673ZM111.813 102.825C110.385 105.635 107.464 107.567 104.104 107.567C99.3347 107.567 95.4614 103.684 95.4614 98.9239C95.4614 94.1639 99.3254 90.2906 104.085 90.2812H104.113C104.543 90.2812 104.963 90.3186 105.383 90.3746C109.555 90.9906 112.765 94.5932 112.765 98.9239C112.765 99.8666 112.616 100.781 112.327 101.631C112.196 102.041 112.028 102.443 111.832 102.825H111.813Z" fill="#1B365D"/>
<path d="M104.841 98.924L108.677 95.088C108.882 94.8827 108.882 94.556 108.677 94.3507C108.472 94.1453 108.145 94.1453 107.94 94.3507L104.104 98.1867L100.268 94.3507C100.062 94.1453 99.7358 94.1453 99.5305 94.3507C99.3251 94.556 99.3251 94.8827 99.5305 95.088L103.366 98.924L99.5305 102.76C99.3251 102.965 99.3251 103.292 99.5305 103.497C99.6331 103.6 99.7638 103.647 99.9038 103.647C100.044 103.647 100.174 103.6 100.277 103.497L104.113 99.6613L107.949 103.497C108.052 103.6 108.182 103.647 108.322 103.647C108.462 103.647 108.593 103.6 108.696 103.497C108.901 103.292 108.901 102.965 108.696 102.76L104.86 98.924H104.841Z" fill="white"/>
<path d="M123.946 104.655L116.872 109.023L113.008 102.76C113.521 101.584 113.801 100.287 113.801 98.924C113.801 93.772 109.76 89.544 104.682 89.2454L100.51 82.4694L100.688 82.3387C100.688 82.3387 100.725 82.3947 100.734 82.4227C100.912 82.656 101.238 82.7027 101.472 82.5254C103.796 80.7614 106.008 79.688 108.08 79.3147L123.863 104.552C123.863 104.552 123.918 104.636 123.956 104.664L123.946 104.655Z" fill="#00AEC7"/>
<path d="M39.4521 82.5627L23.1374 109.032L16.0627 104.664C16.0627 104.664 16.1374 104.599 16.1561 104.552L31.9387 79.3147C34.0107 79.688 36.2227 80.7614 38.5467 82.5254C38.7707 82.6934 39.0974 82.656 39.2747 82.432L39.4614 82.5627H39.4521Z" fill="#00AEC7"/>
</svg>
