<svg width="142" height="140" viewBox="0 0 142 140" fill="none" xmlns="http://www.w3.org/2000/svg">
<path d="M114.899 46.9773V47.024H119.603L119.556 49.3947H111.427V47.6307C114.367 44.728 116.849 42.6653 116.849 40.8547C116.849 40.0053 116.299 39.3987 114.927 39.3987C113.853 39.3987 112.873 39.8373 111.968 40.472L111.333 38.288C112.341 37.5227 113.751 37 115.412 37C118.221 37 119.621 38.456 119.621 40.5933C119.621 42.7307 117.68 44.6627 114.908 46.9773H114.899Z" fill="#1B365D"/>
<path d="M125.473 49.5347C123.924 49.5347 122.664 49.1427 121.749 48.62L122.272 46.5013C123.215 47.024 124.213 47.304 125.389 47.304C126.892 47.304 127.611 46.6693 127.611 45.624C127.611 44.5787 126.939 44.0093 124.363 44.0093V42.096C126.827 42.096 127.452 41.5453 127.452 40.5747C127.452 39.772 126.817 39.3147 125.473 39.3147C124.232 39.3147 123.233 39.7067 122.356 40.3787L121.74 38.2693C122.683 37.532 124.12 37 125.641 37C128.367 37 129.953 38.2693 129.953 40.3787C129.953 41.6013 129.347 42.4693 128.273 42.9733V43.0013C129.533 43.4587 130.233 44.3267 130.233 45.708C130.233 48.0413 128.749 49.5253 125.483 49.5253L125.473 49.5347Z" fill="#1B365D"/>
<path d="M133.08 45.988H133.771L134.881 44.0654H136.393L134.947 46.4827L136.449 49.3947H134.909L133.78 47.0987H133.089V49.3947H131.727V42.5534L133.089 42.488V45.9974L133.08 45.988Z" fill="#1B365D"/>
<path d="M138.363 47.192C138.251 47.2573 138.176 47.3506 138.176 47.444C138.176 47.5746 138.288 47.668 138.531 47.6867L139.8 47.7613C141.051 47.836 141.527 48.2933 141.527 49.1147C141.527 50.1787 140.817 50.8413 139.081 50.8413C137.551 50.8413 136.916 50.244 136.916 49.432C136.916 49.1146 137.056 48.8066 137.327 48.5733C137.103 48.4053 136.925 48.1533 136.925 47.7893C136.925 47.4253 137.131 47.0893 137.569 46.8746C137.215 46.6226 136.991 46.2213 136.991 45.6147C136.991 44.644 137.551 43.9626 139.025 43.9626C139.483 43.9626 139.977 44.0373 140.351 44.252L141.256 43.9626L141.536 44.616L140.976 45.0547C141.032 45.2133 141.051 45.4093 141.051 45.6147C141.051 46.6413 140.472 47.2386 139.025 47.2386C138.801 47.2386 138.568 47.22 138.353 47.1827L138.363 47.192ZM138.288 48.8253C138.148 48.956 138.064 49.1147 138.064 49.2547C138.064 49.628 138.344 49.8053 139.044 49.8053C140.043 49.8053 140.295 49.6093 140.295 49.3106C140.295 49.068 140.155 48.9466 139.557 48.9093L138.288 48.8253ZM138.325 45.652C138.325 46.1747 138.596 46.3053 139.007 46.3053C139.576 46.3053 139.744 46.128 139.744 45.6426C139.744 45.1573 139.539 44.9893 139.044 44.9893C138.512 44.9893 138.335 45.1853 138.335 45.652H138.325Z" fill="#1B365D"/>
<mask id="path-5-inside-1_2004_93" fill="white">
<path d="M42.0587 25.5413C42.2081 25.5413 42.3294 25.42 42.3294 25.2707C42.3294 25.1213 42.2081 25 42.0587 25H34.8814C34.7321 25 34.6107 25.1213 34.6107 25.2707V113.172C34.6107 113.321 34.7321 113.443 34.8814 113.443H42.0587C42.2081 113.443 42.3294 113.321 42.3294 113.172C42.3294 113.023 42.2081 112.901 42.0587 112.901H35.1521V25.5413H42.0587Z"/>
</mask>
<path d="M42.0587 25.5413C42.2081 25.5413 42.3294 25.42 42.3294 25.2707C42.3294 25.1213 42.2081 25 42.0587 25H34.8814C34.7321 25 34.6107 25.1213 34.6107 25.2707V113.172C34.6107 113.321 34.7321 113.443 34.8814 113.443H42.0587C42.2081 113.443 42.3294 113.321 42.3294 113.172C42.3294 113.023 42.2081 112.901 42.0587 112.901H35.1521V25.5413H42.0587Z" fill="#1B365D"/>
<path d="M35.1521 112.901H33.4021V114.651H35.1521V112.901ZM35.1521 25.5413V23.7913H33.4021V25.5413H35.1521ZM42.0587 27.2913C43.1745 27.2913 44.0794 26.3865 44.0794 25.2707H40.5794C40.5794 24.4535 41.2416 23.7913 42.0587 23.7913V27.2913ZM44.0794 25.2707C44.0794 24.1548 43.1745 23.25 42.0587 23.25V26.75C41.2416 26.75 40.5794 26.0878 40.5794 25.2707H44.0794ZM42.0587 23.25H34.8814V26.75H42.0587V23.25ZM34.8814 23.25C33.7656 23.25 32.8607 24.1548 32.8607 25.2707H36.3607C36.3607 26.0878 35.6986 26.75 34.8814 26.75V23.25ZM32.8607 25.2707V113.172H36.3607V25.2707H32.8607ZM32.8607 113.172C32.8607 114.288 33.7655 115.193 34.8814 115.193V111.693C35.6986 111.693 36.3607 112.355 36.3607 113.172H32.8607ZM34.8814 115.193H42.0587V111.693H34.8814V115.193ZM42.0587 115.193C43.1746 115.193 44.0794 114.288 44.0794 113.172H40.5794C40.5794 112.355 41.2415 111.693 42.0587 111.693V115.193ZM44.0794 113.172C44.0794 112.056 43.1746 111.151 42.0587 111.151V114.651C41.2415 114.651 40.5794 113.989 40.5794 113.172H44.0794ZM42.0587 111.151H35.1521V114.651H42.0587V111.151ZM36.9021 112.901V25.5413H33.4021V112.901H36.9021ZM35.1521 27.2913H42.0587V23.7913H35.1521V27.2913Z" fill="#1B365D" mask="url(#path-5-inside-1_2004_93)"/>
<path d="M58.3334 116V121H88.3334V116" stroke="#1B365D" stroke-width="0.5" stroke-linecap="round"/>
<path d="M43.8334 114.5L41.8334 117L51.3334 122.5L53.8334 119.5" stroke="#1B365D" stroke-width="0.5" stroke-linecap="round"/>
<path d="M90.3335 65.1463C90.3335 92.1747 81.4391 112.928 81.4391 112.928L72.8365 108.451L64.2279 112.928C64.2279 112.928 55.3335 92.1747 55.3335 65.1463C55.3335 38.1179 65.7162 28.7294 72.8365 24.7466C79.9448 28.7294 90.3335 38.1239 90.3335 65.1463Z" fill="#00AEC7" stroke="#1B365D" stroke-width="0.84" stroke-miterlimit="10"/>
<path d="M90.3335 65.1463C90.3335 92.1747 81.4391 112.928 81.4391 112.928L72.8365 108.451L64.2279 112.928C64.2279 112.928 55.3335 92.1747 55.3335 65.1463C55.3335 38.1179 65.7162 28.7294 72.8365 24.7466C79.9448 28.7294 90.3335 38.1239 90.3335 65.1463Z" stroke="#1B365D" stroke-width="0.84" stroke-miterlimit="10"/>
<path d="M89.6436 78.3992H56.0308" stroke="#1B365D" stroke-width="0.84" stroke-miterlimit="10"/>
<path d="M75.6107 91.5322C75.6107 89.9999 74.3686 88.7578 72.8364 88.7578C71.3042 88.7578 70.0621 89.9999 70.0621 91.5322V100.213C70.0621 101.745 71.3042 102.987 72.8364 102.987C74.3686 102.987 75.6107 101.745 75.6107 100.213V91.5322Z" fill="white" stroke="#1B365D" stroke-width="0.84" stroke-miterlimit="10"/>
<path d="M75.6107 91.5322C75.6107 89.9999 74.3686 88.7578 72.8364 88.7578C71.3042 88.7578 70.0621 89.9999 70.0621 91.5322V100.213C70.0621 101.745 71.3042 102.987 72.8364 102.987C74.3686 102.987 75.6107 101.745 75.6107 100.213V91.5322Z" stroke="#1B365D" stroke-width="0.84" stroke-miterlimit="10"/>
<path d="M72.8365 108.446V102.986" stroke="#1B365D" stroke-width="0.84" stroke-miterlimit="10"/>
<path d="M72.8365 88.764V24.7412" stroke="#1B365D" stroke-width="0.84" stroke-miterlimit="10"/>
</svg>
