<svg width="140" height="140" viewBox="0 0 140 140" fill="none" xmlns="http://www.w3.org/2000/svg">
<path d="M126 62.0038C126 85.0273 112.261 104.849 92.5184 113.75H69.2634H45.7316C25.9887 104.849 12.25 85.0273 12.25 62.0038C12.25 30.6596 37.7138 5.25 69.125 5.25C100.536 5.25 126 30.6596 126 62.0038Z" fill="#F0F3F7"/>
<path d="M68.25 62.6501H98V67.9001L98.875 74.3751L101.5 75.2501L112 76.1251L115.5 77.0001L118.125 81.3751V98.8751H71.75V67.9001H68.25V62.6501Z" fill="#F0FFFF"/>
<path d="M106.372 65.212V62.2813C106.372 62.2813 106.363 62.2253 106.354 62.1973C107.362 61.8986 108.388 61.4506 109.21 60.788C111.45 58.9773 114.782 55.3093 117.348 52.4626V67.816C117.348 67.816 117.348 67.8346 117.348 67.844C117.348 67.844 117.348 67.8626 117.348 67.872C117.348 67.8813 117.339 71.3207 117.348 71.75L114.625 75.25L101.5 76.125L98.875 74.375V65.212C98.875 65.212 106.372 65.2586 106.372 65.212Z" fill="#B4C2D7"/>
<path d="M40.7961 53.1066C40.7961 53.5546 40.7401 54.0119 40.6374 54.4693C40.6374 54.4879 40.6374 54.5066 40.6281 54.5253L38.1641 75.5346C38.1641 75.5346 36.7499 73.5 38.1641 75.5999L38.4999 79.625C39.7766 81.897 43.1894 84.9004 48.9999 91C53.2548 101.564 53.4373 114.923 53.3749 115.5L45.4999 116.375L41.9999 95.375L34.1601 87.5L27.9999 116.375L20.0201 114.625C20.0107 114.494 27.5241 80.64 27.5241 80.5C27.5241 80.08 25.6574 77.875 26.1894 74.3306C26.1894 74.3119 26.1894 74.2839 26.1894 74.2653L27.5241 65.0719L34.1601 55.5893C34.3187 55.3653 34.2627 55.0386 34.0387 54.8799C33.8054 54.7213 33.4881 54.7773 33.3294 55.0106L25.6574 65.9679C25.6574 65.9679 25.6294 66.0053 25.6201 66.0333L20.0201 77.1306C19.6467 77.9799 18.9561 78.6426 18.0881 78.9786C17.2107 79.3239 16.2587 79.3053 15.4094 78.9319C13.6361 78.1573 12.8241 76.0853 13.5894 74.3399L19.8334 61.9266C20.2534 60.9559 20.7574 60.1159 21.9614 58.9026C21.9707 58.8933 21.9894 58.8746 21.9894 58.8653L31.3134 47.2266L34.7481 47.0586C38.0894 47.0586 40.7961 49.7746 40.7961 53.1159V53.1066Z" fill="#B4C2D7"/>
<circle cx="38.9375" cy="37.8875" r="7.2625" fill="#B4C2D7"/>
<path d="M63 108.5C63 103.668 66.9175 99.75 71.75 99.75H115.5V117.25H71.75C66.9175 117.25 63 113.332 63 108.5Z" fill="white"/>
<circle cx="111.038" cy="30.8875" r="7.2625" fill="#B4C2D7"/>
<path d="M39.1159 45.6585C43.5025 45.6585 47.0772 42.0838 47.0772 37.6972C47.0772 33.3105 43.5025 29.7358 39.1159 29.7358C34.7292 29.7358 31.1545 33.3105 31.1545 37.6972C31.1545 42.0838 34.7292 45.6585 39.1159 45.6585ZM39.1159 30.7532C42.9425 30.7532 46.0599 33.8705 46.0599 37.6972C46.0599 41.5238 42.9425 44.6412 39.1159 44.6412C35.2892 44.6412 32.1719 41.5238 32.1719 37.6972C32.1719 33.8705 35.2892 30.7532 39.1159 30.7532Z" fill="#1B365D"/>
<path d="M57.7826 66.9666L41.4212 56.5226L41.6359 54.6747C41.7572 54.152 41.8132 53.62 41.8132 53.1067C41.8132 49.2053 38.6399 46.032 34.7199 46.032L31.0332 46.2093C30.8932 46.2093 30.7532 46.284 30.6599 46.4053L21.2052 58.2026C19.9079 59.5093 19.3572 60.4426 18.8999 61.488L12.6559 73.9013C11.6572 76.188 12.7026 78.8573 14.9986 79.856C16.0999 80.3413 17.3319 80.36 18.4612 79.9213C19.5906 79.4826 20.4772 78.624 20.9439 77.5506L26.1892 67.1533L25.1719 74.1533C25.0692 74.6386 25.0226 75.124 25.0226 75.6C25.0226 77.476 25.7786 79.268 27.0946 80.5933L24.3599 92.5586L19.6746 114.613C19.6186 114.893 19.7959 115.164 20.0666 115.22C20.0946 115.22 20.1319 115.229 20.1692 115.229C20.4026 115.229 20.6172 115.071 20.6639 114.828L25.3492 92.7826L27.9626 81.3493L34.1226 87.7426C33.8799 87.7426 33.6559 87.8826 33.5999 88.1346L32.1066 94.668L27.4959 116.405C27.4399 116.676 27.6172 116.956 27.8879 117.012C27.9252 117.012 27.9626 117.021 27.9906 117.021C28.2239 117.021 28.4386 116.853 28.4852 116.62L33.0959 94.892L34.5892 88.3586C34.5892 88.3586 34.5892 88.284 34.5892 88.2467L41.3372 95.2467L45.1919 116.489C45.2386 116.741 45.4532 116.909 45.6866 116.909C45.7146 116.909 45.7519 116.909 45.7799 116.909C46.0599 116.853 46.2372 116.592 46.1906 116.321L42.3079 94.92C42.2892 94.8266 42.2426 94.7333 42.1772 94.6586L28.6252 80.5933C28.6252 80.5933 28.5786 80.5466 28.5599 80.528C27.0852 79.4733 26.1612 77.8026 26.0492 76.02C26.0399 75.8893 26.0306 75.7493 26.0306 75.6093C26.0306 75.1893 26.0772 74.76 26.1612 74.34C26.1612 74.3213 26.1612 74.2933 26.1612 74.2746L27.4959 65.0813L34.1319 55.5986C34.2906 55.3746 34.2346 55.048 34.0106 54.8893C33.7772 54.7306 33.4599 54.7866 33.3012 55.02L25.6292 65.9773C25.6292 65.9773 25.6012 66.0147 25.5919 66.0427L19.9919 77.14C19.6186 77.9893 18.9279 78.652 18.0599 78.988C17.1826 79.3333 16.2306 79.3146 15.3812 78.9413C13.6079 78.1666 12.7959 76.0947 13.5612 74.3493L19.8052 61.936C20.2252 60.9653 20.7292 60.1253 21.9332 58.912C21.9426 58.9026 21.9612 58.884 21.9612 58.8747L31.2852 47.236L34.7199 47.068C38.0612 47.068 40.7679 49.784 40.7679 53.1253C40.7679 53.5733 40.7119 54.0306 40.6092 54.488C40.6092 54.5066 40.6092 54.5253 40.5999 54.544L38.1359 75.5533C38.1359 75.5533 38.1359 75.5906 38.1359 75.6186C38.1359 76.5706 38.0426 77.6813 37.9306 78.7173C37.9119 78.9226 37.8839 79.128 37.8652 79.3333C37.8466 79.4826 37.8932 79.6226 37.9959 79.7346L47.6092 90.132C47.6092 90.132 47.6279 90.1506 47.6372 90.16C47.8612 90.3653 48.0572 90.608 48.2532 90.944C48.2532 90.9627 48.2719 90.9813 48.2812 91C48.6359 91.448 48.8692 91.9333 48.9626 92.4466L53.0599 114.959C53.1066 115.211 53.3212 115.379 53.5639 115.379C53.5919 115.379 53.6292 115.379 53.6572 115.379C53.9372 115.332 54.1146 115.061 54.0679 114.791L49.9706 92.2693C49.8399 91.6066 49.5506 90.9813 49.1026 90.412C48.8599 90.02 48.6172 89.712 48.3372 89.4506L38.8919 79.2493C39.0226 78.092 39.1439 76.804 39.1439 75.6933L40.2172 66.5933L53.1346 74.816C53.8532 75.236 54.6466 75.4413 55.4306 75.4413C56.9799 75.4413 58.4919 74.648 59.3319 73.22C60.6012 71.0733 59.8919 68.292 57.7546 67.032L57.7826 66.9666ZM58.4826 72.632C57.5026 74.2933 55.3466 74.844 53.6946 73.8733L40.3759 65.3986L41.2812 57.6426L57.2412 67.8346C58.9026 68.8146 59.4532 70.9706 58.4732 72.632H58.4826Z" fill="#1B365D"/>
<path d="M58.4826 72.6322C57.5026 74.2935 55.3466 74.8442 53.6946 73.8735L40.376 65.3988L41.2813 57.6428L57.2413 67.8348C58.9026 68.8148 59.4533 70.9708 58.4733 72.6322H58.4826Z" fill="#B4C2D7"/>
<path fill-rule="evenodd" clip-rule="evenodd" d="M72.0065 115.995H127.204L127.213 115.985C127.503 115.985 127.727 116.209 127.727 116.499C127.727 116.788 127.493 117.012 127.213 117.012H72.0159C66.9852 117.012 62.8972 112.924 62.8972 107.893C62.8972 103.18 66.4906 99.2974 71.0732 98.8214V81.0507V79.8934V68.5814H67.8345C67.5452 68.5814 67.3212 68.3481 67.3212 68.0681V62.2814C67.3212 61.9921 67.5545 61.7681 67.8345 61.7681H86.2492C86.2399 61.7634 86.2329 61.7564 86.2259 61.7494C86.2189 61.7424 86.2119 61.7354 86.2025 61.7307C85.2972 60.9187 84.7559 59.8174 84.6905 58.6134C84.5412 56.1214 86.4452 53.9747 88.9372 53.8254L97.0385 53.7881C97.0292 53.6574 97.0759 53.5174 97.1692 53.4147L105.495 44.5201C106.027 43.0361 107.025 41.7854 108.379 40.9454C109.984 39.9467 111.879 39.6294 113.717 40.0494L115.827 40.5907C115.842 40.5907 115.855 40.5964 115.866 40.6015C115.875 40.6056 115.883 40.6094 115.892 40.6094C118.011 41.4307 119.439 42.9894 119.915 45.0054C120.409 47.1147 119.803 49.5507 118.365 51.3054V67.7787C118.403 68.1427 118.757 71.8667 116.685 74.2001C116.013 74.9561 115.164 75.4787 114.156 75.7587C114.912 76.0761 115.677 76.5334 116.349 77.1867C117.684 78.4934 118.365 80.2854 118.365 82.5254V98.7001C118.365 98.7281 118.356 98.7654 118.356 98.7654H127.204C127.493 98.7654 127.717 98.9894 127.717 99.2787C127.717 99.5681 127.484 99.7921 127.204 99.7921H72.0065C67.5359 99.7921 63.9052 103.432 63.9052 107.893C63.9052 112.355 67.5359 115.995 72.0065 115.995ZM115.631 77.9241C116.769 79.0254 117.348 80.5841 117.348 82.5347V98.7094V98.7747H72.0812V81.6107V80.4534V68.0681C72.0812 67.7881 71.8572 67.5547 71.5679 67.5547H68.3292V67.5454V62.7761H88.3025C88.5825 62.8321 88.8719 62.8601 89.1612 62.8601H89.4225L97.9532 62.8321V73.8921C97.9532 74.1721 98.1772 74.4054 98.4665 74.4054C98.7559 74.4054 98.9799 74.1814 98.9799 73.8921V65.6881C99.0266 65.7067 99.0732 65.7161 99.1385 65.7161H105.859C106.092 65.7161 106.297 65.5574 106.344 65.3334C106.363 65.2961 106.363 65.2494 106.363 65.2027V62.2721C106.363 62.2721 106.353 62.2161 106.344 62.1881C107.352 61.8894 108.379 61.4414 109.2 60.7787C111.44 58.9681 114.772 55.3001 117.339 52.4534V67.8067V67.8347V67.8627L117.34 67.8831C117.346 67.9543 117.368 68.2053 117.376 68.5721C117.395 69.7201 117.245 72.0161 115.911 73.5187C115.043 74.4894 113.792 74.9841 112.187 74.9841H100.52V76.0574L110.6 76.0201C111.272 76.0294 113.876 76.2161 115.631 77.9334V77.9241ZM105.345 64.6987V62.4494C103.573 62.8292 102.028 62.8235 101.832 62.8228C101.826 62.8228 101.821 62.8227 101.817 62.8227H98.9799V64.7267C98.9998 64.7234 99.0186 64.7189 99.037 64.7145C99.0703 64.7065 99.1025 64.6987 99.1385 64.6987H105.345Z" fill="#1B365D"/>
<path d="M105.7 52.4534C105.7 52.4534 105.644 52.5 105.625 52.5187C105.084 52.976 103.432 53.5453 102.751 53.7507L98.2146 53.7694L105.084 46.4333C105.075 46.6013 105.056 46.7787 105.056 46.9467V51.9587C105.056 52.2387 105.28 52.472 105.569 52.472C105.607 52.472 105.653 52.472 105.7 52.4534Z" fill="#B4C2D7"/>
<path d="M117.404 50.8666L117.012 51.296C114.427 54.18 110.871 58.1186 108.565 59.9853C106.241 61.8613 101.892 61.796 101.836 61.796H98.6813C98.616 61.7773 98.5507 61.768 98.476 61.768H88.424C87.8547 61.6373 87.3227 61.3666 86.8653 60.9653C86.1653 60.34 85.7453 59.4813 85.6893 58.5573C85.5773 56.6253 87.052 54.964 88.956 54.852L102.825 54.7773C102.872 54.7773 102.919 54.7773 102.965 54.7586C103.217 54.684 105.457 54.0026 106.279 53.2933C107.604 52.1546 112.625 47.1426 112.84 46.928C113.036 46.732 113.036 46.4053 112.84 46.2093C112.747 46.1066 112.616 46.06 112.485 46.06C112.355 46.06 112.224 46.1066 112.121 46.2093C112.075 46.256 107.781 50.54 106.045 52.136C106.064 52.08 106.073 52.024 106.073 51.9586V46.9466C106.073 46.4706 106.12 46.0133 106.223 45.584C106.587 44.0066 107.539 42.6626 108.911 41.8133C110.273 40.9546 111.897 40.6746 113.465 41.0386L115.537 41.5706C117.815 42.476 118.627 44.0626 118.907 45.2386C119.364 47.1333 118.767 49.3453 117.395 50.8666H117.404Z" fill="#B4C2D7"/>
<path d="M109.545 38.7052C110.143 38.8452 110.749 38.9105 111.347 38.9105C112.821 38.9105 114.277 38.4998 115.556 37.6972C117.357 36.5678 118.617 34.8038 119.093 32.7318C119.569 30.6598 119.215 28.5225 118.085 26.7212C116.956 24.9198 115.192 23.6598 113.12 23.1838C108.845 22.2038 104.561 24.8825 103.581 29.1572C102.601 33.4318 105.28 37.7158 109.555 38.6958L109.545 38.7052ZM104.561 29.3905C105.42 25.6572 109.144 23.3238 112.877 24.1825C116.611 25.0412 118.944 28.7745 118.085 32.4985C117.227 36.2318 113.493 38.5652 109.769 37.7065C106.036 36.8478 103.703 33.1145 104.561 29.3905Z" fill="#1B365D"/>
<path d="M123.611 110.143C123.657 110.171 123.713 110.18 123.76 110.18C123.807 110.18 123.863 110.171 123.909 110.143L127.353 108.155C127.447 108.099 127.503 107.996 127.503 107.893C127.503 107.791 127.447 107.679 127.353 107.632L123.909 105.644C123.816 105.588 123.695 105.588 123.601 105.644C123.508 105.7 123.452 105.803 123.452 105.905V107.585H69.9065C69.7385 107.585 69.5985 107.725 69.5985 107.893C69.5985 108.061 69.7385 108.201 69.9065 108.201H123.452V109.881C123.452 109.993 123.508 110.096 123.601 110.143H123.611ZM124.068 108.201H126.065L124.068 109.349V108.201ZM124.068 106.437L126.065 107.585H124.068V106.437Z" fill="#1B365D"/>
<rect x="57.1667" y="58.5" width="67" height="34" rx="0.5" fill="#00AEC7" stroke="#1B365D"/>
<line x1="90.6667" y1="93" x2="90.6667" y2="98" stroke="#1B365D" stroke-width="2"/>
<path d="M97.6667 98H82.6667" stroke="#1B365D" stroke-width="1.5" stroke-linecap="round"/>
</svg>
