<svg width="140" height="140" viewBox="0 0 140 140" fill="none" xmlns="http://www.w3.org/2000/svg">
<path d="M103.315 46.7273V46.774H108.019L107.972 49.1447H99.843V47.3807C102.783 44.478 105.266 42.4153 105.266 40.6047C105.266 39.7553 104.715 39.1487 103.343 39.1487C102.27 39.1487 101.29 39.5873 100.384 40.222L99.7496 38.038C100.758 37.2727 102.167 36.75 103.828 36.75C106.638 36.75 108.038 38.206 108.038 40.3433C108.038 42.4807 106.096 44.4127 103.324 46.7273H103.315Z" fill="#1B365D"/>
<path d="M113.89 49.2847C112.341 49.2847 111.081 48.8927 110.166 48.37L110.689 46.2513C111.632 46.774 112.63 47.054 113.806 47.054C115.309 47.054 116.028 46.4193 116.028 45.374C116.028 44.3287 115.356 43.7593 112.78 43.7593V41.846C115.244 41.846 115.869 41.2953 115.869 40.3247C115.869 39.522 115.234 39.0647 113.89 39.0647C112.649 39.0647 111.65 39.4567 110.773 40.1287L110.157 38.0193C111.1 37.282 112.537 36.75 114.058 36.75C116.784 36.75 118.37 38.0193 118.37 40.1287C118.37 41.3513 117.764 42.2193 116.69 42.7233V42.7513C117.95 43.2087 118.65 44.0767 118.65 45.458C118.65 47.7913 117.166 49.2753 113.9 49.2753L113.89 49.2847Z" fill="#1B365D"/>
<path d="M121.496 45.738H122.187L123.298 43.8154H124.81L123.363 46.2327L124.866 49.1447H123.326L122.196 46.8487H121.506V49.1447H120.143V42.3034L121.506 42.238V45.7474L121.496 45.738Z" fill="#1B365D"/>
<path d="M126.779 46.9421C126.667 47.0074 126.593 47.1008 126.593 47.1941C126.593 47.3248 126.705 47.4181 126.947 47.4368L128.217 47.5114C129.467 47.5861 129.943 48.0434 129.943 48.8648C129.943 49.9288 129.234 50.5914 127.498 50.5914C125.967 50.5914 125.333 49.9941 125.333 49.1821C125.333 48.8648 125.473 48.5568 125.743 48.3234C125.519 48.1554 125.342 47.9034 125.342 47.5394C125.342 47.1754 125.547 46.8394 125.986 46.6248C125.631 46.3728 125.407 45.9714 125.407 45.3648C125.407 44.3941 125.967 43.7128 127.442 43.7128C127.899 43.7128 128.394 43.7874 128.767 44.0021L129.673 43.7128L129.953 44.3661L129.393 44.8048C129.449 44.9634 129.467 45.1594 129.467 45.3648C129.467 46.3914 128.889 46.9888 127.442 46.9888C127.218 46.9888 126.985 46.9701 126.77 46.9328L126.779 46.9421ZM126.705 48.5754C126.565 48.7061 126.481 48.8648 126.481 49.0048C126.481 49.3781 126.761 49.5554 127.461 49.5554C128.459 49.5554 128.711 49.3594 128.711 49.0608C128.711 48.8181 128.571 48.6968 127.974 48.6594L126.705 48.5754ZM126.742 45.4021C126.742 45.9248 127.013 46.0554 127.423 46.0554C127.993 46.0554 128.161 45.8781 128.161 45.3928C128.161 44.9074 127.955 44.7394 127.461 44.7394C126.929 44.7394 126.751 44.9354 126.751 45.4021H126.742Z" fill="#1B365D"/>
<path d="M42.4476 14.7288C42.597 14.7288 42.7183 14.6075 42.7183 14.4582C42.7183 14.3088 42.597 14.1875 42.4476 14.1875H35.2703C35.121 14.1875 34.9996 14.3088 34.9996 14.4582V102.36C34.9996 102.509 35.121 102.63 35.2703 102.63H42.4476C42.597 102.63 42.7183 102.509 42.7183 102.36C42.7183 102.21 42.597 102.089 42.4476 102.089H35.541V14.7288H42.4476Z" fill="#1B365D"/>
<path d="M90.2906 36.8674C90.1693 30.9594 85.9413 28.9528 85.5119 28.7661L84.0839 27.9541C84.0653 27.8234 83.9999 27.7021 83.8786 27.6274C83.5613 27.4314 83.1693 27.2541 82.6933 27.1514L76.4493 23.5954C76.4493 23.5954 76.4026 23.5768 76.3839 23.5581C76.1973 23.4928 71.6426 21.8501 67.4893 23.9688L65.1653 25.3501V16.2781C65.1653 15.5594 64.7359 14.8688 64.0079 14.4301C63.1399 13.8981 62.0666 13.8514 61.1333 14.3368L55.0293 17.9674C53.8906 18.6394 53.0039 20.2634 53.0039 21.6728V32.5274C53.0039 32.5274 53.0039 32.5648 53.0133 32.5834L49.9333 34.4128C47.2919 35.9808 45.1453 39.9194 45.1453 43.1954V86.6514C45.1453 89.9928 47.3666 93.9408 50.1106 95.4714L60.2839 100.539C60.3679 100.586 61.7119 101.342 63.3733 101.342C64.1106 101.342 64.9226 101.193 65.7066 100.763C65.8559 100.698 66.0053 100.633 66.1453 100.549L85.3906 89.8434C88.1159 88.3221 90.3373 84.3741 90.3373 81.0328V37.6701C90.3373 37.4181 90.3279 37.1474 90.2999 36.8768L90.2906 36.8674ZM53.9093 21.6634C53.9093 20.5901 54.6279 19.2554 55.4866 18.7421L61.5719 15.1208C62.1973 14.8034 62.9346 14.8314 63.5319 15.1954C63.9706 15.4661 64.2413 15.8768 64.2413 16.2688V19.4141C64.1666 19.3581 64.0919 19.3021 64.0079 19.2554C63.1399 18.7234 62.0666 18.6768 61.1333 19.1621L55.0293 22.7928C54.6186 23.0354 54.2359 23.4088 53.9186 23.8474V21.6541L53.9093 21.6634ZM53.9093 26.5074C53.9093 25.4341 54.6279 24.0994 55.4866 23.5861L61.5719 19.9741C62.1973 19.6474 62.9346 19.6754 63.5319 20.0394C63.9706 20.3101 64.2413 20.7208 64.2413 21.1128V25.7421C64.2413 25.7888 64.2599 25.8354 64.2693 25.8821L53.9093 32.0328V26.5074ZM50.5306 94.6501C48.1039 93.3061 46.0599 89.6381 46.0599 86.6421V43.1861C46.0599 40.1994 48.0106 36.6061 50.3999 35.1874L67.9373 24.7714C71.5213 22.9421 75.6279 24.2768 76.0386 24.4168L80.9853 27.2354C80.6213 27.3288 80.2293 27.4688 79.8093 27.6834L60.9653 38.8088C58.3239 40.3768 56.1773 44.3154 56.1773 47.5914V95.3968C56.1773 96.2834 56.3359 97.0488 56.6253 97.6834L50.5399 94.6501H50.5306ZM60.7133 99.7274L58.7906 98.7754C58.7533 98.6354 58.6693 98.5234 58.5386 98.4581C57.6146 98.0568 57.0826 96.9461 57.0826 95.3968V47.5914C57.0826 44.6048 59.0333 41.0114 61.4226 39.5928L80.2479 28.4768C81.0226 28.0848 81.7319 27.9354 82.3853 28.0194L85.1013 29.5688C85.1013 29.5688 85.1293 29.5874 85.1479 29.5874C85.2506 29.6341 86.6973 30.2688 87.8826 31.9394C87.8173 31.8928 87.7519 31.8461 87.6866 31.7994C86.8746 31.3048 85.5213 30.9128 83.6359 31.8834L65.7066 42.5328C63.0653 44.1008 60.9186 48.0394 60.9186 51.3154V96.9928C60.9186 98.3554 61.3013 99.4754 61.9733 100.213C61.2453 100.017 60.7413 99.7368 60.7226 99.7274H60.7133ZM89.4226 81.0234C89.4226 84.0101 87.3693 87.6781 84.9519 89.0314L65.7066 99.7368C64.7079 100.287 63.7746 100.362 63.0746 99.9608C62.2813 99.4941 61.8239 98.4114 61.8239 97.0021V51.3248C61.8239 48.3381 63.7746 44.7448 66.1639 43.3261L84.0653 32.6861C84.6906 32.3594 85.2879 32.2008 85.8293 32.2008C86.3239 32.2008 86.7719 32.3314 87.1919 32.5834C88.5173 33.3954 89.2173 35.2714 89.3853 36.9141C89.3853 36.9794 89.3853 37.0448 89.3853 37.1194C89.3853 37.1568 89.3946 37.1754 89.4039 37.2034C89.4039 37.3528 89.4226 37.5114 89.4226 37.6514V81.0141V81.0234Z" fill="#1B365D"/>
<path d="M64.232 16.2781V19.4234C64.1573 19.3674 64.0826 19.3114 63.9986 19.2647C63.1306 18.7327 62.0573 18.6861 61.124 19.1714L55.02 22.8021C54.6093 23.0447 54.2266 23.4181 53.9093 23.8567V21.6634C53.9093 20.5901 54.628 19.2554 55.4866 18.7421L61.572 15.1207C62.1973 14.8034 62.9346 14.8314 63.532 15.1954C63.9706 15.4661 64.2413 15.8767 64.2413 16.2687L64.232 16.2781Z" fill="#00AEC7"/>
<path d="M76.0198 24.4167C75.6091 24.2767 71.5118 22.942 67.9185 24.7714L50.3811 35.1874C47.9825 36.606 46.0411 40.1994 46.0411 43.186V86.642C46.0411 89.6287 48.0945 93.306 50.5118 94.65L56.5971 97.6834C56.3078 97.0487 56.1491 96.274 56.1491 95.3967V47.5914C56.1491 44.3154 58.2958 40.3767 60.9371 38.8087L79.7811 27.6834C80.2011 27.4687 80.5931 27.3287 80.9571 27.2354L76.0105 24.4167H76.0198ZM52.3225 71.4287L53.5358 72.1474C53.7131 72.25 53.7971 72.4647 53.7411 72.6607C53.6851 72.8567 53.5078 72.9967 53.3025 72.9967C52.7051 72.9967 52.1638 72.6794 51.6971 72.1287L50.1571 71.2234C48.4958 71.0927 47.2545 68.5074 47.2545 65.11C47.2545 61.7127 48.5611 58.9967 50.2878 58.9967C50.3718 58.9967 50.4465 59.0154 50.5211 59.062L53.5265 60.8354C53.7038 60.938 53.7878 61.1527 53.7318 61.3487C53.6758 61.5447 53.4985 61.6847 53.2931 61.6847C52.2945 61.6847 51.1745 63.822 51.1745 66.8834C51.1745 68.9367 51.6785 70.5794 52.3131 71.438L52.3225 71.4287ZM73.9291 30.026C73.7891 30.1754 73.5651 30.2127 73.3878 30.1194L72.1371 29.466C71.8851 29.4474 71.5958 29.4567 71.2878 29.5034C70.1865 29.6434 68.8985 30.1474 67.6758 30.9127C65.0718 32.5367 63.8491 34.618 64.3811 35.4674C64.4838 35.6447 64.4651 35.8687 64.3251 36.018C64.2411 36.1114 64.1105 36.1674 63.9891 36.1674C63.9238 36.1674 63.8491 36.1487 63.7838 36.1207L60.6851 34.506C60.6105 34.4687 60.5451 34.4127 60.5078 34.338C59.5931 32.8727 61.1331 30.3807 64.0918 28.5327C65.4265 27.702 66.8451 27.1514 68.0678 26.9834C69.3558 26.8154 70.3171 27.086 70.8118 27.7487L72.4078 28.5794C73.1358 28.6727 73.6771 28.9807 73.9851 29.4754C74.0878 29.6527 74.0691 29.8767 73.9291 30.026Z" fill="#00AEC7"/>
<path d="M89.3947 37.2126C89.3947 37.2126 89.376 37.1566 89.376 37.1286C89.376 37.0633 89.376 36.9886 89.376 36.9233C89.208 35.2713 88.508 33.4046 87.1827 32.5926C86.7627 32.3406 86.3147 32.21 85.82 32.21C85.2694 32.21 84.6814 32.3686 84.056 32.6953L66.1547 43.3353C63.7654 44.754 61.8147 48.3473 61.8147 51.334V97.0113C61.8147 98.4206 62.272 99.5033 63.0654 99.97C63.7654 100.381 64.6987 100.306 65.6974 99.746L84.9427 89.0406C87.3694 87.6873 89.4134 84.0286 89.4134 81.0326V37.67C89.4134 37.5206 89.4134 37.3713 89.3947 37.222V37.2126ZM68.5814 47.4606L82.992 39.1726C83.216 39.042 83.496 39.126 83.6174 39.3406C83.748 39.5646 83.664 39.8353 83.4494 39.966L81.0227 41.366C81.0694 41.4313 81.0974 41.5153 81.0974 41.6086V45.2766C81.0974 45.5286 80.892 45.734 80.64 45.734C80.388 45.734 80.1827 45.5286 80.1827 45.2766V41.842L69.0387 48.254C68.964 48.2913 68.8894 48.3193 68.8054 48.3193C68.6467 48.3193 68.4974 48.2353 68.4134 48.086C68.2827 47.862 68.3667 47.5913 68.5814 47.4606ZM66.2574 62.842L85.0174 50.8766C85.232 50.7366 85.512 50.802 85.6427 51.0166C85.7827 51.2313 85.7174 51.5113 85.5027 51.642L83.9254 52.65C83.9254 52.65 83.944 52.7153 83.944 52.7526V56.29C83.944 56.542 83.7387 56.7473 83.4867 56.7473C83.2347 56.7473 83.0294 56.542 83.0294 56.29V53.2193L66.7334 63.6073C66.6587 63.654 66.5747 63.682 66.4907 63.682C66.3414 63.682 66.192 63.6073 66.0987 63.4673C65.9587 63.2526 66.024 62.9726 66.2387 62.842H66.2574ZM86.24 71.382V80.566C86.24 82.946 84.6534 85.774 82.7027 86.8566L69.2067 94.3606C68.684 94.65 68.1707 94.7993 67.6854 94.7993C67.2934 94.7993 66.92 94.6966 66.5934 94.51C65.7907 94.034 65.3334 93.0353 65.3334 91.766V79.9406C65.3334 77.598 66.864 74.7886 68.7587 73.6686L81.3214 66.202C82.7027 65.4926 83.7014 65.782 84.2987 66.146C85.6334 66.958 86.24 68.8526 86.24 70.3646V71.13C86.2587 71.214 86.268 71.298 86.24 71.382Z" fill="#00AEC7"/>
<path d="M53.5359 72.1474L52.3226 71.4288C51.6879 70.5794 51.1839 68.9368 51.1839 66.8741C51.1839 63.8128 52.3039 61.6754 53.3026 61.6754C53.5079 61.6754 53.6946 61.5354 53.7412 61.3394C53.7972 61.1434 53.7039 60.9288 53.5359 60.8261L50.5306 59.0528C50.4559 59.0154 50.3812 58.9874 50.2972 58.9874C48.5706 58.9874 47.2639 61.6194 47.2639 65.1008C47.2639 68.5821 48.5052 71.0834 50.1666 71.2141L51.7066 72.1194C52.1639 72.6794 52.7146 72.9874 53.3119 72.9874C53.5172 72.9874 53.7039 72.8474 53.7506 72.6514C53.8066 72.4554 53.7132 72.2408 53.5452 72.1381L53.5359 72.1474ZM50.5306 70.3741C50.4559 70.3368 50.3812 70.3088 50.2972 70.3088C49.2986 70.3088 48.1786 68.1714 48.1786 65.1101C48.1786 62.0488 49.2146 60.0608 50.1852 59.9114L52.2386 61.1248C51.0626 61.9554 50.2693 64.1581 50.2693 66.8834C50.2693 68.2928 50.4839 69.5528 50.8479 70.5701L50.5212 70.3741H50.5306Z" fill="#1B365D"/>
<path d="M73.9848 29.4661C73.6768 28.9715 73.1355 28.6635 72.4075 28.5701L70.8115 27.7395C70.3168 27.0768 69.3555 26.8061 68.0675 26.9741C66.8448 27.1328 65.4262 27.6835 64.0915 28.5235C61.1328 30.3715 59.5928 32.8635 60.5075 34.3288C60.5448 34.3941 60.6102 34.4595 60.6848 34.4968L63.7835 36.1115C63.8488 36.1488 63.9235 36.1581 63.9888 36.1581C64.1102 36.1581 64.2408 36.1115 64.3248 36.0088C64.4648 35.8595 64.4835 35.6355 64.3808 35.4581C63.8488 34.6088 65.0715 32.5275 67.6755 30.9035C68.8982 30.1381 70.1862 29.6341 71.2875 29.4941C71.5955 29.4475 71.8848 29.4475 72.1368 29.4568L73.3875 30.1101C73.5742 30.2035 73.7982 30.1661 73.9288 30.0168C74.0688 29.8675 74.0875 29.6435 73.9848 29.4661ZM67.1902 30.1288C64.8755 31.5755 63.4382 33.4048 63.3448 34.8421L61.2355 33.7408C60.8435 32.8448 62.0755 30.8568 64.5862 29.2888C65.8182 28.5235 67.0968 28.0195 68.1982 27.8795C69.1595 27.7488 69.8595 27.9168 70.1208 28.3368C70.1582 28.4021 70.2235 28.4581 70.2982 28.4955L70.6435 28.6821C69.5515 28.9155 68.3475 29.4195 67.1902 30.1288Z" fill="#1B365D"/>
<path d="M50.493 96.8995C49.625 96.8995 48.9156 97.6089 48.9156 98.4769C48.9156 99.3449 49.625 100.054 50.493 100.054C51.361 100.054 52.0703 99.3449 52.0703 98.4769C52.0703 97.6089 51.361 96.8995 50.493 96.8995ZM50.493 99.1395C50.129 99.1395 49.8303 98.8409 49.8303 98.4769C49.8303 98.1129 50.129 97.8142 50.493 97.8142C50.857 97.8142 51.1557 98.1129 51.1557 98.4769C51.1557 98.8409 50.857 99.1395 50.493 99.1395Z" fill="#1B365D"/>
<path d="M63.3824 101.827C62.5144 101.827 61.8051 102.537 61.8051 103.405C61.8051 104.273 62.5144 104.982 63.3824 104.982C64.2504 104.982 64.9597 104.273 64.9597 103.405C64.9597 102.537 64.2504 101.827 63.3824 101.827ZM63.3824 104.067C63.0184 104.067 62.7197 103.769 62.7197 103.405C62.7197 103.041 63.0184 102.742 63.3824 102.742C63.7464 102.742 64.045 103.041 64.045 103.405C64.045 103.769 63.7464 104.067 63.3824 104.067Z" fill="#1B365D"/>
<path d="M84.7464 91.0847C83.8784 91.0847 83.1691 91.7941 83.1691 92.6621C83.1691 93.5301 83.8784 94.2394 84.7464 94.2394C85.6144 94.2394 86.3237 93.5301 86.3237 92.6621C86.3237 91.7941 85.6144 91.0847 84.7464 91.0847ZM84.7464 93.3247C84.3824 93.3247 84.0837 93.0261 84.0837 92.6621C84.0837 92.2981 84.3824 91.9994 84.7464 91.9994C85.1104 91.9994 85.4091 92.2981 85.4091 92.6621C85.4091 93.0261 85.1104 93.3247 84.7464 93.3247Z" fill="#1B365D"/>
<path d="M86.2397 71.1207V70.3554C86.2397 68.8434 85.6423 66.958 84.2983 66.1367C83.701 65.7727 82.7023 65.4834 81.321 66.1927L68.7583 73.6594C66.873 74.7794 65.333 77.598 65.333 79.9314V91.7567C65.333 93.0354 65.7903 94.034 66.593 94.5007C66.9197 94.6967 67.293 94.79 67.685 94.79C68.1703 94.79 68.6837 94.6407 69.2063 94.3513L82.7023 86.8473C84.653 85.7647 86.2397 82.9367 86.2397 80.5567V71.3727C86.2677 71.2887 86.2583 71.2047 86.2397 71.1207ZM85.325 80.5567C85.325 82.61 83.9157 85.1207 82.2543 86.0447L68.7677 93.5487C68.1143 93.9127 67.5077 93.9687 67.0597 93.7074C66.5463 93.3994 66.2477 92.69 66.2477 91.7473V83.5153C66.3223 83.5153 66.397 83.4967 66.4623 83.45L81.573 74.322C81.5543 74.378 81.5357 74.434 81.5357 74.4994V77.486C81.5357 77.738 81.741 77.9433 81.993 77.9433C82.245 77.9433 82.4503 77.738 82.4503 77.486V74.4994C82.4503 74.2567 82.2637 74.07 82.021 74.0513L85.3157 72.0634V80.5567H85.325ZM85.325 70.9994L66.2477 82.526V79.9314C66.2477 77.9154 67.6103 75.3953 69.225 74.4433L81.769 66.986C82.189 66.7713 82.581 66.6594 82.945 66.6594C83.2623 66.6594 83.561 66.7433 83.8317 66.9113C84.821 67.5087 85.3343 69.0953 85.3343 70.346V70.99L85.325 70.9994Z" fill="#1B365D"/>
<path d="M85.5025 51.642L83.9252 52.65C83.9252 52.65 83.9438 52.7154 83.9438 52.7527V56.2901C83.9438 56.5421 83.7385 56.7474 83.4865 56.7474C83.2345 56.7474 83.0292 56.5421 83.0292 56.2901V53.2194L66.7332 63.6074C66.6585 63.6541 66.5745 63.682 66.4905 63.682C66.3412 63.682 66.1918 63.6074 66.0985 63.4674C65.9585 63.2527 66.0239 62.9727 66.2385 62.842L84.9985 50.8767C85.2132 50.7367 85.4932 50.802 85.6238 51.0167C85.7638 51.2314 85.6985 51.5114 85.4838 51.642H85.5025Z" fill="#1B365D"/>
<path d="M83.4493 39.9569L81.0227 41.3569C81.0693 41.4222 81.0973 41.5062 81.0973 41.5996V45.2676C81.0973 45.5196 80.892 45.7249 80.64 45.7249C80.388 45.7249 80.1827 45.5196 80.1827 45.2676V41.8329L69.0387 48.2449C68.964 48.2822 68.8893 48.3102 68.8053 48.3102C68.6467 48.3102 68.4973 48.2262 68.4133 48.0769C68.2827 47.8529 68.3667 47.5822 68.5813 47.4516L82.992 39.1636C83.216 39.0329 83.496 39.1169 83.6173 39.3316C83.748 39.5556 83.664 39.8262 83.4493 39.9569Z" fill="#1B365D"/>
<path d="M65.0421 122.491C64.9874 122.491 64.9418 122.482 64.8961 122.456C64.8049 122.403 64.7501 122.314 64.7501 122.208V114.66C64.7501 114.501 64.8779 114.378 65.0421 114.378C65.2064 114.378 65.3342 114.501 65.3342 114.66V121.713L93.9161 105.734V98.2828C93.9161 98.1237 94.0438 98 94.2081 98C94.3724 98 94.5001 98.1237 94.5001 98.2828V105.902C94.5001 105.999 94.4454 106.096 94.3541 106.149L65.179 122.465C65.179 122.465 65.0786 122.5 65.033 122.5L65.0421 122.491Z" fill="#1B365D"/>
<path d="M57.5409 117.25C57.5409 117.25 57.4515 117.242 57.4157 117.227L36.9112 108.797C36.8127 108.759 36.7501 108.675 36.7501 108.584C36.7501 108.493 36.7949 108.409 36.8933 108.364L43.4239 105.034C43.5581 104.966 43.7371 105.004 43.8176 105.118C43.8981 105.232 43.8534 105.384 43.7192 105.452L37.6447 108.546L57.532 116.725L62.5687 114.346C62.7118 114.278 62.8818 114.323 62.9623 114.437C63.0428 114.559 62.9891 114.703 62.8549 114.772L57.6841 117.212C57.6841 117.212 57.5946 117.242 57.5409 117.242V117.25Z" fill="#1B365D"/>
</svg>
