<svg width="140" height="140" viewBox="0 0 140 140" fill="none" xmlns="http://www.w3.org/2000/svg">
<path d="M126 62.0038C126 85.0273 112.261 104.849 92.5184 113.75H69.2634H45.7316C25.9887 104.849 12.25 85.0273 12.25 62.0038C12.25 30.6596 37.7138 5.25 69.125 5.25C100.536 5.25 126 30.6596 126 62.0038Z" fill="#F0F3F7"/>
<path d="M88.6098 71.1633C88.6098 95.354 80.6492 113.929 80.6492 113.929L72.9498 109.922L65.245 113.929C65.245 113.929 57.2844 95.354 57.2844 71.1633C57.2844 46.9726 66.5771 38.5698 72.9498 35.0051C79.3118 38.5698 88.6098 46.9779 88.6098 71.1633Z" fill="#00AEC7" stroke="#1B365D" stroke-width="0.84" stroke-miterlimit="10"/>
<path d="M88.6098 71.1633C88.6098 95.354 80.6492 113.929 80.6492 113.929L72.9498 109.922L65.245 113.929C65.245 113.929 57.2844 95.354 57.2844 71.1633C57.2844 46.9726 66.5771 38.5698 72.9498 35.0051C79.3118 38.5698 88.6098 46.9779 88.6098 71.1633Z" stroke="#1B365D" stroke-width="0.84" stroke-miterlimit="10"/>
<path d="M87.9923 83.0247H57.9084" stroke="#1B365D" stroke-width="0.84" stroke-miterlimit="10"/>
<path d="M75.4327 94.7788C75.4327 93.4074 74.321 92.2957 72.9497 92.2957C71.5784 92.2957 70.4667 93.4074 70.4667 94.7788V102.548C70.4667 103.919 71.5784 105.031 72.9497 105.031C74.321 105.031 75.4327 103.919 75.4327 102.548V94.7788Z" fill="white" stroke="#1B365D" stroke-width="0.84" stroke-miterlimit="10"/>
<path d="M75.4327 94.7788C75.4327 93.4074 74.321 92.2957 72.9497 92.2957C71.5784 92.2957 70.4667 93.4074 70.4667 94.7788V102.548C70.4667 103.919 71.5784 105.031 72.9497 105.031C74.321 105.031 75.4327 103.919 75.4327 102.548V94.7788Z" stroke="#1B365D" stroke-width="0.84" stroke-miterlimit="10"/>
<path d="M72.9498 109.917V105.03" stroke="#1B365D" stroke-width="0.84" stroke-miterlimit="10"/>
<path d="M72.9498 92.301V35" stroke="#1B365D" stroke-width="0.84" stroke-miterlimit="10"/>
<path d="M57.274 102.734C57.6736 109.927 50.2246 113.012 43.1965 113.753C36.1684 114.494 28.2452 113.028 27.1369 105.91C25.9486 98.2848 31.1225 96.34 30.8081 92.786C30.6109 90.5534 28.2345 89.5996 28.2931 85.305C28.373 79.5877 36.0938 77.9519 36.0938 77.9519C36.0938 77.9519 34.3887 61.7484 33.6801 55.0346C33.3657 52.0348 32.3267 49.5731 31.2717 47.7668C30.3072 46.1097 31.3729 44.0156 33.2751 43.8131L38.3211 43.2803C40.2286 43.0778 41.7046 44.9054 41.1078 46.7277C40.4524 48.7152 39.9462 51.3368 40.2606 54.3366C40.9692 61.0503 42.6743 77.2539 42.6743 77.2539C42.6743 77.2539 50.5709 77.2432 51.8391 82.8166C52.7928 87.0047 50.6615 88.4327 50.9386 90.66C51.3755 94.198 56.8424 95.0292 57.2687 102.734H57.274Z" fill="#00AEC7" stroke="#1B365D" stroke-width="0.84" stroke-miterlimit="10"/>
<path d="M57.274 102.734C57.6736 109.927 50.2246 113.012 43.1965 113.753C36.1684 114.494 28.2452 113.028 27.1369 105.91C25.9486 98.2848 31.1225 96.34 30.8081 92.786C30.6109 90.5534 28.2345 89.5996 28.2931 85.305C28.373 79.5877 36.0938 77.9519 36.0938 77.9519C36.0938 77.9519 34.3887 61.7484 33.6801 55.0346C33.3657 52.0348 32.3267 49.5731 31.2717 47.7668C30.3072 46.1097 31.3729 44.0156 33.2751 43.8131L38.3211 43.2803C40.2286 43.0778 41.7046 44.9054 41.1078 46.7277C40.4524 48.7152 39.9462 51.3368 40.2606 54.3366C40.9692 61.0503 42.6743 77.2538 42.6743 77.2538C42.6743 77.2538 50.5709 77.2432 51.8391 82.8166C52.7929 87.0047 50.6615 88.4327 50.9386 90.66C51.3755 94.198 56.8424 95.0292 57.2687 102.734H57.274Z" stroke="#1B365D" stroke-width="0.84" stroke-miterlimit="10"/>
<path d="M23.7 98.7961L23.8012 99.7713C23.8705 100.411 24.4459 100.88 25.0853 100.81L27.5896 100.544" stroke="#1B365D" stroke-width="0.84" stroke-miterlimit="10"/>
<path d="M22.5709 88.0653L22.4697 87.0902C22.4004 86.4508 22.8693 85.8753 23.5087 85.806L28.2936 85.2998" stroke="#1B365D" stroke-width="0.84" stroke-miterlimit="10"/>
<path d="M23.0507 88.0175L22.081 88.1196C21.484 88.1824 21.051 88.7174 21.1138 89.3144L22.016 97.8833C22.0788 98.4804 22.6137 98.9134 23.2108 98.8506L24.1805 98.7485C24.7775 98.6856 25.2106 98.1507 25.1477 97.5536L24.2456 88.9847C24.1827 88.3877 23.6478 87.9546 23.0507 88.0175Z" fill="#00AEC7" stroke="#1B365D" stroke-width="0.84" stroke-miterlimit="10"/>
<path d="M23.0507 88.0175L22.081 88.1196C21.484 88.1824 21.051 88.7174 21.1138 89.3144L22.016 97.8833C22.0788 98.4804 22.6137 98.9134 23.2108 98.8506L24.1805 98.7485C24.7775 98.6856 25.2106 98.1507 25.1477 97.5536L24.2456 88.9847C24.1827 88.3877 23.6478 87.9546 23.0507 88.0175Z" stroke="#1B365D" stroke-width="0.84" stroke-miterlimit="10"/>
<path d="M46.3256 90.563L35.3088 91.7229L35.749 95.904L46.7658 94.7441L46.3256 90.563Z" fill="white" stroke="#1B365D" stroke-width="0.84" stroke-miterlimit="10"/>
<path d="M44.6705 94.9581L37.8347 95.6777L38.6398 103.325L45.4756 102.605L44.6705 94.9581Z" fill="white" stroke="#1B365D" stroke-width="0.84" stroke-miterlimit="10"/>
<path d="M46.3256 90.563L35.3088 91.7229L35.749 95.904L46.7658 94.7441L46.3256 90.563Z" stroke="#1B365D" stroke-width="0.84" stroke-miterlimit="10"/>
<path d="M44.6705 94.9581L37.8347 95.6777L38.6398 103.325L45.4756 102.605L44.6705 94.9581Z" stroke="#1B365D" stroke-width="0.84" stroke-miterlimit="10"/>
<path d="M106.994 113.924C109.392 113.924 111.336 111.979 111.336 109.581C111.336 107.183 109.392 105.238 106.994 105.238C104.595 105.238 102.651 107.183 102.651 109.581C102.651 111.979 104.595 113.924 106.994 113.924Z" stroke="#1B365D" stroke-width="0.84" stroke-miterlimit="10"/>
<path d="M97.0618 71.0586L108.377 73.8212L99.9744 108.238L93.7266 106.713C90.9314 106.031 89.2138 103.203 89.8962 100.408L97.0618 71.0586Z" fill="white" stroke="#1B365D" stroke-width="0.84" stroke-miterlimit="10"/>
<path d="M106.994 79.5342V102.462C105.859 102.462 104.782 102.728 103.829 103.203C101.996 104.109 100.61 105.787 100.088 107.812L100.078 107.865" fill="white"/>
<path d="M106.994 79.5342V102.462C105.859 102.462 104.782 102.728 103.829 103.203C101.996 104.109 100.61 105.787 100.088 107.812L100.078 107.865" stroke="#1B365D" stroke-width="0.84" stroke-miterlimit="10"/>
<path d="M90.125 101.5L93.625 84.875V84L97.125 84.875L98.875 86.625V89.25L95.375 106.75H94.5L91.875 105.875L90.125 103.25V101.5Z" fill="#00AEC7"/>
<path d="M106.993 110.263C107.37 110.263 107.675 109.958 107.675 109.581C107.675 109.204 107.37 108.899 106.993 108.899C106.617 108.899 106.311 109.204 106.311 109.581C106.311 109.958 106.617 110.263 106.993 110.263Z" stroke="#1B365D" stroke-width="0.84" stroke-miterlimit="10"/>
<path d="M106.75 79.625L108.5 78.75L115.5 80.5L116.375 82.25L115.5 84H113.75L106.75 82.25V79.625Z" fill="#00AEC7"/>
<path d="M97.0618 71.0586L108.377 73.8212L99.9744 108.238L93.7266 106.713C90.9314 106.031 89.2138 103.203 89.8962 100.408L97.0618 71.0586Z" stroke="#1B365D" stroke-width="0.84" stroke-miterlimit="10"/>
<path d="M93.8271 84.3406L96.0917 84.8947C98.2976 85.4329 99.651 87.6601 99.1129 89.8661L94.9301 107.002" stroke="#1B365D" stroke-width="0.84" stroke-miterlimit="10"/>
<path d="M95.7139 76.6199L107.031 79.3854" stroke="#1B365D" stroke-width="0.84" stroke-miterlimit="10"/>
<path d="M106.994 79.5342V102.462C105.859 102.462 104.782 102.728 103.829 103.203C101.996 104.109 100.61 105.787 100.088 107.812L100.078 107.865" stroke="#1B365D" stroke-width="0.84" stroke-miterlimit="10"/>
<path d="M135.887 65.7036L135.884 65.6987C135.454 64.776 134.357 64.3772 133.434 64.8078L124.68 68.8935C123.758 69.3241 123.359 70.4212 123.789 71.3439L123.792 71.3487C124.222 72.2714 125.319 72.6703 126.242 72.2396L134.996 68.1539C135.918 67.7233 136.317 66.6262 135.887 65.7036Z" fill="#00AEC7" stroke="#1B365D" stroke-width="0.84" stroke-miterlimit="10"/>
<path d="M113.538 59.0683L107.793 57.6655C107.101 57.4965 106.403 57.9205 106.234 58.6123C106.065 59.3042 106.489 60.002 107.181 60.1709L112.927 61.5737C113.619 61.7426 114.316 61.3187 114.485 60.6268C114.654 59.935 114.23 59.2372 113.538 59.0683Z" fill="#00AEC7" stroke="#1B365D" stroke-width="0.84" stroke-miterlimit="10"/>
<path d="M97.4614 62.2109L103.152 63.8233C103.837 64.0174 104.55 63.6193 104.744 62.9341C104.938 62.2489 104.54 61.5361 103.855 61.342L98.1645 59.7296C97.4793 59.5354 96.7664 59.9335 96.5723 60.6187C96.3781 61.3039 96.7762 62.0167 97.4614 62.2109Z" fill="#00AEC7" stroke="#1B365D" stroke-width="0.84" stroke-miterlimit="10"/>
<path d="M135.887 65.7036L135.884 65.6987C135.454 64.776 134.357 64.3772 133.434 64.8078L124.68 68.8935C123.758 69.3241 123.359 70.4212 123.789 71.3439L123.792 71.3487C124.222 72.2714 125.319 72.6703 126.242 72.2396L134.996 68.1539C135.918 67.7233 136.317 66.6262 135.887 65.7036Z" stroke="#1B365D" stroke-width="0.84" stroke-miterlimit="10"/>
<path d="M108.054 78.6875L114.848 80.3393C115.839 80.5845 116.446 81.5809 116.207 82.572C115.967 83.5578 114.965 84.1652 113.974 83.9255L106.989 82.2203" stroke="#1B365D" stroke-width="0.84" stroke-miterlimit="10"/>
<path d="M123.783 71.3445L107.09 79.1348" stroke="#1B365D" stroke-width="0.84" stroke-miterlimit="10"/>
<path d="M113.538 59.0683L107.793 57.6655C107.101 57.4965 106.403 57.9205 106.234 58.6123C106.065 59.3042 106.489 60.002 107.181 60.1709L112.927 61.5737C113.619 61.7426 114.316 61.3187 114.485 60.6268C114.654 59.935 114.23 59.2372 113.538 59.0683Z" stroke="#1B365D" stroke-width="0.84" stroke-miterlimit="10"/>
<path d="M108.043 60.3738L104.964 72.9811" stroke="#1B365D" stroke-width="0.84" stroke-miterlimit="10"/>
<path d="M97.4614 62.2109L103.152 63.8233C103.837 64.0174 104.55 63.6193 104.744 62.9341C104.938 62.2489 104.54 61.5361 103.855 61.342L98.1645 59.7296C97.4793 59.5354 96.7664 59.9335 96.5723 60.6187C96.3781 61.3039 96.7762 62.0167 97.4614 62.2109Z" stroke="#1B365D" stroke-width="0.84" stroke-miterlimit="10"/>
<path d="M102.315 63.5869L99.9921 71.7715" stroke="#1B365D" stroke-width="0.84" stroke-miterlimit="10"/>
<path d="M38.2015 39.088C38.2015 45.5187 32.9748 50.7453 26.5442 50.7453C20.1135 50.7453 14.8868 45.5187 14.8868 39.088C14.8868 32.6573 20.1135 27.4307 26.5442 27.4307C32.9748 27.4307 38.2015 32.6573 38.2015 39.088Z" fill="#69BE28"/>
<path d="M26.5442 26.5159C19.6095 26.5159 13.9722 32.1532 13.9722 39.0879C13.9722 46.0225 19.6095 51.6599 26.5442 51.6599C33.4788 51.6599 39.1162 46.0225 39.1162 39.0879C39.1162 32.1532 33.4788 26.5159 26.5442 26.5159ZM26.5442 50.7452C20.1228 50.7452 14.8868 45.5185 14.8868 39.0879C14.8868 32.6572 20.1135 27.4305 26.5442 27.4305C32.9748 27.4305 38.2015 32.6572 38.2015 39.0879C38.2015 45.5185 32.9748 50.7452 26.5442 50.7452Z" fill="#1B365D"/>
<path d="M30.4393 35.5515C30.4393 36.1269 30.3197 36.6253 30.0804 37.0469C29.8412 37.4684 29.5165 37.8131 29.1063 38.0808C28.7019 38.3486 28.2461 38.5451 27.7391 38.6704V38.7217C28.7417 38.847 29.5022 39.1546 30.0206 39.6445C30.5447 40.1344 30.8068 40.7896 30.8068 41.6099C30.8068 42.339 30.6273 42.9913 30.2684 43.5667C29.9152 44.142 29.3684 44.5949 28.6278 44.9253C27.8872 45.2557 26.9331 45.4209 25.7653 45.4209C25.076 45.4209 24.4323 45.3639 23.8341 45.25C23.2417 45.1418 22.6834 44.9737 22.1593 44.7458V42.4985C22.6948 42.772 23.2559 42.9799 23.8427 43.1223C24.4294 43.259 24.9763 43.3274 25.4833 43.3274C26.4289 43.3274 27.0897 43.165 27.4657 42.8403C27.8474 42.5099 28.0382 42.0485 28.0382 41.4561C28.0382 41.1086 27.9499 40.8152 27.7733 40.5759C27.5967 40.3367 27.2891 40.1544 26.8505 40.0291C26.4175 39.9037 25.8108 39.8411 25.0304 39.8411H24.0819V37.8159H25.0475C25.8165 37.8159 26.4004 37.7447 26.7992 37.6023C27.2037 37.4542 27.4771 37.2548 27.6195 37.0042C27.7676 36.7478 27.8417 36.4573 27.8417 36.1326C27.8417 35.6882 27.705 35.3407 27.4315 35.0901C27.1581 34.8394 26.7024 34.7141 26.0643 34.7141C25.6656 34.7141 25.301 34.7654 24.9706 34.8679C24.6459 34.9648 24.3525 35.0844 24.0905 35.2268C23.8284 35.3635 23.5977 35.4974 23.3983 35.6284L22.1764 33.8083C22.6663 33.4552 23.2388 33.1618 23.8939 32.9282C24.5547 32.6947 25.3409 32.5779 26.2523 32.5779C27.5398 32.5779 28.5594 32.8371 29.3114 33.3555C30.0634 33.8739 30.4393 34.6059 30.4393 35.5515Z" fill="white"/>
<path d="M95.2747 55.5989C94.7147 53.5456 95.3307 51.5016 96.628 51.1469C97.9347 50.7922 99.512 52.2202 100.072 54.2736C100.137 54.5162 100.399 54.6656 100.632 54.6002L94.948 56.1682C95.1907 56.1029 95.34 55.8416 95.2653 55.6082L95.2747 55.5989Z" fill="#F7F7F7"/>
</svg>
