<?xml version="1.0" encoding="utf-8"?>
<!-- Generator: Adobe Illustrator 26.5.2, SVG Export Plug-In . SVG Version: 6.00 Build 0)  -->
<svg preserveAspectRatio="none" version="1.1" id="Layer_1" xmlns="http://www.w3.org/2000/svg" xmlns:xlink="http://www.w3.org/1999/xlink" x="0px" y="0px"
	 viewBox="0 0 540 391" style="enable-background:new 0 0 540 391;" xml:space="preserve">
<style type="text/css">
	.st0{clip-path:url(#SVGID_00000107569364575446059520000001243202793135735988_);}
	.st1{clip-path:url(#SVGID_00000181081567542276546610000012068703344683808421_);fill:#C4C3C5;}
	.st2{clip-path:url(#SVGID_00000096744597036458982850000006760357067644832953_);fill:#C4C3C5;}
	.st3{clip-path:url(#SVGID_00000086669214059064774610000013383276372336971157_);fill:#C4C3C5;}
	.st4{clip-path:url(#SVGID_00000170259071303180838860000011812464114963283878_);fill:#C4C3C5;}
	.st5{clip-path:url(#SVGID_00000034798342005368655360000014897270396806851999_);fill:#DFDFDF;}
	.st6{clip-path:url(#SVGID_00000130621541894350271960000012700102805494767536_);fill:#DFDFDF;}
	.st7{clip-path:url(#SVGID_00000136403995357174094660000017363795911961325739_);fill:#C4C3C5;}
	.st8{clip-path:url(#SVGID_00000039813879500738114940000011971396001776131507_);fill:#C4C3C5;}
	.st9{clip-path:url(#SVGID_00000089542619956351964660000000126065082157393547_);fill:#BC2B36;}
	.st10{clip-path:url(#SVGID_00000115513011292282543870000016727645965465840563_);fill:#902D31;}
	.st11{clip-path:url(#SVGID_00000152977768127100981910000006326711438970505607_);fill:#BC2B36;}
	.st12{clip-path:url(#SVGID_00000006669799689135790640000010556451458242334881_);fill:#902D31;}
	.st13{clip-path:url(#SVGID_00000056427472602734227450000011334152581275423915_);fill:#DFDFDF;}
	.st14{clip-path:url(#SVGID_00000134961595471689811150000013845391069114437253_);fill:#F1F1F1;}
	.st15{clip-path:url(#SVGID_00000083772810694110175370000001258198727090240421_);fill:#FFFFFF;}
	.st16{clip-path:url(#SVGID_00000149360836766257481800000009890870401154500486_);}
	.st17{clip-path:url(#SVGID_00000022547876607529708950000003743730641922758535_);}
	.st18{clip-path:url(#SVGID_00000000203469586129536220000016144116579687644823_);}
	.st19{clip-path:url(#SVGID_00000047023447583473765270000006703069735981388971_);}
	.st20{clip-path:url(#SVGID_00000029005188544651281830000014465877345570627508_);}
	.st21{clip-path:url(#SVGID_00000143583625535652744330000005953500259194237573_);}
	.st22{clip-path:url(#SVGID_00000141419379425950171190000001826652394075918237_);}
	.st23{clip-path:url(#SVGID_00000122712453763597096930000010426021252688995714_);}
	.st24{clip-path:url(#SVGID_00000079470614248135261220000011655710103149204107_);}
	.st25{clip-path:url(#SVGID_00000063631648506975063700000009110083615361442480_);}
	.st26{clip-path:url(#SVGID_00000070100540378415409360000014046258200714622134_);}
	.st27{clip-path:url(#SVGID_00000182513428526986190840000001017308615952326040_);}
	.st28{clip-path:url(#SVGID_00000090985750653915409270000003120831857927414192_);}
	.st29{clip-path:url(#SVGID_00000136394268528076413150000009753127200154353071_);}
	.st30{clip-path:url(#SVGID_00000127727547001192576700000012262910868124499635_);}
	.st31{clip-path:url(#SVGID_00000097493302470331088480000006436225609334364316_);}
	.st32{clip-path:url(#SVGID_00000073704440405414851350000000361685168999151769_);}
	.st33{clip-path:url(#SVGID_00000129928729536696852460000010931707764216080299_);}
	.st34{clip-path:url(#SVGID_00000055707114768696066340000016285774314287488652_);}
	.st35{clip-path:url(#SVGID_00000004537716002891730380000006848185946902122416_);fill:#FFFFFF;}
	.st36{clip-path:url(#SVGID_00000008108344381917902430000010349288007032531849_);fill:#FFFFFF;}
	.st37{clip-path:url(#SVGID_00000168820110833092868020000008458421836211026560_);fill:#FFFFFF;}
	.st38{clip-path:url(#SVGID_00000003105447336453818580000014624354052863339927_);fill:#FFFFFF;}
	.st39{clip-path:url(#SVGID_00000158730791118682189540000005261134168331268025_);fill:#FFFFFF;}
	.st40{clip-path:url(#SVGID_00000132766276053568360290000001788434660200786823_);fill:#FFFFFF;}
	.st41{clip-path:url(#SVGID_00000155117256281770501940000015377079592022517686_);fill:#FFFFFF;}
	.st42{clip-path:url(#SVGID_00000085248306958891049110000016890603611583338406_);fill:none;}
</style>
<g>
	<g>
		<defs>
			<rect id="SVGID_1_" width="540" height="391"/>
		</defs>
		<clipPath id="SVGID_00000049910790451273201630000001040778657407022498_">
			<use xlink:href="#SVGID_1_"  style="overflow:visible;"/>
		</clipPath>
		<g style="clip-path:url(#SVGID_00000049910790451273201630000001040778657407022498_);">
			<g>
				<g>
					<defs>
						<rect id="SVGID_00000163762053128826848350000002961427310222799000_" x="-317" y="-577" width="857" height="2024"/>
					</defs>
					<clipPath id="SVGID_00000127026680670258081630000001591236131183909270_">
						<use xlink:href="#SVGID_00000163762053128826848350000002961427310222799000_"  style="overflow:visible;"/>
					</clipPath>
					
						<rect x="-134" y="113.2" style="clip-path:url(#SVGID_00000127026680670258081630000001591236131183909270_);fill:#C4C3C5;" width="56.1" height="120"/>
				</g>
			</g>
			<g>
				<g>
					<defs>
						<rect id="SVGID_00000158721940271454999200000004666024172857663128_" x="-317" y="-577" width="857" height="2024"/>
					</defs>
					<clipPath id="SVGID_00000109732204775668800160000004894638195410896539_">
						<use xlink:href="#SVGID_00000158721940271454999200000004666024172857663128_"  style="overflow:visible;"/>
					</clipPath>
					
						<rect x="614.4" y="113.2" style="clip-path:url(#SVGID_00000109732204775668800160000004894638195410896539_);fill:#C4C3C5;" width="56.1" height="120"/>
				</g>
			</g>
			<g>
				<g>
					<defs>
						<rect id="SVGID_00000104684555432513889640000002629374579487934618_" x="-317" y="-577" width="857" height="2024"/>
					</defs>
					<clipPath id="SVGID_00000065797459319144738130000000745249828050876854_">
						<use xlink:href="#SVGID_00000104684555432513889640000002629374579487934618_"  style="overflow:visible;"/>
					</clipPath>
					
						<rect x="15.7" y="0.9" style="clip-path:url(#SVGID_00000065797459319144738130000000745249828050876854_);fill:#C4C3C5;" width="56.1" height="120"/>
				</g>
			</g>
			<g>
				<g>
					<defs>
						<rect id="SVGID_00000054962360852791359350000008564890655394325945_" x="-317" y="-577" width="857" height="2024"/>
					</defs>
					<clipPath id="SVGID_00000007405609983666558410000003385065176315278733_">
						<use xlink:href="#SVGID_00000054962360852791359350000008564890655394325945_"  style="overflow:visible;"/>
					</clipPath>
					
						<rect x="464.7" y="0.9" style="clip-path:url(#SVGID_00000007405609983666558410000003385065176315278733_);fill:#C4C3C5;" width="56.1" height="120"/>
				</g>
			</g>
			<g>
				<g>
					<defs>
						<rect id="SVGID_00000050628811252713511490000015796066651935017909_" x="-317" y="-577" width="857" height="2024"/>
					</defs>
					<clipPath id="SVGID_00000115498489411602002300000018000583119020693171_">
						<use xlink:href="#SVGID_00000050628811252713511490000015796066651935017909_"  style="overflow:visible;"/>
					</clipPath>
					<path style="clip-path:url(#SVGID_00000115498489411602002300000018000583119020693171_);fill:#DFDFDF;" d="M96.4,233.6
						L2.9,269.7l-56.1,21.7l-56.1,21.7l-205.9,79.5c0,0,0-41,18.7-56.1L208.6-53.2v15.5v243.2h-18.7L96.4,233.6z"/>
				</g>
			</g>
			<g>
				<g>
					<defs>
						<rect id="SVGID_00000090292631715610057940000017787170954529578904_" x="-317" y="-577" width="857" height="2024"/>
					</defs>
					<clipPath id="SVGID_00000072271022523755628200000005354848118105191050_">
						<use xlink:href="#SVGID_00000090292631715610057940000017787170954529578904_"  style="overflow:visible;"/>
					</clipPath>
					<path style="clip-path:url(#SVGID_00000072271022523755628200000005354848118105191050_);fill:#DFDFDF;" d="M589.1,291.4
						L533,269.7l-93.5-36.1L346,205.5h-18.7V-37.7l-13.4-25l518.5,399.2c18.7,15.2,18.7,56.1,18.7,56.1l-205.8-79.5L589.1,291.4z"/>
				</g>
			</g>
			<g>
				<g>
					<defs>
						<rect id="SVGID_00000176039547838534918800000010891643526715735738_" x="-317" y="-577" width="857" height="2024"/>
					</defs>
					<clipPath id="SVGID_00000091732557805631208920000013112366411282463139_">
						<use xlink:href="#SVGID_00000176039547838534918800000010891643526715735738_"  style="overflow:visible;"/>
					</clipPath>
					<polygon style="clip-path:url(#SVGID_00000091732557805631208920000013112366411282463139_);fill:#C4C3C5;" points="
						-315.2,392.6 205,234 205,180.2 					"/>
				</g>
			</g>
			<g>
				<g>
					<defs>
						<rect id="SVGID_00000013880225803231064870000001827118415528144533_" x="-317" y="-577" width="857" height="2024"/>
					</defs>
					<clipPath id="SVGID_00000183238491922297263240000014242628151273604519_">
						<use xlink:href="#SVGID_00000013880225803231064870000001827118415528144533_"  style="overflow:visible;"/>
					</clipPath>
					<polygon style="clip-path:url(#SVGID_00000183238491922297263240000014242628151273604519_);fill:#C4C3C5;" points="
						851.7,392.6 331.6,234 331.6,180.2 					"/>
				</g>
			</g>
			<g>
				<g>
					<defs>
						<rect id="SVGID_00000098901115209921866060000015301075374159335863_" x="-317" y="-577" width="857" height="2024"/>
					</defs>
					<clipPath id="SVGID_00000178189480503353685710000004464216906924925359_">
						<use xlink:href="#SVGID_00000098901115209921866060000015301075374159335863_"  style="overflow:visible;"/>
					</clipPath>
					<path style="clip-path:url(#SVGID_00000178189480503353685710000004464216906924925359_);fill:#BC2B36;" d="M719.6,247.8
						l116.5,89.9c18.7,15.2,18.7,56.1,18.7,56.1l-106.3-43.4L719.6,247.8z"/>
				</g>
			</g>
			<g>
				<g>
					<defs>
						<rect id="SVGID_00000147191136379237950130000003241424276920335537_" x="-317" y="-577" width="857" height="2024"/>
					</defs>
					<clipPath id="SVGID_00000050624327203889103130000017287795893600787626_">
						<use xlink:href="#SVGID_00000147191136379237950130000003241424276920335537_"  style="overflow:visible;"/>
					</clipPath>
					<polygon style="clip-path:url(#SVGID_00000050624327203889103130000017287795893600787626_);fill:#902D31;" points="
						854.8,393.9 751.9,362.5 749.3,353.1 748.6,350.5 					"/>
				</g>
			</g>
			<g>
				<g>
					<defs>
						<rect id="SVGID_00000040546525291980046360000011398841069506688898_" x="-317" y="-577" width="857" height="2024"/>
					</defs>
					<clipPath id="SVGID_00000126285698750460436940000009475066868113463487_">
						<use xlink:href="#SVGID_00000040546525291980046360000011398841069506688898_"  style="overflow:visible;"/>
					</clipPath>
					<path style="clip-path:url(#SVGID_00000126285698750460436940000009475066868113463487_);fill:#BC2B36;" d="M-183.2,250.9
						l-114.4,88.3c-18.4,14.9-18.4,55.1-18.4,55.1l104.3-42.6L-183.2,250.9z"/>
				</g>
			</g>
			<g>
				<g>
					<defs>
						<rect id="SVGID_00000109031730976886991340000002363334259120693175_" x="-317" y="-577" width="857" height="2024"/>
					</defs>
					<clipPath id="SVGID_00000127037192746709861390000000122142863518612415_">
						<use xlink:href="#SVGID_00000109031730976886991340000002363334259120693175_"  style="overflow:visible;"/>
					</clipPath>
					<polygon style="clip-path:url(#SVGID_00000127037192746709861390000000122142863518612415_);fill:#902D31;" points="
						-317,393.1 -214.1,361.8 -211.5,352.4 -210.7,349.7 					"/>
				</g>
			</g>
			<g>
				<g>
					<defs>
						<rect id="SVGID_00000051344345718235990610000010898574271954577837_" x="-317" y="-577" width="857" height="2024"/>
					</defs>
					<clipPath id="SVGID_00000176724417249532106410000014624452864260065191_">
						<use xlink:href="#SVGID_00000051344345718235990610000010898574271954577837_"  style="overflow:visible;"/>
					</clipPath>
					<path style="clip-path:url(#SVGID_00000176724417249532106410000014624452864260065191_);fill:#DFDFDF;" d="M432.6-703.5
						c0-95.4-73.3-225.1-163.7-225.1S105.2-798.9,105.2-703.5v2150.9h327.5V-703.5H432.6z"/>
				</g>
			</g>
			<g>
				<g>
					<defs>
						<rect id="SVGID_00000159443194451978405870000002932956471954586263_" x="-317" y="-577" width="857" height="2024"/>
					</defs>
					<clipPath id="SVGID_00000028294106314839545150000012178891165295158958_">
						<use xlink:href="#SVGID_00000159443194451978405870000002932956471954586263_"  style="overflow:visible;"/>
					</clipPath>
					<path style="clip-path:url(#SVGID_00000028294106314839545150000012178891165295158958_);fill:#F1F1F1;" d="M423.3-671.8
						c0-90-69.1-212.4-154.4-212.4S114.5-761.8,114.5-671.8V1403h308.9V-671.8H423.3z"/>
				</g>
			</g>
			<g>
				<g>
					<defs>
						<rect id="SVGID_00000130626463299164964710000007153592368232672910_" x="-317" y="-577" width="857" height="2024"/>
					</defs>
					<clipPath id="SVGID_00000072268939368533196010000000984983609067933604_">
						<use xlink:href="#SVGID_00000130626463299164964710000007153592368232672910_"  style="overflow:visible;"/>
					</clipPath>
					<path style="clip-path:url(#SVGID_00000072268939368533196010000000984983609067933604_);fill:#FFFFFF;" d="M411.3-671.8
						c0-90-63.8-212.4-142.4-212.4S126.5-761.8,126.5-671.8V1403h284.8V-671.8z"/>
				</g>
			</g>
			<g>
				<g>
					<defs>
						<rect id="SVGID_00000152971869122751675110000012597260098950940033_" x="-317" y="-577" width="857" height="2024"/>
					</defs>
					<clipPath id="SVGID_00000036941168129878388480000007935894391117672101_">
						<use xlink:href="#SVGID_00000152971869122751675110000012597260098950940033_"  style="overflow:visible;"/>
					</clipPath>
					<g style="clip-path:url(#SVGID_00000036941168129878388480000007935894391117672101_);">
						
							<text transform="matrix(1 0 0 1 162.28 -530.5308)" style="fill:#FFFFFF; font-family:'MyriadPro-Semibold'; font-size:8.1475px;">XL</text>
					</g>
				</g>
			</g>
			<g>
				<g>
					<defs>
						<rect id="SVGID_00000151528148336921203150000015190739482654319800_" x="-317" y="-577" width="857" height="2024"/>
					</defs>
					<clipPath id="SVGID_00000000927313632725439200000009864216534225727914_">
						<use xlink:href="#SVGID_00000151528148336921203150000015190739482654319800_"  style="overflow:visible;"/>
					</clipPath>
					<g style="clip-path:url(#SVGID_00000000927313632725439200000009864216534225727914_);">
						
							<text transform="matrix(1 0 0 1 300.6315 -530.5308)" style="fill:#FFFFFF; font-family:'MyriadPro-Semibold'; font-size:8.1475px;">XL</text>
					</g>
				</g>
			</g>
			<g>
				<g>
					<defs>
						<rect id="SVGID_00000160160228763382130140000012338505628341222290_" x="-317" y="-577" width="857" height="2024"/>
					</defs>
					<clipPath id="SVGID_00000149383434305041276270000013715629300268643982_">
						<use xlink:href="#SVGID_00000160160228763382130140000012338505628341222290_"  style="overflow:visible;"/>
					</clipPath>
					<g style="clip-path:url(#SVGID_00000149383434305041276270000013715629300268643982_);">
						
							<text transform="matrix(1 0 0 1 332.2983 -530.5308)" style="fill:#FFFFFF; font-family:'MyriadPro-Semibold'; font-size:8.1475px;">XL</text>
					</g>
				</g>
			</g>
			<g>
				<g>
					<defs>
						<rect id="SVGID_00000150083366283840067810000001011528718859187900_" x="-317" y="-577" width="857" height="2024"/>
					</defs>
					<clipPath id="SVGID_00000160894096358126258610000014559122223795245998_">
						<use xlink:href="#SVGID_00000150083366283840067810000001011528718859187900_"  style="overflow:visible;"/>
					</clipPath>
					<g style="clip-path:url(#SVGID_00000160894096358126258610000014559122223795245998_);">
						
							<text transform="matrix(1 0 0 1 363.9648 -530.5308)" style="fill:#FFFFFF; font-family:'MyriadPro-Semibold'; font-size:8.1475px;">XL</text>
					</g>
				</g>
			</g>
			<g>
				<g>
					<defs>
						<rect id="SVGID_00000016775348435626203690000003173749424789228210_" x="-317" y="-577" width="857" height="2024"/>
					</defs>
					<clipPath id="SVGID_00000139275400498080108660000011255264987479123101_">
						<use xlink:href="#SVGID_00000016775348435626203690000003173749424789228210_"  style="overflow:visible;"/>
					</clipPath>
					<g style="clip-path:url(#SVGID_00000139275400498080108660000011255264987479123101_);">
						
							<text transform="matrix(1 0 0 1 194.9468 -530.5308)" style="fill:#FFFFFF; font-family:'MyriadPro-Semibold'; font-size:8.1475px;">XL</text>
					</g>
				</g>
			</g>
			<g>
				<g>
					<defs>
						<rect id="SVGID_00000000936247055827042340000014940995838532583043_" x="-317" y="-577" width="857" height="2024"/>
					</defs>
					<clipPath id="SVGID_00000006690241671000049170000012660808817975692945_">
						<use xlink:href="#SVGID_00000000936247055827042340000014940995838532583043_"  style="overflow:visible;"/>
					</clipPath>
					<g style="clip-path:url(#SVGID_00000006690241671000049170000012660808817975692945_);">
						
							<text transform="matrix(1 0 0 1 226.6133 -530.5308)" style="fill:#FFFFFF; font-family:'MyriadPro-Semibold'; font-size:8.1475px;">XL</text>
					</g>
				</g>
			</g>
			<g>
				<g>
					<defs>
						<rect id="SVGID_00000179604459088023716520000016508004854509490589_" x="-317" y="-577" width="857" height="2024"/>
					</defs>
					<clipPath id="SVGID_00000025431184087954059590000009069550221607955870_">
						<use xlink:href="#SVGID_00000179604459088023716520000016508004854509490589_"  style="overflow:visible;"/>
					</clipPath>
					<g style="clip-path:url(#SVGID_00000025431184087954059590000009069550221607955870_);">
						
							<text transform="matrix(1 0 0 1 299.6315 -164.3623)" style="fill:#FFFFFF; font-family:'MyriadPro-Semibold'; font-size:8.1475px;">XL</text>
					</g>
				</g>
			</g>
			<g>
				<g>
					<defs>
						<rect id="SVGID_00000124874338004467776930000002950203069060062638_" x="-317" y="-577" width="857" height="2024"/>
					</defs>
					<clipPath id="SVGID_00000144321854150162233620000015198406582367069067_">
						<use xlink:href="#SVGID_00000124874338004467776930000002950203069060062638_"  style="overflow:visible;"/>
					</clipPath>
					<g style="clip-path:url(#SVGID_00000144321854150162233620000015198406582367069067_);">
						
							<text transform="matrix(1 0 0 1 332.2983 -164.3623)" style="fill:#FFFFFF; font-family:'MyriadPro-Semibold'; font-size:8.1475px;">XL</text>
					</g>
				</g>
			</g>
			<g>
				<g>
					<defs>
						<rect id="SVGID_00000113331082341939564020000010029454570560755884_" x="-317" y="-577" width="857" height="2024"/>
					</defs>
					<clipPath id="SVGID_00000065770299353090493520000006304091704901436832_">
						<use xlink:href="#SVGID_00000113331082341939564020000010029454570560755884_"  style="overflow:visible;"/>
					</clipPath>
					<g style="clip-path:url(#SVGID_00000065770299353090493520000006304091704901436832_);">
						
							<text transform="matrix(1 0 0 1 363.9648 -164.3623)" style="fill:#FFFFFF; font-family:'MyriadPro-Semibold'; font-size:8.1475px;">XL</text>
					</g>
				</g>
			</g>
			<g>
				<g>
					<defs>
						<rect id="SVGID_00000054954820752831828560000002925260598810595511_" x="-317" y="-577" width="857" height="2024"/>
					</defs>
					<clipPath id="SVGID_00000141433074078321734460000008186774130612130993_">
						<use xlink:href="#SVGID_00000054954820752831828560000002925260598810595511_"  style="overflow:visible;"/>
					</clipPath>
					<g style="clip-path:url(#SVGID_00000141433074078321734460000008186774130612130993_);">
						
							<text transform="matrix(1 0 0 1 162.28 -164.3623)" style="fill:#FFFFFF; font-family:'MyriadPro-Semibold'; font-size:8.1475px;">XL</text>
					</g>
				</g>
			</g>
			<g>
				<g>
					<defs>
						<rect id="SVGID_00000144311864354560176060000002000120187845457078_" x="-317" y="-577" width="857" height="2024"/>
					</defs>
					<clipPath id="SVGID_00000029009065178987233920000009853565987419216274_">
						<use xlink:href="#SVGID_00000144311864354560176060000002000120187845457078_"  style="overflow:visible;"/>
					</clipPath>
					<g style="clip-path:url(#SVGID_00000029009065178987233920000009853565987419216274_);">
						
							<text transform="matrix(1 0 0 1 193.9468 -164.3623)" style="fill:#FFFFFF; font-family:'MyriadPro-Semibold'; font-size:8.1475px;">XL</text>
					</g>
				</g>
			</g>
			<g>
				<g>
					<defs>
						<rect id="SVGID_00000103222597301863795930000013024726816136533428_" x="-317" y="-577" width="857" height="2024"/>
					</defs>
					<clipPath id="SVGID_00000182488261818576996750000012043005676872958632_">
						<use xlink:href="#SVGID_00000103222597301863795930000013024726816136533428_"  style="overflow:visible;"/>
					</clipPath>
					<g style="clip-path:url(#SVGID_00000182488261818576996750000012043005676872958632_);">
						
							<text transform="matrix(1 0 0 1 225.6133 -164.3623)" style="fill:#FFFFFF; font-family:'MyriadPro-Semibold'; font-size:8.1475px;">XL</text>
					</g>
				</g>
			</g>
			<g>
				<g>
					<defs>
						<rect id="SVGID_00000180348828698294079860000001844417359177051564_" x="-317" y="-577" width="857" height="2024"/>
					</defs>
					<clipPath id="SVGID_00000160167368763613363620000001932679515763979910_">
						<use xlink:href="#SVGID_00000180348828698294079860000001844417359177051564_"  style="overflow:visible;"/>
					</clipPath>
					<g style="clip-path:url(#SVGID_00000160167368763613363620000001932679515763979910_);">
						
							<text transform="matrix(1 0 0 1 299.6315 -128.6978)" style="fill:#FFFFFF; font-family:'MyriadPro-Semibold'; font-size:8.1475px;">XL</text>
					</g>
				</g>
			</g>
			<g>
				<g>
					<defs>
						<rect id="SVGID_00000003793499950551905200000009450726223777060495_" x="-317" y="-577" width="857" height="2024"/>
					</defs>
					<clipPath id="SVGID_00000040562481697352718860000004069363595037694621_">
						<use xlink:href="#SVGID_00000003793499950551905200000009450726223777060495_"  style="overflow:visible;"/>
					</clipPath>
					<g style="clip-path:url(#SVGID_00000040562481697352718860000004069363595037694621_);">
						
							<text transform="matrix(1 0 0 1 332.2983 -128.6978)" style="fill:#FFFFFF; font-family:'MyriadPro-Semibold'; font-size:8.1475px;">XL</text>
					</g>
				</g>
			</g>
			<g>
				<g>
					<defs>
						<rect id="SVGID_00000040533814409178827880000017536306558183966352_" x="-317" y="-577" width="857" height="2024"/>
					</defs>
					<clipPath id="SVGID_00000067194871308215291650000000083511349407669134_">
						<use xlink:href="#SVGID_00000040533814409178827880000017536306558183966352_"  style="overflow:visible;"/>
					</clipPath>
					<g style="clip-path:url(#SVGID_00000067194871308215291650000000083511349407669134_);">
						
							<text transform="matrix(1 0 0 1 363.9648 -128.6978)" style="fill:#FFFFFF; font-family:'MyriadPro-Semibold'; font-size:8.1475px;">XL</text>
					</g>
				</g>
			</g>
			<g>
				<g>
					<defs>
						<rect id="SVGID_00000111183500825730905170000013678720968488442545_" x="-317" y="-577" width="857" height="2024"/>
					</defs>
					<clipPath id="SVGID_00000177465149226324505030000007509636668204127366_">
						<use xlink:href="#SVGID_00000111183500825730905170000013678720968488442545_"  style="overflow:visible;"/>
					</clipPath>
					<g style="clip-path:url(#SVGID_00000177465149226324505030000007509636668204127366_);">
						
							<text transform="matrix(1 0 0 1 162.28 -128.6978)" style="fill:#FFFFFF; font-family:'MyriadPro-Semibold'; font-size:8.1475px;">XL</text>
					</g>
				</g>
			</g>
			<g>
				<g>
					<defs>
						<rect id="SVGID_00000073705371781907174630000000956342630112280704_" x="-317" y="-577" width="857" height="2024"/>
					</defs>
					<clipPath id="SVGID_00000013162922289319665340000014263993622244936601_">
						<use xlink:href="#SVGID_00000073705371781907174630000000956342630112280704_"  style="overflow:visible;"/>
					</clipPath>
					<g style="clip-path:url(#SVGID_00000013162922289319665340000014263993622244936601_);">
						
							<text transform="matrix(1 0 0 1 193.9468 -128.6978)" style="fill:#FFFFFF; font-family:'MyriadPro-Semibold'; font-size:8.1475px;">XL</text>
					</g>
				</g>
			</g>
			<g>
				<g>
					<defs>
						<rect id="SVGID_00000181799663346374026650000007408233892223719055_" x="-317" y="-577" width="857" height="2024"/>
					</defs>
					<clipPath id="SVGID_00000139283048761173584000000003912692868781758336_">
						<use xlink:href="#SVGID_00000181799663346374026650000007408233892223719055_"  style="overflow:visible;"/>
					</clipPath>
					<g style="clip-path:url(#SVGID_00000139283048761173584000000003912692868781758336_);">
						
							<text transform="matrix(1 0 0 1 225.6133 -128.6978)" style="fill:#FFFFFF; font-family:'MyriadPro-Semibold'; font-size:8.1475px;">XL</text>
					</g>
				</g>
			</g>
			<g>
				<g>
					<defs>
						<rect id="SVGID_00000160909383104564393930000009775359041853905332_" x="-317" y="-577" width="857" height="2024"/>
					</defs>
					<clipPath id="SVGID_00000142149704339467557680000010005849133014505371_">
						<use xlink:href="#SVGID_00000160909383104564393930000009775359041853905332_"  style="overflow:visible;"/>
					</clipPath>
					<g style="clip-path:url(#SVGID_00000142149704339467557680000010005849133014505371_);">
						
							<text transform="matrix(1 0 0 1 226.6134 -530.5308)" style="fill:#FFFFFF; font-family:'MyriadPro-Semibold'; font-size:8.1475px;">XL</text>
					</g>
				</g>
			</g>
			<g>
				<g>
					<defs>
						<rect id="SVGID_00000099656285336477847560000017930911269209083067_" x="-317" y="-577" width="857" height="2024"/>
					</defs>
					<clipPath id="SVGID_00000141429387107565010370000001648754022475796372_">
						<use xlink:href="#SVGID_00000099656285336477847560000017930911269209083067_"  style="overflow:visible;"/>
					</clipPath>
					<path style="clip-path:url(#SVGID_00000141429387107565010370000001648754022475796372_);fill:#FFFFFF;" d="M-159.1,296.9
						c0-0.3-0.1-0.6-0.1-0.9c-0.3-2.2,0.6-3.9,2.3-5.3c1.1-0.9,2.4-1.4,3.7-1.9c1.4-0.4,2.8-0.7,4.2-0.7c0.2,0,0.3,0,0.4,0.3
						c0.2,1.1,0.5,2.3,0.8,3.4c-0.6,0.1-1.1,0.1-1.7,0.2c-1.4,0.2-2.8,0.5-4.1,1.2c-0.4,0.2-0.8,0.5-1.1,0.9
						c-0.6,0.8-0.3,2.2,0.8,2.5c0.6,0.2,1.3,0.2,1.9,0.2c1.3,0,2.5-0.1,3.8,0c1.1,0.1,2.2,0.4,3.1,1c0.9,0.6,1.4,1.4,1.8,2.4
						c0.6,1.4,0.7,2.8,0.3,4.2s-1.4,2.5-2.6,3.3c-0.4,0.3-0.9,0.6-1.4,0.8c0,0-0.1,0-0.1,0.1c-0.6,0.2-1.2,0.5-1.7,0.7
						c-0.3,0-0.6,0.2-0.9,0.2c-1.4,0.3-2.8,0.4-4.2,0.3c-0.2,0-0.3-0.1-0.3-0.3c-0.3-1.2-0.5-2.3-0.8-3.5c0.1,0,0.3,0,0.4,0
						c2,0.2,3.9-0.1,5.7-0.9c0.5-0.2,0.9-0.5,1.3-0.9c0.8-0.8,0.7-2.1-0.1-2.7c-0.4-0.3-0.8-0.4-1.2-0.4c-0.9-0.1-1.8,0-2.8,0
						c-1.2,0-2.3,0-3.5-0.2c-0.7-0.2-1.4-0.5-2-0.9c-0.3-0.3-0.7-0.6-0.9-1c-0.4-0.6-0.8-1.2-0.9-1.8
						C-159,297.1-159,297-159.1,296.9z"/>
				</g>
			</g>
			<g>
				<g>
					<defs>
						<rect id="SVGID_00000062877280627119492140000012408581773387134632_" x="-317" y="-577" width="857" height="2024"/>
					</defs>
					<clipPath id="SVGID_00000108282160223307434680000001392291274760050062_">
						<use xlink:href="#SVGID_00000062877280627119492140000012408581773387134632_"  style="overflow:visible;"/>
					</clipPath>
					<path style="clip-path:url(#SVGID_00000108282160223307434680000001392291274760050062_);fill:#FFFFFF;" d="M-184.7,290h0.1
						c1,0,1.6,0.5,1.9,1.4c0.3,1.2,0.6,2.4,0.9,3.5c0.3,1.3,0.7,2.6,1,3.9c0.3,1.1,0.6,2.2,0.9,3.3c0.3,1.2,0.6,2.4,0.9,3.7
						c0.3,1.3,0.6,2.6,0.7,4c0.1,1.8,0.1,3.5-0.6,5.2c-0.8,2.2-2.3,3.6-4.5,4.3c-2.1,0.7-4.1,0.8-6.2,0.3c-2-0.5-3.6-1.7-4.7-3.5
						c-0.3-0.4-0.5-0.8-0.4-1.3c0.1-0.7,0.8-1.3,1.5-1.4c0.5,0,0.8,0.2,1.1,0.6c0.2,0.3,0.4,0.6,0.6,0.9c1.1,1.3,2.6,1.9,4.2,1.9
						c1.1,0,2.2-0.2,3.2-0.7c1.3-0.7,2-1.8,2.3-3.3c0.3-1.4,0.2-2.7-0.1-4c-0.5-2.1-1-4.2-1.6-6.3c-0.4-1.3-0.7-2.6-1.1-4
						c-0.4-1.5-0.9-3-1.3-4.5c-0.2-0.6-0.3-1.2-0.5-1.7c-0.2-0.8,0-1.5,0.7-2c0,0,0,0,0-0.1C-185.1,290.2-184.9,290.1-184.7,290z"/>
				</g>
			</g>
			<g>
				<g>
					<defs>
						<rect id="SVGID_00000110454951389988743340000013754004037188004778_" x="-317" y="-577" width="857" height="2024"/>
					</defs>
					<clipPath id="SVGID_00000080885689095539538810000000941659104682054532_">
						<use xlink:href="#SVGID_00000110454951389988743340000013754004037188004778_"  style="overflow:visible;"/>
					</clipPath>
					<path style="clip-path:url(#SVGID_00000080885689095539538810000000941659104682054532_);fill:#FFFFFF;" d="M-75,258.5
						c0.1,1,0.3,2.1,0.4,3.1c0,0.3,0.1,0.5,0.1,0.8c0,0.2,0,0.2-0.2,0.3c-1.4,0.5-2.8,1.1-4.2,1.7c-0.2,0.1-0.2,0.1-0.2,0.3
						c1.9,4.8,3.7,9.5,5.6,14.3c0.1,0.3,0.1,0.3-0.2,0.4c-1.2,0.5-2.5,1-3.7,1.5c-0.2,0.1-0.2,0.1-0.3-0.1
						c-1.9-4.8-3.7-9.6-5.6-14.3c-0.1-0.2-0.1-0.2-0.4-0.2c-1.4,0.6-2.8,1.1-4.2,1.6c-0.2,0.1-0.3,0.1-0.4-0.1c-0.7-1-1.4-2-2.2-3
						c-0.1-0.2-0.1-0.2,0.1-0.3c3.9-1.5,7.8-3.1,11.7-4.6C-77.3,259.4-76.2,258.9-75,258.5L-75,258.5z"/>
				</g>
			</g>
			<g>
				<g>
					<defs>
						<rect id="SVGID_00000139982120134367386940000012131932537967216822_" x="-317" y="-577" width="857" height="2024"/>
					</defs>
					<clipPath id="SVGID_00000004541392870926419840000004027073826651802008_">
						<use xlink:href="#SVGID_00000139982120134367386940000012131932537967216822_"  style="overflow:visible;"/>
					</clipPath>
					<path style="clip-path:url(#SVGID_00000004541392870926419840000004027073826651802008_);fill:#FFFFFF;" d="M-127.6,287.3
						c-0.1,0.1-0.1,0.2-0.1,0.2c0.1,4.3,0,8.5,0,12.8c0,0.2,0,0.3-0.2,0.3c-0.8,0.3-1.6,0.6-2.4,0.9c-0.1,0-0.2,0-0.3-0.1
						c-2.6-2.8-5.2-5.6-7.8-8.4c-0.4-0.4-0.7-0.8-1.1-1.2c0,0.2,0.1,0.3,0.1,0.4c1.5,3.6,2.9,7.3,4.3,10.9c0.1,0.1,0,0.2-0.1,0.2
						c-1.1,0.4-2.2,0.9-3.3,1.3c-0.2,0.1-0.2,0-0.2-0.1c-2.4-6.1-4.8-12.1-7.1-18.2c-0.1-0.2,0-0.2,0.1-0.3c1.4-0.5,2.8-1.1,4.2-1.7
						c0.2-0.1,0.2,0,0.4,0.1c3.2,3.5,6.5,6.9,9.7,10.4c0,0,0.1,0.1,0.2,0.1c0.1,0,0-0.1,0-0.2c-0.1-4.3,0-8.7,0-13
						c0-0.4,0-0.9,0-1.3c0-0.1,0-0.2,0.2-0.2c1.4-0.6,2.8-1.1,4.3-1.7c0.2-0.1,0.2,0,0.3,0.1c2.2,5.6,4.4,11.2,6.6,16.8
						c0.2,0.5,0.4,1,0.6,1.4c0.1,0.1,0,0.2-0.1,0.2c-1.2,0.4-2.3,0.9-3.5,1.4c-0.1,0.1-0.2,0-0.2-0.1c-1.3-3.4-2.6-6.8-4-10.2
						c-0.1-0.3-0.2-0.6-0.3-0.9C-127.5,287.5-127.6,287.4-127.6,287.3z"/>
				</g>
			</g>
			<g>
				<g>
					<defs>
						<rect id="SVGID_00000008113938733014298900000003075267774182375090_" x="-317" y="-577" width="857" height="2024"/>
					</defs>
					<clipPath id="SVGID_00000055665549572214128730000017947456370333590180_">
						<use xlink:href="#SVGID_00000008113938733014298900000003075267774182375090_"  style="overflow:visible;"/>
					</clipPath>
					<path style="clip-path:url(#SVGID_00000055665549572214128730000017947456370333590180_);fill:#FFFFFF;" d="M-90.1,276.9
						c2.5,2,4.9,4,7.3,6c-0.1,0.1-0.1,0.1-0.2,0.1c-1.5,0.6-3,1.2-4.4,1.7c-0.1,0.1-0.2,0-0.4-0.1c-1.9-1.8-3.8-3.6-5.7-5.4
						c-0.1-0.1-0.2-0.1-0.3-0.1c-0.7,0.3-1.5,0.6-2.2,0.9c-0.2,0.1-0.2,0.1-0.1,0.3c0.9,2.2,1.7,4.3,2.6,6.5
						c0.1,0.2,0.1,0.3-0.1,0.3c-1.3,0.5-2.5,1-3.8,1.5c-0.2,0.1-0.2,0-0.3-0.1c-2.4-6-4.7-12.1-7.1-18.1c-0.1-0.2-0.1-0.3,0.1-0.3
						c2.4-0.9,4.8-1.9,7.2-2.8c1.1-0.4,2.2-0.7,3.4-0.7c1.8,0,3.3,0.8,4.3,2.3c0.8,1.1,1.2,2.4,1.4,3.8
						C-88.3,274.4-88.8,275.8-90.1,276.9z M-98.4,274.6c0.3,0.8,0.6,1.6,0.9,2.4c0.1,0.1,0.1,0.2,0.2,0.1c0.4-0.2,0.9-0.3,1.3-0.5
						c0.6-0.3,1.3-0.5,1.9-0.8c0.9-0.5,1.3-1.2,1.1-2.1c-0.1-0.8-0.4-1.5-0.8-2.1c-0.4-0.6-1-0.9-1.8-0.8c-0.3,0-0.7,0.1-1,0.3
						c-0.9,0.3-1.8,0.7-2.7,1c-0.2,0.1-0.2,0.1-0.1,0.3C-99,273-98.7,273.8-98.4,274.6z"/>
				</g>
			</g>
			<g>
				<g>
					<defs>
						<rect id="SVGID_00000143577774850582072320000002058304062778220713_" x="-317" y="-577" width="857" height="2024"/>
					</defs>
					<clipPath id="SVGID_00000111176643777453628530000015337753313129806981_">
						<use xlink:href="#SVGID_00000143577774850582072320000002058304062778220713_"  style="overflow:visible;"/>
					</clipPath>
					<path style="clip-path:url(#SVGID_00000111176643777453628530000015337753313129806981_);fill:#FFFFFF;" d="M-99.6,289.5
						c-0.1,0-0.2,0.1-0.2,0.1c-1.4,0.6-2.8,1.1-4.2,1.7c-0.2,0.1-0.2,0-0.3-0.1c-0.7-1-1.5-1.9-2.2-2.9c-0.1-0.1-0.2-0.2-0.3-0.1
						c-2.1,0.8-4.2,1.7-6.3,2.5c-0.2,0.1-0.2,0.1-0.2,0.3c0.1,1.2,0.2,2.4,0.3,3.6c0,0.1,0,0.2-0.1,0.2c-1.4,0.6-2.8,1.1-4.3,1.7
						c0-0.5,0-1-0.1-1.5c-0.2-5.6-0.5-11.1-0.7-16.7c0-0.9-0.1-1.8-0.1-2.8c0-0.1,0-0.2,0.2-0.3c1.6-0.6,3.1-1.2,4.7-1.8
						c0.1,0,0.2,0,0.3,0.1c1.9,2.2,3.8,4.4,5.7,6.6c2.6,3,5.2,6.1,7.8,9.1C-99.7,289.4-99.6,289.5-99.6,289.5z M-114.6,277.6
						C-114.6,277.7-114.6,277.7-114.6,277.6c0.3,3.1,0.5,6.2,0.8,9.3c0.1,0,0.2-0.1,0.2-0.1c1.3-0.5,2.6-1,3.8-1.5
						c0.2-0.1,0.5-0.1,0.6-0.3c0-0.2-0.2-0.4-0.3-0.5c-1.4-1.9-2.9-3.8-4.3-5.7C-114,278.4-114.3,278-114.6,277.6z"/>
				</g>
			</g>
			<g>
				<g>
					<defs>
						<rect id="SVGID_00000150824647531252176060000007323163432056923808_" x="-317" y="-577" width="857" height="2024"/>
					</defs>
					<clipPath id="SVGID_00000077321621483364515000000001905624998954750877_">
						<use xlink:href="#SVGID_00000150824647531252176060000007323163432056923808_"  style="overflow:visible;"/>
					</clipPath>
					<path style="clip-path:url(#SVGID_00000077321621483364515000000001905624998954750877_);fill:#FFFFFF;" d="M-159.1,296.9
						c0.1,0.1,0.1,0.2,0.1,0.3c0.2,0.7,0.5,1.3,0.9,1.8c0.3,0.4,0.6,0.6,0.9,1c-0.2,1.5-0.7,3-1.6,4.2c-0.8,1-1.8,1.7-3,2
						c-1.3,0.3-2.4-0.1-3.4-0.9c-0.3-0.2-0.5-0.5-0.8-0.8c-0.2,0.4-0.4,0.9-0.6,1.3c-0.7,1.2-1.5,2.3-2.7,3c-2,1.4-4.4,1.1-6.1-0.7
						c-0.4-0.4-0.7-0.8-0.9-1.3c-0.1-0.1-0.1-0.2-0.2-0.2c-1-0.2-1.3-1.3-0.7-2.1c0.1-0.1,0.1-0.2,0.1-0.4c-0.2-1.4-0.1-2.8,0.5-4.2
						c0.5-1.1,1.2-1.9,2.3-2.3c1.2-0.5,2.5,0,3.1,1.1c0.7,1.4,0.7,2.9,0.1,4.3c-0.5,1.2-1.3,2.2-2.5,2.8c-0.1,0.1-0.1,0.1,0,0.2
						c0.6,0.7,1.5,1.2,2.5,0.8c1.3-0.4,2.1-1.3,2.7-2.4c0.4-0.8,0.7-1.7,0.9-2.6c0-0.1,0-0.2,0-0.2c-0.6-1.4-0.9-2.8-1.2-4.3
						c-0.2-1.2-0.5-2.3-0.7-3.5c0-0.2-0.1-0.2-0.3-0.1c-1.3,0.5-2.6,1-3.9,1.5c-0.2,0.1-0.4,0.2-0.7,0.2c-0.6,0.2-1.3-0.1-1.5-0.7
						s0-1.3,0.6-1.5c1.3-0.5,2.6-1.1,3.9-1.6c0.4-0.1,0.7-0.3,1.1-0.4c0.1,0,0.1-0.1,0.1-0.2c-0.2-1-0.3-2-0.4-3
						c-0.1-0.7,0.3-1.3,1-1.5c0.6-0.2,1.3,0.1,1.6,0.7c0.2,0.5,0.3,1.1,0.4,1.6c0.1,0.4,0.2,0.7,0.2,1.1c0,0.2,0.1,0.2,0.3,0.2
						c1.6-0.7,3.3-1.3,4.9-2c0.4-0.1,0.7-0.2,1.1-0.2c0.4,0.1,0.8,0.3,0.9,0.8c0.1,0.4,0,0.8-0.3,1.2s-0.8,0.6-1.3,0.8
						c-1.6,0.6-3.2,1.3-4.8,1.9c-0.2,0.1-0.3,0.2-0.2,0.4c0.4,2.2,0.8,4.4,1.3,6.6c0.3,1.3,0.9,2.4,1.7,3.4c0.1,0.1,0.2,0.2,0.3,0.3
						c0.6,0.6,1.1,0.6,1.8,0.1c0.6-0.4,1-1.1,1.3-1.8c0.5-1.1,0.7-2.4,0.8-3.6C-159.2,297.6-159.2,297.3-159.1,296.9z M-174.3,303.6
						c0.9-0.4,1.6-1.7,1.5-2.7c-0.1-0.4-0.3-0.7-0.5-0.9c-0.2-0.1-0.3-0.1-0.5,0c-0.2,0.2-0.4,0.3-0.5,0.6c-0.5,0.9-0.5,1.8-0.3,2.8
						C-174.7,303.7-174.7,303.7-174.3,303.6z"/>
				</g>
			</g>
			<g>
				<g>
					<defs>
						<rect id="SVGID_00000006686324513431330270000009368278988675239823_" x="-317" y="-577" width="857" height="2024"/>
					</defs>
					<clipPath id="SVGID_00000054988592339623064830000015770024518983656883_">
						<use xlink:href="#SVGID_00000006686324513431330270000009368278988675239823_"  style="overflow:visible;"/>
					</clipPath>
					<path style="clip-path:url(#SVGID_00000054988592339623064830000015770024518983656883_);fill:none;" d="M533.8,510.4H-563.8
						c-3.4,0-6.2-2.8-6.2-6.2v-1075c0-3.4,2.8-6.2,6.2-6.2H533.8c3.4,0,6.2,2.8,6.2,6.2v1075C540,507.6,537.2,510.4,533.8,510.4z"/>
				</g>
			</g>
		</g>
	</g>
</g>
</svg>
