<?xml version="1.0" encoding="utf-8"?>
<!-- Generator: Adobe Illustrator 26.5.2, SVG Export Plug-In . SVG Version: 6.00 Build 0)  -->
<svg preserveAspectRatio="none" version="1.1" id="Layer_1" xmlns="http://www.w3.org/2000/svg" xmlns:xlink="http://www.w3.org/1999/xlink" x="0px" y="0px"
	 viewBox="0 0 859 391" style="enable-background:new 0 0 859 391;" xml:space="preserve">
<style type="text/css">
	.st0{display:none;}
	.st1{display:inline;}
	.st2{clip-path:url(#SVGID_00000073714589129794253170000011316910674390214316_);}
	.st3{clip-path:url(#SVGID_00000080199395733658304860000006784153701563605897_);fill:#C4C3C5;}
	.st4{clip-path:url(#SVGID_00000040565931682845084460000015187311253590338464_);fill:#C4C3C5;}
	.st5{clip-path:url(#SVGID_00000070825652799604619180000017256506848933014405_);fill:#C4C3C5;}
	.st6{clip-path:url(#SVGID_00000123426028156850867260000018170638328561685138_);fill:#C4C3C5;}
	.st7{clip-path:url(#SVGID_00000024689638912595556080000007543622227632587400_);fill:#DFDFDF;}
	.st8{clip-path:url(#SVGID_00000036938473602600640310000004524522837242660486_);fill:#DFDFDF;}
	.st9{clip-path:url(#SVGID_00000035522329451262369380000000107006101781595535_);fill:#C4C3C5;}
	.st10{clip-path:url(#SVGID_00000076604118742940608030000013860728346855010231_);fill:#C4C3C5;}
	.st11{clip-path:url(#SVGID_00000101094530579083899530000011927622663418500496_);fill:#BC2B36;}
	.st12{clip-path:url(#SVGID_00000056402225377095003520000013321928303814085536_);fill:#902D31;}
	.st13{clip-path:url(#SVGID_00000183232106335385435130000005891412858795864208_);fill:#BC2B36;}
	.st14{clip-path:url(#SVGID_00000181054247975307258280000017360692802176096447_);fill:#902D31;}
	.st15{clip-path:url(#SVGID_00000143580037773989108010000012037821851250792595_);fill:#DFDFDF;}
	.st16{clip-path:url(#SVGID_00000125603692667074635000000007771997674611972490_);fill:#F1F1F1;}
	.st17{clip-path:url(#SVGID_00000141444942618920835210000014824382759437498782_);fill:#FFFFFF;}
	.st18{clip-path:url(#SVGID_00000150804325423285574810000005587917634677733534_);}
	.st19{clip-path:url(#SVGID_00000071522994376709792450000017002703110547637948_);}
	.st20{clip-path:url(#SVGID_00000170979959581074646660000006585942002700643466_);}
	.st21{clip-path:url(#SVGID_00000026138808322339258460000012902713699666892967_);}
	.st22{clip-path:url(#SVGID_00000044896169295744021360000013182750623963006617_);}
	.st23{clip-path:url(#SVGID_00000083080270796040074510000010569200447836087940_);}
	.st24{clip-path:url(#SVGID_00000140725567049051329880000017868204861909107132_);}
	.st25{clip-path:url(#SVGID_00000124852642259975967350000013108958305788693644_);}
	.st26{clip-path:url(#SVGID_00000114041547737828931080000018211369489258302383_);}
	.st27{clip-path:url(#SVGID_00000109747009827400399160000017432524427297395605_);}
	.st28{clip-path:url(#SVGID_00000046340216603540749860000011987172410476582551_);}
	.st29{clip-path:url(#SVGID_00000109014578583412440420000008676756854363584173_);}
	.st30{clip-path:url(#SVGID_00000139988053658677420790000003348238005154261917_);}
	.st31{clip-path:url(#SVGID_00000044861911441162566120000011358625096740542848_);}
	.st32{clip-path:url(#SVGID_00000169533363774569262430000014056081729682208691_);}
	.st33{clip-path:url(#SVGID_00000090981594143334926340000015365169714899721147_);}
	.st34{clip-path:url(#SVGID_00000003798114949810715820000017075902992699469464_);}
	.st35{clip-path:url(#SVGID_00000176025103527136814000000004562156385042277548_);}
	.st36{clip-path:url(#SVGID_00000016780865347119355170000007910724550977826987_);}
	.st37{clip-path:url(#SVGID_00000155137208726112311080000001081619368437434551_);fill:#FFFFFF;}
	.st38{clip-path:url(#SVGID_00000021828115517392060450000014359639252998918828_);fill:#FFFFFF;}
	.st39{clip-path:url(#SVGID_00000183234508509471481780000004264491541251680912_);fill:#FFFFFF;}
	.st40{clip-path:url(#SVGID_00000026881845030343369110000010137394623578806922_);fill:#FFFFFF;}
	.st41{clip-path:url(#SVGID_00000010286837002816219260000004468393304146323389_);fill:#FFFFFF;}
	.st42{clip-path:url(#SVGID_00000150070674337819839210000008464751946666575276_);fill:#FFFFFF;}
	.st43{clip-path:url(#SVGID_00000004525733682258488890000003176895293616677254_);fill:#FFFFFF;}
	.st44{clip-path:url(#SVGID_00000102505818519423320720000007974140267796624780_);fill:none;}
</style>
<g class="st0">
	<g class="st1">
		<path d="M473.8,395.6c19-1.3,38,0.6,56.9,1.7c18.6,1.1,37.1,0.5,55.6-1.1c36.3-3.2,73.4-9.3,109.6-2.1c7.5,1.5,10.8-10.1,3.2-11.6
			c-36.9-7.3-74-1.8-110.9,1.5c-18.5,1.7-37,2.4-55.6,1.4c-19.6-1.1-39.2-3.2-58.9-1.8C466.2,384.2,466.1,396.2,473.8,395.6
			L473.8,395.6z"/>
	</g>
</g>
<g>
	<defs>
		<rect id="SVGID_1_" x="2" width="857" height="391"/>
	</defs>
	<clipPath id="SVGID_00000009586315300540521140000004463525634497302673_">
		<use xlink:href="#SVGID_1_"  style="overflow:visible;"/>
	</clipPath>
	<g style="clip-path:url(#SVGID_00000009586315300540521140000004463525634497302673_);">
		<g>
			<defs>
				<rect id="SVGID_00000058562109393669506890000015361402375075148687_" x="2" y="-577" width="857" height="2024"/>
			</defs>
			<clipPath id="SVGID_00000152950981326593418300000005455036294946504616_">
				<use xlink:href="#SVGID_00000058562109393669506890000015361402375075148687_"  style="overflow:visible;"/>
			</clipPath>
			
				<rect x="185" y="113.2" style="clip-path:url(#SVGID_00000152950981326593418300000005455036294946504616_);fill:#C4C3C5;" width="56.1" height="120"/>
		</g>
		<g>
			<defs>
				<rect id="SVGID_00000142859858312087892800000005026156633769227949_" x="2" y="-577" width="857" height="2024"/>
			</defs>
			<clipPath id="SVGID_00000044167734591147945410000017634658849388840893_">
				<use xlink:href="#SVGID_00000142859858312087892800000005026156633769227949_"  style="overflow:visible;"/>
			</clipPath>
			
				<rect x="933.4" y="113.2" style="clip-path:url(#SVGID_00000044167734591147945410000017634658849388840893_);fill:#C4C3C5;" width="56.1" height="120"/>
		</g>
		<g>
			<defs>
				<rect id="SVGID_00000000914014825084362930000011213018276341102522_" x="2" y="-577" width="857" height="2024"/>
			</defs>
			<clipPath id="SVGID_00000070093487156595418940000000388000155773474980_">
				<use xlink:href="#SVGID_00000000914014825084362930000011213018276341102522_"  style="overflow:visible;"/>
			</clipPath>
			
				<rect x="334.7" y="0.9" style="clip-path:url(#SVGID_00000070093487156595418940000000388000155773474980_);fill:#C4C3C5;" width="56.1" height="120"/>
		</g>
		<g>
			<defs>
				<rect id="SVGID_00000031179755266656679330000013365209466484011924_" x="2" y="-577" width="857" height="2024"/>
			</defs>
			<clipPath id="SVGID_00000134211496195314225430000015389386694264028863_">
				<use xlink:href="#SVGID_00000031179755266656679330000013365209466484011924_"  style="overflow:visible;"/>
			</clipPath>
			
				<rect x="783.7" y="0.9" style="clip-path:url(#SVGID_00000134211496195314225430000015389386694264028863_);fill:#C4C3C5;" width="56.1" height="120"/>
		</g>
		<g>
			<defs>
				<rect id="SVGID_00000168079211480877526870000005701512935932424068_" x="2" y="-577" width="857" height="2024"/>
			</defs>
			<clipPath id="SVGID_00000078731320231697990630000004818082090709887164_">
				<use xlink:href="#SVGID_00000168079211480877526870000005701512935932424068_"  style="overflow:visible;"/>
			</clipPath>
			<path style="clip-path:url(#SVGID_00000078731320231697990630000004818082090709887164_);fill:#DFDFDF;" d="M415.4,233.6
				l-93.5,36.1l-56.1,21.7l-56.1,21.7L3.8,392.6c0,0,0-41,18.7-56.1L527.6-53.2v15.5v243.2h-18.7L415.4,233.6z"/>
		</g>
		<g>
			<defs>
				<rect id="SVGID_00000071548784054806072000000015040965718815589795_" x="2" y="-577" width="857" height="2024"/>
			</defs>
			<clipPath id="SVGID_00000069377972993262355230000014029454573634975652_">
				<use xlink:href="#SVGID_00000071548784054806072000000015040965718815589795_"  style="overflow:visible;"/>
			</clipPath>
			<path style="clip-path:url(#SVGID_00000069377972993262355230000014029454573634975652_);fill:#DFDFDF;" d="M908.1,291.4
				L852,269.7l-93.5-36.1L665,205.5h-18.7V-37.7l-13.4-25l518.5,399.2c18.7,15.2,18.7,56.1,18.7,56.1l-205.8-79.5L908.1,291.4z"/>
		</g>
		<g>
			<defs>
				<rect id="SVGID_00000070089861672471828590000007362091241926220439_" x="2" y="-577" width="857" height="2024"/>
			</defs>
			<clipPath id="SVGID_00000023240338850312431420000001821674698379138990_">
				<use xlink:href="#SVGID_00000070089861672471828590000007362091241926220439_"  style="overflow:visible;"/>
			</clipPath>
			<polygon style="clip-path:url(#SVGID_00000023240338850312431420000001821674698379138990_);fill:#C4C3C5;" points="3.8,392.6 
				524,234 524,180.2 			"/>
		</g>
		<g>
			<defs>
				<rect id="SVGID_00000092449147196776804170000005706281473327281599_" x="2" y="-577" width="857" height="2024"/>
			</defs>
			<clipPath id="SVGID_00000089571380297313851210000015802675576711610016_">
				<use xlink:href="#SVGID_00000092449147196776804170000005706281473327281599_"  style="overflow:visible;"/>
			</clipPath>
			<polygon style="clip-path:url(#SVGID_00000089571380297313851210000015802675576711610016_);fill:#C4C3C5;" points="
				1170.7,392.6 650.6,234 650.6,180.2 			"/>
		</g>
		<g>
			<defs>
				<rect id="SVGID_00000109011000226587751390000003082645971367749507_" x="2" y="-577" width="857" height="2024"/>
			</defs>
			<clipPath id="SVGID_00000178166803455696327110000006035510044290890131_">
				<use xlink:href="#SVGID_00000109011000226587751390000003082645971367749507_"  style="overflow:visible;"/>
			</clipPath>
			<path style="clip-path:url(#SVGID_00000178166803455696327110000006035510044290890131_);fill:#BC2B36;" d="M1038.6,247.8
				l116.5,89.9c18.7,15.2,18.7,56.1,18.7,56.1l-106.3-43.4L1038.6,247.8z"/>
		</g>
		<g>
			<defs>
				<rect id="SVGID_00000168818892557884881560000011153125339729586068_" x="2" y="-577" width="857" height="2024"/>
			</defs>
			<clipPath id="SVGID_00000155845184265901714640000009414613682553695882_">
				<use xlink:href="#SVGID_00000168818892557884881560000011153125339729586068_"  style="overflow:visible;"/>
			</clipPath>
			<polygon style="clip-path:url(#SVGID_00000155845184265901714640000009414613682553695882_);fill:#902D31;" points="
				1173.8,393.9 1070.9,362.5 1068.3,353.1 1067.6,350.5 			"/>
		</g>
		<g>
			<defs>
				<rect id="SVGID_00000179607394302881078650000015273070381012133037_" x="2" y="-577" width="857" height="2024"/>
			</defs>
			<clipPath id="SVGID_00000140729516489401356870000012481177938700815265_">
				<use xlink:href="#SVGID_00000179607394302881078650000015273070381012133037_"  style="overflow:visible;"/>
			</clipPath>
			<path style="clip-path:url(#SVGID_00000140729516489401356870000012481177938700815265_);fill:#BC2B36;" d="M135.8,250.9
				L21.4,339.2C3,354.1,3,394.3,3,394.3l104.3-42.6L135.8,250.9z"/>
		</g>
		<g>
			<defs>
				<rect id="SVGID_00000115505746474087562290000015089425270258644875_" x="2" y="-577" width="857" height="2024"/>
			</defs>
			<clipPath id="SVGID_00000059991717479421481470000011604853045258697880_">
				<use xlink:href="#SVGID_00000115505746474087562290000015089425270258644875_"  style="overflow:visible;"/>
			</clipPath>
			<polygon style="clip-path:url(#SVGID_00000059991717479421481470000011604853045258697880_);fill:#902D31;" points="2,393.1 
				104.9,361.8 107.5,352.4 108.3,349.7 			"/>
		</g>
		<g>
			<defs>
				<rect id="SVGID_00000132807380243760898840000006910657444361843872_" x="2" y="-577" width="857" height="2024"/>
			</defs>
			<clipPath id="SVGID_00000003074575825509754180000011098315417839175076_">
				<use xlink:href="#SVGID_00000132807380243760898840000006910657444361843872_"  style="overflow:visible;"/>
			</clipPath>
			<path style="clip-path:url(#SVGID_00000003074575825509754180000011098315417839175076_);fill:#DFDFDF;" d="M751.6-703.5
				c0-95.4-73.3-225.1-163.7-225.1S424.2-798.9,424.2-703.5v2150.9h327.5V-703.5H751.6z"/>
		</g>
		<g>
			<defs>
				<rect id="SVGID_00000137819104323876927070000015077303446836775056_" x="2" y="-577" width="857" height="2024"/>
			</defs>
			<clipPath id="SVGID_00000178917188147386550220000007856960406392053682_">
				<use xlink:href="#SVGID_00000137819104323876927070000015077303446836775056_"  style="overflow:visible;"/>
			</clipPath>
			<path style="clip-path:url(#SVGID_00000178917188147386550220000007856960406392053682_);fill:#F1F1F1;" d="M742.3-671.8
				c0-90-69.1-212.4-154.4-212.4S433.5-761.8,433.5-671.8V1403h308.9V-671.8H742.3z"/>
		</g>
		<g>
			<defs>
				<rect id="SVGID_00000085966768635044953860000015232839290197929632_" x="2" y="-577" width="857" height="2024"/>
			</defs>
			<clipPath id="SVGID_00000043423411938527287620000010766133619429429686_">
				<use xlink:href="#SVGID_00000085966768635044953860000015232839290197929632_"  style="overflow:visible;"/>
			</clipPath>
			<path style="clip-path:url(#SVGID_00000043423411938527287620000010766133619429429686_);fill:#FFFFFF;" d="M730.3-671.8
				c0-90-63.8-212.4-142.4-212.4S445.5-761.8,445.5-671.8V1403h284.8V-671.8z"/>
		</g>
		<g>
			<defs>
				<rect id="SVGID_00000068671606806996706040000003109885714014652565_" x="2" y="-577" width="857" height="2024"/>
			</defs>
			<clipPath id="SVGID_00000010296069232556576820000015813058337346414772_">
				<use xlink:href="#SVGID_00000068671606806996706040000003109885714014652565_"  style="overflow:visible;"/>
			</clipPath>
			<g style="clip-path:url(#SVGID_00000010296069232556576820000015813058337346414772_);">
				
					<text transform="matrix(1 0 0 1 481.28 -530.5308)" style="fill:#FFFFFF; font-family:'MyriadPro-Semibold'; font-size:8.1475px;">XL</text>
			</g>
		</g>
		<g>
			<defs>
				<rect id="SVGID_00000129185301163676289650000001512276691896538288_" x="2" y="-577" width="857" height="2024"/>
			</defs>
			<clipPath id="SVGID_00000124871489141277971710000001310296521126748829_">
				<use xlink:href="#SVGID_00000129185301163676289650000001512276691896538288_"  style="overflow:visible;"/>
			</clipPath>
			<g style="clip-path:url(#SVGID_00000124871489141277971710000001310296521126748829_);">
				
					<text transform="matrix(1 0 0 1 619.6315 -530.5308)" style="fill:#FFFFFF; font-family:'MyriadPro-Semibold'; font-size:8.1475px;">XL</text>
			</g>
		</g>
		<g>
			<defs>
				<rect id="SVGID_00000062907306889734904470000008905853981290224056_" x="2" y="-577" width="857" height="2024"/>
			</defs>
			<clipPath id="SVGID_00000005246821548919489770000000967181767100943007_">
				<use xlink:href="#SVGID_00000062907306889734904470000008905853981290224056_"  style="overflow:visible;"/>
			</clipPath>
			<g style="clip-path:url(#SVGID_00000005246821548919489770000000967181767100943007_);">
				
					<text transform="matrix(1 0 0 1 651.2983 -530.5308)" style="fill:#FFFFFF; font-family:'MyriadPro-Semibold'; font-size:8.1475px;">XL</text>
			</g>
		</g>
		<g>
			<defs>
				<rect id="SVGID_00000122717915761253907120000005804685387996557716_" x="2" y="-577" width="857" height="2024"/>
			</defs>
			<clipPath id="SVGID_00000141435237429181841670000010089488304714807687_">
				<use xlink:href="#SVGID_00000122717915761253907120000005804685387996557716_"  style="overflow:visible;"/>
			</clipPath>
			<g style="clip-path:url(#SVGID_00000141435237429181841670000010089488304714807687_);">
				
					<text transform="matrix(1 0 0 1 682.9648 -530.5308)" style="fill:#FFFFFF; font-family:'MyriadPro-Semibold'; font-size:8.1475px;">XL</text>
			</g>
		</g>
		<g>
			<defs>
				<rect id="SVGID_00000026155731572969103980000001165985632650411416_" x="2" y="-577" width="857" height="2024"/>
			</defs>
			<clipPath id="SVGID_00000163781261814905608980000007041517360543296935_">
				<use xlink:href="#SVGID_00000026155731572969103980000001165985632650411416_"  style="overflow:visible;"/>
			</clipPath>
			<g style="clip-path:url(#SVGID_00000163781261814905608980000007041517360543296935_);">
				
					<text transform="matrix(1 0 0 1 513.9468 -530.5308)" style="fill:#FFFFFF; font-family:'MyriadPro-Semibold'; font-size:8.1475px;">XL</text>
			</g>
		</g>
		<g>
			<defs>
				<rect id="SVGID_00000011022230747815792170000003162823708011556249_" x="2" y="-577" width="857" height="2024"/>
			</defs>
			<clipPath id="SVGID_00000051352410219191741640000008766051538965464731_">
				<use xlink:href="#SVGID_00000011022230747815792170000003162823708011556249_"  style="overflow:visible;"/>
			</clipPath>
			<g style="clip-path:url(#SVGID_00000051352410219191741640000008766051538965464731_);">
				
					<text transform="matrix(1 0 0 1 545.6133 -530.5308)" style="fill:#FFFFFF; font-family:'MyriadPro-Semibold'; font-size:8.1475px;">XL</text>
			</g>
		</g>
		<g>
			<defs>
				<rect id="SVGID_00000181082968026208673310000015612466839018224063_" x="2" y="-577" width="857" height="2024"/>
			</defs>
			<clipPath id="SVGID_00000101093778755589150700000015934956858269355952_">
				<use xlink:href="#SVGID_00000181082968026208673310000015612466839018224063_"  style="overflow:visible;"/>
			</clipPath>
			<g style="clip-path:url(#SVGID_00000101093778755589150700000015934956858269355952_);">
				
					<text transform="matrix(1 0 0 1 618.6315 -164.3623)" style="fill:#FFFFFF; font-family:'MyriadPro-Semibold'; font-size:8.1475px;">XL</text>
			</g>
		</g>
		<g>
			<defs>
				<rect id="SVGID_00000094605746450442877780000006401858324822772156_" x="2" y="-577" width="857" height="2024"/>
			</defs>
			<clipPath id="SVGID_00000108275932747053418310000007270394380002294689_">
				<use xlink:href="#SVGID_00000094605746450442877780000006401858324822772156_"  style="overflow:visible;"/>
			</clipPath>
			<g style="clip-path:url(#SVGID_00000108275932747053418310000007270394380002294689_);">
				
					<text transform="matrix(1 0 0 1 651.2983 -164.3623)" style="fill:#FFFFFF; font-family:'MyriadPro-Semibold'; font-size:8.1475px;">XL</text>
			</g>
		</g>
		<g>
			<defs>
				<rect id="SVGID_00000083786740174549461180000003108219274352355494_" x="2" y="-577" width="857" height="2024"/>
			</defs>
			<clipPath id="SVGID_00000101803222541072838560000011248361690592130946_">
				<use xlink:href="#SVGID_00000083786740174549461180000003108219274352355494_"  style="overflow:visible;"/>
			</clipPath>
			<g style="clip-path:url(#SVGID_00000101803222541072838560000011248361690592130946_);">
				
					<text transform="matrix(1 0 0 1 682.9648 -164.3623)" style="fill:#FFFFFF; font-family:'MyriadPro-Semibold'; font-size:8.1475px;">XL</text>
			</g>
		</g>
		<g>
			<defs>
				<rect id="SVGID_00000129202856687431550490000005563944180533782160_" x="2" y="-577" width="857" height="2024"/>
			</defs>
			<clipPath id="SVGID_00000147907929440564485360000015377715750031041205_">
				<use xlink:href="#SVGID_00000129202856687431550490000005563944180533782160_"  style="overflow:visible;"/>
			</clipPath>
			<g style="clip-path:url(#SVGID_00000147907929440564485360000015377715750031041205_);">
				
					<text transform="matrix(1 0 0 1 481.28 -164.3623)" style="fill:#FFFFFF; font-family:'MyriadPro-Semibold'; font-size:8.1475px;">XL</text>
			</g>
		</g>
		<g>
			<defs>
				<rect id="SVGID_00000008828461736493385420000007578195458304399004_" x="2" y="-577" width="857" height="2024"/>
			</defs>
			<clipPath id="SVGID_00000154386198613311084740000003279399587304738962_">
				<use xlink:href="#SVGID_00000008828461736493385420000007578195458304399004_"  style="overflow:visible;"/>
			</clipPath>
			<g style="clip-path:url(#SVGID_00000154386198613311084740000003279399587304738962_);">
				
					<text transform="matrix(1 0 0 1 512.9468 -164.3623)" style="fill:#FFFFFF; font-family:'MyriadPro-Semibold'; font-size:8.1475px;">XL</text>
			</g>
		</g>
		<g>
			<defs>
				<rect id="SVGID_00000133509160118034660900000003284646761984280239_" x="2" y="-577" width="857" height="2024"/>
			</defs>
			<clipPath id="SVGID_00000169560326632671677360000011127234599304765877_">
				<use xlink:href="#SVGID_00000133509160118034660900000003284646761984280239_"  style="overflow:visible;"/>
			</clipPath>
			<g style="clip-path:url(#SVGID_00000169560326632671677360000011127234599304765877_);">
				
					<text transform="matrix(1 0 0 1 544.6133 -164.3623)" style="fill:#FFFFFF; font-family:'MyriadPro-Semibold'; font-size:8.1475px;">XL</text>
			</g>
		</g>
		<g>
			<defs>
				<rect id="SVGID_00000080198855114738833410000011727985185252709040_" x="2" y="-577" width="857" height="2024"/>
			</defs>
			<clipPath id="SVGID_00000179605301421364510850000001176941282554404766_">
				<use xlink:href="#SVGID_00000080198855114738833410000011727985185252709040_"  style="overflow:visible;"/>
			</clipPath>
			<g style="clip-path:url(#SVGID_00000179605301421364510850000001176941282554404766_);">
				
					<text transform="matrix(1 0 0 1 618.6315 -128.6978)" style="fill:#FFFFFF; font-family:'MyriadPro-Semibold'; font-size:8.1475px;">XL</text>
			</g>
		</g>
		<g>
			<defs>
				<rect id="SVGID_00000137130100274886963190000015168953749608781971_" x="2" y="-577" width="857" height="2024"/>
			</defs>
			<clipPath id="SVGID_00000139974040667082373890000017060539823619269788_">
				<use xlink:href="#SVGID_00000137130100274886963190000015168953749608781971_"  style="overflow:visible;"/>
			</clipPath>
			<g style="clip-path:url(#SVGID_00000139974040667082373890000017060539823619269788_);">
				
					<text transform="matrix(1 0 0 1 651.2983 -128.6978)" style="fill:#FFFFFF; font-family:'MyriadPro-Semibold'; font-size:8.1475px;">XL</text>
			</g>
		</g>
		<g>
			<defs>
				<rect id="SVGID_00000031179682423830452070000004338192915425315508_" x="2" y="-577" width="857" height="2024"/>
			</defs>
			<clipPath id="SVGID_00000004539431603737942650000004823268244291141014_">
				<use xlink:href="#SVGID_00000031179682423830452070000004338192915425315508_"  style="overflow:visible;"/>
			</clipPath>
			<g style="clip-path:url(#SVGID_00000004539431603737942650000004823268244291141014_);">
				
					<text transform="matrix(1 0 0 1 682.9648 -128.6978)" style="fill:#FFFFFF; font-family:'MyriadPro-Semibold'; font-size:8.1475px;">XL</text>
			</g>
		</g>
		<g>
			<defs>
				<rect id="SVGID_00000183965541831540628440000000979336984519621559_" x="2" y="-577" width="857" height="2024"/>
			</defs>
			<clipPath id="SVGID_00000029043790577582944750000003007866302824363434_">
				<use xlink:href="#SVGID_00000183965541831540628440000000979336984519621559_"  style="overflow:visible;"/>
			</clipPath>
			<g style="clip-path:url(#SVGID_00000029043790577582944750000003007866302824363434_);">
				
					<text transform="matrix(1 0 0 1 481.28 -128.6978)" style="fill:#FFFFFF; font-family:'MyriadPro-Semibold'; font-size:8.1475px;">XL</text>
			</g>
		</g>
		<g>
			<defs>
				<rect id="SVGID_00000049942108197712540050000005830770372799509945_" x="2" y="-577" width="857" height="2024"/>
			</defs>
			<clipPath id="SVGID_00000109003491469964454550000018297164821747288475_">
				<use xlink:href="#SVGID_00000049942108197712540050000005830770372799509945_"  style="overflow:visible;"/>
			</clipPath>
			<g style="clip-path:url(#SVGID_00000109003491469964454550000018297164821747288475_);">
				
					<text transform="matrix(1 0 0 1 512.9468 -128.6978)" style="fill:#FFFFFF; font-family:'MyriadPro-Semibold'; font-size:8.1475px;">XL</text>
			</g>
		</g>
		<g>
			<defs>
				<rect id="SVGID_00000010271648345938337870000000473452744117592730_" x="2" y="-577" width="857" height="2024"/>
			</defs>
			<clipPath id="SVGID_00000049932923568028925340000004822414058631658168_">
				<use xlink:href="#SVGID_00000010271648345938337870000000473452744117592730_"  style="overflow:visible;"/>
			</clipPath>
			<g style="clip-path:url(#SVGID_00000049932923568028925340000004822414058631658168_);">
				
					<text transform="matrix(1 0 0 1 544.6133 -128.6978)" style="fill:#FFFFFF; font-family:'MyriadPro-Semibold'; font-size:8.1475px;">XL</text>
			</g>
		</g>
		<g>
			<defs>
				<rect id="SVGID_00000083069903252702399840000014768106667941727150_" x="2" y="-577" width="857" height="2024"/>
			</defs>
			<clipPath id="SVGID_00000165216142140718422400000006466434056981855123_">
				<use xlink:href="#SVGID_00000083069903252702399840000014768106667941727150_"  style="overflow:visible;"/>
			</clipPath>
			<g style="clip-path:url(#SVGID_00000165216142140718422400000006466434056981855123_);">
				
					<text transform="matrix(1 0 0 1 545.6134 -530.5308)" style="fill:#FFFFFF; font-family:'MyriadPro-Semibold'; font-size:8.1475px;">XL</text>
			</g>
		</g>
		<g>
			<defs>
				<rect id="SVGID_00000099659845537805366320000016142055936153032592_" x="2" y="-577" width="857" height="2024"/>
			</defs>
			<clipPath id="SVGID_00000150793887617875981820000002889741320353833646_">
				<use xlink:href="#SVGID_00000099659845537805366320000016142055936153032592_"  style="overflow:visible;"/>
			</clipPath>
			<path style="clip-path:url(#SVGID_00000150793887617875981820000002889741320353833646_);fill:#FFFFFF;" d="M159.9,296.9
				c0-0.3-0.1-0.6-0.1-0.9c-0.3-2.2,0.6-3.9,2.3-5.3c1.1-0.9,2.4-1.4,3.7-1.9c1.4-0.4,2.8-0.7,4.2-0.7c0.2,0,0.3,0,0.4,0.3
				c0.2,1.1,0.5,2.3,0.8,3.4c-0.6,0.1-1.1,0.1-1.7,0.2c-1.4,0.2-2.8,0.5-4.1,1.2c-0.4,0.2-0.8,0.5-1.1,0.9c-0.6,0.8-0.3,2.2,0.8,2.5
				c0.6,0.2,1.3,0.2,1.9,0.2c1.3,0,2.5-0.1,3.8,0c1.1,0.1,2.2,0.4,3.1,1c0.9,0.6,1.4,1.4,1.8,2.4c0.6,1.4,0.7,2.8,0.3,4.2
				s-1.4,2.5-2.6,3.3c-0.4,0.3-0.9,0.6-1.4,0.8c0,0-0.1,0-0.1,0.1c-0.6,0.2-1.2,0.5-1.7,0.7c-0.3,0-0.6,0.2-0.9,0.2
				c-1.4,0.3-2.8,0.4-4.2,0.3c-0.2,0-0.3-0.1-0.3-0.3c-0.3-1.2-0.5-2.3-0.8-3.5c0.1,0,0.3,0,0.4,0c2,0.2,3.9-0.1,5.7-0.9
				c0.5-0.2,0.9-0.5,1.3-0.9c0.8-0.8,0.7-2.1-0.1-2.7c-0.4-0.3-0.8-0.4-1.2-0.4c-0.9-0.1-1.8,0-2.8,0c-1.2,0-2.3,0-3.5-0.2
				c-0.7-0.2-1.4-0.5-2-0.9c-0.3-0.3-0.7-0.6-0.9-1c-0.4-0.6-0.8-1.2-0.9-1.8C160,297.1,160,297,159.9,296.9z"/>
		</g>
		<g>
			<defs>
				<rect id="SVGID_00000064344519340963692470000017124898087239097484_" x="2" y="-577" width="857" height="2024"/>
			</defs>
			<clipPath id="SVGID_00000110452301174928434920000016350382756315037622_">
				<use xlink:href="#SVGID_00000064344519340963692470000017124898087239097484_"  style="overflow:visible;"/>
			</clipPath>
			<path style="clip-path:url(#SVGID_00000110452301174928434920000016350382756315037622_);fill:#FFFFFF;" d="M134.3,290h0.1
				c1,0,1.6,0.5,1.9,1.4c0.3,1.2,0.6,2.4,0.9,3.5c0.3,1.3,0.7,2.6,1,3.9c0.3,1.1,0.6,2.2,0.9,3.3c0.3,1.2,0.6,2.4,0.9,3.7
				c0.3,1.3,0.6,2.6,0.7,4c0.1,1.8,0.1,3.5-0.6,5.2c-0.8,2.2-2.3,3.6-4.5,4.3c-2.1,0.7-4.1,0.8-6.2,0.3c-2-0.5-3.6-1.7-4.7-3.5
				c-0.3-0.4-0.5-0.8-0.4-1.3c0.1-0.7,0.8-1.3,1.5-1.4c0.5,0,0.8,0.2,1.1,0.6c0.2,0.3,0.4,0.6,0.6,0.9c1.1,1.3,2.6,1.9,4.2,1.9
				c1.1,0,2.2-0.2,3.2-0.7c1.3-0.7,2-1.8,2.3-3.3c0.3-1.4,0.2-2.7-0.1-4c-0.5-2.1-1-4.2-1.6-6.3c-0.4-1.3-0.7-2.6-1.1-4
				c-0.4-1.5-0.9-3-1.3-4.5c-0.2-0.6-0.3-1.2-0.5-1.7c-0.2-0.8,0-1.5,0.7-2c0,0,0,0,0-0.1C133.9,290.2,134.1,290.1,134.3,290z"/>
		</g>
		<g>
			<defs>
				<rect id="SVGID_00000107576473774204797790000012869295865648629420_" x="2" y="-577" width="857" height="2024"/>
			</defs>
			<clipPath id="SVGID_00000113335885010196162870000003212120647844033922_">
				<use xlink:href="#SVGID_00000107576473774204797790000012869295865648629420_"  style="overflow:visible;"/>
			</clipPath>
			<path style="clip-path:url(#SVGID_00000113335885010196162870000003212120647844033922_);fill:#FFFFFF;" d="M244,258.5
				c0.1,1,0.3,2.1,0.4,3.1c0,0.3,0.1,0.5,0.1,0.8c0,0.2,0,0.2-0.2,0.3c-1.4,0.5-2.8,1.1-4.2,1.7c-0.2,0.1-0.2,0.1-0.2,0.3
				c1.9,4.8,3.7,9.5,5.6,14.3c0.1,0.3,0.1,0.3-0.2,0.4c-1.2,0.5-2.5,1-3.7,1.5c-0.2,0.1-0.2,0.1-0.3-0.1c-1.9-4.8-3.7-9.6-5.6-14.3
				c-0.1-0.2-0.1-0.2-0.4-0.2c-1.4,0.6-2.8,1.1-4.2,1.6c-0.2,0.1-0.3,0.1-0.4-0.1c-0.7-1-1.4-2-2.2-3c-0.1-0.2-0.1-0.2,0.1-0.3
				c3.9-1.5,7.8-3.1,11.7-4.6C241.7,259.4,242.8,258.9,244,258.5L244,258.5z"/>
		</g>
		<g>
			<defs>
				<rect id="SVGID_00000104686226728767461220000002525782495957306516_" x="2" y="-577" width="857" height="2024"/>
			</defs>
			<clipPath id="SVGID_00000116941947385147913210000003977756922445973662_">
				<use xlink:href="#SVGID_00000104686226728767461220000002525782495957306516_"  style="overflow:visible;"/>
			</clipPath>
			<path style="clip-path:url(#SVGID_00000116941947385147913210000003977756922445973662_);fill:#FFFFFF;" d="M191.4,287.3
				c-0.1,0.1-0.1,0.2-0.1,0.2c0.1,4.3,0,8.5,0,12.8c0,0.2,0,0.3-0.2,0.3c-0.8,0.3-1.6,0.6-2.4,0.9c-0.1,0-0.2,0-0.3-0.1
				c-2.6-2.8-5.2-5.6-7.8-8.4c-0.4-0.4-0.7-0.8-1.1-1.2c0,0.2,0.1,0.3,0.1,0.4c1.5,3.6,2.9,7.3,4.3,10.9c0.1,0.1,0,0.2-0.1,0.2
				c-1.1,0.4-2.2,0.9-3.3,1.3c-0.2,0.1-0.2,0-0.2-0.1c-2.4-6.1-4.8-12.1-7.1-18.2c-0.1-0.2,0-0.2,0.1-0.3c1.4-0.5,2.8-1.1,4.2-1.7
				c0.2-0.1,0.2,0,0.4,0.1c3.2,3.5,6.5,6.9,9.7,10.4c0,0,0.1,0.1,0.2,0.1c0.1,0,0-0.1,0-0.2c-0.1-4.3,0-8.7,0-13c0-0.4,0-0.9,0-1.3
				c0-0.1,0-0.2,0.2-0.2c1.4-0.6,2.8-1.1,4.3-1.7c0.2-0.1,0.2,0,0.3,0.1c2.2,5.6,4.4,11.2,6.6,16.8c0.2,0.5,0.4,1,0.6,1.4
				c0.1,0.1,0,0.2-0.1,0.2c-1.2,0.4-2.3,0.9-3.5,1.4c-0.1,0.1-0.2,0-0.2-0.1c-1.3-3.4-2.6-6.8-4-10.2c-0.1-0.3-0.2-0.6-0.3-0.9
				C191.5,287.5,191.4,287.4,191.4,287.3z"/>
		</g>
		<g>
			<defs>
				<rect id="SVGID_00000046321779544271727250000006224763526524555702_" x="2" y="-577" width="857" height="2024"/>
			</defs>
			<clipPath id="SVGID_00000036940009275290355980000002521224975782312113_">
				<use xlink:href="#SVGID_00000046321779544271727250000006224763526524555702_"  style="overflow:visible;"/>
			</clipPath>
			<path style="clip-path:url(#SVGID_00000036940009275290355980000002521224975782312113_);fill:#FFFFFF;" d="M228.9,276.9
				c2.5,2,4.9,4,7.3,6c-0.1,0.1-0.1,0.1-0.2,0.1c-1.5,0.6-3,1.2-4.4,1.7c-0.1,0.1-0.2,0-0.4-0.1c-1.9-1.8-3.8-3.6-5.7-5.4
				c-0.1-0.1-0.2-0.1-0.3-0.1c-0.7,0.3-1.5,0.6-2.2,0.9c-0.2,0.1-0.2,0.1-0.1,0.3c0.9,2.2,1.7,4.3,2.6,6.5c0.1,0.2,0.1,0.3-0.1,0.3
				c-1.3,0.5-2.5,1-3.8,1.5c-0.2,0.1-0.2,0-0.3-0.1c-2.4-6-4.7-12.1-7.1-18.1c-0.1-0.2-0.1-0.3,0.1-0.3c2.4-0.9,4.8-1.9,7.2-2.8
				c1.1-0.4,2.2-0.7,3.4-0.7c1.8,0,3.3,0.8,4.3,2.3c0.8,1.1,1.2,2.4,1.4,3.8C230.7,274.4,230.2,275.8,228.9,276.9z M220.6,274.6
				c0.3,0.8,0.6,1.6,0.9,2.4c0.1,0.1,0.1,0.2,0.2,0.1c0.4-0.2,0.9-0.3,1.3-0.5c0.6-0.3,1.3-0.5,1.9-0.8c0.9-0.5,1.3-1.2,1.1-2.1
				c-0.1-0.8-0.4-1.5-0.8-2.1c-0.4-0.6-1-0.9-1.8-0.8c-0.3,0-0.7,0.1-1,0.3c-0.9,0.3-1.8,0.7-2.7,1c-0.2,0.1-0.2,0.1-0.1,0.3
				C220,273,220.3,273.8,220.6,274.6z"/>
		</g>
		<g>
			<defs>
				<rect id="SVGID_00000076596089628868054700000016882284740202913169_" x="2" y="-577" width="857" height="2024"/>
			</defs>
			<clipPath id="SVGID_00000119099136576183452810000012881779624417893797_">
				<use xlink:href="#SVGID_00000076596089628868054700000016882284740202913169_"  style="overflow:visible;"/>
			</clipPath>
			<path style="clip-path:url(#SVGID_00000119099136576183452810000012881779624417893797_);fill:#FFFFFF;" d="M219.4,289.5
				c-0.1,0-0.2,0.1-0.2,0.1c-1.4,0.6-2.8,1.1-4.2,1.7c-0.2,0.1-0.2,0-0.3-0.1c-0.7-1-1.5-1.9-2.2-2.9c-0.1-0.1-0.2-0.2-0.3-0.1
				c-2.1,0.8-4.2,1.7-6.3,2.5c-0.2,0.1-0.2,0.1-0.2,0.3c0.1,1.2,0.2,2.4,0.3,3.6c0,0.1,0,0.2-0.1,0.2c-1.4,0.6-2.8,1.1-4.3,1.7
				c0-0.5,0-1-0.1-1.5c-0.2-5.6-0.5-11.1-0.7-16.7c0-0.9-0.1-1.8-0.1-2.8c0-0.1,0-0.2,0.2-0.3c1.6-0.6,3.1-1.2,4.7-1.8
				c0.1,0,0.2,0,0.3,0.1c1.9,2.2,3.8,4.4,5.7,6.6c2.6,3,5.2,6.1,7.8,9.1C219.3,289.4,219.4,289.5,219.4,289.5z M204.4,277.6
				C204.4,277.7,204.4,277.7,204.4,277.6c0.3,3.1,0.5,6.2,0.8,9.3c0.1,0,0.2-0.1,0.2-0.1c1.3-0.5,2.6-1,3.8-1.5
				c0.2-0.1,0.5-0.1,0.6-0.3c0-0.2-0.2-0.4-0.3-0.5c-1.4-1.9-2.9-3.8-4.3-5.7C205,278.4,204.7,278,204.4,277.6z"/>
		</g>
		<g>
			<defs>
				<rect id="SVGID_00000008860796788120133840000012833091759445780127_" x="2" y="-577" width="857" height="2024"/>
			</defs>
			<clipPath id="SVGID_00000030486440768788610640000011487560911240422314_">
				<use xlink:href="#SVGID_00000008860796788120133840000012833091759445780127_"  style="overflow:visible;"/>
			</clipPath>
			<path style="clip-path:url(#SVGID_00000030486440768788610640000011487560911240422314_);fill:#FFFFFF;" d="M159.9,296.9
				c0.1,0.1,0.1,0.2,0.1,0.3c0.2,0.7,0.5,1.3,0.9,1.8c0.3,0.4,0.6,0.6,0.9,1c-0.2,1.5-0.7,3-1.6,4.2c-0.8,1-1.8,1.7-3,2
				c-1.3,0.3-2.4-0.1-3.4-0.9c-0.3-0.2-0.5-0.5-0.8-0.8c-0.2,0.4-0.4,0.9-0.6,1.3c-0.7,1.2-1.5,2.3-2.7,3c-2,1.4-4.4,1.1-6.1-0.7
				c-0.4-0.4-0.7-0.8-0.9-1.3c-0.1-0.1-0.1-0.2-0.2-0.2c-1-0.2-1.3-1.3-0.7-2.1c0.1-0.1,0.1-0.2,0.1-0.4c-0.2-1.4-0.1-2.8,0.5-4.2
				c0.5-1.1,1.2-1.9,2.3-2.3c1.2-0.5,2.5,0,3.1,1.1c0.7,1.4,0.7,2.9,0.1,4.3c-0.5,1.2-1.3,2.2-2.5,2.8c-0.1,0.1-0.1,0.1,0,0.2
				c0.6,0.7,1.5,1.2,2.5,0.8c1.3-0.4,2.1-1.3,2.7-2.4c0.4-0.8,0.7-1.7,0.9-2.6c0-0.1,0-0.2,0-0.2c-0.6-1.4-0.9-2.8-1.2-4.3
				c-0.2-1.2-0.5-2.3-0.7-3.5c0-0.2-0.1-0.2-0.3-0.1c-1.3,0.5-2.6,1-3.9,1.5c-0.2,0.1-0.4,0.2-0.7,0.2c-0.6,0.2-1.3-0.1-1.5-0.7
				c-0.2-0.6,0-1.3,0.6-1.5c1.3-0.5,2.6-1.1,3.9-1.6c0.4-0.1,0.7-0.3,1.1-0.4c0.1,0,0.1-0.1,0.1-0.2c-0.2-1-0.3-2-0.4-3
				c-0.1-0.7,0.3-1.3,1-1.5c0.6-0.2,1.3,0.1,1.6,0.7c0.2,0.5,0.3,1.1,0.4,1.6c0.1,0.4,0.2,0.7,0.2,1.1c0,0.2,0.1,0.2,0.3,0.2
				c1.6-0.7,3.3-1.3,4.9-2c0.4-0.1,0.7-0.2,1.1-0.2c0.4,0.1,0.8,0.3,0.9,0.8c0.1,0.4,0,0.8-0.3,1.2s-0.8,0.6-1.3,0.8
				c-1.6,0.6-3.2,1.3-4.8,1.9c-0.2,0.1-0.3,0.2-0.2,0.4c0.4,2.2,0.8,4.4,1.3,6.6c0.3,1.3,0.9,2.4,1.7,3.4c0.1,0.1,0.2,0.2,0.3,0.3
				c0.6,0.6,1.1,0.6,1.8,0.1c0.6-0.4,1-1.1,1.3-1.8c0.5-1.1,0.7-2.4,0.8-3.6C159.8,297.6,159.8,297.3,159.9,296.9z M144.7,303.6
				c0.9-0.4,1.6-1.7,1.5-2.7c-0.1-0.4-0.3-0.7-0.5-0.9c-0.2-0.1-0.3-0.1-0.5,0c-0.2,0.2-0.4,0.3-0.5,0.6c-0.5,0.9-0.5,1.8-0.3,2.8
				C144.3,303.7,144.3,303.7,144.7,303.6z"/>
		</g>
		<g>
			<defs>
				<rect id="SVGID_00000168822912409702583570000018066920821175022768_" x="2" y="-577" width="857" height="2024"/>
			</defs>
			<clipPath id="SVGID_00000065044759339304186350000005739263953922536345_">
				<use xlink:href="#SVGID_00000168822912409702583570000018066920821175022768_"  style="overflow:visible;"/>
			</clipPath>
			<path style="clip-path:url(#SVGID_00000065044759339304186350000005739263953922536345_);fill:none;" d="M852.8,510.4H-244.8
				c-3.4,0-6.2-2.8-6.2-6.2v-1075c0-3.4,2.8-6.2,6.2-6.2H852.8c3.4,0,6.2,2.8,6.2,6.2v1075C859,507.6,856.2,510.4,852.8,510.4z"/>
		</g>
	</g>
</g>
</svg>
