<?xml version="1.0" encoding="utf-8"?>
<!-- Generator: Adobe Illustrator 26.3.1, SVG Export Plug-In . SVG Version: 6.00 Build 0)  -->
<svg version="1.1" id="Layer_1" xmlns="http://www.w3.org/2000/svg" xmlns:xlink="http://www.w3.org/1999/xlink" x="0px" y="0px"
	 viewBox="0 0 19 19" style="enable-background:new 0 0 19 19;" xml:space="preserve">
<style type="text/css">
	.st0{fill:#EAEAEB;stroke:#1B3B6D;stroke-width:0.25;stroke-miterlimit:10;}
</style>
<g>
	<path class="st0" d="M13.6,18.5H5.4c-2.7,0-5-2.2-5-5V5.4c0-2.7,2.2-5,5-5h8.1c2.7,0,5,2.2,5,5v8.1C18.5,16.3,16.3,18.5,13.6,18.5z
		"/>
	<path class="st0" d="M6.5,5.4H3.6C3,5.4,2.4,6,2.4,6.6l0,3.9c0,0.3,0.2,0.5,0.5,0.5h0c0.3,0,0.5-0.2,0.5-0.5l0-3.9v0
		c0-0.1,0-0.1,0.1-0.1c0.1,0,0.1,0,0.1,0.1l0,8.8c0,0.3,0.3,0.6,0.6,0.6c0.3,0,0.6-0.3,0.6-0.6v-5h0.3v5c0,0.3,0.3,0.6,0.6,0.6
		c0.3,0,0.6-0.3,0.6-0.6c0-8.3,0-3.6,0-8.8c0-0.1,0-0.1,0.1-0.1c0.1,0,0.1,0,0.1,0.1v0l0,3.8c0,0.3,0.2,0.5,0.5,0.5h0
		c0.3,0,0.5-0.2,0.5-0.5l0-3.9c0,0,0,0,0,0C7.7,6,7.1,5.4,6.5,5.4L6.5,5.4z M6.5,5.4"/>
	<path class="st0" d="M6.1,4c0,0.6-0.5,1.1-1.1,1.1C4.4,5.1,4,4.6,4,4C4,3.4,4.4,2.9,5,2.9C5.6,2.9,6.1,3.4,6.1,4L6.1,4z M6.1,4"/>
	<path class="st0" d="M16.6,9.7c0,0-1-2.7-1.1-3.2c-0.2-0.7-0.6-1.1-1.2-1.1h-1.8c-0.6,0-1,0.4-1.2,1.1c-0.1,0.4-1.1,3.2-1.1,3.2
		c-0.1,0.3,0,0.6,0.3,0.7c0.3,0.1,0.6,0,0.7-0.3c0-0.1,0.6-1.7,0.9-2.6c0,0.3,0.1-0.3-0.7,3.9c0,0.2,0.1,0.3,0.3,0.3H12v3.8
		c0,0.3,0.3,0.6,0.6,0.6c0.3,0,0.6-0.3,0.6-0.6v-3.8h0.3v3.8c0,0.3,0.3,0.6,0.6,0.6c0.3,0,0.6-0.3,0.6-0.6v-3.8h0.4
		c0.2,0,0.3-0.2,0.3-0.3c-0.8-4.1-0.7-3.6-0.7-3.9c0.3,0.9,0.9,2.5,0.9,2.6c0.1,0.3,0.4,0.4,0.7,0.3C16.5,10.2,16.7,10,16.6,9.7
		L16.6,9.7z M16.6,9.7"/>
	<path class="st0" d="M14.4,4c0,0.6-0.5,1.1-1.1,1.1c-0.6,0-1.1-0.5-1.1-1.1c0-0.6,0.5-1.1,1.1-1.1C14,2.9,14.4,3.4,14.4,4L14.4,4z
		 M14.4,4"/>
	<line class="st0" x1="9.1" y1="2.2" x2="9.1" y2="16.4"/>
</g>
</svg>
