<svg width="72" height="50" viewBox="0 0 72 50" fill="none" xmlns="http://www.w3.org/2000/svg">
<rect x="1" y="1" width="70" height="47.9945" rx="4" fill="white"/>
<path fill-rule="evenodd" clip-rule="evenodd" d="M36.5 35.3099C34.1169 37.3662 31.0255 38.6076 27.6475 38.6076C20.1102 38.6076 14 32.4272 14 24.8032C14 17.1793 20.1102 10.9988 27.6475 10.9988C31.0255 10.9988 34.1169 12.2402 36.5 14.2965C38.8831 12.2402 41.9745 10.9988 45.3525 10.9988C52.8898 10.9988 59 17.1793 59 24.8032C59 32.4272 52.8898 38.6076 45.3525 38.6076C41.9745 38.6076 38.8831 37.3662 36.5 35.3099Z" fill="#ED0006"/>
<path fill-rule="evenodd" clip-rule="evenodd" d="M36.5 35.3099C39.4344 32.7779 41.2951 29.0104 41.2951 24.8032C41.2951 20.5961 39.4344 16.8285 36.5 14.2965C38.8831 12.2402 41.9745 10.9988 45.3525 10.9988C52.8898 10.9988 59 17.1793 59 24.8032C59 32.4272 52.8898 38.6076 45.3525 38.6076C41.9745 38.6076 38.8831 37.3662 36.5 35.3099Z" fill="#F9A000"/>
<path fill-rule="evenodd" clip-rule="evenodd" d="M36.4981 14.2966C39.4325 16.8285 41.2932 20.5961 41.2932 24.8032C41.2932 29.0103 39.4325 32.7779 36.4981 35.3099C33.5638 32.7779 31.7031 29.0103 31.7031 24.8032C31.7031 20.5961 33.5638 16.8285 36.4981 14.2966Z" fill="#FF5E00"/>
<rect x="0.5" y="0.5" width="71" height="48.9945" stroke="#ECEFF2"/>
</svg>
