<?xml version="1.0" encoding="UTF-8" standalone="no"?>
<svg
   xmlns:dc="http://purl.org/dc/elements/1.1/"
   xmlns:cc="http://creativecommons.org/ns#"
   xmlns:rdf="http://www.w3.org/1999/02/22-rdf-syntax-ns#"
   xmlns:svg="http://www.w3.org/2000/svg"
   xmlns="http://www.w3.org/2000/svg"
   viewBox="0 0 190.86667 38.546665"
   height="38.546665"
   width="190.86667"
   xml:space="preserve"
   id="svg2"
   version="1.1"><metadata
     id="metadata8"><rdf:RDF><cc:Work
         rdf:about=""><dc:format>image/svg+xml</dc:format><dc:type
           rdf:resource="http://purl.org/dc/dcmitype/StillImage" /></cc:Work></rdf:RDF></metadata><defs
     id="defs6"><clipPath
       id="clipPath24"
       clipPathUnits="userSpaceOnUse"><path
         id="path22"
         d="m 1278.39,36.1914 c 15.95,-26.21874 41.42,-25.7031 48.2,-25.7031 h 81.95 l -96.68,117.3947 c -44.6,-1.848 -68.22,-30.4494 -63.37,-42.4533 z" /></clipPath><linearGradient
       id="linearGradient32"
       spreadMethod="pad"
       gradientTransform="matrix(0,-180.885,-180.885,0,1328.2,130.971)"
       gradientUnits="userSpaceOnUse"
       y2="0"
       x2="1"
       y1="0"
       x1="0"><stop
         id="stop26"
         offset="0"
         style="stop-opacity:1;stop-color:#ec1d27" /><stop
         id="stop28"
         offset="0.754601"
         style="stop-opacity:1;stop-color:#741519" /><stop
         id="stop30"
         offset="1"
         style="stop-opacity:1;stop-color:#741519" /></linearGradient><clipPath
       id="clipPath42"
       clipPathUnits="userSpaceOnUse"><path
         id="path40"
         d="m 1248.49,85.4297 c -0.12,0.207 -2.65,6.125 -2.65,13.2812 0,26.7971 23.75,42.1481 50.75,47.6951 l 15.27,-18.523 c -44.6,-1.848 -68.22,-30.4494 -63.37,-42.4533 z" /></clipPath><linearGradient
       id="linearGradient48"
       spreadMethod="pad"
       gradientTransform="matrix(66.015,0,0,-66.015,1245.84,115.918)"
       gradientUnits="userSpaceOnUse"
       y2="0"
       x2="1"
       y1="0"
       x1="0"><stop
         id="stop44"
         offset="0"
         style="stop-opacity:1;stop-color:#641e1f" /><stop
         id="stop46"
         offset="1"
         style="stop-opacity:1;stop-color:#d22a27" /></linearGradient><clipPath
       id="clipPath58"
       clipPathUnits="userSpaceOnUse"><path
         id="path56"
         d="m 1285.78,172.559 c -40.76,0 -71.2,-6.719 -71.2,-22.676 0,-5.86 1.84,-10.957 6.82,-19.922 l 27.09,-44.5313 c -0.12,0.207 -2.65,6.125 -2.65,13.2812 0,26.7971 23.75,42.1481 50.75,47.6951 7.83,1.621 15.87,2.383 23.74,2.383 6.62,0 12.82,-0.351 17.6,-2.07 -2.81,10.254 -10.26,25.84 -52.15,25.84 z" /></clipPath><linearGradient
       id="linearGradient66"
       spreadMethod="pad"
       gradientTransform="matrix(73.5619,44.2005,44.2005,-73.5619,1238.59,125.566)"
       gradientUnits="userSpaceOnUse"
       y2="0"
       x2="1"
       y1="0"
       x1="0"><stop
         id="stop60"
         offset="0"
         style="stop-opacity:1;stop-color:#eaeff0" /><stop
         id="stop62"
         offset="0.1"
         style="stop-opacity:1;stop-color:#eaeff0" /><stop
         id="stop64"
         offset="1"
         style="stop-opacity:1;stop-color:#93a5ad" /></linearGradient><clipPath
       id="clipPath76"
       clipPathUnits="userSpaceOnUse"><path
         id="path74"
         d="M 0,0 H 1432 V 289 H 0 Z" /></clipPath><clipPath
       id="clipPath82"
       clipPathUnits="userSpaceOnUse"><path
         id="path80"
         d="m 1178.54,200.332 c 11.22,-18.379 15.37,-22.961 42.05,-22.988 19.59,0 50.97,0 50.97,0 l -70.27,88.75 c -15.52,19.179 -24.45,22.695 -38.69,22.988 h -38.09 z" /></clipPath><linearGradient
       id="linearGradient88"
       spreadMethod="pad"
       gradientTransform="matrix(0,124.957,124.957,0,1198.04,162.794)"
       gradientUnits="userSpaceOnUse"
       y2="0"
       x2="1"
       y1="0"
       x1="0"><stop
         id="stop84"
         offset="0"
         style="stop-opacity:1;stop-color:#283371" /><stop
         id="stop86"
         offset="1"
         style="stop-opacity:1;stop-color:#4bb0e7" /></linearGradient></defs><g
     transform="matrix(1.3333333,0,0,-1.3333333,0,38.546667)"
     id="g10"><g
       transform="scale(0.1)"
       id="g12"><path
         id="path14"
         style="fill:#334357;fill-opacity:1;fill-rule:nonzero;stroke:none"
         d="m 1074.83,125.215 c 0,0.449 0.23,1.765 0.23,2.676 0,9.48 -4.44,24.714 -22.35,24.714 -19.87,0 -23.64,-18.542 -23.64,-27.39 z m 24.78,-1.328 c 0,-3.758 -0.67,-13.274 -0.88,-15.481 h -70.11 c 0,-17.8982 11.28,-32.0583 33.82,-32.0583 11.96,0 21.27,4.1992 23.66,5.3007 1.59,0.6758 2.88,1.5547 4.01,1.5547 1.08,0 1.77,-0.4375 1.96,-2.4414 0.22,-2.8633 0.92,-12.3828 0.92,-17.664 -4.22,-1.5743 -17.46,-6 -32.95,-6 -38.73,0 -56.84,20.3632 -56.84,56.6133 0,34.48 18.58,57.019 49.76,57.019 36.02,0 46.65,-26.062 46.65,-46.843 z m -160.489,29.16 c -15.273,0 -23.652,-9.258 -23.652,-22.07 0,-13.946 7.969,-22.129 23.449,-22.129 14.336,0 23.184,7.961 23.184,21.894 0,13.926 -8.411,22.305 -22.981,22.305 z m 7.969,-95.0587 h -16.582 c -1.992,0 -4.656,0 -6.426,0.2265 -4.227,-1.7617 -11.035,-7.5 -11.035,-17.0156 0,-11.5117 10.156,-17.7031 25.422,-17.7031 19.883,0 30.269,8.418 30.269,19.9219 0,8.1914 -5.945,14.5703 -21.648,14.5703 z M 936.699,4.49219 c -31.394,0 -47.324,12.37111 -47.324,33.39061 0,15.0156 11.926,22.3203 19.434,24.7539 -3.719,1.3281 -11.946,5.0781 -11.946,16.3672 0,11.9336 10.188,16.3555 14.399,17.6836 -7.114,2.2188 -19.453,11.5155 -19.453,32.0625 0,22.773 17.468,41.98 48.425,41.98 6.399,0 11.922,-0.867 17.879,-2.195 h 36.711 c 0,-3.105 -0.222,-8.828 -0.636,-13.281 -0.465,-4.856 -3.563,-5.078 -6.422,-5.078 -3.547,0 -9.739,0 -9.739,0 2.657,-1.758 7.508,-8.367 7.508,-18.106 0,-23.429 -16.363,-40.0192 -46.844,-40.0192 -4.226,0 -9.089,0.4297 -12.402,1.1015 -2.637,-0.4375 -6.434,-3.3085 -6.434,-7.2929 0,-5.5274 3.348,-9.2891 14.161,-9.2891 h 20.996 c 25.894,0 38.054,-11.2773 38.054,-30.2812 0,-23.2422 -21.66,-41.79691 -56.367,-41.79691 z M 805.801,92.9492 c 0,-9.5429 6.211,-17.707 17.472,-17.707 15.047,0 23.883,14.1601 23.883,31.6128 0,1.348 0,7.969 0,7.969 0,0 -2.664,0 -5.535,0 -24.101,0 -35.82,-7.511 -35.82,-21.8748 z m 20.137,77.7808 c 30.722,0 45.996,-13.699 45.996,-39.753 V 87.4102 c 0,-9.5118 0.859,-20.5625 1.992,-28.0743 0,0 -17.488,0 -20.801,0 -3.555,0 -3.762,2.1875 -3.977,4.8516 l -0.664,9.0938 h -0.879 c -3.308,-5.1055 -12.625,-16.1836 -32.527,-16.1836 -20.547,0 -34.265,15.2734 -34.265,35.3828 0,28.9725 31.835,38.2615 60.171,38.2615 1.758,0 6.172,0 6.172,0 0,0 0,3.321 0,3.535 0,13.282 -9.746,17.891 -23.433,17.891 -13.489,0 -24.348,-4.609 -27.422,-6.172 -1.106,-0.449 -2.641,-1.328 -3.762,-1.328 -1.98,0 -1.758,1.797 -1.98,2.219 -0.227,3.941 -0.696,13.465 -0.696,16.785 4.004,1.523 19.278,7.058 36.075,7.058 z M 719.656,95.5859 v 54.1411 h -15.047 v 18.808 h 15.047 v 24.102 h 24.895 v -24.102 h 26.133 V 149.727 H 744.551 V 91.6016 c 0,-9.5118 4.453,-14.8164 13.722,-14.8164 6.629,0 10.387,1.9843 12.411,1.9843 1.523,0 2.207,-0.8711 2.207,-3.0664 0,0 0.871,-12.1797 1.32,-16.1523 -2.465,-0.8985 -8.625,-2.4531 -17.492,-2.4531 -27.871,0 -37.063,15.5 -37.063,38.4882 z m -121.16,-36.25 c 0,0 0,68.0861 0,75.8201 0,11.309 -0.644,24.981 -1.094,33.379 0,0 16.153,0 19.668,0 1.993,0 2.871,-0.652 2.871,-2.871 0,-2.656 0.215,-13.711 0.215,-13.711 h 0.907 c 6.41,11.27 15.929,18.777 33.378,18.777 24.094,0 36.946,-16.343 36.946,-34.667 0,-18.817 0,-76.7271 0,-76.7271 h -25.02 c 0,0 0,62.5591 0,69.6481 0,17.481 -8.379,22.539 -17.449,22.539 -13.051,0 -25.664,-12.589 -25.664,-38.457 0,-15.9488 0,-53.7301 0,-53.7301 z m -87.988,33.6133 c 0,-9.5429 6.191,-17.707 17.472,-17.707 15.04,0 23.895,14.1601 23.895,31.6128 0,1.348 0,7.969 0,7.969 0,0 -2.676,0 -5.547,0 -24.094,0 -35.82,-7.511 -35.82,-21.8748 z m 20.117,77.7808 c 30.742,0 46.016,-13.699 46.016,-39.753 V 87.4102 c 0,-9.5118 0.859,-20.5625 1.972,-28.0743 0,0 -17.453,0 -20.793,0 -3.543,0 -3.757,2.1875 -3.965,4.8516 l -0.691,9.0938 h -0.859 c -3.301,-5.1055 -12.586,-16.1836 -32.492,-16.1836 -20.575,0 -34.278,15.2734 -34.278,35.3828 0,28.9725 31.848,38.2615 60.149,38.2615 1.757,0 6.191,0 6.191,0 0,0 0,3.321 0,3.535 0,13.282 -9.773,17.891 -23.43,17.891 -13.511,0 -24.343,-4.609 -27.461,-6.172 -1.074,-0.449 -2.625,-1.328 -3.726,-1.328 -1.985,0 -1.789,1.797 -1.985,2.219 -0.234,3.941 -0.683,13.465 -0.683,16.785 3.996,1.523 19.25,7.058 36.035,7.058 z M 371.68,168.535 h 27.441 l 27.402,-80.0116 h 0.899 l 26.523,80.0116 h 26.563 L 439.141,59.3359 H 412.82 Z m -85.75,-58.34 c 0,-17.4802 3.535,-33.8473 23.203,-33.8473 13.047,0 25.445,11.2812 25.445,37.1483 0,5.305 0,35.801 0,35.801 -2.234,0.664 -7.117,2.226 -17.051,2.226 -20.535,0 -31.597,-13.925 -31.597,-41.328 z m 48.648,107.657 h 24.973 c 0,0 0,-117.176 0,-125.1372 0,-11.2812 0.437,-24.7656 1.113,-33.3789 0,0 -16.355,0 -19.922,0 -1.992,0 -2.859,0.6641 -2.859,2.8711 -0.215,2.6446 -0.215,13.6993 -0.215,13.6993 h -0.91 c -3.516,-6.6407 -12.363,-18.8086 -33.379,-18.8086 -37.793,0 -43.352,32.082 -43.352,51.7503 0,37.148 22.121,61.882 57.715,61.882 9.961,0 15.039,-1.542 16.836,-2.195 z m -172.437,-104.786 23.875,68.075 h 0.879 l 23.894,-68.075 z m -116.1449,0 23.875,68.075 h 0.8828 L 94.6563,113.066 Z M 202.793,208.32 H 172.754 L 129.285,93.9258 86.6484,208.32 H 56.6094 L 0,59.3359 h 27.0039 l 11.9414,33.5938 h 62.9807 l 11.707,-33.5938 h 29.504 l 11.961,33.5938 h 62.968 L 229.773,59.3359 H 258.32 L 202.793,208.32" /><path
         id="path16"
         style="fill:#334357;fill-opacity:1;fill-rule:nonzero;stroke:none"
         d="m 782.527,271.211 h -0.183 l -9.27,-26.191 h 18.742 z m 16.594,-46.836 -4.551,12.871 h -24.257 l -4.551,-12.871 H 755.41 l 21.738,57.285 h 11.543 l 21.387,-57.285 z m 87.891,50 v 9.578 h 10.136 v -9.578 z m 0.129,-50 v 43.633 h 9.89 v -43.633 z m -73.118,50 v 9.59 h 10.137 v -9.59 z m 0.118,-50 v 43.633 h 9.902 v -43.633 z m 62.187,0 v 59.531 h -9.902 v -59.531 z m -31.562,21.289 v -21.289 h -9.93 c 0,0 0,29.387 0,32.422 0,3.113 -0.356,9.051 -0.473,11.211 0,0 4.336,0 7.992,0 0.868,0 1.114,-0.371 1.141,-1.223 0.02,-1.289 0.078,-5.398 0.078,-5.398 h 0.235 c 0.769,1.875 3.586,7.531 11.816,7.531 2.754,0 4.805,-0.891 5.137,-1.027 0,-1.875 -0.215,-5.996 -0.301,-7.09 -0.07,-0.711 -0.371,-0.949 -0.734,-0.949 -0.332,0 -0.489,0.082 -0.684,0.16 -0.605,0.254 -2.051,0.691 -4.043,0.691 -5.293,0 -10.234,-3.808 -10.234,-15.039 z m 90.175,-21.289 v 28.184 c 0,5.379 -2.453,8.664 -7.058,8.664 -6.098,0 -10.149,-6.489 -10.149,-15.239 v -21.609 h -9.89 c 0,0 0,31.172 0,32.051 0,3.535 -0.324,8.672 -0.5,11.582 0,0 4.668,0 7.969,0 0.898,0 1.152,-0.371 1.164,-1.184 0.015,-0.926 0.093,-5.437 0.093,-5.437 h 0.227 c 1.199,2.051 4.25,7.539 13.379,7.539 9.402,0 14.668,-6.438 14.668,-13.66 v -30.891 z m 27.403,26.309 h 18.32 c 0.383,7.031 -3.301,10.964 -8.887,10.964 -5.82,0 -9.172,-4.214 -9.433,-10.964 z m 24.433,-16.719 c 0.547,0 0.703,-0.488 0.75,-0.977 0.176,-1.867 0.332,-6.074 0.305,-7.148 -1.055,-0.332 -6.379,-2.285 -13.535,-2.285 -13.887,0 -22.234,7.175 -22.234,22.644 0,13.281 7.117,22.719 19.929,22.719 12.571,0 18.543,-8.41 18.543,-18.852 0,-1.226 -0.125,-3.3 -0.34,-6.05 h -27.968 c 0,-7.453 4.738,-12.805 13.503,-12.805 4.844,0 8.684,1.738 10.208,2.48 0.312,0.149 0.488,0.274 0.839,0.274 z m 23.193,-10.41 c 12.89,0 19.05,5.261 19.05,13.105 0,7.703 -5.47,10.957 -11.28,12.871 -1.67,0.535 -3.29,1.082 -4.81,1.59 -3.97,1.32 -6.05,3.051 -6.05,5.625 0,2.719 2.5,4.621 7.64,4.621 4.58,0 8.33,-1.863 9.82,-2.578 0.24,-0.117 0.46,-0.273 0.86,-0.273 0.32,0 0.7,0.195 0.75,0.964 0.1,1.458 0.28,4.114 0.28,6.653 -1.21,0.555 -5.55,2.785 -12.52,2.785 -10.64,0 -17.194,-5.539 -17.194,-12.855 0,-7.09 4.854,-10.321 10.184,-12.09 1.22,-0.418 3.5,-1.16 4.83,-1.61 5.57,-1.855 7.15,-3.535 7.15,-6.133 0,-3.398 -3.62,-5.078 -9.83,-5.078 -5.11,0 -8.63,1.875 -10.041,2.539 -0.274,0.118 -0.45,0.274 -0.84,0.274 -0.742,0 -0.75,-0.977 -0.762,-1.145 -0.027,-0.468 -0.266,-4.988 -0.266,-6.492 1.172,-0.5 6.219,-2.773 13.029,-2.773 z m -583.732,47.668 h -0.183 l -9.278,-26.203 h 18.731 z m 16.582,-46.848 -4.539,12.871 h -24.265 l -4.543,-12.871 h -10.352 l 21.738,57.285 h 11.536 l 21.382,-57.285 z m 161.828,50.012 v 9.578 h 10.125 v -9.578 z m 0.118,-50.012 v 43.633 h 9.89 v -43.633 z m -21.258,21.289 v -21.289 h -9.914 c 0,0 0,29.395 0,32.422 0,3.125 -0.352,9.051 -0.489,11.211 0,0 4.344,0 8,0 0.86,0 1.122,-0.371 1.122,-1.211 0.031,-1.289 0.109,-5.41 0.109,-5.41 h 0.223 c 0.781,1.875 3.586,7.531 11.816,7.531 2.754,0 4.805,-0.891 5.148,-1.02 0,-1.882 -0.207,-6.003 -0.304,-7.097 -0.059,-0.703 -0.391,-0.938 -0.735,-0.938 -0.332,0 -0.496,0.071 -0.679,0.149 -0.625,0.261 -2.063,0.703 -4.043,0.703 -5.293,0 -10.254,-3.82 -10.254,-15.051 z m -73.137,-21.289 v 27.922 c 0,5.027 -2.129,8.926 -7.266,8.926 -5.769,0 -9.101,-6.321 -9.101,-15.188 v -21.66 h -9.902 v 28.008 c 0,4.57 -1.907,8.84 -7.215,8.84 -5.864,0 -9.145,-6.313 -9.145,-15.5 v -21.348 h -9.922 c 0,0 0,27.578 0,31.785 0,4.094 -0.359,9.914 -0.476,11.848 0,0 5.168,0 7.922,0 0.894,0 1.187,-0.293 1.211,-1.211 0.015,-1.16 0.093,-5.41 0.093,-5.41 h 0.215 c 0.61,1.242 3.867,7.539 12.961,7.539 8.477,0 11.719,-6.082 12.52,-7.957 0.781,1.648 4.543,7.957 13.078,7.957 8.875,0 14.929,-4.766 14.929,-14.336 v -30.215 z m 27.395,26.309 h 18.328 c 0.383,7.019 -3.301,10.976 -8.887,10.976 -5.828,0 -9.172,-4.226 -9.441,-10.976 z m 24.441,-16.719 c 0.535,0 0.703,-0.488 0.742,-0.977 0.176,-1.867 0.332,-6.074 0.313,-7.148 -1.055,-0.332 -6.387,-2.285 -13.528,-2.285 -13.894,0 -22.246,7.187 -22.246,22.656 0,13.262 7.121,22.707 19.934,22.707 12.558,0 18.555,-8.41 18.555,-18.852 0,-1.226 -0.137,-3.3 -0.364,-6.043 h -27.965 c 0,-7.46 4.747,-12.812 13.504,-12.812 4.844,0 8.692,1.738 10.215,2.48 0.313,0.157 0.481,0.274 0.84,0.274 z m 124.231,12.551 c 0,0 -1.504,0 -1.692,0 -12.441,0 -14.883,-4.328 -14.883,-8.723 0,-3.582 2.364,-6.992 7.012,-6.992 6.184,0 9.563,5.965 9.563,12.246 z m 2.378,-22.141 c -0.789,0 -1.461,0.273 -1.55,1.426 -0.098,1.426 -0.293,4.179 -0.293,4.179 h -0.125 c -0.598,-0.8 -4.2,-6.425 -13.274,-6.425 -8.672,0 -13.652,6.679 -13.652,14.035 0,10.176 9.883,15.293 24.558,15.293 0.129,0 1.958,0 1.958,0 v 1.597 c 0,4.575 -3.254,7.024 -9.329,7.024 -5.468,0 -10,-1.926 -11.777,-2.82 -0.117,-0.063 -0.43,-0.246 -0.723,-0.246 -0.476,0 -0.742,0.292 -0.761,0.808 -0.078,1.645 -0.254,4.797 -0.285,6.789 1.789,0.684 7.726,2.891 14.25,2.891 12.96,0 18.515,-6.028 18.515,-15.637 v -17.012 c 0,-6.199 0.586,-10.261 0.789,-11.902 0,0 -7.605,0 -8.301,0 z m -34.226,9.59 c 0.265,0 0.637,-0.176 0.715,-0.938 0.191,-2.082 0.269,-5.488 0.281,-6.554 -1.981,-0.977 -6.27,-2.918 -11.523,-2.918 -13.223,0 -21.321,7.656 -21.321,22.675 0,14.063 7.199,22.688 21.321,22.688 4.675,0 8.984,-1.633 11.523,-2.934 0,-1.55 -0.156,-5.066 -0.281,-6.55 -0.063,-0.625 -0.364,-0.918 -0.715,-0.918 -0.391,0 -0.527,0.097 -0.762,0.207 -3.191,1.558 -6.191,2.312 -8.887,2.312 -8.418,0 -11.875,-5.508 -11.875,-14.805 0,-8.3 2.774,-14.804 11.875,-14.804 3.477,0 6.653,1.238 8.614,2.187 0.527,0.254 0.625,0.352 1.035,0.352 z m 77.422,-9.59 v 28.184 c 0,5.379 -2.449,8.664 -7.051,8.664 -6.094,0 -10.156,-6.477 -10.156,-15.239 v -21.609 h -9.883 c 0,0 0,31.172 0,32.051 0,3.535 -0.332,8.672 -0.488,11.582 0,0 4.648,0 7.949,0 0.91,0 1.164,-0.371 1.172,-1.184 0.019,-0.926 0.097,-5.437 0.097,-5.437 h 0.215 c 1.199,2.051 4.246,7.539 13.379,7.539 9.426,0 14.68,-6.438 14.68,-13.653 v -30.898 h -9.914" /><g
         id="g18"><g
           clip-path="url(#clipPath24)"
           id="g20"><path
             id="path34"
             style="fill:url(#linearGradient32);fill-opacity:1;fill-rule:nonzero;stroke:none"
             d="m 1278.39,36.1914 c 15.95,-26.21874 41.42,-25.7031 48.2,-25.7031 h 81.95 l -96.68,117.3947 c -44.6,-1.848 -68.22,-30.4494 -63.37,-42.4533 l 29.9,-49.2383" /></g></g><g
         id="g36"><g
           clip-path="url(#clipPath42)"
           id="g38"><path
             id="path50"
             style="fill:url(#linearGradient48);fill-opacity:1;fill-rule:nonzero;stroke:none"
             d="m 1248.49,85.4297 c -0.12,0.207 -2.65,6.125 -2.65,13.2812 0,26.7971 23.75,42.1481 50.75,47.6951 l 15.27,-18.523 c -44.6,-1.848 -68.22,-30.4494 -63.37,-42.4533" /></g></g><g
         id="g52"><g
           clip-path="url(#clipPath58)"
           id="g54"><path
             id="path68"
             style="fill:url(#linearGradient66);fill-opacity:1;fill-rule:nonzero;stroke:none"
             d="m 1285.78,172.559 c -40.76,0 -71.2,-6.719 -71.2,-22.676 0,-5.86 1.84,-10.957 6.82,-19.922 l 27.09,-44.5313 c -0.12,0.207 -2.65,6.125 -2.65,13.2812 0,26.7971 23.75,42.1481 50.75,47.6951 7.83,1.621 15.87,2.383 23.74,2.383 6.62,0 12.82,-0.351 17.6,-2.07 -2.81,10.254 -10.26,25.84 -52.15,25.84" /></g></g><g
         id="g70"><g
           clip-path="url(#clipPath76)"
           id="g72"><g
             clip-path="url(#clipPath82)"
             id="g78"><path
               id="path90"
               style="fill:url(#linearGradient88);fill-opacity:1;fill-rule:nonzero;stroke:none"
               d="m 1207,177 v 1 h -6 v 1 h -3 v 1 h -3 v 1 h -2 v 1 h -1 v 1 h -1 v 1 h -2 v 1 h -1 v 1 h -1 v 1 h -1 v 2 h -1 v 1 h -1 v 1 h -1 v 2 h -1 v 1 h -1 v 2 h -1 v 1 h -1 v 2 h -1 v 2 h -1 v 1 h -1 v 2 h -1 v 2 h -1 v 1 h -1 v 2 h -1 v 2 h -1 v 1 h -1 v 2 h -1 v 2 h -1 v 1 h -1 v 2 h -1 v 1 h -1 v 2 h -1 v 2 h -1 v 1 h -1 v 2 h -1 v 2 h -1 v 1 h -1 v 2 h -1 v 2 h -1 v 1 h -1 v 2 h -1 v 2 h -1 v 1 h -1 v 2 h -1 v 1 h -1 v 2 h -1 v 2 h -1 v 1 h -1 v 2 h -1 v 2 h -1 v 1 h -1 v 2 h -1 v 2 h -1 v 1 h -1 v 2 h -1 v 2 h -1 v 1 h -1 v 2 h -1 v 1 h -1 v 2 h -1 v 2 h -1 v 1 h -1 v 2 h -1 v 2 h -1 v 1 h -1 v 2 h -1 v 2 h -1 v 1 h -1 v 2 h -1 v 1 h -1 v 2 h -1 v 2 h -1 v 1 h 49 v -1 h 4 v -1 h 2 v -1 h 2 v -1 h 2 v -1 h 2 v -1 h 1 v -1 h 1 v -1 h 2 v -1 h 1 v -1 h 1 v -1 h 1 v -1 h 1 v -1 h 1 v -1 h 1 v -1 h 1 v -1 h 1 v -1 h 1 v -2 h 1 v -1 h 1 v -1 h 1 v -1 h 1 v -1 h 1 v -2 h 1 v -1 h 1 v -1 h 1 v -1 h 1 v -2 h 1 v -1 h 1 v -1 h 1 v -1 h 1 v -2 h 1 v -1 h 1 v -1 h 1 v -1 h 1 v -2 h 1 v -1 h 1 v -1 h 1 v -2 h 1 v -1 h 1 v -1 h 1 v -1 h 1 v -2 h 1 v -1 h 1 v -1 h 1 v -1 h 1 v -2 h 1 v -1 h 1 v -1 h 1 v -1 h 1 v -2 h 1 v -1 h 1 v -1 h 1 v -1 h 1 v -2 h 1 v -1 h 1 v -1 h 1 v -2 h 1 v -1 h 1 v -1 h 1 v -1 h 1 v -2 h 1 v -1 h 1 v -1 h 1 v -1 h 1 v -2 h 1 v -1 h 1 v -1 h 1 v -1 h 1 v -2 h 1 v -1 h 1 v -1 h 1 v -1 h 1 v -2 h 1 v -1 h 1 v -1 h 1 v -2 h 1 v -1 h 1 v -1 h 1 v -1 h 1 v -2 h 1 v -1 h 1 v -1 h 1 v -1 h 1 v -2 h 1 v -1 h 1 v -1 h 1 v -1 h 1 v -2 h 1 v -1 h 1 v -1 h 1 v -1 h 1 v -2" /></g></g></g><g
         transform="scale(10)"
         id="g92"><text
           id="text96"
           style="font-variant:normal;font-weight:500;font-size:2.20463991px;font-family:AmericanSans;-inkscape-font-specification:AmericanSans-Medium;writing-mode:lr-tb;fill:#334357;fill-opacity:1;fill-rule:nonzero;stroke:none"
           transform="matrix(1,0,0,-1,141.663,0.674609)"><tspan
             id="tspan94"
             y="0"
             x="0">®</tspan></text>
</g></g></g></svg>