<svg width="140" height="140" viewBox="0 0 140 140" fill="none" xmlns="http://www.w3.org/2000/svg">
<path d="M126 62.0038C126 85.0273 112.261 104.849 92.5184 113.75H69.2634H45.7316C25.9887 104.849 12.25 85.0273 12.25 62.0038C12.25 30.6596 37.7138 5.25 69.125 5.25C100.536 5.25 126 30.6596 126 62.0038Z" fill="#F0F3F7"/>
<path d="M42.875 92.75H23.625V64.75H42.875V92.75Z" fill="white"/>
<path d="M19.25 92.75V64.75H14.875L13.125 65.625L11.375 68.25V88.375L12.25 91.875L14 92.75H19.25Z" fill="white"/>
<path d="M46.375 92.75V64.75H50.75L52.5 65.625L54.25 68.25V86.625V91L52.5 92.75H50.75H46.375Z" fill="white"/>
<path d="M44.625 45.5V64.75H49L52.5 65.625L54.25 68.25V89.25L53.375 91L52.5 92.75H50.75H44.625V97.125H50.75L53.375 98.875L54.25 100.625V111.125H60.375L61.25 110.25L60.375 107.625L59.5 104.125V100.625L60.375 97.125L63.875 92.75H65.625H67.375L69.125 91.875L75.25 90.125L86.625 86.625V45.5L85.75 43.75L84 41.125L81.375 39.375H50.75L48.125 40.25L45.5 42L44.625 45.5Z" fill="#00AEC7"/>
<path d="M38.2011 39.088C38.2011 45.5187 32.9745 50.7453 26.5438 50.7453C20.1131 50.7453 14.8865 45.5187 14.8865 39.088C14.8865 32.6573 20.1131 27.4307 26.5438 27.4307C32.9745 27.4307 38.2011 32.6573 38.2011 39.088Z" fill="#69BE28"/>
<path d="M64.75 92.75H70V91L77 89.25L83.125 87.5L91 86.625H94.5L96.25 88.375V89.25L98 86.625L90.125 61.25L91.875 57.75L101.5 55.125L116.375 110.25L109.375 112.875H104.125H102.375H64.75L62.125 112L60.375 108.5L59.5 105.875V102.375L60.375 98L62.125 94.5L64.75 92.75Z" fill="white"/>
<path d="M26.5438 26.516C19.6091 26.516 13.9718 32.1533 13.9718 39.088C13.9718 46.0227 19.6091 51.66 26.5438 51.66C33.4785 51.66 39.1158 46.0227 39.1158 39.088C39.1158 32.1533 33.4785 26.516 26.5438 26.516ZM26.5438 50.7453C20.1225 50.7453 14.8865 45.5187 14.8865 39.088C14.8865 32.6573 20.1131 27.4307 26.5438 27.4307C32.9745 27.4307 38.2011 32.6573 38.2011 39.088C38.2011 45.5187 32.9745 50.7453 26.5438 50.7453Z" fill="#1B365D"/>
<path d="M11.375 111.125V105.875V99.75L13.125 98L14.875 97.125H49.875L51.625 98L54.25 99.75V107.625V111.125L52.5 112.875H50.75H16.625H13.125L11.375 111.125Z" fill="#00AEC7"/>
<path d="M25.9188 46.0973C24.4348 46.0973 23.0815 45.7893 21.9895 45.1453L22.4842 42.9333C23.5202 43.4653 24.3882 43.7639 25.6482 43.7639C27.3188 43.7639 27.8975 43.1013 27.8975 41.7759C27.8975 40.5813 27.1975 40.1053 25.7042 40.1053C24.8175 40.1053 23.8282 40.2733 23.1188 40.5439L22.1482 39.4893L22.6615 33.1799H29.9602L30.0442 35.6439H24.8735L24.6868 38.0053C25.2655 37.8839 25.8815 37.8186 26.5255 37.8186C29.1762 37.8186 30.6602 39.0599 30.6602 41.5239C30.6602 44.3613 29.2322 46.0786 25.9282 46.0786L25.9188 46.0973Z" fill="white"/>
<path d="M15.5868 93.5013C14.9801 93.5013 14.4948 93.996 14.4948 94.5933C14.4948 95.1907 14.9894 95.6947 15.5868 95.6947C16.1841 95.6947 16.6881 95.2 16.6881 94.5933C16.6881 93.9867 16.1934 93.5013 15.5868 93.5013ZM15.5868 94.78C15.4841 94.78 15.4094 94.696 15.4094 94.5933C15.4094 94.4907 15.4934 94.416 15.5868 94.416C15.6801 94.416 15.7734 94.5 15.7734 94.5933C15.7734 94.6867 15.6894 94.78 15.5868 94.78Z" fill="#1B365D"/>
<path d="M49.6348 93.5013C49.0281 93.5013 48.5334 93.996 48.5334 94.5933C48.5334 95.1907 49.0281 95.6947 49.6348 95.6947C50.2414 95.6947 50.7268 95.2 50.7268 94.5933C50.7268 93.9867 50.2321 93.5013 49.6348 93.5013ZM49.6348 94.78C49.5321 94.78 49.4481 94.696 49.4481 94.5933C49.4481 94.4907 49.5321 94.416 49.6348 94.416C49.7374 94.416 49.8121 94.5 49.8121 94.5933C49.8121 94.6867 49.7281 94.78 49.6348 94.78Z" fill="#1B365D"/>
<rect x="15.75" y="103.25" width="3.5" height="4.55" fill="white"/>
<rect x="45.5" y="103.25" width="3.5" height="4.55" fill="white"/>
<path d="M91.8403 100.837H75.8616C75.2083 100.837 74.6763 101.369 74.6763 102.023V108.799C74.6763 109.452 75.2083 109.984 75.8616 109.984H91.8403C92.4936 109.984 93.0256 109.452 93.0256 108.799V102.023C93.0256 101.369 92.4936 100.837 91.8403 100.837ZM92.1109 108.799C92.1109 108.948 91.9803 109.069 91.8403 109.069H75.8616C75.7123 109.069 75.5909 108.948 75.5909 108.799V105.327C75.5909 105.327 75.6376 105.345 75.6656 105.345H88.1163C88.1163 105.345 88.0976 105.392 88.0976 105.42V106.232C88.0976 106.484 88.3029 106.689 88.5549 106.689C88.8069 106.689 89.0123 106.484 89.0123 106.232V105.42C89.0123 105.42 89.0029 105.373 88.9936 105.345H92.1203V108.808L92.1109 108.799ZM92.1109 104.421H75.6563C75.6563 104.421 75.6096 104.431 75.5816 104.44V102.023C75.5816 101.873 75.7029 101.752 75.8523 101.752H91.8309C91.9803 101.752 92.1016 101.873 92.1016 102.023V104.421H92.1109Z" fill="#1B365D"/>
<path d="M22.9414 65.4547H19.5627V92.5027H22.9414V65.4547Z" fill="#00AEC7"/>
<path d="M46.3027 65.4547H42.9241V92.5027H46.3027V65.4547Z" fill="#00AEC7"/>
<path d="M100.763 89.4413C100.763 90.776 99.6706 91.868 98.3359 91.868H95.5266C96.1706 91.252 96.5813 90.3933 96.5813 89.4413C96.5813 88.4893 96.1706 87.6213 95.5359 87.0146H98.3453C99.6799 87.0146 100.772 88.1066 100.772 89.4413H100.763Z" fill="#00AEC7"/>
<path d="M92.1199 102.032V104.431H75.6652C75.6652 104.431 75.6186 104.44 75.5906 104.449V102.032C75.5906 101.883 75.7119 101.761 75.8612 101.761H91.8399C91.9892 101.761 92.1106 101.883 92.1106 102.032H92.1199Z" fill="#00AEC7"/>
<path d="M100.679 102.816C100.679 108.257 98.3175 112.849 95.5361 112.849H93.6228C95.7601 111.179 97.2161 107.361 97.2161 102.816C97.2161 98.2707 95.7601 94.4534 93.6228 92.7827H95.5361C98.3268 92.7827 100.679 97.3747 100.679 102.816Z" fill="#00AEC7"/>
<path d="M74.0789 112.84H72.1655C69.3749 112.84 67.0135 108.248 67.0135 102.807C67.0135 97.3653 69.3749 92.7733 72.1655 92.7733H74.0789C71.9415 94.4533 70.4855 98.2613 70.4855 102.807C70.4855 107.352 71.9509 111.169 74.0789 112.84Z" fill="#00AEC7"/>
<path d="M123.741 86.7161L120.092 87.7241C120.027 87.7427 119.971 87.7801 119.915 87.8267L117.675 79.6881C119.887 79.3147 122.08 80.6774 122.687 82.8894L123.741 86.7254V86.7161Z" fill="#00AEC7"/>
<path d="M90.8975 46.1253C90.8322 46.1067 90.7575 46.1067 90.6922 46.1253C90.6269 46.144 90.5615 46.1813 90.5149 46.228C89.8615 46.312 89.2269 45.92 89.0122 45.276C88.7789 44.548 89.1802 43.7547 89.9082 43.512C90.0482 43.4653 90.1975 43.4467 90.3375 43.4467C90.5615 43.4467 90.7762 43.4933 90.9722 43.596C91.3082 43.764 91.5509 44.0533 91.6722 44.408C91.8962 45.0987 91.5509 45.8267 90.8975 46.116V46.1253Z" fill="#00AEC7"/>
<path d="M121.996 108.808L116.368 110.357C116.405 110.264 116.415 110.171 116.396 110.068L103.32 62.6452C102.023 57.9226 102.275 56.1959 102.424 55.6919C103.152 55.7759 104.029 55.9906 105 56.4852C107.819 57.9132 111.813 61.9172 114.837 72.8559L123.853 105.551C124.245 106.96 123.415 108.425 122.005 108.817L121.996 108.808Z" fill="#00AEC7"/>
<path d="M73.3414 29.54V29.7173H57.624V29.54C57.624 28.224 58.6974 27.1506 60.0134 27.1506H70.952C72.268 27.1506 73.3414 28.224 73.3414 29.54Z" fill="#00AEC7"/>
<path d="M122.267 111.832C122.015 111.057 121.175 110.628 120.409 110.88C119.635 111.132 119.205 111.963 119.457 112.737C119.579 113.111 119.84 113.419 120.185 113.596C120.4 113.708 120.624 113.764 120.857 113.764C121.007 113.764 121.165 113.736 121.315 113.689C121.688 113.568 121.996 113.307 122.173 112.952C122.351 112.607 122.388 112.205 122.267 111.832ZM121.361 112.541C121.296 112.672 121.175 112.775 121.035 112.821C120.895 112.868 120.745 112.859 120.605 112.784C120.465 112.719 120.372 112.597 120.325 112.457C120.223 112.159 120.391 111.841 120.68 111.748C120.736 111.729 120.792 111.72 120.848 111.72C121.081 111.72 121.305 111.869 121.38 112.112C121.427 112.252 121.417 112.401 121.343 112.541H121.361Z" fill="#1B365D"/>
<path d="M100.632 54.5999C100.389 54.6652 100.137 54.5252 100.072 54.2732C99.5121 52.2199 97.9347 50.7919 96.6281 51.1466C95.3307 51.5012 94.7054 53.5452 95.2747 55.5986C95.3401 55.8412 95.2001 56.0932 94.9574 56.1586C94.9201 56.1679 94.8734 56.1772 94.8361 56.1772C94.6307 56.1772 94.4441 56.0466 94.3974 55.8412C93.6881 53.2652 94.5841 50.7639 96.3947 50.2692C98.2054 49.7746 100.249 51.4639 100.968 54.0399C101.033 54.2826 100.893 54.5346 100.651 54.5999H100.632Z" fill="#1B365D"/>
<path d="M23.7626 102.835H26.544C26.796 102.835 27.0013 102.629 27.0013 102.377C27.0013 102.125 26.796 101.92 26.544 101.92H23.7626C23.5106 101.92 23.3053 102.125 23.3053 102.377C23.3053 102.629 23.5106 102.835 23.7626 102.835Z" fill="#1B365D"/>
<path d="M38.0518 102.835H40.8332C41.0852 102.835 41.2905 102.629 41.2905 102.377C41.2905 102.125 41.0852 101.92 40.8332 101.92H38.0518C37.7998 101.92 37.5945 102.125 37.5945 102.377C37.5945 102.629 37.7998 102.835 38.0518 102.835Z" fill="#1B365D"/>
<path d="M129.211 89.516C129.164 89.264 128.922 89.1053 128.67 89.1613C126.831 89.5253 125.011 87.22 124.722 86.8373L123.564 82.6373C122.818 79.94 120.13 78.2973 117.423 78.8013L115.715 72.6133C112.598 61.3106 108.37 57.148 105.374 55.6546C102.434 54.18 100.184 54.9173 99.9042 55.02L94.0522 56.6346L91.3735 46.928C91.8122 46.704 92.1669 46.368 92.3909 45.92C92.6709 45.3693 92.7175 44.744 92.5309 44.156C92.3442 43.568 91.9335 43.092 91.3829 42.812C90.8322 42.532 90.2069 42.4853 89.6189 42.672C88.4055 43.064 87.7335 44.3706 88.1349 45.584C88.4522 46.564 89.3575 47.18 90.3375 47.18C90.3935 47.18 90.4402 47.18 90.4962 47.1706L93.1655 56.8773L92.6895 57.008C90.7949 57.5306 89.6749 59.5 90.1975 61.3946L97.0109 86.1093H94.4815C94.3602 86.1093 94.2482 86.156 94.1549 86.24C93.8655 86.156 93.5669 86.1093 93.2589 86.1093C93.0722 86.1 90.8602 85.9693 86.8095 86.5573V45.696C86.8095 42.1306 83.9069 39.2373 80.3509 39.2373H72.0722V30.8186C72.0722 30.7533 72.0535 30.6973 72.0349 30.6506H73.7989C74.0509 30.6506 74.2562 30.4453 74.2562 30.1933V29.5586C74.2562 27.7386 72.7722 26.2546 70.9522 26.2546H60.0135C58.1935 26.2546 56.7095 27.7386 56.7095 29.5586V30.1933C56.7095 30.4453 56.9149 30.6506 57.1669 30.6506H58.9215V39.2373H50.6149C47.0495 39.2373 44.1562 42.14 44.1562 45.696V64.5493H40.9175V62.608C40.9175 61.2546 39.7789 60.1533 38.3695 60.1533H27.6455C26.2455 60.1533 25.0975 61.2546 25.0975 62.608V64.5493H14.9149C12.6282 64.5493 10.7709 66.4066 10.7709 68.6933V89.292C10.7709 91.5786 12.6282 93.436 14.9149 93.436H44.1375V96.936C44.1375 97.0013 44.1469 97.0573 44.1749 97.1133H14.9242C12.6375 97.1133 10.7802 98.9706 10.7802 101.257V109.629C10.7802 111.916 12.6375 113.773 14.9242 113.773H50.5589C52.2389 113.773 53.6855 112.765 54.3389 111.319H61.4882C62.6922 112.849 64.2135 113.773 65.8749 113.773H101.416C102.592 113.773 103.712 113.307 104.683 112.485C105.364 113.241 106.326 113.671 107.334 113.671C107.651 113.671 107.968 113.624 108.286 113.54L122.239 109.695C124.134 109.172 125.254 107.203 124.731 105.308L124.208 103.423C125.384 102.984 126.364 102.163 126.999 101.043C127.708 99.792 127.886 98.3546 127.512 96.9733L125.244 88.7506C126.028 89.4413 127.092 90.1226 128.268 90.1226C128.455 90.1226 128.651 90.104 128.847 90.0666C129.099 90.02 129.258 89.7773 129.202 89.5253L129.211 89.516ZM90.8975 46.1253C90.8322 46.1066 90.7575 46.1066 90.6922 46.1253C90.6269 46.144 90.5615 46.1813 90.5149 46.228C89.8615 46.312 89.2269 45.92 89.0122 45.276C88.7789 44.548 89.1802 43.7546 89.9082 43.512C90.0482 43.4653 90.1975 43.4466 90.3375 43.4466C90.5615 43.4466 90.7762 43.4933 90.9722 43.596C91.3082 43.764 91.5509 44.0533 91.6722 44.408C91.8962 45.0986 91.5509 45.8266 90.8975 46.116V46.1253ZM122.687 82.88L123.742 86.716L120.092 87.724C120.027 87.7426 119.971 87.78 119.915 87.8266L117.675 79.688C119.887 79.3146 122.08 80.6773 122.687 82.8893V82.88ZM98.3362 87.0146C99.6709 87.0146 100.763 88.1066 100.763 89.4413C100.763 90.776 99.6709 91.868 98.3362 91.868H95.5269C96.1709 91.252 96.5815 90.3933 96.5815 89.4413C96.5815 88.4893 96.1709 87.6213 95.5362 87.0146H98.3455H98.3362ZM93.2309 87.0146C94.5749 87.0146 95.6575 88.1066 95.6575 89.4413C95.6575 90.776 94.5655 91.868 93.2309 91.868H70.5322C84.8589 86.5293 93.1189 87.0053 93.2309 87.0146ZM57.6242 29.7173V29.54C57.6242 28.224 58.6975 27.1506 60.0135 27.1506H70.9522C72.2682 27.1506 73.3415 28.224 73.3415 29.54V29.7173H57.6242ZM71.1855 30.632C71.1669 30.6786 71.1482 30.744 71.1482 30.8V39.2186H59.8269V30.632H71.1855ZM26.0122 62.5986C26.0122 61.7493 26.7402 61.0586 27.6455 61.0586H38.3695C39.2655 61.0586 40.0029 61.7493 40.0029 62.5986V64.54H26.0215V62.5986H26.0122ZM18.6482 92.5026H14.9242C13.1415 92.5026 11.6949 91.056 11.6949 89.2733V68.6746C11.6949 66.892 13.1415 65.4453 14.9242 65.4453H18.6482V92.4933V92.5026ZM22.9509 92.5026H19.5722V65.4546H22.9509V92.5026ZM42.0095 92.5026H23.8655V65.4546H42.0095V92.5026ZM42.9242 92.5026V65.4546H46.3029V92.5026H42.9242ZM53.7882 109.611C53.7882 109.984 53.7229 110.329 53.6109 110.665C53.6109 110.665 53.6109 110.675 53.6109 110.684C53.1722 111.944 51.9775 112.849 50.5682 112.849H14.9242C13.1415 112.849 11.6949 111.403 11.6949 109.62V106.008H15.5495V107.371C15.5495 107.931 16.0069 108.397 16.5762 108.397H18.5455C19.1149 108.397 19.5722 107.94 19.5722 107.371V106.008H24.7709V108.827C24.7709 109.079 24.9762 109.284 25.2282 109.284H39.4522C39.7042 109.284 39.9095 109.079 39.9095 108.827V106.008H45.2669C45.2669 106.008 45.2669 106.008 45.2855 106.008H45.4069V107.38C45.4069 107.94 45.8642 108.407 46.4335 108.407H48.4029C48.9722 108.407 49.4295 107.949 49.4295 107.38V106.008H53.8069V109.62L53.7882 109.611ZM16.4642 107.371V103.721C16.4642 103.665 16.5109 103.609 16.5762 103.609H18.5455C18.6109 103.609 18.6575 103.656 18.6575 103.721V107.371C18.6575 107.427 18.6109 107.483 18.5455 107.483H16.5762C16.5202 107.483 16.4642 107.436 16.4642 107.371ZM25.6762 108.369V106.008H38.9855V108.369H25.6762ZM46.3029 107.371V103.721C46.3029 103.665 46.3495 103.609 46.4149 103.609H48.3842C48.4402 103.609 48.4962 103.656 48.4962 103.721V107.371C48.4962 107.427 48.4495 107.483 48.3842 107.483H46.4149C46.3589 107.483 46.3029 107.436 46.3029 107.371ZM53.7789 105.084H49.4015V103.721C49.4015 103.161 48.9442 102.695 48.3749 102.695H46.4055C45.8455 102.695 45.3789 103.152 45.3789 103.721V105.084H39.8909V103.451C39.8909 103.199 39.6855 102.993 39.4335 102.993C39.1815 102.993 38.9762 103.199 38.9762 103.451V105.084H25.6669V103.451C25.6669 103.199 25.4615 102.993 25.2095 102.993C24.9575 102.993 24.7522 103.199 24.7522 103.451V105.084H19.5535V103.721C19.5535 103.161 19.0962 102.695 18.5269 102.695H16.5575C15.9975 102.695 15.5309 103.152 15.5309 103.721V105.084H11.6762V101.239C11.6762 99.456 13.1229 98.0093 14.9055 98.0093H50.5402C52.3229 98.0093 53.7695 99.456 53.7695 101.239V105.084H53.7789ZM54.6189 110.385C54.6655 110.133 54.6935 109.872 54.6935 109.611V101.239C54.6935 98.952 52.8362 97.0946 50.5495 97.0946H45.0242C45.0429 97.0386 45.0615 96.9826 45.0615 96.9173V93.4173H50.5495C52.4909 93.4173 54.1149 92.0733 54.5629 90.2813C54.6375 90.1973 54.6935 90.0853 54.6935 89.964V57.624C54.6935 57.372 54.4882 57.1666 54.2362 57.1666C53.9842 57.1666 53.7789 57.372 53.7789 57.624V66.0893C53.0135 65.1466 51.8562 64.54 50.5495 64.54H45.0615V45.6866C45.0615 42.6253 47.5442 40.1426 50.6055 40.1426H80.3415C83.4029 40.1426 85.8855 42.6346 85.8855 45.6866V86.5573C85.8855 86.5573 85.9042 86.6413 85.9135 86.6786C83.7855 87.024 81.2189 87.556 78.2322 88.3866V57.6333C78.2322 57.3813 78.0269 57.176 77.7749 57.176C77.5229 57.176 77.3175 57.3813 77.3175 57.6333V88.452C77.3175 88.5173 77.3269 88.5733 77.3549 88.6293C75.8709 89.0586 74.2842 89.5626 72.6135 90.1413V51.7906C72.6135 51.5386 72.4082 51.3333 72.1562 51.3333C71.9042 51.3333 71.6989 51.5386 71.6989 51.7906V90.4586C70.5042 90.888 69.2629 91.3453 67.9749 91.8586H65.9309V46.0973C65.9309 45.8453 65.7255 45.64 65.4735 45.64C65.2215 45.64 65.0162 45.8453 65.0162 46.0973V91.9426C63.1029 92.316 61.4229 93.912 60.3122 96.2266V51.7906C60.3122 51.5386 60.1069 51.3333 59.8549 51.3333C59.6029 51.3333 59.3975 51.5386 59.3975 51.7906V98.7933C59.0895 100.044 58.9122 101.397 58.9122 102.816C58.9122 105.756 59.6589 108.425 60.8535 110.395H54.6189V110.385ZM47.2175 92.5026V65.4546H50.5495C52.3322 65.4546 53.7789 66.9013 53.7789 68.684V89.2826C53.7789 91.0653 52.3322 92.512 50.5495 92.512H47.2175V92.5026ZM65.8749 112.84C64.4469 112.84 63.1215 112.009 62.0855 110.619C62.0575 110.581 62.0389 110.544 62.0015 110.507C60.6762 108.668 59.8269 105.896 59.8269 102.807C59.8269 97.272 62.5429 92.7733 65.8749 92.7733H69.7015C67.5642 94.4533 66.1082 98.2613 66.1082 102.807C66.1082 107.352 67.5735 111.169 69.7015 112.84H65.8749ZM72.1655 112.84C69.3749 112.84 67.0135 108.248 67.0135 102.807C67.0135 97.3653 69.3749 92.7733 72.1655 92.7733H74.0789C71.9415 94.4533 70.4855 98.2613 70.4855 102.807C70.4855 107.352 71.9509 111.169 74.0789 112.84H72.1655ZM91.1589 112.84H76.5429C73.7522 112.84 71.4002 108.248 71.4002 102.807C71.4002 97.3653 73.7615 92.7733 76.5429 92.7733H91.1589C93.9495 92.7733 96.3015 97.3653 96.3015 102.807C96.3015 108.248 93.9495 112.84 91.1589 112.84ZM95.5362 112.84H93.6229C95.7602 111.169 97.2162 107.352 97.2162 102.807C97.2162 98.2613 95.7602 94.444 93.6229 92.7733H95.5362C98.3269 92.7733 100.679 97.3653 100.679 102.807C100.679 108.248 98.3175 112.84 95.5362 112.84ZM104.515 111.421C104.515 111.421 104.496 111.421 104.496 111.431C104.44 111.468 104.394 111.515 104.366 111.571C103.498 112.383 102.49 112.849 101.426 112.849H98.0095C100.147 111.179 101.603 107.361 101.603 102.816C101.603 98.2707 100.138 94.4533 98.0095 92.7827H101.426C104.758 92.7827 107.474 97.2813 107.474 102.816C107.474 106.465 106.288 109.676 104.524 111.431L104.515 111.421ZM108.043 112.644C107.054 112.915 106.018 112.597 105.346 111.832C107.175 109.853 108.37 106.549 108.37 102.807C108.37 96.768 105.243 91.8586 101.407 91.8586H100.614C101.258 91.2426 101.668 90.384 101.668 89.432C101.668 87.584 100.175 86.0906 98.3269 86.0906H97.9629L91.0842 61.1333C90.6922 59.724 91.5229 58.2586 92.9322 57.8666L100.166 55.8786C100.166 55.8786 100.194 55.8786 100.212 55.86C100.25 55.8413 100.726 55.6733 101.491 55.6453C101.286 56.588 101.267 58.6226 102.443 62.8786L103.348 66.1546L101.78 68.1613C101.631 68.3666 101.659 68.6466 101.864 68.8053C101.948 68.8706 102.051 68.8986 102.144 68.8986C102.284 68.8986 102.415 68.8426 102.508 68.7213L103.656 67.256L115.519 110.301C115.547 110.404 115.603 110.479 115.678 110.535L108.043 112.644ZM121.996 108.799L116.368 110.348C116.406 110.255 116.415 110.161 116.396 110.059L103.32 62.636C102.023 57.9133 102.275 56.1866 102.424 55.6826C103.152 55.7666 104.03 55.9813 105 56.476C107.819 57.904 111.814 61.908 114.838 72.8466L123.854 105.541C124.246 106.951 123.415 108.416 122.006 108.808L121.996 108.799ZM126.635 97.2066C126.952 98.3453 126.803 99.54 126.206 100.576C125.692 101.472 124.908 102.153 123.966 102.527L120.13 88.6106C120.195 88.62 120.27 88.6293 120.335 88.6106L123.984 87.6026L126.635 97.216V97.2066Z" fill="#1B365D"/>
<path d="M53.7882 105.999V109.611C53.7882 109.984 53.7228 110.329 53.6108 110.665C53.6108 110.665 53.6108 110.675 53.6108 110.684C53.1722 111.944 51.9775 112.849 50.5682 112.849H14.9242C13.1415 112.849 11.6948 111.403 11.6948 109.62V106.008H15.5495V107.371C15.5495 107.931 16.0068 108.397 16.5762 108.397H18.5455C19.1148 108.397 19.5722 107.94 19.5722 107.371V106.008H24.7708V108.827C24.7708 109.079 24.9762 109.284 25.2282 109.284H39.4522C39.7042 109.284 39.9095 109.079 39.9095 108.827V106.008H45.2668C45.2668 106.008 45.2668 106.008 45.2855 106.008H45.4068V107.38C45.4068 107.94 45.8642 108.407 46.4335 108.407H48.4028C48.9722 108.407 49.4295 107.949 49.4295 107.38V106.008H53.8068L53.7882 105.999Z" fill="#F7F7F7"/>
<path d="M95.2749 55.5988C94.7149 53.5454 95.3309 51.5014 96.6282 51.1468C97.9349 50.7921 99.5122 52.2201 100.072 54.2734C100.138 54.5161 100.399 54.6654 100.632 54.6001L94.9482 56.1681C95.1909 56.1028 95.3402 55.8414 95.2656 55.6081L95.2749 55.5988Z" fill="#F7F7F7"/>
</svg>
