<svg width="140" height="140" viewBox="0 0 140 140" fill="none" xmlns="http://www.w3.org/2000/svg">
<path d="M126 62.0038C126 85.0273 112.262 104.849 92.5186 113.75H69.2637H45.7319C25.989 104.849 12.2502 85.0273 12.2502 62.0038C12.2502 30.6596 37.714 5.25 69.1252 5.25C100.536 5.25 126 30.6596 126 62.0038Z" fill="#F0F3F7"/>
<path d="M68.2502 62.6501H98.0002V67.9001L98.8752 74.3751L101.5 75.2501L112 76.1251L115.5 77.0001L118.125 81.3751V98.8751H71.7502V67.9001H68.2502V62.6501Z" fill="#F0FFFF"/>
<path d="M106.372 65.212V62.2813C106.372 62.2813 106.363 62.2253 106.354 62.1973C107.362 61.8986 108.388 61.4506 109.21 60.788C111.45 58.9773 114.782 55.3093 117.348 52.4626V67.816C117.348 67.816 117.348 67.8346 117.348 67.844C117.348 67.844 117.348 67.8626 117.348 67.872C117.348 67.8813 117.339 71.3207 117.348 71.75L114.625 75.25L101.5 76.125L98.8752 74.375V65.212C98.8752 65.212 106.372 65.2586 106.372 65.212Z" fill="#B4C2D7"/>
<path d="M40.7963 53.1066C40.7963 53.5546 40.7403 54.0119 40.6376 54.4693C40.6376 54.4879 40.6376 54.5066 40.6283 54.5253L38.1643 75.5346C38.1643 75.5346 36.7502 73.5 38.1643 75.5999L38.5002 79.625C39.7768 81.897 43.1897 84.9004 49.0002 91C53.2551 101.564 53.4376 114.923 53.3752 115.5L45.5002 116.375L42.0002 95.375L34.1603 87.5L28.0002 116.375L20.0203 114.625C20.011 114.494 27.5243 80.64 27.5243 80.5C27.5243 80.08 25.6576 77.875 26.1896 74.3306C26.1896 74.3119 26.1896 74.2839 26.1896 74.2653L27.5243 65.0719L34.1603 55.5893C34.319 55.3653 34.263 55.0386 34.039 54.8799C33.8056 54.7213 33.4883 54.7773 33.3296 55.0106L25.6576 65.9679C25.6576 65.9679 25.6296 66.0053 25.6203 66.0333L20.0203 77.1306C19.647 77.9799 18.9563 78.6426 18.0883 78.9786C17.211 79.3239 16.259 79.3053 15.4096 78.9319C13.6363 78.1573 12.8243 76.0853 13.5896 74.3399L19.8336 61.9266C20.2536 60.9559 20.7576 60.1159 21.9616 58.9026C21.971 58.8933 21.9896 58.8746 21.9896 58.8653L31.3136 47.2266L34.7483 47.0586C38.0896 47.0586 40.7963 49.7746 40.7963 53.1159V53.1066Z" fill="#B4C2D7"/>
<circle cx="38.9378" cy="37.8875" r="7.2625" fill="#B4C2D7"/>
<path d="M63.0002 108.5C63.0002 103.668 66.9178 99.75 71.7502 99.75H115.5V117.25H71.7502C66.9178 117.25 63.0002 113.332 63.0002 108.5Z" fill="white"/>
<circle cx="111.038" cy="30.8875" r="7.2625" fill="#B4C2D7"/>
<path d="M39.1164 45.6585C43.503 45.6585 47.0777 42.0838 47.0777 37.6972C47.0777 33.3105 43.503 29.7358 39.1164 29.7358C34.7297 29.7358 31.155 33.3105 31.155 37.6972C31.155 42.0838 34.7297 45.6585 39.1164 45.6585ZM39.1164 30.7532C42.943 30.7532 46.0604 33.8705 46.0604 37.6972C46.0604 41.5238 42.943 44.6412 39.1164 44.6412C35.2897 44.6412 32.1724 41.5238 32.1724 37.6972C32.1724 33.8705 35.2897 30.7532 39.1164 30.7532Z" fill="#1B365D"/>
<path d="M57.783 66.9666L41.4217 56.5226L41.6364 54.6747C41.7577 54.152 41.8137 53.62 41.8137 53.1067C41.8137 49.2053 38.6404 46.032 34.7204 46.032L31.0337 46.2093C30.8937 46.2093 30.7537 46.284 30.6604 46.4053L21.2057 58.2026C19.9084 59.5093 19.3577 60.4426 18.9004 61.488L12.6564 73.9013C11.6577 76.188 12.703 78.8573 14.999 79.856C16.1004 80.3413 17.3324 80.36 18.4617 79.9213C19.591 79.4826 20.4777 78.624 20.9444 77.5506L26.1897 67.1533L25.1724 74.1533C25.0697 74.6386 25.023 75.124 25.023 75.6C25.023 77.476 25.779 79.268 27.095 80.5933L24.3604 92.5586L19.675 114.613C19.619 114.893 19.7964 115.164 20.067 115.22C20.095 115.22 20.1324 115.229 20.1697 115.229C20.403 115.229 20.6177 115.071 20.6644 114.828L25.3497 92.7826L27.963 81.3493L34.1231 87.7426C33.8804 87.7426 33.6564 87.8826 33.6004 88.1346L32.107 94.668L27.4964 116.405C27.4404 116.676 27.6177 116.956 27.8884 117.012C27.9257 117.012 27.963 117.021 27.991 117.021C28.2244 117.021 28.439 116.853 28.4857 116.62L33.0964 94.892L34.5897 88.3586C34.5897 88.3586 34.5897 88.284 34.5897 88.2467L41.3377 95.2467L45.1924 116.489C45.239 116.741 45.4537 116.909 45.687 116.909C45.715 116.909 45.7524 116.909 45.7804 116.909C46.0604 116.853 46.2377 116.592 46.191 116.321L42.3084 94.92C42.2897 94.8266 42.243 94.7333 42.1777 94.6586L28.6257 80.5933C28.6257 80.5933 28.579 80.5466 28.5604 80.528C27.0857 79.4733 26.1617 77.8026 26.0497 76.02C26.0404 75.8893 26.031 75.7493 26.031 75.6093C26.031 75.1893 26.0777 74.76 26.1617 74.34C26.1617 74.3213 26.1617 74.2933 26.1617 74.2746L27.4964 65.0813L34.1324 55.5986C34.291 55.3746 34.235 55.048 34.011 54.8893C33.7777 54.7306 33.4604 54.7866 33.3017 55.02L25.6297 65.9773C25.6297 65.9773 25.6017 66.0147 25.5924 66.0427L19.9924 77.14C19.619 77.9893 18.9284 78.652 18.0604 78.988C17.183 79.3333 16.231 79.3146 15.3817 78.9413C13.6084 78.1666 12.7964 76.0947 13.5617 74.3493L19.8057 61.936C20.2257 60.9653 20.7297 60.1253 21.9337 58.912C21.943 58.9026 21.9617 58.884 21.9617 58.8747L31.2857 47.236L34.7204 47.068C38.0617 47.068 40.7684 49.784 40.7684 53.1253C40.7684 53.5733 40.7124 54.0306 40.6097 54.488C40.6097 54.5066 40.6097 54.5253 40.6004 54.544L38.1364 75.5533C38.1364 75.5533 38.1364 75.5906 38.1364 75.6186C38.1364 76.5706 38.043 77.6813 37.931 78.7173C37.9124 78.9226 37.8844 79.128 37.8657 79.3333C37.847 79.4826 37.8937 79.6226 37.9964 79.7346L47.6097 90.132C47.6097 90.132 47.6284 90.1506 47.6377 90.16C47.8617 90.3653 48.0577 90.608 48.2537 90.944C48.2537 90.9627 48.2724 90.9813 48.2817 91C48.6364 91.448 48.8697 91.9333 48.963 92.4466L53.0604 114.959C53.107 115.211 53.3217 115.379 53.5644 115.379C53.5924 115.379 53.6297 115.379 53.6577 115.379C53.9377 115.332 54.115 115.061 54.0684 114.791L49.9711 92.2693C49.8404 91.6066 49.551 90.9813 49.1031 90.412C48.8604 90.02 48.6177 89.712 48.3377 89.4506L38.8924 79.2493C39.023 78.092 39.1444 76.804 39.1444 75.6933L40.2177 66.5933L53.135 74.816C53.8537 75.236 54.647 75.4413 55.431 75.4413C56.9804 75.4413 58.4924 74.648 59.3324 73.22C60.6017 71.0733 59.8924 68.292 57.7551 67.032L57.783 66.9666ZM58.483 72.632C57.503 74.2933 55.347 74.844 53.695 73.8733L40.3764 65.3986L41.2817 57.6426L57.2417 67.8346C58.903 68.8146 59.4537 70.9706 58.4737 72.632H58.483Z" fill="#1B365D"/>
<path d="M58.4829 72.6322C57.5029 74.2935 55.3469 74.8442 53.6949 73.8735L40.3762 65.3988L41.2816 57.6428L57.2416 67.8348C58.9029 68.8148 59.4536 70.9708 58.4736 72.6322H58.4829Z" fill="#B4C2D7"/>
<path d="M127.204 115.995H72.0069C67.5362 115.995 63.9056 112.355 63.9056 107.893C63.9056 103.432 67.5362 99.7921 72.0069 99.7921H127.204C127.484 99.7921 127.718 99.5681 127.718 99.2787C127.718 98.9894 127.494 98.7654 127.204 98.7654H118.356C118.356 98.7654 118.366 98.7281 118.366 98.7001V82.5254C118.366 80.2854 117.684 78.4934 116.35 77.1867C115.678 76.5334 114.912 76.0761 114.156 75.7587C115.164 75.4787 116.014 74.9561 116.686 74.2001C118.758 71.8667 118.403 68.1427 118.366 67.7787V51.3054C119.803 49.5507 120.41 47.1147 119.915 45.0054C119.439 42.9894 118.011 41.4307 115.892 40.6094C115.874 40.6094 115.855 40.5907 115.827 40.5907L113.718 40.0494C111.879 39.6294 109.984 39.9467 108.379 40.9454C107.026 41.7854 106.027 43.0361 105.495 44.5201L97.1696 53.4147C97.0762 53.5174 97.0296 53.6574 97.0389 53.7881L88.9376 53.8254C86.4456 53.9747 84.5416 56.1214 84.6909 58.6134C84.7562 59.8174 85.2976 60.9187 86.2029 61.7307C86.2216 61.7401 86.2309 61.7587 86.2496 61.7681H67.8349C67.5549 61.7681 67.3216 61.9921 67.3216 62.2814V68.0681C67.3216 68.3481 67.5456 68.5814 67.8349 68.5814H71.0736V79.8934L62.3936 75.1147C62.4122 75.0307 62.4216 74.9561 62.4309 74.8721C62.4589 74.4147 62.3096 73.9667 62.0016 73.6214C61.6936 73.2761 61.2736 73.0707 60.8163 73.0334C60.3589 73.0054 59.9109 73.1547 59.5656 73.4627C58.8469 74.0974 58.7816 75.1894 59.4162 75.8987C59.7616 76.2907 60.2283 76.4867 60.7136 76.4867C61.1149 76.4867 61.5256 76.3467 61.8522 76.0574C61.8709 76.0387 61.8802 76.0201 61.8989 76.0014L71.0736 81.0507V98.8214C66.4909 99.2974 62.8976 103.18 62.8976 107.893C62.8976 112.924 66.9856 117.012 72.0163 117.012H127.214C127.494 117.012 127.727 116.788 127.727 116.499C127.727 116.209 127.503 115.985 127.214 115.985L127.204 115.995ZM115.631 77.9241C116.77 79.0254 117.348 80.5841 117.348 82.5347V98.7094C117.348 98.7094 117.348 98.7467 117.348 98.7747H72.0816V81.6107L97.8416 95.7974V97.7201C97.8416 98.0001 98.0656 98.2334 98.3549 98.2334C98.6442 98.2334 98.8682 98.0094 98.8682 97.7201V96.3574L99.8763 96.9081C99.9509 96.9454 100.035 96.9734 100.119 96.9734C100.166 96.9734 100.212 96.9734 100.259 96.9547C100.39 96.9174 100.492 96.8241 100.558 96.7121L101.052 95.8067C101.388 97.1041 102.574 98.0747 103.974 98.0747C105.635 98.0747 106.998 96.7214 106.998 95.0507C106.998 93.3801 105.644 92.0267 103.974 92.0267C103.647 92.0267 103.339 92.0734 103.05 92.1761L105.542 87.6494C105.542 87.6494 105.57 87.5934 105.579 87.5654C105.598 87.5187 106.727 83.9721 104.123 81.6387C103.768 81.3121 103.33 81.0134 102.816 80.7521C100.306 79.4734 97.3563 77.8214 94.2482 76.0761C94.2389 76.0761 94.2202 76.0667 94.2202 76.0574C94.2202 76.0574 94.2296 76.0481 94.2389 76.0387C94.5189 75.4881 95.2842 75.1801 96.3389 75.1801C97.5243 75.1894 98.9336 75.5627 100.296 76.2534C101.659 76.9441 102.788 77.8587 103.488 78.8294C104.104 79.6881 104.3 80.4907 104.03 81.0414C103.918 81.2467 103.974 81.4987 104.132 81.6481C104.16 81.6761 104.207 81.7041 104.244 81.7227C104.319 81.7601 104.403 81.7787 104.478 81.7787C104.664 81.7787 104.842 81.6761 104.935 81.4987C105.402 80.5934 105.178 79.4267 104.319 78.2321C103.74 77.4294 102.91 76.6734 101.92 76.0201H110.6C111.272 76.0294 113.876 76.2161 115.631 77.9334V77.9241ZM101.986 95.0507C101.986 93.9494 102.882 93.0534 103.992 93.0534C105.103 93.0534 105.99 93.9494 105.99 95.0507C105.99 96.1521 105.094 97.0574 103.992 97.0574C102.891 97.0574 101.986 96.1614 101.986 95.0507ZM104.226 87.6121L78.8016 73.8267C79.4922 73.3787 80.2109 73.0521 80.9762 72.8374C85.0922 71.6614 88.9189 74.2654 88.9562 74.2934C88.9749 74.2934 88.9842 74.3121 89.0029 74.3214C90.5802 75.1894 92.1856 76.0854 93.7629 76.9721C96.8802 78.7267 99.8389 80.3787 102.368 81.6761C105.682 83.3654 104.776 86.7814 104.646 87.2201L104.366 87.7241C104.366 87.7241 104.291 87.6494 104.235 87.6214L104.226 87.6121ZM105.084 46.4334C105.075 46.6014 105.056 46.7787 105.056 46.9467V51.9587C105.056 52.2387 105.28 52.4721 105.57 52.4721C105.607 52.4721 105.654 52.4721 105.7 52.4534C105.672 52.4721 105.644 52.5001 105.626 52.5187C105.084 52.9761 103.432 53.5454 102.751 53.7507L98.2149 53.7694L105.084 46.4334ZM85.6896 58.5481C85.5776 56.6161 87.0522 54.9547 88.9562 54.8427L102.826 54.7681C102.872 54.7681 102.919 54.7681 102.966 54.7494C103.218 54.6747 105.458 53.9934 106.279 53.2841C107.604 52.1454 112.626 47.1334 112.84 46.9187C113.036 46.7227 113.036 46.3961 112.84 46.2001C112.747 46.0974 112.616 46.0507 112.486 46.0507C112.355 46.0507 112.224 46.0974 112.122 46.2001C112.075 46.2467 107.782 50.5307 106.046 52.1267C106.064 52.0707 106.074 52.0147 106.074 51.9494V46.9374C106.074 46.4614 106.12 46.0041 106.223 45.5747C106.587 43.9974 107.539 42.6534 108.911 41.8041C110.274 40.9454 111.898 40.6654 113.466 41.0294L115.538 41.5614C117.815 42.4667 118.627 44.0534 118.907 45.2294C119.364 47.1241 118.767 49.3361 117.395 50.8574L117.003 51.2867C114.418 54.1707 110.862 58.1094 108.556 59.9761C106.232 61.8521 101.883 61.7867 101.827 61.7867H98.6722C98.6069 61.7681 98.5416 61.7587 98.4669 61.7587H88.4149C87.8456 61.6281 87.3136 61.3574 86.8562 60.9561C86.1562 60.3307 85.7362 59.4721 85.6803 58.5481H85.6896ZM105.346 62.4494V64.6987H99.1389C99.0829 64.6987 99.0363 64.7174 98.9803 64.7267V62.8227H101.818C101.93 62.8227 103.516 62.8414 105.346 62.4494ZM68.3296 67.5454V62.7761H88.3029C88.5829 62.8321 88.8722 62.8601 89.1616 62.8601C89.2549 62.8601 89.3389 62.8601 89.4229 62.8601L97.9536 62.8321V73.8921C97.9536 74.1721 98.1776 74.4054 98.4669 74.4054C98.7562 74.4054 98.9803 74.1814 98.9803 73.8921V65.6881C99.0269 65.7067 99.0736 65.7161 99.1389 65.7161H105.859C106.092 65.7161 106.298 65.5574 106.344 65.3334C106.363 65.2961 106.363 65.2494 106.363 65.2027V62.2721C106.363 62.2721 106.354 62.2161 106.344 62.1881C107.352 61.8894 108.379 61.4414 109.2 60.7787C111.44 58.9681 114.772 55.3001 117.339 52.4534V67.8067C117.339 67.8067 117.339 67.8254 117.339 67.8347C117.339 67.8347 117.339 67.8534 117.339 67.8627C117.339 67.8721 117.367 68.1427 117.376 68.5721C117.395 69.7201 117.246 72.0161 115.911 73.5187C115.043 74.4894 113.792 74.9841 112.187 74.9841H100.52C100.418 74.9841 100.315 75.0214 100.231 75.0774C98.8962 74.4707 97.5336 74.1441 96.3296 74.1441C94.8549 74.1441 93.8002 74.6481 93.3242 75.5534C92.0549 74.8347 90.7669 74.1254 89.4976 73.4254C89.1242 73.1641 85.1482 70.5694 80.6962 71.8387C77.4202 72.7721 74.7789 75.5347 72.8282 80.0521C72.7162 80.3134 72.8282 80.6121 73.0896 80.7241C73.3509 80.8361 73.6496 80.7241 73.7616 80.4627C74.9002 77.8121 76.2816 75.8147 77.8869 74.4801L103.731 88.4987C103.778 88.5267 103.824 88.5361 103.88 88.5547L99.9136 95.7694L73.4442 81.2001L72.0816 80.4534V68.0681C72.0816 67.7881 71.8576 67.5547 71.5682 67.5547H68.3296V67.5454ZM60.9376 74.3121C60.6856 74.1814 60.3776 74.2654 60.2469 74.5174C60.1163 74.7601 60.2002 75.0681 60.4429 75.2081L60.8722 75.4414C60.6202 75.5067 60.3402 75.4414 60.1629 75.2267C59.9016 74.9374 59.9296 74.4801 60.2282 74.2281C60.3589 74.1067 60.5176 74.0507 60.6949 74.0507C60.7136 74.0507 60.7229 74.0507 60.7416 74.0507C60.9376 74.0601 61.1056 74.1441 61.2269 74.2841C61.2922 74.3587 61.3389 74.4427 61.3669 74.5454L60.9376 74.3121Z" fill="#1B365D"/>
<path d="M104.132 81.6387C103.777 81.3213 103.339 81.0227 102.825 80.7613C100.315 79.4827 97.3652 77.8307 94.2572 76.0853C94.2479 76.0853 94.2292 76.076 94.2292 76.0667C94.2292 76.0667 94.2386 76.0573 94.2479 76.048C94.5279 75.4973 95.2933 75.1893 96.3479 75.1893C97.5333 75.1987 98.9426 75.572 100.305 76.2627C101.668 76.9533 102.797 77.868 103.497 78.8387C104.113 79.6973 104.309 80.5 104.039 81.0507C103.927 81.256 103.983 81.508 104.141 81.6573L104.132 81.6387Z" fill="#00AEC7"/>
<path d="M105.7 52.4534C105.7 52.4534 105.644 52.5 105.625 52.5187C105.084 52.976 103.432 53.5453 102.751 53.7507L98.2146 53.7694L105.084 46.4333C105.075 46.6013 105.056 46.7787 105.056 46.9467V51.9587C105.056 52.2387 105.28 52.472 105.569 52.472C105.607 52.472 105.653 52.472 105.7 52.4534Z" fill="#B4C2D7"/>
<path d="M117.404 50.8666L117.012 51.296C114.427 54.18 110.871 58.1186 108.566 59.9853C106.242 61.8613 101.892 61.796 101.836 61.796H98.6816C98.6162 61.7773 98.5509 61.768 98.4762 61.768H88.4242C87.8549 61.6373 87.3229 61.3666 86.8656 60.9653C86.1656 60.34 85.7456 59.4813 85.6896 58.5573C85.5776 56.6253 87.0522 54.964 88.9562 54.852L102.826 54.7773C102.872 54.7773 102.919 54.7773 102.966 54.7586C103.218 54.684 105.458 54.0026 106.279 53.2933C107.604 52.1546 112.626 47.1426 112.84 46.928C113.036 46.732 113.036 46.4053 112.84 46.2093C112.747 46.1066 112.616 46.06 112.486 46.06C112.355 46.06 112.224 46.1066 112.122 46.2093C112.075 46.256 107.782 50.54 106.046 52.136C106.064 52.08 106.074 52.024 106.074 51.9586V46.9466C106.074 46.4706 106.12 46.0133 106.223 45.584C106.587 44.0066 107.539 42.6626 108.911 41.8133C110.274 40.9546 111.898 40.6746 113.466 41.0386L115.538 41.5706C117.815 42.476 118.627 44.0626 118.907 45.2386C119.364 47.1333 118.767 49.3453 117.395 50.8666H117.404Z" fill="#B4C2D7"/>
<path d="M105.98 95.0507C105.98 96.152 105.084 97.0573 103.983 97.0573C102.881 97.0573 101.976 96.1613 101.976 95.0507C101.976 93.94 102.872 93.0533 103.983 93.0533C105.093 93.0533 105.98 93.9493 105.98 95.0507Z" fill="#F7F7F7"/>
<path d="M104.627 87.2106L104.347 87.7146C104.347 87.7146 104.272 87.64 104.216 87.612L78.792 73.8266C79.4827 73.3786 80.2013 73.052 80.9667 72.8373C85.0827 71.6613 88.9093 74.2653 88.9467 74.2933C88.9653 74.2933 88.9747 74.312 88.9933 74.3213C90.5707 75.1893 92.176 76.0853 93.7533 76.972C96.8707 78.7266 99.8293 80.3786 102.359 81.676C105.672 83.3653 104.767 86.7813 104.636 87.22L104.627 87.2106Z" fill="#00AEC7"/>
<path d="M103.89 88.564L99.9229 95.7787L73.4536 81.2093L73.7803 80.4813C74.919 77.8307 76.3003 75.8333 77.9056 74.4987L103.75 88.5173C103.796 88.5453 103.843 88.5547 103.899 88.5733L103.89 88.564Z" fill="#00AEC7"/>
<path d="M109.545 38.7053C110.143 38.8453 110.749 38.9106 111.347 38.9106C112.821 38.9106 114.277 38.4999 115.556 37.6973C117.357 36.5679 118.617 34.8039 119.093 32.7319C119.569 30.6599 119.215 28.5226 118.085 26.7213C116.956 24.9199 115.192 23.6599 113.12 23.1839C108.845 22.2039 104.561 24.8826 103.581 29.1573C102.601 33.4319 105.28 37.7159 109.555 38.6959L109.545 38.7053ZM104.561 29.3906C105.42 25.6573 109.144 23.3239 112.877 24.1826C116.611 25.0413 118.944 28.7746 118.085 32.4986C117.227 36.2319 113.493 38.5653 109.769 37.7066C106.036 36.8479 103.703 33.1146 104.561 29.3906Z" fill="#1B365D"/>
<path d="M123.611 110.143C123.658 110.171 123.714 110.18 123.76 110.18C123.807 110.18 123.863 110.171 123.91 110.143L127.354 108.155C127.447 108.099 127.503 107.996 127.503 107.893C127.503 107.791 127.447 107.679 127.354 107.632L123.91 105.644C123.816 105.588 123.695 105.588 123.602 105.644C123.508 105.7 123.452 105.803 123.452 105.905V107.585H69.907C69.739 107.585 69.599 107.725 69.599 107.893C69.599 108.061 69.739 108.201 69.907 108.201H123.452V109.881C123.452 109.993 123.508 110.096 123.602 110.143H123.611ZM124.068 108.201H126.066L124.068 109.349V108.201ZM124.068 106.437L126.066 107.585H124.068V106.437Z" fill="#1B365D"/>
</svg>
