<?xml version="1.0" encoding="UTF-8"?>
<svg id="Capa_1" xmlns="http://www.w3.org/2000/svg" version="1.1" viewBox="0 0 276 111">
    <!-- Generator: Adobe Illustrator 29.1.0, SVG Export Plug-In . SVG Version: 2.1.0 Build 142)  -->
    <defs>
        <style>
            .st0 {
                fill: #25303b;
            }
        </style>
    </defs>
    <g id="EMPRESA_x5F_AGENCIAS">
        <g>
            <g>
                <path class="st0"
                    d="M85.9,40.1c.3-.6.2-1.2.4-1.8,1.1-4.3,3.9-6.8,8-8.1,2.7-.8,5.4-.9,8.2-.7,2.8.2,5.6.8,8.3,1.8.4.1.5.3.5.8-.4,2.3-.7,4.6-1,6.9-1.1-.3-2.1-.6-3.2-.8-2.8-.7-5.5-1-8.4-.7-.9.1-1.8.3-2.7.8-1.8,1-2.2,3.8-.4,5.2,1,.8,2.2,1.3,3.4,1.7,2.3.9,4.8,1.6,7,2.7,2,1,3.8,2.2,5,4.2,1.1,1.7,1.6,3.7,1.6,5.7,0,2.9-.6,5.6-2.5,8-1.8,2.3-4.3,3.6-7.1,4.2-1,.2-2,.4-3.1.5,0,0-.2,0-.2,0h-3.7c-.6-.2-1.3-.2-1.9-.2-2.8-.4-5.4-1.2-8-2.4-.3-.2-.5-.3-.4-.8.4-2.3.7-4.7,1.1-7.1.3,0,.5.2.7.3,3.5,1.7,7.2,2.7,11.1,2.5,1.1,0,2.1-.2,3.1-.7,2-.9,2.9-3.4,1.8-5.2-.5-.7-1.2-1.2-1.9-1.6-1.6-.9-3.4-1.4-5.1-2-2.2-.8-4.3-1.6-6.2-2.9-1.2-.8-2.2-1.8-3-3-.4-.8-.8-1.5-1-2.4-.3-1.3-.6-2.7-.4-4,0-.2,0-.4,0-.6" />
                <path class="st0"
                    d="M268.9,30.2c-.5,2-1,4-1.5,6.1-.1.5-.3,1-.4,1.5,0,.3-.2.4-.5.4-3,0-6,0-9,0-.4,0-.5,0-.5.5,0,10.1,0,20.3,0,30.4s0,.6-.6.6h-7.9c-.4,0-.5,0-.5-.5,0-10.2,0-20.3,0-30.5,0-.4,0-.5-.5-.5-3,0-5.9,0-8.9,0-.4,0-.5,0-.6-.4-.6-2.4-1.2-4.8-1.8-7.1-.1-.4,0-.4.4-.4h24.9c2.5,0,5,0,7.4,0h0c0,0,0,.1,0,.1Z" />
                <path class="st0"
                    d="M151,45.2c-.3,0-.2.2-.3.4-2.9,7.9-6.2,15.7-9.3,23.6-.1.3-.3.4-.6.4-1.7,0-3.4,0-5.1,0-.2,0-.4,0-.5-.3-2.8-7-5.6-14.1-8.3-21.2-.4-1-.7-1.9-1.1-3-.1.3,0,.6,0,.9,0,7.7,0,15.5,0,23.2,0,.3,0,.4-.4.4-2.4,0-4.8,0-7.1,0-.3,0-.4-.1-.4-.4V30.5c0-.3,0-.4.4-.4,3,0,6,0,9,0,.3,0,.5.1.6.4,3.4,8.8,7,17.5,10.4,26.3,0,.1,0,.3.2.3.1,0,.1-.2.2-.3,3-8,6.3-16,9.5-24,.3-.8.7-1.6,1-2.4,0-.2.2-.3.5-.3,3,0,6,0,9.1,0,.4,0,.4.1.4.5v38.7c0,.3,0,.4-.4.4-2.5,0-4.9,0-7.4,0-.3,0-.4,0-.4-.4,0-7.2,0-14.4,0-21.6,0-.6,0-1.3,0-1.9v-.5" />
                <path class="st0"
                    d="M227.8,53.1c3.1,5.5,6.1,11,9.2,16.4-.2,0-.3,0-.5,0h-9.5c-.3,0-.5,0-.6-.4-2.2-4.7-4.4-9.3-6.6-14-.1-.3-.3-.4-.6-.4-1.6,0-3.1,0-4.7,0-.4,0-.5,0-.5.5,0,4.6,0,9.2,0,13.8,0,.4,0,.5-.5.5-2.7,0-5.3,0-8,0-.3,0-.4,0-.4-.4,0-12.9,0-25.7,0-38.6,0-.4,0-.5.5-.5,5.1,0,10.2,0,15.3,0,2.3,0,4.6.4,6.8,1.3,3.4,1.3,5.5,3.8,6.2,7.3.6,2.7.6,5.3-.2,8-.9,3.2-2.8,5.4-6.1,6.5M214.1,42.8v5c0,.3,0,.4.4.4.9,0,1.9,0,2.8,0,1.3,0,2.7,0,4,0,2-.2,3.2-1.2,3.6-3,.3-1.5.3-3,0-4.5-.3-1.5-1.2-2.5-2.7-2.8-.7-.2-1.3-.2-2-.2-1.9,0-3.8,0-5.7,0-.3,0-.4,0-.4.4,0,1.7,0,3.3,0,5" />
                <path class="st0"
                    d="M201.1,69.6h-9.5c-.4,0-.5-.1-.6-.4-.6-2.3-1.3-4.6-1.9-6.9,0-.3-.2-.4-.6-.4h-13.5c-.3,0-.5,0-.6.4-.6,2.3-1.3,4.6-2,7,0,.2-.1.3-.4.3h-9.1c.3-.9.6-1.8.9-2.7,3.6-10.4,7.2-20.8,10.8-31.3.6-1.7,1.2-3.5,1.8-5.2,0-.3.2-.4.5-.4,3.3,0,6.6,0,9.9,0,.2,0,.4,0,.4.3,1.9,5.5,3.8,10.9,5.7,16.3,2.6,7.5,5.2,15,7.9,22.5,0,.1,0,.3.1.4M182.1,36.8h-.1c-1.5,5.9-3.4,11.7-5,17.7h8.7c.4,0,1.1.1,1.2,0,.2-.3-.1-.8-.2-1.2-1.2-4.5-2.5-9.1-3.8-13.6-.3-.9-.5-1.8-.7-2.8" />
                <path class="st0"
                    d="M43.7,8.8c0,.1.1.1.2.1,1.8.7,2.7,2.1,2.4,4-.3,2.4-.5,4.8-.8,7.2-.3,2.6-.6,5.3-.9,7.9-.2,2.2-.5,4.5-.8,6.8-.3,2.5-.7,4.9-1,7.4-.3,2.7-.8,5.3-1.6,7.9-1,3.4-2.4,6.5-4.8,9.2-3,3.4-6.9,5-11.4,4.8-4.3-.2-8.2-1.5-11.7-4-3.4-2.5-5.4-5.8-6.1-9.9-.2-.9-.3-1.8.3-2.7.8-1.3,2.4-1.9,3.8-1.4.9.3,1.4,1,1.7,1.9.2.7.3,1.4.5,2,1.1,3.3,3.3,5.3,6.4,6.6,2.1.8,4.2,1.2,6.5,1,2.9-.3,5.1-1.9,6.7-4.3,1.5-2.3,2.3-4.8,2.8-7.5.7-4.3,1.2-8.6,1.6-12.9.3-2.7.6-5.4.9-8.1.3-3.1.6-6.1.9-9.2.1-1.2.2-2.4.3-3.6.2-1.6,1.2-2.7,2.8-3.1,0,0,0,0,.1,0h1.4,0Z" />
                <path class="st0"
                    d="M85.9,40.1c.2.2,0,.4,0,.6-.1,1.4,0,2.7.4,4,.2.9.7,1.6,1,2.4-1.5,2.6-3.4,5-6,6.7-2.2,1.3-4.5,1.9-7,1.5-2.6-.4-4.4-1.9-5.6-4.2-.3-.7-.6-1.4-.9-2.1-.7.7-1.3,1.3-2.1,1.9-2.1,1.7-4.4,3.1-7.1,3.7-4.7,1-8.9-1.2-10.7-5.8-.4-1-.7-2-.8-3.1,0-.2-.1-.4-.3-.5-1.6-1.1-1.5-3.4.2-4.3.3-.2.4-.3.5-.7.7-2.8,1.9-5.3,4-7.3,1.6-1.6,3.6-2.5,5.9-2.6,2.6,0,4.6,1.7,4.8,4.3.3,3.2-.8,5.8-3,8-1.8,1.9-4,3.1-6.6,3.4-.2,0-.3,0-.2.3.7,1.8,1.9,3.2,4,3.4,2.6.2,4.7-.9,6.6-2.5,1.4-1.2,2.5-2.7,3.6-4.2,0-.1.2-.3.2-.5,0-2.9.5-5.8,1-8.7.4-2.3.8-4.7,1.2-7,0-.4,0-.4-.4-.4-2.8,0-5.5,0-8.3,0-.5,0-.9,0-1.4,0-1.3,0-2.3-1.1-2.3-2.4s1-2.4,2.3-2.4c2.8,0,5.6,0,8.4-.1.8,0,1.5,0,2.3,0s.3,0,.3-.3c.4-2,.9-3.9,1.4-5.9.3-1.3,1.6-2.2,2.9-2.1,1.3.1,2.4,1.1,2.5,2.5,0,1.1-.2,2.2-.3,3.2,0,.7-.2,1.4-.3,2.1,0,.4,0,.5.4.5,3.5,0,6.9,0,10.4,0,.8,0,1.5,0,2.2.5.8.5,1.2,1.1,1.1,2.1s-.6,1.5-1.3,1.9c-.9.5-1.9.5-2.9.5-3.4,0-6.8,0-10.2,0-.4,0-.6.1-.7.5-.8,4.4-1.8,8.7-2.5,13.2-.4,2.6-.2,5.1.7,7.6,0,.2.2.5.3.7.7,1.5,1.7,2,3.3,1.6,1.5-.3,2.7-1.2,3.7-2.3,1.7-1.8,2.9-3.9,4.1-6,.3-.6.6-1.2.9-1.7M53.1,41.3c1.9,0,4.2-1.9,4.7-3.9.2-.8,0-1.4-.3-2.1-.2-.4-.5-.5-.9-.4-.5.1-1,.3-1.4.7-1.5,1.3-2.3,3-2.7,5-.2.7-.1.7.6.7" />
            </g>
            <g>
                <path class="st0"
                    d="M47.1,97.5h-8.1l-1.4,4.3h-4l7.2-20.1h4.5l7.3,20.1h-4.2s-1.3-4.3-1.3-4.3ZM42.4,86.5l-2.5,7.9h6.2l-2.4-7.9-.6-2.1h0l-.6,2.1h0Z" />
                <path class="st0"
                    d="M83.3,101c-1.5.7-3.8,1.1-6,1.1-6.7,0-9.4-3.4-9.4-10.4s2.9-10.5,9.6-10.5,4,.4,5.5.9l-.4,3.3c-1.4-.6-3.2-.9-4.9-.9-4.3,0-5.8,1.6-5.8,7.1s1.4,7,5.4,7,2-.1,2.8-.4v-7.3h3.3v10h0Z" />
                <path class="st0" d="M114.2,98.5v3.3h-13.5v-20.1h13v3.3c0,0-9.3,0-9.3,0v4.8h7.9v3h-7.9v5.6h9.8Z" />
                <path class="st0"
                    d="M144.4,101.8l-8.7-12.3-1.2-1.8h0s0,2.2,0,2.2v11.9h-3.3v-20.1h3.3l8.1,11.8,1.2,1.8h0s0-2.2,0-2.2v-11.4h3.3v20.1h-2.6,0Z" />
                <path class="st0"
                    d="M177.8,85.4c-1.1-.4-2.6-.7-4.1-.7-4,0-5.5,1.7-5.5,6.9s1.6,7.2,5.5,7.2,2.9-.3,4.1-.9l.4,3.1c-1.3.6-3.3,1.1-5,1.1-6.1,0-9-3.3-9-10.6s2.9-10.2,9.2-10.2,3.6.4,4.7.9l-.4,3.2h0Z" />
                <path class="st0" d="M195.4,81.7h3.8v20.1h-3.8v-20.1Z" />
                <path class="st0"
                    d="M229.1,97.5h-8.1l-1.4,4.3h-4l7.2-20.1h4.5l7.3,20.1h-4.2l-1.3-4.3h0ZM224.4,86.5l-2.5,7.9h6.2l-2.4-7.9-.6-2.1h0l-.6,2.1h0Z" />
                <path class="st0"
                    d="M255.9,102.2c-2.3,0-4.4-.6-6.1-1.5l.5-3.3c1.7,1,3.5,1.5,5.6,1.5s3.7-1,3.7-2.7c0-3.8-9.7-2.2-9.7-8.9s2.1-5.9,7.1-5.9,4,.4,5.6,1.1l-.5,3.2c-1.7-.6-3.3-.9-4.9-.9-2.8,0-3.6,1.1-3.6,2.4,0,3.7,9.7,2,9.7,8.8s-2.7,6.3-7.3,6.3h0Z" />
            </g>
        </g>
    </g>
</svg>