<?xml version="1.0" encoding="UTF-8"?>
<svg id="Capa_2" xmlns="http://www.w3.org/2000/svg" version="1.1" viewBox="0 0 653.7 248.6">
    <!-- Generator: Adobe Illustrator 29.1.0, SVG Export Plug-In . SVG Version: 2.1.0 Build 142)  -->
    <defs>
        <style>
            .st0 {
                fill: #25303b;
            }

            .st1 {
                isolation: isolate;
            }
        </style>
    </defs>
    <path class="st0"
        d="M196.1,77.7c.7-1.4.6-3,1-4.6,2.7-10.6,9.7-17,20-20.1,6.7-2,13.6-2.3,20.5-1.8,7,.5,13.9,1.9,20.6,4.4,1,.4,1.4.7,1.2,1.9-.9,5.7-1.7,11.4-2.6,17.2-2.7-.7-5.3-1.5-7.9-2.1-6.9-1.6-13.8-2.5-20.9-1.7-2.3.3-4.5.8-6.6,2-4.4,2.4-5.5,9.3-1,12.9,2.5,2,5.4,3.2,8.4,4.3,5.8,2.2,11.9,3.9,17.5,6.6,5,2.5,9.4,5.6,12.5,10.3,2.8,4.3,3.9,9.1,4,14.2,0,7.3-1.6,14-6.2,19.8-4.6,5.7-10.7,8.9-17.7,10.5-2.5.6-5.1,1-7.7,1.2-.2,0-.4,0-.5.2h-9.1c-1.5-.4-3.1-.4-4.7-.6-6.9-1-13.6-3-19.9-6.1-.9-.4-1.1-.9-1-1.9,1-5.9,1.8-11.7,2.7-17.6.7,0,1.2.5,1.8.8,8.7,4.3,17.9,6.7,27.7,6.2,2.6-.1,5.2-.6,7.6-1.6,5-2.3,7.2-8.5,4.5-12.8-1.1-1.8-2.9-3-4.7-4-4-2.2-8.4-3.5-12.7-5.1-5.4-1.9-10.7-4-15.5-7.3-3-2.1-5.4-4.6-7.5-7.6-.9-2-2-3.9-2.5-6-.9-3.3-1.4-6.6-1.1-10.1,0-.5.2-1.1-.1-1.5" />
    <path class="st0"
        d="M651.7,53c-1.3,5-2.6,10.1-3.9,15.1-.3,1.2-.7,2.4-.9,3.6-.2.8-.5.9-1.2.9-7.5,0-14.9,0-22.4,0-1,0-1.3.2-1.3,1.3,0,25.2,0,50.5,0,75.7s0,1.5-1.5,1.5c-6.5,0-13,0-19.5,0-1,0-1.3-.2-1.3-1.2,0-25.3,0-50.6,0-75.9,0-1.1-.2-1.4-1.3-1.4-7.4,0-14.7,0-22.1,0-.9,0-1.2-.2-1.5-1.1-1.5-5.9-2.9-11.9-4.5-17.8-.3-1,0-1.1.9-1.1,20.6,0,41.2,0,61.8,0,6.2,0,12.3,0,18.5,0v.2h0Z" />
    <path class="st0"
        d="M358.2,90.3c-.6.2-.6.6-.7.9-7.3,19.7-15.5,39.2-23.1,58.8-.3.8-.7,1.1-1.6,1.1-4.2,0-8.5,0-12.7,0-.6,0-.9-.1-1.2-.8-6.9-17.5-13.8-35.1-20.7-52.6-.9-2.4-1.8-4.8-2.8-7.4-.3.8-.2,1.5-.2,2.1.2,19.2,0,38.5.1,57.7,0,.7-.2.9-.9.9-5.9,0-11.8,0-17.7,0-.8,0-.9-.3-.9-1,0-32.1,0-64.3,0-96.4,0-.8.2-1.1,1-1.1,7.4,0,14.9,0,22.3,0,.8,0,1.2.3,1.5,1,8.6,21.8,17.5,43.5,25.8,65.4.1.3,0,.8.5.8.3,0,.3-.5.4-.7,7.5-20,15.8-39.8,23.6-59.7.8-2,1.6-4,2.4-6,.2-.6.5-.8,1.2-.8,7.5,0,15,0,22.5,0,1,0,1.1.3,1.1,1.2,0,29.6,0,59.2,0,88.8s0,5,0,7.6c0,.7-.2.9-.9.9-6.1,0-12.3,0-18.4,0-.8,0-.9-.2-.9-1,0-17.9,0-35.9,0-53.8,0-1.6.1-3.2.2-4.8,0-.4,0-.8,0-1.2" />
    <path class="st0"
        d="M549.2,110.1c7.6,13.7,15.2,27.3,22.9,40.9-.4.3-.8.1-1.2.1-7.8,0-15.7,0-23.5,0-.8,0-1.2-.2-1.5-.9-5.4-11.6-10.9-23.3-16.3-34.9-.3-.7-.7-.9-1.4-.9-3.9,0-7.8,0-11.8,0-.9,0-1.2.3-1.1,1.2,0,11.5,0,22.9,0,34.4,0,1-.2,1.2-1.2,1.2-6.6,0-13.3,0-19.9,0-.8,0-1.1-.2-1.1-1.1,0-32,0-64,0-96,0-1,.2-1.3,1.3-1.3,12.7,0,25.4,0,38.1,0,5.8,0,11.5,1,17,3.1,8.4,3.3,13.6,9.4,15.4,18.2,1.4,6.6,1.4,13.2-.5,19.8-2.2,7.9-7,13.4-15.1,16.1M515.2,84.5c0,4.2,0,8.3,0,12.5,0,.7.2,1,.9,1,2.3,0,4.7,0,7,0,3.3,0,6.7.2,10-.2,5-.6,8-3.1,8.9-7.6.8-3.7.8-7.5,0-11.2-.8-3.8-3-6.1-6.8-7.1-1.6-.4-3.3-.6-5-.6-4.7,0-9.4,0-14.2,0-.8,0-1,.2-1,1,0,4.1,0,8.2,0,12.3" />
    <path class="st0"
        d="M482.9,151.2h-1.2c-7.5,0-14.9,0-22.4,0-.9,0-1.1-.3-1.4-1.1-1.6-5.7-3.3-11.4-4.9-17.1-.2-.8-.6-1.1-1.4-1.1-11.2,0-22.3,0-33.5,0-.8,0-1.1.2-1.4,1-1.6,5.8-3.3,11.5-5,17.3-.1.5-.3.9-.9.9-7.5,0-15,0-22.7,0,.8-2.3,1.6-4.6,2.3-6.8,9-25.9,17.9-51.8,26.9-77.8,1.5-4.3,3-8.6,4.4-12.9.2-.7.5-.9,1.2-.9,8.2,0,16.5,0,24.7,0,.5,0,.9,0,1.1.7,4.7,13.6,9.5,27.1,14.2,40.7,6.5,18.6,13,37.3,19.6,55.9.1.3.2.6.3,1.1M435.5,69.5h-.4c-3.8,14.7-8.4,29.2-12.5,44h21.6c1.1,0,2.7.3,3-.2.5-.7-.3-2-.6-3.1-3.1-11.3-6.3-22.5-9.4-33.8-.6-2.3-1.2-4.6-1.8-6.9" />
    <path class="st0"
        d="M91.2,0c0,.3.3.3.5.4,4.5,1.6,6.7,5.3,6.1,10-.7,6-1.3,12-2,17.9-.7,6.5-1.5,13.1-2.2,19.6-.6,5.6-1.2,11.2-1.9,16.8-.8,6.2-1.7,12.3-2.5,18.4-.8,6.7-2,13.2-3.9,19.7-2.6,8.4-6.1,16.2-11.9,22.9-7.6,8.5-17.1,12.4-28.5,11.8-10.7-.6-20.5-3.6-29.2-10-8.4-6.1-13.4-14.4-15.3-24.6-.4-2.3-.6-4.6.6-6.8,1.9-3.2,5.9-4.7,9.4-3.5,2.3.8,3.5,2.6,4.1,4.7.5,1.7.8,3.4,1.4,5.1,2.6,8.1,8.3,13.3,16,16.4,5.2,2.1,10.5,3.1,16.1,2.4,7.3-.8,12.6-4.7,16.6-10.7,3.8-5.7,5.8-12.1,6.9-18.7,1.7-10.6,2.9-21.3,4-32.1.7-6.7,1.5-13.4,2.2-20.1.8-7.6,1.4-15.2,2.2-22.9.3-3,.5-5.9.8-8.9.4-4.1,2.9-6.8,6.9-7.8,0,0,.2-.1.3-.2h3.4Z" />
    <path class="st0"
        d="M196.1,77.7c.4.5.2,1,.1,1.5-.3,3.4.2,6.8,1.1,10.1.6,2.2,1.6,4.1,2.5,6-3.8,6.5-8.4,12.5-14.9,16.6-5.4,3.3-11.2,4.7-17.5,3.8-6.5-1-10.9-4.8-13.8-10.4-.9-1.6-1.5-3.4-2.2-5.3-1.7,1.7-3.3,3.3-5.1,4.8-5.2,4.3-11,7.7-17.7,9.2-11.8,2.5-22.2-3.1-26.6-14.3-1-2.5-1.6-5.1-2-7.7,0-.6-.3-.9-.8-1.2-4.1-2.7-3.8-8.5.5-10.7.8-.4,1.1-.9,1.3-1.7,1.8-6.9,4.8-13.2,9.9-18.2,4.1-4,8.9-6.3,14.7-6.4,6.6,0,11.3,4.2,12.1,10.7.9,7.9-2,14.4-7.4,20-4.5,4.7-10,7.7-16.5,8.5-.5,0-.7.2-.5.8,1.6,4.6,4.6,8,10,8.3,6.4.4,11.8-2.1,16.5-6.2,3.5-3,6.3-6.6,8.9-10.4.2-.4.4-.7.4-1.2-.2-7.3,1.1-14.5,2.4-21.6,1-5.8,2-11.6,3.1-17.4.2-1-.1-1-.9-1.1-6.9,0-13.8-.2-20.7-.2-1.1,0-2.3,0-3.4,0-3.2,0-5.8-2.7-5.8-5.9,0-3.2,2.5-5.8,5.7-5.9,7-.1,14-.2,21-.3,1.9,0,3.8,0,5.7-.1.6,0,.8-.2.9-.8,1.1-4.9,2.2-9.8,3.4-14.7.8-3.2,3.9-5.4,7.2-5.2,3.3.3,5.9,2.9,6.2,6.1.2,2.7-.5,5.4-.8,8.1-.2,1.8-.5,3.5-.8,5.3-.2.9,0,1.3,1.1,1.3,8.6-.1,17.3-.2,25.9-.2,1.9,0,3.7.2,5.4,1.3,1.9,1.2,3,2.8,2.8,5.1-.1,2.3-1.4,3.8-3.4,4.8-2.3,1.1-4.7,1.3-7.2,1.3-8.5,0-16.9,0-25.4,0-1.1,0-1.5.3-1.7,1.4-2.1,10.9-4.4,21.8-6.1,32.8-1,6.4-.4,12.8,1.7,18.9.2.6.4,1.1.7,1.7,1.8,3.8,4.1,4.9,8.2,4,3.8-.8,6.7-3,9.3-5.7,4.2-4.4,7.3-9.6,10.1-15,.7-1.4,1.6-2.9,2.3-4.3M114.5,80.8c4.8,0,10.5-4.8,11.7-9.7.5-1.9,0-3.5-.9-5.1-.5-.9-1.3-1.2-2.3-1-1.3.3-2.4.8-3.4,1.7-3.8,3.3-5.6,7.6-6.6,12.3-.4,1.8-.3,1.8,1.6,1.7" />
    <g class="st1">
        <path class="st0"
            d="M229.5,224.8l-.2,8.2h-33.2v-49.8h32.2v8.3c.1,0-22.9,0-22.9,0v12h19.6v7.5h-19.6v13.8h24.1Z" />
        <path class="st0"
            d="M262.8,183.2l12.9,31.7,1.9,5h.2l1.9-5,13-31.7h10.3v49.8h-8.4v-34.1c.1,0,0,0,0,0l-1.9,5-11.8,29.1h-6.3l-11.7-29.1-1.9-5h-.1c0,0,0,5.4,0,5.4v28.7h-8.2v-49.8h10.3Z" />
        <path class="st0"
            d="M346.3,215.6h-8.2v17.3h-9.3v-49.8h17.4c13.2,0,18.6,5.2,18.6,16.5s-5.4,16-18.6,16ZM346.3,191h-8.2v17.1h8.2c6.2,0,9.1-1.7,9.1-8.6s-2.6-8.6-9.1-8.6Z" />
        <path class="st0"
            d="M413.9,211.6l12.4,21.4h-10.9l-9.9-19.6h-8.6v19.6h-9.3v-49.8h17.8c11.8,0,17.5,4.7,17.5,14.9s-3.2,12.1-9.1,13.5ZM405.6,191h-8.6v15.3h8.3c5.7,0,8.1-1.9,8.1-7.8s-2.3-7.4-7.8-7.4Z" />
        <path class="st0"
            d="M480.9,224.8l-.2,8.2h-33.2v-49.8h32.2v8.3c.1,0-22.9,0-22.9,0v12h19.6v7.5h-19.6v13.8h24.1Z" />
    </g>
    <g class="st1">
        <path class="st0"
            d="M516.9,233.9c-5.8,0-11-1.4-15.2-3.7l1.3-8.2c4.2,2.4,8.7,3.7,13.8,3.7s9.1-2.5,9.1-6.8c0-9.4-23.9-5.3-23.9-22s5.3-14.7,17.4-14.7,10,1,13.7,2.7l-1.2,7.9c-4.1-1.5-8-2.3-12.1-2.3-6.8,0-9,2.7-9,5.9,0,9.1,23.9,4.9,23.9,21.8s-6.6,15.5-18,15.5Z" />
    </g>
    <g class="st1">
        <path class="st0"
            d="M585,222.3h-20.1l-3.4,10.7h-9.9l17.9-49.8h11.1l18,49.8h-10.4l-3.3-10.7ZM573.4,195l-6.1,19.5h15.3l-6-19.5-1.4-5.2h-.2l-1.5,5.2Z" />
    </g>
    <g class="st1">
        <path class="st0"
            d="M632.5,233.9c-5.8,0-11-1.4-15.2-3.7l1.3-8.2c4.2,2.4,8.7,3.7,13.8,3.7s9.1-2.5,9.1-6.8c0-9.4-23.9-5.3-23.9-22s5.3-14.7,17.4-14.7,10,1,13.7,2.7l-1.2,7.9c-4.1-1.5-8-2.3-12.1-2.3-6.8,0-9,2.7-9,5.9,0,9.1,23.9,4.9,23.9,21.8s-6.6,15.5-18,15.5Z" />
    </g>
</svg>