<svg width="217" height="50" viewBox="0 0 217 50" fill="none" xmlns="http://www.w3.org/2000/svg">
<g clip-path="url(#clip0_31_417)">
<path d="M0.347778 50H49.913V0.326088H0.347778V50Z" fill="#C0272D"/>
<path d="M40.8913 42.5L42.5217 41.6304V43.3696C22.413 43.3696 6.10864 35.2174 6.10864 25.2174C6.10864 15.1087 22.413 6.95652 42.413 6.95652V8.69565L40.7826 7.71739C24.6956 8.26087 11.8695 15.8696 11.8695 25.1087C11.8695 34.4565 24.6956 42.0652 40.8913 42.5ZM41.8695 12.8261C40.1304 12.8261 38.3913 12.9348 36.7608 13.1522V24.3478H28.4999V16.3043L29.4782 14.6739C27.6304 15.2174 25.8913 15.9783 24.3695 16.7391V33.587C25.8913 34.3478 27.6304 35.1087 29.4782 35.6522L28.4999 34.0217V25.9783H36.7608V37.1739C38.3913 37.3913 40.1304 37.5 41.8695 37.5L40.8913 35.8696V14.4565L41.8695 12.8261Z" fill="white"/>
<path d="M177.522 12.8261H175.891V11.1956H177.522V12.8261ZM125.891 31.6304L126.87 33.2609H124.587V31.3043C123.283 32.6087 120.674 33.4783 118.5 33.4783C114.261 33.4783 111.87 31.3043 111.87 27.5C111.87 24.0217 114.261 21.6304 118.826 21.7391C120.674 21.7391 122.63 22.0652 124.37 23.1522C124.261 19.5652 122.304 17.6087 118.717 17.6087C116.217 17.6087 114.478 18.0435 113.174 19.1304L112.522 18.0435C114.152 16.8478 116.217 16.3043 118.826 16.3043C123.174 16.3043 125.674 18.913 125.674 23.4783V31.6304H125.891ZM124.478 24.5652C122.956 23.4783 120.674 23.1522 118.935 23.1522C115.13 23.1522 113.283 25 113.283 27.7174C113.283 30.6522 115.022 32.2826 118.609 32.2826C120.457 32.2826 123.174 31.413 124.478 30.2174V24.5652ZM97.6304 25.2174C97.5217 19.5652 95.6739 16.5217 90.2391 16.5217C88.0652 16.5217 86.1087 17.3913 84.6956 18.3696V12.9348L85.6739 11.3043H83.3913V33.3696H85.7826L84.8043 31.7391V19.5652C86.1087 18.587 88.1739 17.8261 90.0217 17.8261C94.8043 17.8261 96.2174 20.3261 96.2174 25.2174V33.3696H98.6087L97.6304 31.7391V25.2174ZM75.1304 17.8261C76.7608 17.8261 78.1739 18.2609 79.4782 19.2391L80.4565 18.2609C79.0435 17.0652 77.0869 16.413 75.1304 16.413C70.4565 16.413 66.5435 20.2174 66.5435 25C66.5435 29.7826 70.3478 33.587 75.1304 33.587C77.0869 33.587 78.9348 32.9348 80.4565 31.7391L79.4782 30.7609C78.2826 31.7391 76.8695 32.1739 75.1304 32.1739C71.1087 32.1739 67.9565 29.0217 67.9565 25C67.9565 20.9783 71.1087 17.8261 75.1304 17.8261ZM100.783 24.8913H109.696V23.587H100.783V24.8913ZM197.739 25C197.739 29.7826 193.935 33.587 189.152 33.587C184.37 33.587 180.565 29.7826 180.565 25C180.565 20.2174 184.37 16.413 189.152 16.413C193.935 16.5217 197.739 20.3261 197.739 25ZM196.326 25C196.326 20.9783 193.174 17.8261 189.152 17.8261C185.13 17.8261 181.978 20.9783 181.978 25C181.978 29.0217 185.13 32.1739 189.152 32.1739C193.174 32.2826 196.326 29.0217 196.326 25ZM178.174 16.7391H175.891V33.3696H178.174L177.196 31.7391V18.3696L178.174 16.7391ZM216.435 33.3696L215.456 31.7391V25.2174C215.456 19.5652 213.609 16.5217 208.174 16.5217C206 16.5217 203.935 17.3913 202.63 18.3696V16.7391H201.326V33.3696H203.609L202.63 31.7391V19.5652C203.935 18.587 206 17.8261 207.848 17.8261C212.63 17.8261 214.043 20.3261 214.043 25.2174V33.3696H216.435ZM169.152 12.8261H169.261L170.239 11.1956H167.848V16.7391H165.456V18.0435H167.848V33.3696H170.13L169.152 31.7391V18.0435H173.609V16.7391H169.152V12.8261ZM141 16.7391L134.804 31.7391L129.37 18.3696L130.348 16.7391H127.413L134.152 33.3696H137.196L136.217 31.7391L142.304 16.7391H141ZM163.5 31.6304L164.478 33.2609H162.196V31.3043C160.891 32.6087 158.283 33.4783 156.109 33.4783C151.87 33.4783 149.478 31.3043 149.478 27.5C149.478 24.0217 151.87 21.6304 156.435 21.7391C158.283 21.7391 160.239 22.0652 161.978 23.1522C161.87 19.5652 159.913 17.6087 156.326 17.6087C153.826 17.6087 152.087 18.0435 150.783 19.1304L150.13 18.0435C151.761 16.8478 153.717 16.3043 156.435 16.3043C160.891 16.3043 163.283 18.913 163.283 23.4783V31.6304H163.5ZM162.087 24.5652C160.565 23.4783 158.283 23.1522 156.543 23.1522C152.739 23.1522 150.891 25 150.891 27.7174C150.891 30.6522 152.63 32.2826 156.217 32.2826C158.065 32.2826 160.783 31.413 162.087 30.2174V24.5652ZM146.543 11.1956H144.913V12.8261H146.543V11.1956ZM147.304 16.7391H145.022V33.3696H147.304L146.326 31.7391V18.3696L147.304 16.7391Z" fill="black"/>
</g>
<defs>
<clipPath id="clip0_31_417">
<rect width="217" height="50" fill="white"/>
</clipPath>
</defs>
</svg>
